%FSTAX23Y23*%
%MOIN*%
%SFA1B1*%

%IPPOS*%
%ADD101C,0.007870*%
%ADD103C,0.010000*%
%ADD104C,0.000000*%
%ADD105C,0.006000*%
%ADD106C,0.005000*%
%ADD107C,0.003940*%
%ADD199C,0.001000*%
%LNtcs-1900-1*%
%LPD*%
G36*
X01872Y02619D02*
X01849D01*
Y02637*
X01872*
Y02619*
G37*
G36*
X02012Y03639D02*
X01994D01*
Y03662*
X02012*
Y03639*
G37*
G36*
X01872Y02545D02*
X01849D01*
Y02563*
X01872*
Y02545*
G37*
G36*
X01951Y02582D02*
X01928D01*
Y026*
X01951*
Y02582*
G37*
G36*
X01938Y03639D02*
X0192D01*
Y03662*
X01938*
Y03639*
G37*
G36*
X01937Y04008D02*
X01919D01*
Y04031*
X01937*
Y04008*
G37*
G36*
X02011D02*
X01993D01*
Y04031*
X02011*
Y04008*
G37*
G36*
X01975Y03718D02*
X01957D01*
Y03741*
X01975*
Y03718*
G37*
G36*
X01974Y03929D02*
X01956D01*
Y03952*
X01974*
Y03929*
G37*
G54D101*
X0199Y02103D02*
X01982D01*
X0199*
X02782Y02642D02*
X02774D01*
X02782*
X01852Y03775D02*
X01844D01*
X01852*
X02129Y01948D02*
X02122D01*
X02129*
X02729Y02771D02*
X02722D01*
X02729*
X01993Y0407D02*
X01987Y04078D01*
X01978Y04075*
Y04066*
X01987Y04063*
X01993Y0407*
X01807Y04072D02*
X01801Y0408D01*
X01792Y04077*
Y04068*
X01801Y04065*
X01807Y04072*
X02381Y035D02*
X02374D01*
X02381*
X02573Y02941D02*
X02565D01*
X02573*
X02314Y03307D02*
X02307D01*
X02314*
X02483Y04092D02*
X02475D01*
X02483*
X02776Y02571D02*
X02768D01*
X02776*
X02496Y02413D02*
X02488D01*
X02496*
X0259Y02164D02*
X02582D01*
X0259*
X01331Y03586D02*
X01323D01*
X01331*
X01206Y0383D02*
X01198D01*
X01206*
G54D103*
X02636Y04239D02*
Y04286D01*
X0266Y04309*
X02683Y04286*
Y04239*
Y04274*
X02636*
X02706Y04239D02*
Y04309D01*
X02753Y04239*
Y04309*
X02776D02*
X02823D01*
X028*
Y04239*
X02893Y04309D02*
X02846D01*
Y04239*
X02893*
X02846Y04274D02*
X0287D01*
X02916Y04239D02*
Y04309D01*
X02963Y04239*
Y04309*
X02986Y04239D02*
Y04309D01*
X03033Y04239*
Y04309*
X03056Y04239D02*
Y04286D01*
X0308Y04309*
X03103Y04286*
Y04239*
Y04274*
X03056*
G54D104*
X01576Y03446D02*
X01584Y0345D01*
X01588Y03458*
X01584Y03467*
X01576Y0347*
X0202Y02141D02*
X02017Y0215D01*
X02008Y02153*
X02Y0215*
X01996Y02141*
X01554Y0301D02*
X01562Y03014D01*
X01566Y03022*
X01562Y03031*
X01554Y03034*
X03159Y02069D02*
X03156Y02078D01*
X03147Y02081*
X03139Y02078*
X03135Y02069*
X01589Y03537D02*
X01607D01*
X01589D02*
Y0358D01*
X01607*
Y03537D02*
Y0358D01*
X01639Y03537D02*
X01657D01*
X01639D02*
Y0358D01*
X01657*
Y03537D02*
Y0358D01*
X01689Y03537D02*
X01707D01*
X01689D02*
Y0358D01*
X01707*
Y03537D02*
Y0358D01*
X01739Y03537D02*
X01757D01*
X01739D02*
Y0358D01*
X01757*
Y03537D02*
Y0358D01*
X01789Y03537D02*
X01807D01*
X01789D02*
Y0358D01*
X01807*
Y03537D02*
Y0358D01*
X01839Y03537D02*
X01857D01*
X01839D02*
Y0358D01*
X01857*
Y03537D02*
Y0358D01*
X01889Y03537D02*
X01907D01*
X01889D02*
Y0358D01*
X01907*
Y03537D02*
Y0358D01*
X01889Y03379D02*
X01907D01*
Y03336D02*
Y03379D01*
X01889Y03336D02*
X01907D01*
X01889D02*
Y03379D01*
X01839D02*
X01857D01*
Y03336D02*
Y03379D01*
X01839Y03336D02*
X01857D01*
X01839D02*
Y03379D01*
X01789D02*
X01807D01*
Y03336D02*
Y03379D01*
X01789Y03336D02*
X01807D01*
X01789D02*
Y03379D01*
X01739D02*
X01757D01*
Y03336D02*
Y03379D01*
X01739Y03336D02*
X01757D01*
X01739D02*
Y03379D01*
X01689D02*
X01707D01*
Y03336D02*
Y03379D01*
X01689Y03336D02*
X01707D01*
X01689D02*
Y03379D01*
X01639D02*
X01657D01*
Y03336D02*
Y03379D01*
X01639Y03336D02*
X01657D01*
X01639D02*
Y03379D01*
X01589D02*
X01607D01*
Y03336D02*
Y03379D01*
X01589Y03336D02*
X01607D01*
X01589D02*
Y03379D01*
X0192D02*
Y03537D01*
X01576Y03379D02*
X0192D01*
X01576D02*
Y03446D01*
Y0347*
Y03537*
X0192*
X01929Y02154D02*
Y02172D01*
X01886Y02154D02*
X01929D01*
X01886D02*
Y02172D01*
X01929*
Y02204D02*
Y02222D01*
X01886Y02204D02*
X01929D01*
X01886D02*
Y02222D01*
X01929*
Y02254D02*
Y02272D01*
X01886Y02254D02*
X01929D01*
X01886D02*
Y02272D01*
X01929*
Y02304D02*
Y02322D01*
X01886Y02304D02*
X01929D01*
X01886D02*
Y02322D01*
X01929*
Y02354D02*
Y02372D01*
X01886Y02354D02*
X01929D01*
X01886D02*
Y02372D01*
X01929*
Y02404D02*
Y02422D01*
X01886Y02404D02*
X01929D01*
X01886D02*
Y02422D01*
X01929*
Y02454D02*
Y02472D01*
X01886Y02454D02*
X01929D01*
X01886D02*
Y02472D01*
X01929*
X02087Y02454D02*
Y02472D01*
X0213*
Y02454D02*
Y02472D01*
X02087Y02454D02*
X0213D01*
X02087Y02404D02*
Y02422D01*
X0213*
Y02404D02*
Y02422D01*
X02087Y02404D02*
X0213D01*
X02087Y02354D02*
Y02372D01*
X0213*
Y02354D02*
Y02372D01*
X02087Y02354D02*
X0213D01*
X02087Y02304D02*
Y02322D01*
X0213*
Y02304D02*
Y02322D01*
X02087Y02304D02*
X0213D01*
X02087Y02254D02*
Y02272D01*
X0213*
Y02254D02*
Y02272D01*
X02087Y02254D02*
X0213D01*
X02087Y02204D02*
Y02222D01*
X0213*
Y02204D02*
Y02222D01*
X02087Y02204D02*
X0213D01*
X02087Y02154D02*
Y02172D01*
X0213*
Y02154D02*
Y02172D01*
X02087Y02154D02*
X0213D01*
X01929Y02485D02*
X02087D01*
Y02141D02*
Y02485D01*
X0202Y02141D02*
X02087D01*
X01996D02*
X0202D01*
X01929D02*
X01996D01*
X01929D02*
Y02485D01*
X01554Y03172D02*
X02066D01*
X01554Y03034D02*
Y03172D01*
Y0301D02*
Y03034D01*
Y02872D02*
Y0301D01*
Y02872D02*
X02066D01*
Y03172*
X01575Y02812D02*
Y02872D01*
Y02812D02*
X01595D01*
Y02872*
X01575D02*
X01595D01*
X01625Y02812D02*
Y02872D01*
Y02812D02*
X01645D01*
Y02872*
X01625D02*
X01645D01*
X01675Y02812D02*
Y02872D01*
Y02812D02*
X01695D01*
Y02872*
X01675D02*
X01695D01*
X01725Y02812D02*
Y02872D01*
Y02812D02*
X01745D01*
Y02872*
X01725D02*
X01745D01*
X01775Y02812D02*
Y02872D01*
Y02812D02*
X01795D01*
Y02872*
X01775D02*
X01795D01*
X01825Y02812D02*
Y02872D01*
Y02812D02*
X01845D01*
Y02872*
X01825D02*
X01845D01*
X01875Y02812D02*
Y02872D01*
Y02812D02*
X01895D01*
Y02872*
X01875D02*
X01895D01*
X01925Y02812D02*
Y02872D01*
Y02812D02*
X01945D01*
Y02872*
X01925D02*
X01945D01*
X01975Y02812D02*
Y02872D01*
Y02812D02*
X01995D01*
Y02872*
X01975D02*
X01995D01*
X02025Y02812D02*
Y02872D01*
Y02812D02*
X02045D01*
Y02872*
X02025D02*
X02045D01*
Y03172D02*
Y03232D01*
X02025D02*
X02045D01*
X02025Y03172D02*
Y03232D01*
Y03172D02*
X02045D01*
X01995D02*
Y03232D01*
X01975D02*
X01995D01*
X01975Y03172D02*
Y03232D01*
Y03172D02*
X01995D01*
X01945D02*
Y03232D01*
X01925D02*
X01945D01*
X01925Y03172D02*
Y03232D01*
Y03172D02*
X01945D01*
X01895D02*
Y03232D01*
X01875D02*
X01895D01*
X01875Y03172D02*
Y03232D01*
Y03172D02*
X01895D01*
X01845D02*
Y03232D01*
X01825D02*
X01845D01*
X01825Y03172D02*
Y03232D01*
Y03172D02*
X01845D01*
X01795D02*
Y03232D01*
X01775D02*
X01795D01*
X01775Y03172D02*
Y03232D01*
Y03172D02*
X01795D01*
X01745D02*
Y03232D01*
X01725D02*
X01745D01*
X01725Y03172D02*
Y03232D01*
Y03172D02*
X01745D01*
X01695D02*
Y03232D01*
X01675D02*
X01695D01*
X01675Y03172D02*
Y03232D01*
Y03172D02*
X01695D01*
X01645D02*
Y03232D01*
X01625D02*
X01645D01*
X01625Y03172D02*
Y03232D01*
Y03172D02*
X01645D01*
X01595D02*
Y03232D01*
X01575D02*
X01595D01*
X01575Y03172D02*
Y03232D01*
Y03172D02*
X01595D01*
G54D105*
X03088Y02083D02*
X03113D01*
X03088D02*
Y02102D01*
X03113*
Y02083D02*
Y02102D01*
Y02069D02*
Y02083D01*
X03088Y02158D02*
X03113D01*
X03088D02*
Y02177D01*
X03113*
X03181D02*
X03206D01*
Y02158D02*
Y02177D01*
X03181Y02158D02*
X03206D01*
X03181D02*
Y02177D01*
Y02191*
Y0214D02*
X03206D01*
Y0212D02*
Y0214D01*
X03181Y0212D02*
X03206D01*
X03181Y02102D02*
X03206D01*
Y02083D02*
Y02102D01*
X03181Y02083D02*
X03206D01*
X03181Y0214D02*
Y02158D01*
Y0212D02*
Y0214D01*
Y02102D02*
Y0212D01*
Y02083D02*
Y02102D01*
Y02069D02*
Y02083D01*
X03159Y02069D02*
X03181D01*
X03135D02*
X03159D01*
X03113D02*
X03135D01*
X03113Y02102D02*
Y02158D01*
Y02177*
Y02191*
X03181*
G54D106*
X02011Y02128D02*
X0207Y02187D01*
X02338*
Y01861D02*
Y02187D01*
X0207Y01861D02*
X02338D01*
X02011Y0192D02*
X0207Y01861D01*
X02011Y0192D02*
Y02128D01*
X02711Y02542D02*
Y02656D01*
X02648Y02542D02*
X02711D01*
X02648D02*
Y02656D01*
X02711*
X02518Y04387D02*
X03227D01*
Y04139D02*
Y04387D01*
Y03383D02*
Y04139D01*
X02518Y03383D02*
X03227D01*
X02518D02*
Y04139D01*
Y04387*
Y04139D02*
X03227D01*
X0147Y03834D02*
X02049D01*
Y04405*
X0147D02*
X02049D01*
X0147Y03834D02*
Y04405D01*
X02053Y01877D02*
Y0202D01*
X01883Y01877D02*
X02053D01*
X01883D02*
Y0202D01*
X02053*
X02793Y02751D02*
X02844D01*
X02793D02*
Y02866D01*
X02844*
Y02751D02*
Y02866D01*
X03506Y03988D02*
Y0409D01*
X01912Y04366D02*
X0205D01*
X01912Y04129D02*
X0205D01*
X01912D02*
Y04366D01*
X0205Y04129D02*
Y04366D01*
X01726Y04368D02*
X01864D01*
X01726Y04131D02*
X01864D01*
X01726D02*
Y04368D01*
X01864Y04131D02*
Y04368D01*
X01236Y04172D02*
Y04227D01*
X01116D02*
X01236D01*
X01116Y04172D02*
Y04227D01*
Y04172D02*
X01236D01*
X02306Y03428D02*
X02449D01*
X02306Y03258D02*
Y03428D01*
Y03258D02*
X02449D01*
Y03428*
X02681Y02719D02*
Y02983D01*
Y02719D02*
X02828D01*
Y02983*
X02681D02*
X02828D01*
X02199Y03265D02*
Y03529D01*
X02052D02*
X02199D01*
X02052Y03265D02*
Y03529D01*
Y03265D02*
X02199D01*
X02472Y01966D02*
X02872D01*
X02472D02*
Y02321D01*
X02872*
Y01966D02*
Y02321D01*
X02657Y02236D02*
Y02406D01*
X02515D02*
X02657D01*
X02515Y02236D02*
Y02406D01*
Y02236D02*
X02657D01*
X03764Y03512D02*
Y03562D01*
X03843Y03512D02*
Y03562D01*
X03764Y03512D02*
X03843D01*
X03764Y03562D02*
X03843D01*
X03528Y02187D02*
Y0229D01*
G54D107*
X02723Y03847D02*
Y03894D01*
X02802Y03847D02*
Y03894D01*
X02227Y04161D02*
Y04208D01*
X02148Y04161D02*
Y04208D01*
X02228Y0425D02*
Y04298D01*
X02149Y0425D02*
Y04298D01*
X02228Y04334D02*
Y04381D01*
X02149Y04334D02*
Y04381D01*
X02315Y04277D02*
X02363D01*
X02315Y04198D02*
X02363D01*
X02447Y02461D02*
X02495D01*
X02447Y02382D02*
X02495D01*
X01649Y02054D02*
Y02463D01*
X01279Y02054D02*
Y02463D01*
Y02054D02*
X01649D01*
X01279Y02463D02*
X01649D01*
X01751Y02703D02*
X01799D01*
X01751Y02625D02*
X01799D01*
X03476Y03348D02*
Y03395D01*
X03397Y03348D02*
Y03395D01*
X03395Y03268D02*
Y03315D01*
X03474Y03268D02*
Y03315D01*
X02549Y02732D02*
Y02779D01*
X0247Y02732D02*
Y02779D01*
X02471Y02652D02*
Y02699D01*
X0255Y02652D02*
Y02699D01*
X02545Y02873D02*
Y0292D01*
X02466Y02873D02*
Y0292D01*
X02465Y02953D02*
Y03D01*
X02544Y02953D02*
Y03D01*
X02261Y03098D02*
Y03145D01*
X02183Y03098D02*
Y03145D01*
Y03179D02*
Y03226D01*
X02261Y03179D02*
Y03226D01*
X02174Y03559D02*
Y03606D01*
X02252Y03559D02*
Y03606D01*
Y03639D02*
Y03687D01*
X02174Y03639D02*
Y03687D01*
X03322Y02464D02*
Y02511D01*
X03244Y02464D02*
Y02511D01*
X02173Y03139D02*
X0222D01*
X02173Y03061D02*
X0222D01*
X02406Y03854D02*
Y03901D01*
X02327Y03854D02*
Y03901D01*
X02405Y03777D02*
Y03824D01*
X02326Y03777D02*
Y03824D01*
X0322Y02336D02*
X03353D01*
X0322Y02245D02*
X03353D01*
X0322D02*
Y02336D01*
X03353Y02245D02*
Y02336D01*
X03322Y02378D02*
Y02425D01*
X03244Y02378D02*
Y02425D01*
X03027Y02413D02*
Y0246D01*
X03106Y02413D02*
Y0246D01*
X03028Y02501D02*
Y02549D01*
X03107Y02501D02*
Y02549D01*
X02508Y03256D02*
X02556D01*
X02508Y03178D02*
X02556D01*
X03027Y02946D02*
Y02994D01*
X02948Y02946D02*
Y02994D01*
X02949Y03027D02*
Y03074D01*
X03028Y03027D02*
Y03074D01*
X01712Y03542D02*
X01759D01*
X01712Y03463D02*
X01759D01*
X01699Y03323D02*
X01747D01*
X01699Y03245D02*
X01747D01*
X01227Y03234D02*
X01274D01*
X01227Y03312D02*
X01274D01*
X01839Y03003D02*
Y03051D01*
X0176Y03003D02*
Y03051D01*
X01955Y0313D02*
Y03178D01*
X02034Y0313D02*
Y03178D01*
X03655Y02814D02*
X03702D01*
X03655Y02893D02*
X03702D01*
X01545Y01933D02*
Y0198D01*
X01466Y01933D02*
Y0198D01*
X01783Y03324D02*
X0183D01*
X01783Y03246D02*
X0183D01*
X01141Y03481D02*
X01188D01*
X01141Y03402D02*
X01188D01*
X02349Y04D02*
Y04048D01*
X0227Y04D02*
Y04048D01*
X02346Y03834D02*
Y03881D01*
X02267Y03834D02*
Y03881D01*
X02346Y03917D02*
Y03964D01*
X02267Y03917D02*
Y03964D01*
X02129Y03915D02*
Y03962D01*
X02208Y03915D02*
Y03962D01*
X02129Y03832D02*
Y03879D01*
X02208Y03832D02*
Y03879D01*
X0213Y04002D02*
Y0405D01*
X02209Y04002D02*
Y0405D01*
X03639Y03226D02*
Y03273D01*
X03718Y03226D02*
Y03273D01*
X0354Y0343D02*
X03587D01*
X0354Y03351D02*
X03587D01*
X03518Y03062D02*
X03565D01*
X03518Y02984D02*
X03565D01*
X03431Y03062D02*
X03479D01*
X03431Y02984D02*
X03479D01*
X03689Y03122D02*
Y03169D01*
X03611Y03122D02*
Y03169D01*
X03474Y03124D02*
Y03171D01*
X03553Y03124D02*
Y03171D01*
X01227Y03479D02*
X01274D01*
X01227Y034D02*
X01274D01*
X0297Y0255D02*
X03017D01*
X0297Y02628D02*
X03017D01*
X02805Y02627D02*
X02852D01*
X02805Y02549D02*
X02852D01*
X03052Y02627D02*
X03099D01*
X03052Y02549D02*
X03099D01*
X02888Y02627D02*
X02936D01*
X02888Y02549D02*
X02936D01*
X02208Y0393D02*
Y03977D01*
X02129Y0393D02*
Y03977D01*
X02126Y03839D02*
Y03886D01*
X02205Y03839D02*
Y03886D01*
G54D199*
X03875Y03655D02*
Y0387D01*
Y03655D02*
X04187D01*
Y0387*
X03875D02*
X04187D01*
X03627Y03638D02*
Y03886D01*
Y03638D02*
X03875D01*
Y03886*
X03627D02*
X03875D01*
X0389Y02403D02*
Y02618D01*
Y02403D02*
X04201D01*
Y02618*
X0389D02*
X04201D01*
X03642Y02387D02*
Y02635D01*
Y02387D02*
X0389D01*
Y02635*
X03642D02*
X0389D01*
M02*