%FSTAX23Y23*%
%MOIN*%
%SFA1B1*%

%IPPOS*%
%ADD100C,0.006000*%
%ADD107C,0.001970*%
%ADD108C,0.003940*%
%LNtcs-1900-1*%
%LPD*%
G54D100*
X0362Y02339D02*
Y02683D01*
Y02339D02*
X04223D01*
Y02683*
X0362D02*
X04223D01*
X03605Y0359D02*
Y03934D01*
Y0359D02*
X04208D01*
Y03934*
X03605D02*
X04208D01*
G54D107*
X0373Y03498D02*
X03877D01*
Y03576*
X0373D02*
X03877D01*
X0373Y03498D02*
Y03576D01*
X02505Y02181D02*
X02667D01*
X02505D02*
Y02461D01*
X02667*
Y02181D02*
Y02461D01*
X02042Y03255D02*
X02208D01*
Y03279*
X02293*
Y03516*
X02208D02*
X02293D01*
X02208D02*
Y03539D01*
X02042D02*
X02208D01*
X02042Y03471D02*
Y03539D01*
X01958Y03471D02*
X02042D01*
X01958Y03324D02*
Y03471D01*
Y03324D02*
X02042D01*
Y03255D02*
Y03324D01*
X03288Y0294D02*
Y03299D01*
X03087Y0294D02*
X03288D01*
X03087D02*
Y03299D01*
X03288*
X02671Y02993D02*
X02837D01*
X02671Y02969D02*
Y02993D01*
X02587Y02969D02*
X02671D01*
X02587Y02732D02*
Y02969D01*
Y02732D02*
X02671D01*
Y02709D02*
Y02732D01*
Y02709D02*
X02837D01*
Y02777*
X02922*
Y02925*
X02837D02*
X02922D01*
X02837D02*
Y02993D01*
X02459Y03203D02*
Y03483D01*
X02296Y03203D02*
X02459D01*
X02296D02*
Y03483D01*
X02459*
X01106Y04123D02*
X01245D01*
X01106D02*
Y04275D01*
X01245*
Y04123D02*
Y04275D01*
X01716Y0409D02*
X01874D01*
Y04409*
X01716D02*
X01874D01*
X01716Y0409D02*
Y04409D01*
X01902Y04088D02*
X0206D01*
Y04407*
X01902D02*
X0206D01*
X01902Y04088D02*
Y04407D01*
X02783Y02742D02*
X02854D01*
X02894Y02787D02*
Y0283D01*
X02783Y02875D02*
X02854D01*
X02742Y0275D02*
Y02868D01*
X02854Y02787D02*
X02894D01*
X02854Y0283D02*
X02894D01*
X02742Y0275D02*
X02783D01*
X02742Y02868D02*
X02783D01*
X02854Y02742D02*
Y02787D01*
Y0283D02*
Y02875D01*
X02783Y02742D02*
Y0275D01*
Y02868D02*
Y02875D01*
X01828Y0203D02*
X02108D01*
X01828Y01867D02*
Y0203D01*
Y01867D02*
X02108D01*
Y0203*
X02508Y04121D02*
Y04397D01*
X02489Y04121D02*
X02508D01*
X02489Y03353D02*
Y04121D01*
Y03353D02*
X03256D01*
Y04121*
X03237D02*
X03256D01*
X03237D02*
Y04397D01*
X02508D02*
X03237D01*
X01186Y03707D02*
Y04054D01*
X00926Y03678D02*
Y04083D01*
X01091*
Y04054D02*
Y04083D01*
Y04054D02*
X01186D01*
X00926Y03678D02*
X01091D01*
Y03707*
X01186*
X02763Y02532D02*
Y02666D01*
X02597Y02532D02*
X02763D01*
X02597D02*
Y02666D01*
X02763*
X01954Y02083D02*
X02001D01*
Y02133*
X02065Y02197*
X02348*
Y02083D02*
Y02197D01*
Y02083D02*
X02395D01*
Y01965D02*
Y02083D01*
X02348Y01965D02*
X02395D01*
X02348Y01851D02*
Y01965D01*
X02065Y01851D02*
X02348D01*
X02001Y01915D02*
X02065Y01851D01*
X02001Y01915D02*
Y01965D01*
X01954D02*
X02001D01*
X01954D02*
Y02083D01*
G54D108*
X03438Y02234D02*
Y02354D01*
X03129Y02234D02*
Y02354D01*
Y02234D02*
X03438D01*
X03129Y02354D02*
X03438D01*
X01517Y02239D02*
Y02278D01*
X01498Y02258D02*
X01537D01*
X01208Y02475D02*
X01826D01*
X01208Y02042D02*
X01826D01*
X01208D02*
Y02475D01*
X01826Y02042D02*
Y02475D01*
M02*