%FSTAX23Y23*%
%MOIN*%
%SFA1B1*%

%IPPOS*%
%AMD164*
4,1,8,-0.021000,-0.015400,0.021000,-0.015400,0.027800,-0.008600,0.027800,0.008600,0.021000,0.015400,-0.021000,0.015400,-0.027800,0.008600,-0.027800,-0.008600,-0.021000,-0.015400,0.0*
1,1,0.013700,-0.021000,-0.008600*
1,1,0.013700,0.021000,-0.008600*
1,1,0.013700,0.021000,0.008600*
1,1,0.013700,-0.021000,0.008600*
%
%AMD170*
4,1,8,0.021300,0.015800,-0.021300,0.015800,-0.028200,0.008900,-0.028200,-0.008900,-0.021300,-0.015800,0.021300,-0.015800,0.028200,-0.008900,0.028200,0.008900,0.021300,0.015800,0.0*
1,1,0.013900,0.021300,0.008900*
1,1,0.013900,-0.021300,0.008900*
1,1,0.013900,-0.021300,-0.008900*
1,1,0.013900,0.021300,-0.008900*
%
%AMD183*
4,1,8,0.027100,0.016800,-0.027100,0.016800,-0.037500,0.006400,-0.037500,-0.006400,-0.027100,-0.016800,0.027100,-0.016800,0.037500,-0.006400,0.037500,0.006400,0.027100,0.016800,0.0*
1,1,0.020800,0.027100,0.006400*
1,1,0.020800,-0.027100,0.006400*
1,1,0.020800,-0.027100,-0.006400*
1,1,0.020800,0.027100,-0.006400*
%
%AMD195*
4,1,8,-0.021200,-0.015600,0.021200,-0.015600,0.031000,-0.005800,0.031000,0.005800,0.021200,0.015600,-0.021200,0.015600,-0.031000,0.005800,-0.031000,-0.005800,-0.021200,-0.015600,0.0*
1,1,0.019620,-0.021200,-0.005800*
1,1,0.019620,0.021200,-0.005800*
1,1,0.019620,0.021200,0.005800*
1,1,0.019620,-0.021200,0.005800*
%
%ADD60C,0.080000*%
%ADD61C,0.082000*%
%ADD120R,0.059180X0.067060*%
%ADD121R,0.067060X0.059180*%
%ADD126R,0.047370X0.063120*%
%ADD127R,0.091470X0.097760*%
%ADD128R,0.051310X0.057210*%
%ADD130R,0.051310X0.063120*%
%ADD137R,0.063120X0.047370*%
%ADD154C,0.086740*%
%ADD155R,0.086740X0.086740*%
%ADD156C,0.098550*%
%ADD157R,0.098550X0.098550*%
%ADD158C,0.059180*%
%ADD159R,0.059180X0.059180*%
%ADD160C,0.078870*%
%ADD161R,0.086740X0.086740*%
%ADD162C,0.011810*%
%ADD163C,0.027680*%
G04~CAMADD=164~8~0.0~0.0~556.4~308.4~68.5~0.0~15~0.0~0.0~0.0~0.0~0~0.0~0.0~0.0~0.0~0~0.0~0.0~0.0~180.0~556.0~308.0*
%ADD164D164*%
%ADD165R,0.055240X0.094610*%
%ADD166R,0.055240X0.063120*%
%ADD167R,0.070990X0.063120*%
%ADD168R,0.035560X0.070990*%
%ADD169R,0.097760X0.091470*%
G04~CAMADD=170~8~0.0~0.0~564.2~316.2~69.5~0.0~15~0.0~0.0~0.0~0.0~0~0.0~0.0~0.0~0.0~0~0.0~0.0~0.0~0.0~564.2~316.2*
%ADD170D170*%
%ADD171R,0.051310X0.049340*%
%ADD172R,0.096580X0.051310*%
%ADD173R,0.028000X0.086000*%
%ADD174O,0.039500X0.070990*%
%ADD175O,0.070990X0.039500*%
%ADD176R,0.126110X0.126110*%
%ADD177R,0.067060X0.067060*%
%ADD178R,0.115990X0.118240*%
%ADD179R,0.067060X0.263910*%
%ADD180R,0.157610X0.086740*%
%ADD181R,0.067060X0.086740*%
%ADD182R,0.067060X0.086740*%
G04~CAMADD=183~8~0.0~0.0~749.3~335.9~104.0~0.0~15~0.0~0.0~0.0~0.0~0~0.0~0.0~0.0~0.0~0~0.0~0.0~0.0~0.0~749.3~335.9*
%ADD183D183*%
%ADD184R,0.074930X0.033590*%
%ADD185R,0.236350X0.252100*%
%ADD186R,0.070990X0.126110*%
%ADD187R,0.033590X0.053280*%
%ADD188R,0.047370X0.059180*%
%ADD189R,0.070990X0.074930*%
%ADD190R,0.029260X0.039500*%
%ADD191R,0.053000X0.048000*%
%ADD192R,0.086000X0.028000*%
%ADD193R,0.029000X0.079000*%
%ADD194R,0.067060X0.094610*%
G04~CAMADD=195~8~0.0~0.0~619.4~312.3~98.1~0.0~15~0.0~0.0~0.0~0.0~0~0.0~0.0~0.0~0.0~0~0.0~0.0~0.0~180.0~620.0~312.0*
%ADD195D195*%
%ADD196R,0.039500X0.055240*%
%ADD197R,0.055240X0.039500*%
%ADD198R,0.058590X0.065870*%
%LNtcs-1900-1*%
%LPD*%
G54D60*
X03751Y03762D03*
X03766Y02511D03*
G54D61*
X03851Y03862D03*
X03651D03*
Y03662D03*
X03851D03*
X03866Y02611D03*
X03666D03*
Y02411D03*
X03866D03*
G54D120*
X01785Y02509D03*
X0171D03*
X03381Y02104D03*
X03307D03*
X0338Y02185D03*
X03306D03*
X01785Y02423D03*
X0171D03*
X01706Y02287D03*
X01781D03*
X02042Y02554D03*
X02117D03*
X02042Y02643D03*
X02117D03*
X01706Y02626D03*
X01781D03*
X01148Y03569D03*
X01223D03*
X01139Y04156D03*
X01214D03*
X01166Y02845D03*
X01091D03*
X02757Y0299D03*
X02832D03*
X02758Y02913D03*
X02833D03*
X03867Y03021D03*
X03792D03*
X03874Y03326D03*
X03799D03*
G54D121*
X02585Y0209D03*
Y02015D03*
X02365Y02205D03*
Y0228D03*
X02448D03*
Y02205D03*
X02269Y02241D03*
Y02315D03*
X01468Y036D03*
Y03525D03*
X01035Y03742D03*
Y03816D03*
X01455Y02348D03*
Y02423D03*
X01542Y02348D03*
Y02423D03*
X01137Y03106D03*
Y03181D03*
Y0333D03*
Y03255D03*
X01171Y02763D03*
Y02688D03*
X03495Y02583D03*
Y02658D03*
G54D126*
X028Y03871D03*
X02725D03*
X0215Y04185D03*
X02225D03*
X02151Y04274D03*
X02226D03*
X02151Y04358D03*
X02226D03*
X02329Y03877D03*
X02404D03*
X02328Y03801D03*
X02403D03*
G54D127*
X02586Y02407D03*
Y02236D03*
G54D128*
X01055Y03896D03*
X00956D03*
X01056Y04027D03*
X00957D03*
X0388Y03099D03*
X03782D03*
G54D130*
X02206Y03953D03*
X02131D03*
X02128Y03863D03*
X02203D03*
G54D137*
X02339Y042D03*
Y04275D03*
X02196Y03062D03*
Y03137D03*
X02994Y02626D03*
Y02552D03*
X02828Y02551D03*
Y02625D03*
X03075Y02551D03*
Y02625D03*
X02912Y02551D03*
Y02625D03*
G54D154*
X0113Y02406D03*
Y02201D03*
X03369Y03934D03*
Y04034D03*
X01146Y02947D03*
Y02609D03*
X01489Y02798D03*
G54D155*
X03369Y03834D03*
G54D156*
X00981Y03287D03*
Y02815D03*
Y02933D03*
Y03051D03*
Y03169D03*
G54D157*
X00981Y02696D03*
G54D158*
X02414Y01944D03*
X02216Y02905D03*
G54D159*
X02414Y02023D03*
X02216Y02984D03*
G54D160*
X00978Y02515D03*
Y02311D03*
G54D161*
X01489Y02562D03*
G54D162*
X0322Y03075D03*
X03189D03*
X03441Y0288D03*
X03363Y03254D03*
X03743Y02818D03*
Y02795D03*
X01496Y03453D03*
X02693Y03238D03*
X02721Y02784D03*
X03494Y03742D03*
Y03716D03*
X03319Y03573D03*
X03346Y03572D03*
X02248Y04124D03*
X03032Y03806D03*
Y03834D03*
X01651Y03755D03*
X01949Y03555D03*
X02171Y02782D03*
X01063Y0396D03*
X02059Y02082D03*
X02083Y04054D03*
X02084Y0397D03*
X03856Y03249D03*
X01077Y03068D03*
X01097Y02791D03*
X02197Y02393D03*
X03072Y0213D03*
X02284Y03791D03*
X01966Y03772D03*
X01815Y0343D03*
X01774Y04069D03*
X02443Y03571D03*
X01093Y03588D03*
X01964Y03894D03*
X01533Y0358D03*
X03338Y03331D03*
X03274Y03295D03*
X0295Y02721D03*
X02089Y0416D03*
X02653Y0389D03*
X02626Y03731D03*
X02738Y03582D03*
X0266Y03665D03*
X03129Y0399D03*
X02553Y03041D03*
X02711Y03547D03*
X02588Y03372D03*
X02383Y03644D03*
X02872Y03624D03*
X02459Y03994D03*
X02692Y03653D03*
X02602Y03671D03*
X02Y03519D03*
X02465Y03604D03*
X03141Y03893D03*
X03111Y04053D03*
X0272Y03639D03*
X03049Y03629D03*
X03055Y03598D03*
X02809Y03567D03*
X01727Y04162D03*
X01893Y04053D03*
X03636Y02734D03*
X03681Y0273D03*
X03056Y02905D03*
X03362Y03371D03*
X03577Y02897D03*
X03603Y02928D03*
X03422Y0316D03*
X03375Y03167D03*
X02738Y03238D03*
X02775D03*
X03509Y03458D03*
X01967Y03025D03*
X02993Y02309D03*
X03081Y02052D03*
X02503Y02823D03*
X02163Y03017D03*
X02722Y02687D03*
X02887Y024D03*
X02645Y02237D03*
X02624Y03001D03*
X02868Y02668D03*
X03155Y02519D03*
X0173Y0312D03*
X03248Y02167D03*
X03135Y02168D03*
X03388Y0343D03*
X01925Y02503D03*
X01954Y03481D03*
X01731Y02895D03*
X02765Y03095D03*
X03777Y0294D03*
X03047Y02675D03*
X01494Y03383D03*
X03403Y02986D03*
X01853Y02262D03*
X03157Y02686D03*
X02206Y03809D03*
X01814Y02769D03*
X01823Y02627D03*
X01474Y03178D03*
X01379Y03156D03*
X01556Y03667D03*
X0165Y02607D03*
X02667Y02851D03*
X02326Y03644D03*
X02567Y03083D03*
X03591Y03569D03*
X02312Y03174D03*
X02613Y03251D03*
X02401Y03926D03*
X03878Y03536D03*
X03435Y03249D03*
X03305Y03162D03*
X0204Y03578D03*
X02717Y02911D03*
X02873Y02707D03*
X03316Y03079D03*
X01092Y04104D03*
X01248Y03896D03*
X01319Y03894D03*
X01615Y03689D03*
X01356Y03582D03*
X01323Y04134D03*
X01654Y0427D03*
X01545Y04097D03*
X01549Y0405D03*
X01892Y04288D03*
X02096Y04303D03*
X01871Y04188D03*
X02436Y04058D03*
X02435Y04085D03*
X02855Y04016D03*
X02127Y03498D03*
X01679Y03445D03*
X02043Y03482D03*
X02373Y03343D03*
X01194Y03226D03*
X02079Y03495D03*
X0281Y02483D03*
G54D163*
X02036Y04156D03*
X01922Y04218D03*
G54D164*
X0263Y02636D03*
Y02599D03*
Y02562D03*
X02729D03*
Y02599D03*
Y02636D03*
G54D165*
X01454Y04232D03*
X02064D03*
G54D166*
X01454Y03854D03*
G54D167*
X02029Y03854D03*
G54D168*
X01848Y03834D03*
X01805D03*
X01761D03*
X01718D03*
X01675D03*
X01631D03*
X01588D03*
X01545D03*
X01501D03*
G54D169*
X02053Y01948D03*
X01883D03*
G54D170*
X0286Y02809D03*
X02777Y02846D03*
Y02771D03*
G54D171*
X03619Y04039D03*
X0364Y02239D03*
G54D172*
X03558Y03981D03*
Y04097D03*
X03579Y02297D03*
Y02181D03*
G54D173*
X01598Y03555D03*
X01648D03*
X01698D03*
X01748D03*
X01798D03*
X01848D03*
X01898D03*
Y03361D03*
X01848D03*
X01798D03*
X01748D03*
X01698D03*
X01648D03*
X01598D03*
G54D174*
X03634Y02795D03*
X03587D03*
X0354D03*
X03493D03*
X03445D03*
X03398D03*
X03351D03*
X03304D03*
X03256D03*
X03209D03*
X03162D03*
X03115D03*
X03067D03*
X03634Y03519D03*
X03587D03*
X0354D03*
X03493D03*
X03445D03*
X03398D03*
X03351D03*
X03304D03*
X03256D03*
X03209D03*
X03162D03*
X03115D03*
X03067D03*
G54D175*
X03705Y0285D03*
Y02897D03*
Y02944D03*
Y02992D03*
Y03039D03*
Y03086D03*
Y03133D03*
Y03181D03*
Y03228D03*
Y03275D03*
Y03322D03*
Y0337D03*
Y03417D03*
Y03464D03*
X02997Y0285D03*
Y02897D03*
Y02944D03*
Y02992D03*
Y03039D03*
Y03086D03*
Y03133D03*
Y03181D03*
Y03228D03*
Y03275D03*
Y03322D03*
Y0337D03*
Y03417D03*
Y03464D03*
G54D176*
X03186Y02972D03*
G54D177*
X03276Y03232D03*
G54D178*
X01302Y02368D03*
Y02172D03*
X02199Y03267D03*
Y03463D03*
X02365Y03462D03*
Y03266D03*
X02536Y03267D03*
Y03463D03*
G54D179*
X02402Y02988D03*
G54D180*
X02402Y02828D03*
G54D181*
X02312Y03076D03*
G54D182*
X02493Y03076D03*
G54D183*
X02488Y03835D03*
Y03873D03*
X0259D03*
Y03798D03*
G54D184*
X02488Y03798D03*
G54D185*
X01225Y03741D03*
X01345Y02984D03*
G54D186*
X01135Y04023D03*
X01315D03*
X01255Y03266D03*
X01435D03*
G54D187*
X0286Y02447D03*
X0296D03*
X0306D03*
X0281D03*
X0291D03*
X0301D03*
G54D188*
X02728Y02362D03*
Y02283D03*
X03215D03*
Y02362D03*
G54D189*
X0273Y01907D03*
X03212D03*
G54D190*
X03068Y01929D03*
X02874D03*
G54D191*
X0194Y02591D03*
X0186Y02626D03*
Y02556D03*
G54D192*
X01911Y02163D03*
Y02213D03*
Y02263D03*
Y02313D03*
Y02363D03*
Y02413D03*
Y02463D03*
X02105D03*
Y02413D03*
Y02363D03*
Y02313D03*
Y02263D03*
Y02213D03*
Y02163D03*
G54D193*
X01585Y02834D03*
X01635D03*
X01685D03*
X01735D03*
X01785D03*
X01835D03*
X01885D03*
X01935D03*
X01985D03*
X02035D03*
Y0321D03*
X01985D03*
X01935D03*
X01885D03*
X01835D03*
X01785D03*
X01735D03*
X01685D03*
X01635D03*
X01585D03*
G54D194*
X02515Y02625D03*
X02267D03*
G54D195*
X02447Y02413D03*
Y02375D03*
Y02338D03*
X02355D03*
Y02375D03*
Y02413D03*
G54D196*
X01276Y02562D03*
X01376D03*
X01276Y02809D03*
X01376D03*
G54D197*
X01142Y03504D03*
Y03404D03*
X01388Y03504D03*
Y03404D03*
G54D198*
X03765Y03537D03*
X03842D03*
M02*