%FSTAX23Y23*%
%MOIN*%
%SFA1B1*%

%IPPOS*%
%ADD105C,0.006000*%
%ADD107C,0.003940*%
%ADD109C,0.001970*%
%LNtcs-1900-1*%
%LPD*%
G54D105*
X03605Y03934D02*
X04208D01*
Y0359D02*
Y03934D01*
X03605Y0359D02*
X04208D01*
X03605D02*
Y03934D01*
X0362Y02683D02*
X04223D01*
Y02339D02*
Y02683D01*
X0362Y02339D02*
X04223D01*
X0362D02*
Y02683D01*
G54D107*
X01826Y02042D02*
Y02475D01*
X01208Y02042D02*
Y02475D01*
Y02042D02*
X01826D01*
X01208Y02475D02*
X01826D01*
X01498Y02258D02*
X01537D01*
X01517Y02239D02*
Y02278D01*
X03129Y02354D02*
X03438D01*
X03129Y02234D02*
X03438D01*
X03129D02*
Y02354D01*
X03438Y02234D02*
Y02354D01*
G54D109*
X01954Y01965D02*
Y02083D01*
Y01965D02*
X02001D01*
Y01915D02*
Y01965D01*
Y01915D02*
X02065Y01851D01*
X02348*
Y01965*
X02395*
Y02083*
X02348D02*
X02395D01*
X02348D02*
Y02197D01*
X02065D02*
X02348D01*
X02001Y02133D02*
X02065Y02197D01*
X02001Y02083D02*
Y02133D01*
X01954Y02083D02*
X02001D01*
X02597Y02666D02*
X02763D01*
X02597Y02532D02*
Y02666D01*
Y02532D02*
X02763D01*
Y02666*
X02508Y04397D02*
X03237D01*
Y04121D02*
Y04397D01*
Y04121D02*
X03256D01*
Y03353D02*
Y04121D01*
X02489Y03353D02*
X03256D01*
X02489D02*
Y04121D01*
X02508*
Y04397*
X02108Y01867D02*
Y0203D01*
X01828Y01867D02*
X02108D01*
X01828D02*
Y0203D01*
X02108*
X02783Y02868D02*
Y02875D01*
Y02742D02*
Y0275D01*
X02854Y0283D02*
Y02875D01*
Y02742D02*
Y02787D01*
X02742Y02868D02*
X02783D01*
X02742Y0275D02*
X02783D01*
X02854Y0283D02*
X02894D01*
X02854Y02787D02*
X02894D01*
X02742Y0275D02*
Y02868D01*
X02783Y02875D02*
X02854D01*
X02894Y02787D02*
Y0283D01*
X02783Y02742D02*
X02854D01*
X01902Y04088D02*
Y04407D01*
X0206*
Y04088D02*
Y04407D01*
X01902Y04088D02*
X0206D01*
X01716Y0409D02*
Y04409D01*
X01874*
Y0409D02*
Y04409D01*
X01716Y0409D02*
X01874D01*
X01245Y04123D02*
Y04275D01*
X01106D02*
X01245D01*
X01106Y04123D02*
Y04275D01*
Y04123D02*
X01245D01*
X02296Y03483D02*
X02459D01*
X02296Y03203D02*
Y03483D01*
Y03203D02*
X02459D01*
Y03483*
X02837Y02925D02*
Y02993D01*
Y02925D02*
X02922D01*
Y02777D02*
Y02925D01*
X02837Y02777D02*
X02922D01*
X02837Y02709D02*
Y02777D01*
X02671Y02709D02*
X02837D01*
X02671D02*
Y02732D01*
X02587D02*
X02671D01*
X02587D02*
Y02969D01*
X02671*
Y02993*
X02837*
X03087Y03299D02*
X03288D01*
X03087Y0294D02*
Y03299D01*
Y0294D02*
X03288D01*
Y03299*
X02042Y03255D02*
Y03324D01*
X01958D02*
X02042D01*
X01958D02*
Y03471D01*
X02042*
Y03539*
X02208*
Y03516D02*
Y03539D01*
Y03516D02*
X02293D01*
Y03279D02*
Y03516D01*
X02208Y03279D02*
X02293D01*
X02208Y03255D02*
Y03279D01*
X02042Y03255D02*
X02208D01*
X02667Y02181D02*
Y02461D01*
X02505D02*
X02667D01*
X02505Y02181D02*
Y02461D01*
Y02181D02*
X02667D01*
X0373Y03498D02*
Y03576D01*
X03877*
Y03498D02*
Y03576D01*
X0373Y03498D02*
X03877D01*
X01185Y03707D02*
Y04054D01*
X00925Y03678D02*
Y04083D01*
X0109*
Y04054D02*
Y04083D01*
Y04054D02*
X01185D01*
X00925Y03678D02*
X0109D01*
Y03707*
X01185*
M02*