%FSTAX23Y23*%
%MOIN*%
%SFA1B1*%

%IPPOS*%
%AMD16*
4,1,8,0.022700,0.012200,-0.022700,0.012200,-0.025800,0.009200,-0.025800,-0.009200,-0.022700,-0.012200,0.022700,-0.012200,0.025800,-0.009200,0.025800,0.009200,0.022700,0.012200,0.0*
1,1,0.006100,0.022700,0.009200*
1,1,0.006100,-0.022700,0.009200*
1,1,0.006100,-0.022700,-0.009200*
1,1,0.006100,0.022700,-0.009200*
%
%AMD20*
4,1,8,0.019500,-0.069700,0.019500,0.069700,0.014600,0.074600,-0.014600,0.074600,-0.019500,0.069700,-0.019500,-0.069700,-0.014600,-0.074600,0.014600,-0.074600,0.019500,-0.069700,0.0*
1,1,0.009740,0.014600,-0.069700*
1,1,0.009740,0.014600,0.069700*
1,1,0.009740,-0.014600,0.069700*
1,1,0.009740,-0.014600,-0.069700*
%
%AMD35*
4,1,8,-0.012800,0.014500,-0.012800,-0.014500,-0.006400,-0.020900,0.006400,-0.020900,0.012800,-0.014500,0.012800,0.014500,0.006400,0.020900,-0.006400,0.020900,-0.012800,0.014500,0.0*
1,1,0.012800,-0.006400,0.014500*
1,1,0.012800,-0.006400,-0.014500*
1,1,0.012800,0.006400,-0.014500*
1,1,0.012800,0.006400,0.014500*
%
%AMD37*
4,1,8,-0.025800,0.015600,-0.025800,-0.015600,-0.023000,-0.018300,0.023000,-0.018300,0.025800,-0.015600,0.025800,0.015600,0.023000,0.018300,-0.023000,0.018300,-0.025800,0.015600,0.0*
1,1,0.005500,-0.023000,0.015600*
1,1,0.005500,-0.023000,-0.015600*
1,1,0.005500,0.023000,-0.015600*
1,1,0.005500,0.023000,0.015600*
%
%AMD38*
4,1,8,-0.025800,0.059900,-0.025800,-0.059900,-0.021900,-0.063800,0.021900,-0.063800,0.025800,-0.059900,0.025800,0.059900,0.021900,0.063800,-0.021900,0.063800,-0.025800,0.059900,0.0*
1,1,0.007740,-0.021900,0.059900*
1,1,0.007740,-0.021900,-0.059900*
1,1,0.007740,0.021900,-0.059900*
1,1,0.007740,0.021900,0.059900*
%
%AMD39*
4,1,8,0.047800,-0.035000,0.047800,0.035000,0.036200,0.046700,-0.036200,0.046700,-0.047800,0.035000,-0.047800,-0.035000,-0.036200,-0.046700,0.036200,-0.046700,0.047800,-0.035000,0.0*
1,1,0.023320,0.036200,-0.035000*
1,1,0.023320,0.036200,0.035000*
1,1,0.023320,-0.036200,0.035000*
1,1,0.023320,-0.036200,-0.035000*
%
%AMD43*
4,1,8,-0.009900,-0.025600,0.009900,-0.025600,0.011600,-0.023800,0.011600,0.023800,0.009900,0.025600,-0.009900,0.025600,-0.011600,0.023800,-0.011600,-0.023800,-0.009900,-0.025600,0.0*
1,1,0.003480,-0.009900,-0.023800*
1,1,0.003480,0.009900,-0.023800*
1,1,0.003480,0.009900,0.023800*
1,1,0.003480,-0.009900,0.023800*
%
%AMD44*
4,1,8,-0.016600,-0.025600,0.016600,-0.025600,0.019500,-0.022700,0.019500,0.022700,0.016600,0.025600,-0.016600,0.025600,-0.019500,0.022700,-0.019500,-0.022700,-0.016600,-0.025600,0.0*
1,1,0.005840,-0.016600,-0.022700*
1,1,0.005840,0.016600,-0.022700*
1,1,0.005840,0.016600,0.022700*
1,1,0.005840,-0.016600,0.022700*
%
%ADD10R,0.023620X0.019680*%
%ADD11R,0.074800X0.047240*%
%ADD12R,0.053150X0.015750*%
%ADD13R,0.074800X0.062990*%
%ADD14R,0.078740X0.082680*%
%ADD15R,0.055120X0.047240*%
G04~CAMADD=16~8~0.0~0.0~515.8~244.1~30.5~0.0~15~0.0~0.0~0.0~0.0~0~0.0~0.0~0.0~0.0~0~0.0~0.0~0.0~0.0~515.8~244.1*
%ADD16D16*%
%ADD17R,0.051180X0.059050*%
%ADD18R,0.050000X0.022000*%
%ADD19R,0.426770X0.300000*%
G04~CAMADD=20~8~0.0~0.0~1492.1~389.8~48.7~0.0~15~0.0~0.0~0.0~0.0~0~0.0~0.0~0.0~0.0~0~0.0~0.0~0.0~270.0~390.0~1492.0*
%ADD20D20*%
%ADD21R,0.110240X0.107990*%
%ADD22R,0.059050X0.051180*%
%ADD23R,0.040000X0.045000*%
%ADD24R,0.055120X0.039370*%
%ADD25R,0.039370X0.055120*%
%ADD26R,0.047240X0.031500*%
%ADD27R,0.039370X0.098420*%
%ADD28R,0.043310X0.055120*%
%ADD29R,0.055120X0.043310*%
%ADD30R,0.096460X0.096460*%
%ADD31R,0.157480X0.078740*%
%ADD32O,0.086610X0.023620*%
%ADD33R,0.086610X0.023620*%
%ADD34R,0.225000X0.125000*%
G04~CAMADD=35~8~0.0~0.0~417.3~255.9~64.0~0.0~15~0.0~0.0~0.0~0.0~0~0.0~0.0~0.0~0.0~0~0.0~0.0~0.0~90.0~257.0~418.0*
%ADD35D35*%
%ADD36O,0.062990X0.016540*%
G04~CAMADD=37~8~0.0~0.0~366.1~515.8~27.5~0.0~15~0.0~0.0~0.0~0.0~0~0.0~0.0~0.0~0.0~0~0.0~0.0~0.0~90.0~516.0~366.0*
%ADD37D37*%
G04~CAMADD=38~8~0.0~0.0~1275.6~515.8~38.7~0.0~15~0.0~0.0~0.0~0.0~0~0.0~0.0~0.0~0.0~0~0.0~0.0~0.0~90.0~516.0~1276.0*
%ADD38D38*%
G04~CAMADD=39~8~0.0~0.0~933.1~956.7~116.6~0.0~15~0.0~0.0~0.0~0.0~0~0.0~0.0~0.0~0.0~0~0.0~0.0~0.0~270.0~958.0~934.0*
%ADD39D39*%
%ADD40R,0.035430X0.037400*%
%ADD41R,0.043310X0.049210*%
%ADD42R,0.083460X0.089760*%
G04~CAMADD=43~8~0.0~0.0~232.3~511.8~17.4~0.0~15~0.0~0.0~0.0~0.0~0~0.0~0.0~0.0~0.0~0~0.0~0.0~0.0~180.0~232.0~512.0*
%ADD43D43*%
G04~CAMADD=44~8~0.0~0.0~389.8~511.8~29.2~0.0~15~0.0~0.0~0.0~0.0~0~0.0~0.0~0.0~0.0~0~0.0~0.0~0.0~180.0~390.0~512.0*
%ADD44D44*%
%ADD45R,0.086610X0.110240*%
%ADD46R,0.326770X0.411420*%
%ADD47R,0.125980X0.041340*%
%ADD48R,0.052360X0.052360*%
%ADD49R,0.078740X0.035430*%
%ADD50R,0.035430X0.078740*%
%ADD51R,0.049210X0.043310*%
%ADD54C,0.082000*%
%ADD55C,0.080000*%
%ADD56C,0.078740*%
%ADD57R,0.078740X0.078740*%
%ADD58C,0.051180*%
%ADD59R,0.051180X0.051180*%
%ADD60C,0.070870*%
%ADD61C,0.090550*%
%ADD62R,0.090550X0.090550*%
%ADD63R,0.078740X0.078740*%
%LNtcs-1900-1*%
%LPD*%
G54D10*
X03399Y03588D03*
Y03627D03*
X03348Y03608D03*
G54D11*
X01043Y03847D03*
Y03914D03*
G54D12*
X01148Y03932D03*
Y03906D03*
Y0388D03*
Y03855D03*
Y03829D03*
G54D13*
X01043Y03719D03*
Y04042D03*
G54D14*
X01135Y03758D03*
Y04002D03*
G54D15*
X01327Y03706D03*
X01414D03*
Y03639D03*
X01327D03*
G54D16*
X01392Y04077D03*
X01609Y03977D03*
X01392Y04127D03*
Y04027D03*
Y03977D03*
X01609Y04027D03*
Y03927D03*
Y03877D03*
X01392D03*
X01609Y03777D03*
X01392Y03927D03*
Y03827D03*
X01609D03*
X01392Y03777D03*
X01609Y04077D03*
Y04127D03*
G54D17*
X02953Y02148D03*
X03028D03*
X0321Y02021D03*
X03135D03*
X02961D03*
X03036D03*
X02952Y032D03*
X03027D03*
X02954Y03125D03*
X03029D03*
X0213Y04152D03*
X02205D03*
G54D18*
X03198Y02093D03*
Y0213D03*
Y02167D03*
X03096D03*
Y02093D03*
G54D19*
X02672Y02041D03*
G54D20*
X02572Y02469D03*
X02672D03*
X02772D03*
G54D21*
X01896Y01967D03*
X017D03*
G54D22*
X02062Y03778D03*
Y03853D03*
X01882Y03862D03*
Y03787D03*
X01305Y04058D03*
Y03983D03*
X01829Y04024D03*
Y03949D03*
X01746Y04025D03*
Y0395D03*
X0125Y03639D03*
Y03714D03*
X01499Y03706D03*
Y03631D03*
X01592Y04267D03*
Y04342D03*
X01495Y04265D03*
Y0434D03*
G54D23*
X01965Y0394D03*
X0193Y0402D03*
X02D03*
X01966Y0373D03*
X02001Y0365D03*
X01931D03*
G54D24*
X0125Y03477D03*
Y03402D03*
X03455Y03061D03*
Y02986D03*
X03542Y03061D03*
Y02986D03*
X03563Y03428D03*
Y03353D03*
X0125Y03236D03*
Y03311D03*
X01723Y03321D03*
Y03247D03*
X01736Y0354D03*
Y03465D03*
X02532Y03254D03*
Y0318D03*
G54D25*
X03476Y03147D03*
X03551D03*
X03687Y03145D03*
X03613D03*
X03641Y0325D03*
X03716D03*
X01957Y03154D03*
X02032D03*
X01837Y03027D03*
X01762D03*
X03029Y02437D03*
X03104D03*
X0332Y02401D03*
X03246D03*
X03397Y03292D03*
X03472D03*
X03474Y03372D03*
X03399D03*
G54D26*
X03739Y03002D03*
X03641Y0304D03*
Y02965D03*
X03747Y03395D03*
X03648Y03433D03*
Y03358D03*
X02028Y03027D03*
X0193Y03064D03*
Y02989D03*
G54D27*
X01541Y03269D03*
Y03509D03*
X01641Y03269D03*
Y03509D03*
X0135Y03273D03*
Y03513D03*
X0145Y03273D03*
Y03513D03*
G54D28*
X02207Y04026D03*
X02132D03*
X02206Y03856D03*
X02131D03*
X02206Y03938D03*
X02131D03*
X02269Y0394D03*
X02344D03*
X02269Y03858D03*
X02344D03*
X02272Y04024D03*
X02347D03*
X01468Y01956D03*
X01543D03*
X03026Y03051D03*
X02951D03*
X0295Y0297D03*
X03025D03*
X03105Y02525D03*
X0303D03*
X03246Y02488D03*
X0332D03*
X02176Y03663D03*
X0225D03*
Y03582D03*
X02176D03*
X02259Y03202D03*
X02185D03*
Y03122D03*
X02259D03*
X02542Y02977D03*
X02467D03*
X02468Y02896D03*
X02543D03*
X02548Y02676D03*
X02473D03*
X02472Y02755D03*
X02547D03*
G54D29*
X01165Y03404D03*
Y03479D03*
X01807Y03248D03*
Y03322D03*
X03679Y02891D03*
Y02816D03*
X01775Y02626D03*
Y02701D03*
X02471Y02384D03*
Y02459D03*
G54D30*
X01815Y02857D03*
X0206D03*
G54D31*
X01312Y03037D03*
X01596D03*
X02293Y02024D03*
X02057D03*
G54D32*
X02844Y03045D03*
Y03095D03*
Y03145D03*
Y03195D03*
X02631Y03045D03*
Y03095D03*
Y03145D03*
G54D33*
X02631Y03195D03*
G54D34*
X02141Y02281D03*
Y02681D03*
G54D35*
X03029Y02256D03*
X02992D03*
X03066D03*
Y02343D03*
X02992D03*
X03029D03*
G54D36*
X03396Y02252D03*
Y02278D03*
Y02304D03*
Y02329D03*
X03176Y02252D03*
Y02278D03*
Y02304D03*
Y02329D03*
G54D37*
X02257Y03307D03*
Y03397D03*
Y03487D03*
X02623Y02941D03*
Y02851D03*
Y02761D03*
G54D38*
X01994Y03397D03*
X02886Y02851D03*
G54D39*
X03187Y03242D03*
Y02997D03*
G54D40*
X02934Y03279D03*
X0281D03*
G54D41*
X02958Y01921D03*
X03057D03*
X03224Y0192D03*
X03125D03*
G54D42*
X02377Y03258D03*
Y03428D03*
G54D43*
X01213Y04159D03*
X01138D03*
Y0424D03*
G54D44*
X01206Y0424D03*
G54D45*
X01795Y04344D03*
Y04155D03*
X01981Y04342D03*
Y04153D03*
G54D46*
X01381Y02258D03*
G54D47*
X01753Y02392D03*
Y02325D03*
Y02258D03*
Y02191D03*
Y02125D03*
G54D48*
X02905Y03725D03*
X02833D03*
X02761D03*
X02905Y03797D03*
X02833D03*
X02761D03*
X02905Y03869D03*
X02833D03*
X02761D03*
G54D49*
X03207Y04092D03*
Y04042D03*
Y03992D03*
Y03942D03*
Y03892D03*
Y03842D03*
Y03792D03*
Y03742D03*
Y03692D03*
Y03642D03*
Y03592D03*
Y03542D03*
Y03492D03*
Y03442D03*
X02538D03*
Y03492D03*
Y03542D03*
Y03592D03*
Y03642D03*
Y03692D03*
Y03742D03*
Y03792D03*
Y03842D03*
Y03892D03*
Y03942D03*
Y03992D03*
Y04042D03*
Y04092D03*
G54D50*
X03098Y03403D03*
X03048D03*
X02998D03*
X02948D03*
X02898D03*
X02848D03*
X02798D03*
X02748D03*
X02698D03*
X02648D03*
G54D51*
X03858Y0331D03*
Y03408D03*
Y02831D03*
Y0293D03*
Y03163D03*
Y03064D03*
G54D54*
X03866Y02411D03*
X03666D03*
Y02611D03*
X03866D03*
X03851Y03662D03*
X03651D03*
Y03862D03*
X03851D03*
G54D55*
X03766Y02511D03*
X03751Y03762D03*
G54D56*
X01489Y02798D03*
X01146Y02609D03*
Y02947D03*
X03369Y04034D03*
Y03934D03*
X0113Y02201D03*
Y02406D03*
G54D57*
X01489Y02562D03*
G54D58*
X02216Y02905D03*
X02414Y01944D03*
G54D59*
X02216Y02984D03*
X02414Y02023D03*
G54D60*
X00978Y02311D03*
Y02515D03*
G54D61*
X00981Y03169D03*
Y03051D03*
Y02933D03*
Y02815D03*
Y03287D03*
G54D62*
X00981Y02696D03*
G54D63*
X03369Y03834D03*
M02*