%FSTAX23Y23*%
%MOIN*%
%SFA1B1*%

%IPPOS*%
%AMD123*
4,1,8,-0.016600,-0.029600,0.016600,-0.029600,0.023500,-0.022700,0.023500,0.022700,0.016600,0.029600,-0.016600,0.029600,-0.023500,0.022700,-0.023500,-0.022700,-0.016600,-0.029600,0.0*
1,1,0.013840,-0.016600,-0.022700*
1,1,0.013840,0.016600,-0.022700*
1,1,0.013840,0.016600,0.022700*
1,1,0.013840,-0.016600,0.022700*
%
%AMD124*
4,1,8,-0.009900,-0.029600,0.009900,-0.029600,0.015600,-0.023800,0.015600,0.023800,0.009900,0.029600,-0.009900,0.029600,-0.015600,0.023800,-0.015600,-0.023800,-0.009900,-0.029600,0.0*
1,1,0.011480,-0.009900,-0.023800*
1,1,0.011480,0.009900,-0.023800*
1,1,0.011480,0.009900,0.023800*
1,1,0.011480,-0.009900,0.023800*
%
%AMD131*
4,1,8,0.029800,-0.059900,0.029800,0.059900,0.021900,0.067800,-0.021900,0.067800,-0.029800,0.059900,-0.029800,-0.059900,-0.021900,-0.067800,0.021900,-0.067800,0.029800,-0.059900,0.0*
1,1,0.015740,0.021900,-0.059900*
1,1,0.015740,0.021900,0.059900*
1,1,0.015740,-0.021900,0.059900*
1,1,0.015740,-0.021900,-0.059900*
%
%AMD132*
4,1,8,0.029800,-0.015600,0.029800,0.015600,0.023000,0.022300,-0.023000,0.022300,-0.029800,0.015600,-0.029800,-0.015600,-0.023000,-0.022300,0.023000,-0.022300,0.029800,-0.015600,0.0*
1,1,0.013500,0.023000,-0.015600*
1,1,0.013500,0.023000,0.015600*
1,1,0.013500,-0.023000,0.015600*
1,1,0.013500,-0.023000,-0.015600*
%
%AMD133*
4,1,8,0.051800,-0.035000,0.051800,0.035000,0.036200,0.050700,-0.036200,0.050700,-0.051800,0.035000,-0.051800,-0.035000,-0.036200,-0.050700,0.036200,-0.050700,0.051800,-0.035000,0.0*
1,1,0.031320,0.036200,-0.035000*
1,1,0.031320,0.036200,0.035000*
1,1,0.031320,-0.036200,0.035000*
1,1,0.031320,-0.036200,-0.035000*
%
%AMD135*
4,1,8,-0.016800,0.014500,-0.016800,-0.014500,-0.006400,-0.024900,0.006400,-0.024900,0.016800,-0.014500,0.016800,0.014500,0.006400,0.024900,-0.006400,0.024900,-0.016800,0.014500,0.0*
1,1,0.020800,-0.006400,0.014500*
1,1,0.020800,-0.006400,-0.014500*
1,1,0.020800,0.006400,-0.014500*
1,1,0.020800,0.006400,0.014500*
%
%AMD144*
4,1,8,0.023500,-0.069700,0.023500,0.069700,0.014600,0.078600,-0.014600,0.078600,-0.023500,0.069700,-0.023500,-0.069700,-0.014600,-0.078600,0.014600,-0.078600,0.023500,-0.069700,0.0*
1,1,0.017740,0.014600,-0.069700*
1,1,0.017740,0.014600,0.069700*
1,1,0.017740,-0.014600,0.069700*
1,1,0.017740,-0.014600,-0.069700*
%
%AMD147*
4,1,8,0.022700,0.016200,-0.022700,0.016200,-0.029800,0.009200,-0.029800,-0.009200,-0.022700,-0.016200,0.022700,-0.016200,0.029800,-0.009200,0.029800,0.009200,0.022700,0.016200,0.0*
1,1,0.014100,0.022700,0.009200*
1,1,0.014100,-0.022700,0.009200*
1,1,0.014100,-0.022700,-0.009200*
1,1,0.014100,0.022700,-0.009200*
%
%ADD60C,0.080000*%
%ADD61C,0.082000*%
%ADD112R,0.165480X0.086740*%
%ADD113R,0.057210X0.051310*%
%ADD114R,0.063120X0.051310*%
%ADD115R,0.086740X0.043430*%
%ADD116R,0.043430X0.086740*%
%ADD117R,0.060360X0.060360*%
%ADD118R,0.133980X0.049340*%
%ADD119R,0.334770X0.419420*%
%ADD120R,0.059180X0.067060*%
%ADD121R,0.067060X0.059180*%
%ADD122R,0.094610X0.118240*%
G04~CAMADD=123~8~0.0~0.0~469.8~591.8~69.2~0.0~15~0.0~0.0~0.0~0.0~0~0.0~0.0~0.0~0.0~0~0.0~0.0~0.0~180.0~470.0~592.0*
%ADD123D123*%
G04~CAMADD=124~8~0.0~0.0~312.3~591.8~57.4~0.0~15~0.0~0.0~0.0~0.0~0~0.0~0.0~0.0~0.0~0~0.0~0.0~0.0~180.0~312.0~592.0*
%ADD124D124*%
%ADD125R,0.047370X0.106420*%
%ADD126R,0.047370X0.063120*%
%ADD127R,0.091470X0.097760*%
%ADD128R,0.051310X0.057210*%
%ADD129R,0.043430X0.045400*%
%ADD130R,0.051310X0.063120*%
G04~CAMADD=131~8~0.0~0.0~1355.6~595.8~78.7~0.0~15~0.0~0.0~0.0~0.0~0~0.0~0.0~0.0~0.0~0~0.0~0.0~0.0~270.0~596.0~1356.0*
%ADD131D131*%
G04~CAMADD=132~8~0.0~0.0~446.1~595.8~67.5~0.0~15~0.0~0.0~0.0~0.0~0~0.0~0.0~0.0~0.0~0~0.0~0.0~0.0~270.0~596.0~446.0*
%ADD132D132*%
G04~CAMADD=133~8~0.0~0.0~1013.1~1036.7~156.6~0.0~15~0.0~0.0~0.0~0.0~0~0.0~0.0~0.0~0.0~0~0.0~0.0~0.0~270.0~1038.0~1014.0*
%ADD133D133*%
%ADD134O,0.070990X0.024540*%
G04~CAMADD=135~8~0.0~0.0~497.3~335.9~104.0~0.0~15~0.0~0.0~0.0~0.0~0~0.0~0.0~0.0~0.0~0~0.0~0.0~0.0~90.0~337.0~498.0*
%ADD135D135*%
%ADD136R,0.233000X0.133000*%
%ADD137R,0.063120X0.047370*%
%ADD138R,0.094610X0.031620*%
%ADD139O,0.094610X0.031620*%
%ADD140R,0.104460X0.104460*%
%ADD141R,0.055240X0.039500*%
%ADD142R,0.048000X0.053000*%
%ADD143R,0.118240X0.115990*%
G04~CAMADD=144~8~0.0~0.0~1572.1~469.8~88.7~0.0~15~0.0~0.0~0.0~0.0~0~0.0~0.0~0.0~0.0~0~0.0~0.0~0.0~270.0~470.0~1572.0*
%ADD144D144*%
%ADD145R,0.434770X0.308000*%
%ADD146R,0.058000X0.030000*%
G04~CAMADD=147~8~0.0~0.0~595.8~324.1~70.5~0.0~15~0.0~0.0~0.0~0.0~0~0.0~0.0~0.0~0.0~0~0.0~0.0~0.0~0.0~595.8~324.1*
%ADD147D147*%
%ADD148R,0.063120X0.055240*%
%ADD149R,0.086740X0.090680*%
%ADD150R,0.082800X0.070990*%
%ADD151R,0.061150X0.023750*%
%ADD152R,0.082800X0.055240*%
%ADD153R,0.031620X0.027680*%
%ADD154C,0.086740*%
%ADD155R,0.086740X0.086740*%
%ADD156C,0.098550*%
%ADD157R,0.098550X0.098550*%
%ADD158C,0.059180*%
%ADD159R,0.059180X0.059180*%
%ADD160C,0.078870*%
%ADD161R,0.086740X0.086740*%
%ADD162C,0.011810*%
%ADD163C,0.027680*%
%LNtcs-1900-1*%
%LPD*%
G54D60*
X03751Y03762D03*
X03766Y02511D03*
G54D61*
X03851Y03862D03*
X03651D03*
Y03662D03*
X03851D03*
X03866Y02611D03*
X03666D03*
Y02411D03*
X03866D03*
G54D112*
X02057Y02024D03*
X02293D03*
X01596Y03037D03*
X01312D03*
G54D113*
X03858Y03064D03*
Y03163D03*
Y0293D03*
Y02831D03*
Y03408D03*
Y0331D03*
G54D114*
X02471Y02459D03*
Y02384D03*
X01775Y02701D03*
Y02626D03*
X03679Y02816D03*
Y02891D03*
X01807Y03322D03*
Y03248D03*
X01165Y03479D03*
Y03404D03*
G54D115*
X02538Y04092D03*
Y04042D03*
Y03992D03*
Y03942D03*
Y03892D03*
Y03842D03*
Y03792D03*
Y03742D03*
Y03692D03*
Y03642D03*
Y03592D03*
Y03542D03*
Y03492D03*
Y03442D03*
X03207D03*
Y03492D03*
Y03542D03*
Y03592D03*
Y03642D03*
Y03692D03*
Y03742D03*
Y03792D03*
Y03842D03*
Y03892D03*
Y03942D03*
Y03992D03*
Y04042D03*
Y04092D03*
G54D116*
X02648Y03403D03*
X02698D03*
X02748D03*
X02798D03*
X02848D03*
X02898D03*
X02948D03*
X02998D03*
X03048D03*
X03098D03*
G54D117*
X02761Y03869D03*
X02833D03*
X02905D03*
X02761Y03797D03*
X02833D03*
X02905D03*
X02761Y03725D03*
X02833D03*
X02905D03*
G54D118*
X01753Y02125D03*
Y02191D03*
Y02258D03*
Y02325D03*
Y02392D03*
G54D119*
X01381Y02258D03*
G54D120*
X02205Y04152D03*
X0213D03*
X03029Y03125D03*
X02954D03*
X03027Y032D03*
X02952D03*
X03036Y02021D03*
X02961D03*
X03135D03*
X0321D03*
X03028Y02148D03*
X02953D03*
G54D121*
X01495Y0434D03*
Y04265D03*
X01592Y04342D03*
Y04267D03*
X01499Y03631D03*
Y03706D03*
X0125Y03714D03*
Y03639D03*
X01746Y0395D03*
Y04025D03*
X01829Y03949D03*
Y04024D03*
X01305Y03983D03*
Y04058D03*
X01882Y03787D03*
Y03862D03*
X02062Y03853D03*
Y03778D03*
G54D122*
X01981Y04153D03*
Y04342D03*
X01795Y04155D03*
Y04344D03*
G54D123*
X01206Y0424D03*
G54D124*
X01138Y0424D03*
Y04159D03*
X01213D03*
G54D125*
X0145Y03513D03*
Y03273D03*
X0135Y03513D03*
Y03273D03*
X01641Y03509D03*
Y03269D03*
X01541Y03509D03*
Y03269D03*
G54D126*
X03399Y03372D03*
X03474D03*
X03472Y03292D03*
X03397D03*
X03246Y02401D03*
X0332D03*
X03104Y02437D03*
X03029D03*
X01762Y03027D03*
X01837D03*
X02032Y03154D03*
X01957D03*
X03716Y0325D03*
X03641D03*
X03613Y03145D03*
X03687D03*
X03551Y03147D03*
X03476D03*
G54D127*
X02377Y03428D03*
Y03258D03*
G54D128*
X03125Y0192D03*
X03224D03*
X03057Y01921D03*
X02958D03*
G54D129*
X0281Y03279D03*
X02934D03*
G54D130*
X02547Y02755D03*
X02472D03*
X02473Y02676D03*
X02548D03*
X02543Y02896D03*
X02468D03*
X02467Y02977D03*
X02542D03*
X02259Y03122D03*
X02185D03*
Y03202D03*
X02259D03*
X02176Y03582D03*
X0225D03*
Y03663D03*
X02176D03*
X0332Y02488D03*
X03246D03*
X0303Y02525D03*
X03105D03*
X03025Y0297D03*
X0295D03*
X02951Y03051D03*
X03026D03*
X01543Y01956D03*
X01468D03*
X02347Y04024D03*
X02272D03*
X02344Y03858D03*
X02269D03*
X02344Y0394D03*
X02269D03*
X02131Y03938D03*
X02206D03*
X02131Y03856D03*
X02206D03*
X02132Y04026D03*
X02207D03*
G54D131*
X02886Y02851D03*
X01994Y03397D03*
G54D132*
X02623Y02761D03*
Y02851D03*
Y02941D03*
X02257Y03487D03*
Y03397D03*
Y03307D03*
G54D133*
X03187Y02997D03*
Y03242D03*
G54D134*
X03176Y02329D03*
Y02304D03*
Y02278D03*
Y02252D03*
X03396Y02329D03*
Y02304D03*
Y02278D03*
Y02252D03*
G54D135*
X03029Y02343D03*
X02992D03*
X03066D03*
Y02256D03*
X02992D03*
X03029D03*
G54D136*
X02141Y02681D03*
Y02281D03*
G54D137*
X02532Y0318D03*
Y03254D03*
X01736Y03465D03*
Y0354D03*
X01723Y03247D03*
Y03321D03*
X0125Y03311D03*
Y03236D03*
X03563Y03353D03*
Y03428D03*
X03542Y02986D03*
Y03061D03*
X03455Y02986D03*
Y03061D03*
X0125Y03402D03*
Y03477D03*
G54D138*
X02631Y03195D03*
G54D139*
X02631Y03145D03*
Y03095D03*
Y03045D03*
X02844Y03195D03*
Y03145D03*
Y03095D03*
Y03045D03*
G54D140*
X0206Y02857D03*
X01815D03*
G54D141*
X0193Y02989D03*
Y03064D03*
X02028Y03027D03*
X03648Y03358D03*
Y03433D03*
X03747Y03395D03*
X03641Y02965D03*
Y0304D03*
X03739Y03002D03*
G54D142*
X01931Y0365D03*
X02001D03*
X01966Y0373D03*
X02Y0402D03*
X0193D03*
X01965Y0394D03*
G54D143*
X017Y01967D03*
X01896D03*
G54D144*
X02772Y02469D03*
X02672D03*
X02572D03*
G54D145*
X02672Y02041D03*
G54D146*
X03096Y02093D03*
Y02167D03*
X03198D03*
Y0213D03*
Y02093D03*
G54D147*
X01609Y04127D03*
Y04077D03*
X01392Y03777D03*
X01609Y03827D03*
X01392D03*
Y03927D03*
X01609Y03777D03*
X01392Y03877D03*
X01609D03*
Y03927D03*
Y04027D03*
X01392Y03977D03*
Y04027D03*
Y04127D03*
X01609Y03977D03*
X01392Y04077D03*
G54D148*
X01327Y03639D03*
X01414D03*
Y03706D03*
X01327D03*
G54D149*
X01135Y04002D03*
Y03758D03*
G54D150*
X01043Y04042D03*
Y03719D03*
G54D151*
X01148Y03829D03*
Y03855D03*
Y0388D03*
Y03906D03*
Y03932D03*
G54D152*
X01043Y03914D03*
Y03847D03*
G54D153*
X03348Y03608D03*
X03399Y03627D03*
Y03588D03*
G54D154*
X0113Y02406D03*
Y02201D03*
X03369Y03934D03*
Y04034D03*
X01146Y02947D03*
Y02609D03*
X01489Y02798D03*
G54D155*
X03369Y03834D03*
G54D156*
X00981Y03287D03*
Y02815D03*
Y02933D03*
Y03051D03*
Y03169D03*
G54D157*
X00981Y02696D03*
G54D158*
X02414Y01944D03*
X02216Y02905D03*
G54D159*
X02414Y02023D03*
X02216Y02984D03*
G54D160*
X00978Y02515D03*
Y02311D03*
G54D161*
X01489Y02562D03*
G54D162*
X01063Y0396D03*
X02059Y02082D03*
X02083Y04054D03*
X02084Y0397D03*
X03856Y03249D03*
X01077Y03068D03*
X01097Y02791D03*
X02197Y02393D03*
X03072Y0213D03*
X02025Y03483D03*
X02284Y03791D03*
X01966Y03772D03*
X01815Y0343D03*
X01774Y04069D03*
X02443Y03571D03*
X01093Y03588D03*
X01964Y03894D03*
X01533Y0358D03*
X03338Y03331D03*
X03274Y03295D03*
X0295Y02721D03*
X02089Y0416D03*
X02653Y0389D03*
X02626Y03731D03*
X02738Y03582D03*
X0266Y03665D03*
X03129Y0399D03*
X02553Y03041D03*
X02711Y03547D03*
X02588Y03372D03*
X02383Y03644D03*
X02872Y03624D03*
X02459Y03994D03*
X02692Y03653D03*
X02602Y03671D03*
X02Y03519D03*
X02465Y03604D03*
X03141Y03893D03*
X03111Y04053D03*
X0272Y03639D03*
X03049Y03629D03*
X03055Y03598D03*
X02809Y03567D03*
X01727Y04162D03*
X01893Y04053D03*
X03636Y02734D03*
X03681Y0273D03*
X03056Y02905D03*
X03362Y03371D03*
X03577Y02897D03*
X03603Y02928D03*
X03422Y0316D03*
X03375Y03167D03*
X02738Y03238D03*
X02775D03*
X03509Y03458D03*
X02163Y02797D03*
X02721Y02806D03*
X01967Y03025D03*
X02993Y02309D03*
X03081Y02052D03*
X02503Y02823D03*
X02163Y03017D03*
X02722Y02687D03*
X02887Y024D03*
X02645Y02237D03*
X02624Y03001D03*
X02868Y02668D03*
X03155Y02519D03*
X0173Y0312D03*
X03248Y02167D03*
X03135Y02168D03*
X03388Y0343D03*
X01925Y02503D03*
X01954Y03481D03*
X01731Y02895D03*
X02765Y03095D03*
X03777Y0294D03*
X03047Y02675D03*
X01494Y03383D03*
X03403Y02986D03*
X01496Y03471D03*
X01853Y02262D03*
X03157Y02686D03*
X02206Y03809D03*
X01814Y02769D03*
X01823Y02627D03*
X01474Y03178D03*
X01379Y03156D03*
X01556Y03667D03*
X0165Y02607D03*
X02667Y02851D03*
X02326Y03644D03*
X02567Y03083D03*
X03591Y03569D03*
X02312Y03174D03*
X02693Y03238D03*
X02613Y03251D03*
X02401Y03926D03*
X03878Y03536D03*
X03435Y03249D03*
X03305Y03162D03*
X0204Y03578D03*
X02106Y03497D03*
X02052Y03505D03*
X02717Y02911D03*
X02873Y02707D03*
X03316Y03079D03*
X01092Y04104D03*
X01248Y03896D03*
X01319Y03894D03*
X01615Y03689D03*
X01356Y03582D03*
X01323Y04134D03*
X01654Y0427D03*
X01545Y04097D03*
X01549Y0405D03*
X01892Y04288D03*
X02096Y04303D03*
X01871Y04188D03*
X02436Y04058D03*
X02435Y04085D03*
X02855Y04016D03*
G54D163*
X02036Y04156D03*
X01922Y04218D03*
M02*