%FSTAX23Y23*%
%MOIN*%
%SFA1B1*%

%IPPOS*%
%ADD101C,0.007870*%
%ADD102C,0.006000*%
%ADD103C,0.000000*%
%ADD104C,0.009840*%
%ADD105C,0.010000*%
%ADD106C,0.005000*%
%ADD107C,0.001970*%
%ADD108C,0.003940*%
%ADD109C,0.005910*%
%ADD110C,0.005980*%
%ADD111C,0.006060*%
%LNtcs-1900-1*%
%LPD*%
G36*
X01322Y0321D02*
X01297D01*
Y03235*
X01322*
Y0321*
G37*
G36*
X01905Y03089D02*
X0188D01*
Y03114*
X01905*
Y03089*
G37*
G36*
X03616Y03065D02*
X03591D01*
Y0309*
X03616*
Y03065*
G37*
G36*
X03514Y03788D02*
X03432Y03831D01*
X03514Y03875*
Y03788*
G37*
G36*
X01694Y03547D02*
X01669D01*
Y03572*
X01694*
Y03547*
G37*
G36*
X03623Y03458D02*
X03598D01*
Y03483*
X03623*
Y03458*
G37*
G54D101*
X01206Y0383D02*
X01198D01*
X01206*
X01331Y03586D02*
X01323D01*
X01331*
X01396Y04179D02*
X01388D01*
X01396*
X02776Y02571D02*
X02768D01*
X02776*
X01212Y04282D02*
X01204D01*
X01212*
X02483Y04092D02*
X02475D01*
X02483*
X02314Y03307D02*
X02307D01*
X02314*
X03152Y03326D02*
X03144D01*
X03152*
X02573Y02941D02*
X02565D01*
X02573*
X02381Y035D02*
X02374D01*
X02381*
X01807Y04072D02*
X01801Y0408D01*
X01792Y04077*
Y04068*
X01801Y04065*
X01807Y04072*
X01993Y0407D02*
X01987Y04078D01*
X01978Y04075*
Y04066*
X01987Y04063*
X01993Y0407*
X0199Y02103D02*
X01982D01*
X0199*
X01823Y01892D02*
Y02042D01*
X01896Y01892D02*
Y01904D01*
Y0203D02*
Y02042D01*
X01699Y0203D02*
Y02042D01*
Y01892D02*
Y01904D01*
Y01892D02*
X01896D01*
X01699Y02042D02*
X01896D01*
X018Y02916D02*
Y02943D01*
Y0277D02*
Y02798D01*
X01835Y02916D02*
Y02943D01*
Y0277D02*
Y02798D01*
X01762Y02922D02*
Y02941D01*
X01753Y02932D02*
X01773D01*
X02075Y02916D02*
Y02943D01*
Y0277D02*
Y02798D01*
X018Y02943D02*
X02075D01*
X018Y0277D02*
X02075D01*
X02692Y03027D02*
X02782D01*
X02692D02*
Y03213D01*
X02782Y03027D02*
Y03213D01*
X02692D02*
X02782D01*
X03241Y02248D02*
Y02332D01*
X0333*
Y02248D02*
Y02332D01*
X03241Y02248D02*
X0333D01*
X02334Y02822D02*
Y0307D01*
X02145Y02822D02*
X02334D01*
X02145Y0307D02*
X02334D01*
X02145Y02822D02*
Y0307D01*
X01561Y02463D02*
X01649D01*
Y02054D02*
Y02463D01*
X01561Y02054D02*
X01649D01*
X00927Y02642D02*
X01035D01*
Y03343*
X00927Y02642D02*
Y03343D01*
X01035*
X03314Y03778D02*
X03423D01*
Y04088*
X03314Y03778D02*
Y04088D01*
X03423*
X01879Y02058D02*
Y02092D01*
X01896Y02075D02*
X01862D01*
X02217Y04075D02*
Y04102D01*
X02231Y04088D02*
X02204D01*
X02229Y03781D02*
Y03808D01*
X02243Y03794D02*
X02216D01*
X01094Y03356D02*
X01121D01*
X01107Y03342D02*
Y03369D01*
X01847Y03196D02*
X01874D01*
X0186Y03183D02*
Y0321D01*
X02909Y03041D02*
Y03014D01*
X02895Y03028D02*
X02922D01*
X03115Y0257D02*
Y02597D01*
X03128Y02583D02*
X03101D01*
X03239Y02574D02*
Y02547D01*
X03226Y0256D02*
X03253D01*
X02307Y03625D02*
Y03652D01*
X0232Y03639D02*
X02293D01*
X0236Y03078D02*
Y03105D01*
X02374Y03091D02*
X02347D01*
X02596Y02999D02*
Y03026D01*
X0261Y03013D02*
X02583D01*
X02602Y02691D02*
Y02718D01*
X02616Y02705D02*
X02589D01*
G54D102*
X03769Y02337D02*
X03763D01*
X03769*
X03754Y03588D02*
X03748D01*
X03754*
X03355Y03571D02*
X03381D01*
X03355D02*
Y03582D01*
Y03644D02*
X03381D01*
X03355Y03633D02*
Y03644D01*
X03711Y0264D02*
X0382D01*
X03895Y02456D02*
Y02565D01*
X03711Y02382D02*
X0382D01*
X03637Y02456D02*
Y02565D01*
X03918Y02623D02*
X04206D01*
Y02398D02*
Y02623D01*
X03918Y02398D02*
X04206D01*
X03885Y02461D02*
Y0256D01*
X03123Y02069D02*
X03135D01*
X03159*
X03171*
X03697Y03891D02*
X03806D01*
X0388Y03708D02*
Y03817D01*
X03697Y03633D02*
X03806D01*
X03622Y03708D02*
Y03817D01*
X03904Y03875D02*
X04192D01*
Y0365D02*
Y03875D01*
X03904Y0365D02*
X04192D01*
X0387Y03713D02*
Y03812D01*
X03827Y03471D02*
Y03446D01*
X0384*
X03844Y03451*
Y03467*
X0384Y03471*
X03827*
X03852Y03446D02*
X03861D01*
X03856*
Y03471*
X03852Y03467*
X03873D02*
X03877Y03471D01*
X03886*
X0389Y03467*
Y03463*
X03886Y03459*
X03881*
X03886*
X0389Y03455*
Y03451*
X03886Y03446*
X03877*
X03873Y03451*
X03278Y01979D02*
X03253D01*
Y01991*
X03257Y01995*
X03266*
X0327Y01991*
Y01979*
Y01987D02*
X03278Y01995D01*
Y02004D02*
Y02012D01*
Y02008*
X03253*
X03257Y02004*
Y02025D02*
X03253Y02029D01*
Y02037*
X03257Y02041*
X03274*
X03278Y02037*
Y02029*
X03274Y02025*
X03257*
Y0205D02*
X03253Y02054D01*
Y02062*
X03257Y02066*
X03274*
X03278Y02062*
Y02054*
X03274Y0205*
X03257*
X02926Y022D02*
X02901D01*
Y02213*
X02905Y02217*
X02913*
X02917Y02213*
Y022*
Y02209D02*
X02926Y02217D01*
X02922Y02225D02*
X02926Y02229D01*
Y02238*
X02922Y02242*
X02905*
X02901Y02238*
Y02229*
X02905Y02225*
X02909*
X02913Y02229*
Y02242*
X02926Y0225D02*
Y02259D01*
Y02254*
X02901*
X02905Y0225*
X02955Y02067D02*
Y02092D01*
X02968*
X02972Y02088*
Y0208*
X02968Y02076*
X02955*
X02964D02*
X02972Y02067D01*
X0298Y02072D02*
X02984Y02067D01*
X02993*
X02997Y02072*
Y02088*
X02993Y02092*
X02984*
X0298Y02088*
Y02084*
X02984Y0208*
X02997*
X03005Y02088D02*
X03009Y02092D01*
X03018*
X03022Y02088*
Y02072*
X03018Y02067*
X03009*
X03005Y02072*
Y02088*
X01632Y01899D02*
Y01874D01*
X01645*
X01649Y01878*
Y01894*
X01645Y01899*
X01632*
X01674D02*
X01657D01*
Y01886*
X01666Y0189*
X0167*
X01674Y01886*
Y01878*
X0167Y01874*
X01662*
X01657Y01878*
X0123Y03513D02*
Y03538D01*
X01242*
X01246Y03534*
Y03526*
X01242Y03522*
X0123*
X01238D02*
X01246Y03513D01*
X01271Y03538D02*
X01255D01*
Y03526*
X01263Y0353*
X01267*
X01271Y03526*
Y03517*
X01267Y03513*
X01259*
X01255Y03517*
X03371Y03115D02*
Y0314D01*
X03383*
X03387Y03135*
Y03127*
X03383Y03123*
X03371*
X03379D02*
X03387Y03115D01*
X03408D02*
Y0314D01*
X03396Y03127*
X03412*
X03421Y03135D02*
X03425Y0314D01*
X03433*
X03437Y03135*
Y03131*
X03433Y03127*
X03437Y03123*
Y03119*
X03433Y03115*
X03425*
X03421Y03119*
Y03123*
X03425Y03127*
X03421Y03131*
Y03135*
X03425Y03127D02*
X03433D01*
X03749Y03113D02*
X03724D01*
Y03125*
X03728Y03129*
X03736*
X0374Y03125*
Y03113*
Y03121D02*
X03749Y03129D01*
Y0315D02*
X03724D01*
X03736Y03138*
Y03154*
X03724Y03163D02*
Y03179D01*
X03728*
X03744Y03163*
X03749*
X03341Y03054D02*
Y03079D01*
X03354*
X03358Y03074*
Y03066*
X03354Y03062*
X03341*
X03349D02*
X03358Y03054D01*
X03379D02*
Y03079D01*
X03366Y03066*
X03383*
X03391Y03074D02*
X03395Y03079D01*
X03404*
X03408Y03074*
Y0307*
X03404Y03066*
X03399*
X03404*
X03408Y03062*
Y03058*
X03404Y03054*
X03395*
X03391Y03058*
X03512Y02929D02*
Y02954D01*
X03525*
X03529Y02949*
Y02941*
X03525Y02937*
X03512*
X03521D02*
X03529Y02929D01*
X0355D02*
Y02954D01*
X03537Y02941*
X03554*
X03579Y02929D02*
X03562D01*
X03579Y02945*
Y02949*
X03575Y02954*
X03566*
X03562Y02949*
X03528Y03461D02*
Y03486D01*
X03541*
X03545Y03482*
Y03474*
X03541Y03469*
X03528*
X03536D02*
X03545Y03461D01*
X03566D02*
Y03486D01*
X03553Y03474*
X0357*
X03578Y03461D02*
X03586D01*
X03582*
Y03486*
X03578Y03482*
X03537Y03239D02*
Y03264D01*
X03549*
X03554Y0326*
Y03251*
X03549Y03247*
X03537*
X03545D02*
X03554Y03239D01*
X03574D02*
Y03264D01*
X03562Y03251*
X03579*
X03587Y0326D02*
X03591Y03264D01*
X03599*
X03604Y0326*
Y03243*
X03599Y03239*
X03591*
X03587Y03243*
Y0326*
X03752Y02922D02*
X03736D01*
X03731Y02918*
Y02909*
X03736Y02905*
X03752*
X03756Y02909*
Y02918*
X03748Y02913D02*
X03756Y02922D01*
Y02918D02*
X03752Y02922D01*
X03756Y0293D02*
Y02938D01*
Y02934*
X03731*
X03736Y0293*
Y02951D02*
X03731Y02955D01*
Y02963*
X03736Y02967*
X03752*
X03756Y02963*
Y02955*
X03752Y02951*
X03736*
X03637Y033D02*
Y03317D01*
X03633Y03321*
X03625*
X03621Y03317*
Y033*
X03625Y03296*
X03633*
X03629Y03304D02*
X03637Y03296D01*
X03633D02*
X03637Y033D01*
X03646D02*
X0365Y03296D01*
X03658*
X03662Y033*
Y03317*
X03658Y03321*
X0365*
X03646Y03317*
Y03312*
X0365Y03308*
X03662*
X0384Y03223D02*
Y03198D01*
X03853*
X03857Y03202*
Y03219*
X03853Y03223*
X0384*
X03878Y03198D02*
Y03223D01*
X03865Y03211*
X03882*
X02041Y03065D02*
Y03081D01*
X02037Y03086*
X02028*
X02024Y03081*
Y03065*
X02028Y03061*
X02037*
X02032Y03069D02*
X02041Y03061D01*
X02037D02*
X02041Y03065D01*
X02049Y03081D02*
X02053Y03086D01*
X02062*
X02066Y03081*
Y03077*
X02062Y03073*
X02057*
X02062*
X02066Y03069*
Y03065*
X02062Y03061*
X02053*
X02049Y03065*
X01424Y03603D02*
Y03582D01*
X01428Y03578*
X01436*
X0144Y03582*
Y03603*
X01449Y03582D02*
X01453Y03578D01*
X01461*
X01465Y03582*
Y03599*
X01461Y03603*
X01453*
X01449Y03599*
Y03595*
X01453Y03591*
X01465*
X0158Y03604D02*
Y03583D01*
X01584Y03579*
X01593*
X01597Y03583*
Y03604*
X01618Y03579D02*
Y03604D01*
X01605Y03592*
X01622*
X02125Y04094D02*
X02121Y04098D01*
X02113*
X02109Y04094*
Y04077*
X02113Y04073*
X02121*
X02125Y04077*
X02134Y04094D02*
X02138Y04098D01*
X02146*
X0215Y04094*
Y0409*
X02146Y04086*
X02142*
X02146*
X0215Y04082*
Y04077*
X02146Y04073*
X02138*
X02134Y04077*
X02159D02*
X02163Y04073D01*
X02171*
X02175Y04077*
Y04094*
X02171Y04098*
X02163*
X02159Y04094*
Y0409*
X02163Y04086*
X02175*
X0214Y03804D02*
X02136Y03808D01*
X02128*
X02124Y03804*
Y03787*
X02128Y03783*
X02136*
X0214Y03787*
X02149Y03804D02*
X02153Y03808D01*
X02161*
X02165Y03804*
Y038*
X02161Y03795*
X02157*
X02161*
X02165Y03791*
Y03787*
X02161Y03783*
X02153*
X02149Y03787*
X0219Y03808D02*
X02182Y03804D01*
X02174Y03795*
Y03787*
X02178Y03783*
X02186*
X0219Y03787*
Y03791*
X02186Y03795*
X02174*
X02043Y03942D02*
X02039Y03946D01*
X0203*
X02026Y03942*
Y03925*
X0203Y03921*
X02039*
X02043Y03925*
X02051Y03942D02*
X02055Y03946D01*
X02064*
X02068Y03942*
Y03937*
X02064Y03933*
X02059*
X02064*
X02068Y03929*
Y03925*
X02064Y03921*
X02055*
X02051Y03925*
X02076Y03942D02*
X0208Y03946D01*
X02089*
X02093Y03942*
Y03925*
X02089Y03921*
X0208*
X02076Y03925*
Y03942*
X02399Y03958D02*
X02395Y03962D01*
X02387*
X02382Y03958*
Y03942*
X02387Y03937*
X02395*
X02399Y03942*
X0242Y03937D02*
Y03962D01*
X02407Y0395*
X02424*
X02432Y03958D02*
X02437Y03962D01*
X02445*
X02449Y03958*
Y03942*
X02445Y03937*
X02437*
X02432Y03942*
Y03958*
X02402Y03866D02*
X02398Y0387D01*
X02389*
X02385Y03866*
Y03849*
X02389Y03845*
X02398*
X02402Y03849*
X0241Y03866D02*
X02414Y0387D01*
X02423*
X02427Y03866*
Y03862*
X02423Y03857*
X02419*
X02423*
X02427Y03853*
Y03849*
X02423Y03845*
X02414*
X0241Y03849*
X02435Y0387D02*
X02452D01*
Y03866*
X02435Y03849*
Y03845*
X02295Y04096D02*
X02291Y041D01*
X02282*
X02278Y04096*
Y04079*
X02282Y04075*
X02291*
X02295Y04079*
X02303Y04096D02*
X02307Y041D01*
X02316*
X0232Y04096*
Y04092*
X02316Y04088*
X02311*
X02316*
X0232Y04084*
Y04079*
X02316Y04075*
X02307*
X02303Y04079*
X02345Y04075D02*
X02328D01*
X02345Y04092*
Y04096*
X02341Y041*
X02332*
X02328Y04096*
X01163Y03366D02*
X01159Y0337D01*
X0115*
X01146Y03366*
Y03349*
X0115Y03345*
X01159*
X01163Y03349*
X01188Y03345D02*
X01171D01*
X01188Y03362*
Y03366*
X01184Y0337*
X01175*
X01171Y03366*
X01807Y03202D02*
X01803Y03207D01*
X01794*
X0179Y03202*
Y03186*
X01794Y03182*
X01803*
X01807Y03186*
X01815Y03182D02*
X01824D01*
X01819*
Y03207*
X01815Y03202*
X02062Y02975D02*
X02058Y02979D01*
X0205*
X02046Y02975*
Y02958*
X0205Y02954*
X02058*
X02062Y02958*
X02071Y02975D02*
X02075Y02979D01*
X02083*
X02087Y02975*
Y02971*
X02083Y02967*
X02079*
X02083*
X02087Y02963*
Y02958*
X02083Y02954*
X02075*
X02071Y02958*
X01498Y01904D02*
X01494Y01908D01*
X01486*
X01482Y01904*
Y01888*
X01486Y01883*
X01494*
X01498Y01888*
X01523Y01908D02*
X01515Y01904D01*
X01507Y01896*
Y01888*
X01511Y01883*
X01519*
X01523Y01888*
Y01892*
X01519Y01896*
X01507*
X01654Y02965D02*
X0165Y02969D01*
X01641*
X01637Y02965*
Y02949*
X01641Y02944*
X0165*
X01654Y02949*
X01675Y02944D02*
Y02969D01*
X01662Y02957*
X01679*
X03662Y02779D02*
X03658Y02783D01*
X03649*
X03645Y02779*
Y02763*
X03649Y02758*
X03658*
X03662Y02763*
X0367Y02758D02*
X03678D01*
X03674*
Y02783*
X0367Y02779*
X03691Y02763D02*
X03695Y02758D01*
X03703*
X03708Y02763*
Y02779*
X03703Y02783*
X03695*
X03691Y02779*
Y02775*
X03695Y02771*
X03708*
X0197Y03199D02*
Y03224D01*
X01982*
X01987Y0322*
Y03212*
X01982Y03208*
X0197*
X01978D02*
X01987Y03199D01*
X01995Y0322D02*
X01999Y03224D01*
X02007*
X02012Y0322*
Y03216*
X02007Y03212*
X02003*
X02007*
X02012Y03208*
Y03203*
X02007Y03199*
X01999*
X01995Y03203*
X0202Y03199D02*
X02028D01*
X02024*
Y03224*
X0202Y0322*
X01767Y03072D02*
Y03097D01*
X0178*
X01784Y03093*
Y03085*
X0178Y03081*
X01767*
X01776D02*
X01784Y03072D01*
X01792Y03093D02*
X01796Y03097D01*
X01805*
X01809Y03093*
Y03089*
X01805Y03085*
X01801*
X01805*
X01809Y03081*
Y03077*
X01805Y03072*
X01796*
X01792Y03077*
X01817Y03093D02*
X01821Y03097D01*
X0183*
X01834Y03093*
Y03089*
X0183Y03085*
X01826*
X0183*
X01834Y03081*
Y03077*
X0183Y03072*
X01821*
X01817Y03077*
X01203Y0325D02*
X01178D01*
Y03263*
X01182Y03267*
X01191*
X01195Y03263*
Y0325*
Y03259D02*
X01203Y03267D01*
X01178Y03292D02*
X01182Y03284D01*
X01191Y03275*
X01199*
X01203Y0328*
Y03288*
X01199Y03292*
X01195*
X01191Y03288*
Y03275*
X01705Y03188D02*
Y03213D01*
X01718*
X01722Y03209*
Y03201*
X01718Y03197*
X01705*
X01714D02*
X01722Y03188D01*
X0173D02*
X01739D01*
X01734*
Y03213*
X0173Y03209*
X01719Y03403D02*
Y03428D01*
X01731*
X01736Y03424*
Y03416*
X01731Y03411*
X01719*
X01727D02*
X01736Y03403D01*
X01761D02*
X01744D01*
X01761Y0342*
Y03424*
X01756Y03428*
X01748*
X01744Y03424*
X03837Y02797D02*
Y02772D01*
X0385*
X03854Y02776*
Y02793*
X0385Y02797*
X03837*
X03862Y02793D02*
X03866Y02797D01*
X03875*
X03879Y02793*
Y02789*
X03875Y02785*
X03879Y0278*
Y02776*
X03875Y02772*
X03866*
X03862Y02776*
Y0278*
X03866Y02785*
X03862Y02789*
Y02793*
X03866Y02785D02*
X03875D01*
X02681Y03279D02*
Y03259D01*
X02685Y03254*
X02693*
X02697Y03259*
Y03279*
X02706Y03254D02*
X02714D01*
X0271*
Y03279*
X02706Y03275*
X02726D02*
X02731Y03279D01*
X02739*
X02743Y03275*
Y03259*
X02739Y03254*
X02731*
X02726Y03259*
Y03275*
X0307Y03022D02*
X03066Y03018D01*
Y0301*
X0307Y03005*
X03087*
X03091Y0301*
Y03018*
X03087Y03022*
X03091Y03043D02*
X03066D01*
X03079Y0303*
Y03047*
X03091Y03068D02*
X03066D01*
X03079Y03055*
Y03072*
X02973Y02921D02*
X02969Y02925D01*
X0296*
X02956Y02921*
Y02904*
X0296Y029*
X02969*
X02973Y02904*
X02994Y029D02*
Y02925D01*
X02981Y02913*
X02998*
X03006Y02921D02*
X0301Y02925D01*
X03019*
X03023Y02921*
Y02917*
X03019Y02913*
X03015*
X03019*
X03023Y02908*
Y02904*
X03019Y029*
X0301*
X03006Y02904*
X025Y03122D02*
Y03147D01*
X02513*
X02517Y03142*
Y03134*
X02513Y0313*
X025*
X02509D02*
X02517Y03122D01*
X02525Y03142D02*
X0253Y03147D01*
X02538*
X02542Y03142*
Y03138*
X02538Y03134*
X02534*
X02538*
X02542Y0313*
Y03126*
X02538Y03122*
X0253*
X02525Y03126*
X02563Y03122D02*
Y03147D01*
X0255Y03134*
X02567*
X01808Y02483D02*
Y02458D01*
X01824*
X01833Y02479D02*
X01837Y02483D01*
X01845*
X01849Y02479*
Y02475*
X01845Y02471*
X01841*
X01845*
X01849Y02466*
Y02462*
X01845Y02458*
X01837*
X01833Y02462*
X01203Y02033D02*
Y02013D01*
X01207Y02008*
X01215*
X01219Y02013*
Y02033*
X01244D02*
X01236Y02029D01*
X01228Y02021*
Y02013*
X01232Y02008*
X0124*
X01244Y02013*
Y02017*
X0124Y02021*
X01228*
X03374Y0252D02*
X0337Y02524D01*
X03362*
X03358Y0252*
Y02504*
X03362Y025*
X0337*
X03374Y02504*
X03383Y02524D02*
X03399D01*
Y0252*
X03383Y02504*
Y025*
X03025Y02592D02*
X03021Y02596D01*
X03013*
X03008Y02592*
Y02576*
X03013Y02571*
X03021*
X03025Y02576*
X03033Y02592D02*
X03038Y02596D01*
X03046*
X0305Y02592*
Y02588*
X03046Y02584*
X0305Y0258*
Y02576*
X03046Y02571*
X03038*
X03033Y02576*
Y0258*
X03038Y02584*
X03033Y02588*
Y02592*
X03038Y02584D02*
X03046D01*
X03355Y02387D02*
Y02412D01*
X03367*
X03371Y02408*
Y024*
X03367Y02396*
X03355*
X03363D02*
X03371Y02387D01*
X0338D02*
X03388D01*
X03384*
Y02412*
X0338Y02408*
X03401D02*
X03405Y02412D01*
X03413*
X03417Y02408*
Y02391*
X03413Y02387*
X03405*
X03401Y02391*
Y02408*
X02926Y02275D02*
X02947D01*
X02951Y02279*
Y02288*
X02947Y02292*
X02926*
X0293Y023D02*
X02926Y02304D01*
Y02313*
X0293Y02317*
X02935*
X02939Y02313*
Y02308*
Y02313*
X02943Y02317*
X02947*
X02951Y02313*
Y02304*
X02947Y023*
X0293Y02325D02*
X02926Y02329D01*
Y02338*
X0293Y02342*
X02947*
X02951Y02338*
Y02329*
X02947Y02325*
X0293*
Y0235D02*
X02926Y02354D01*
Y02363*
X0293Y02367*
X02947*
X02951Y02363*
Y02354*
X02947Y0235*
X0293*
X03277Y02219D02*
Y02199D01*
X03281Y02194*
X0329*
X03294Y02199*
Y02219*
X03302Y02194D02*
X0331D01*
X03306*
Y02219*
X03302Y02215*
X03323Y02194D02*
X03331D01*
X03327*
Y02219*
X03323Y02215*
X03375Y04124D02*
X03392Y04099D01*
Y04124D02*
X03375Y04099D01*
X03417Y04124D02*
X034D01*
Y04111*
X03409Y04116*
X03413*
X03417Y04111*
Y04103*
X03413Y04099*
X03405*
X034Y04103*
X01687Y02485D02*
Y0246D01*
X01703*
X01712D02*
X0172D01*
X01716*
Y02485*
X01712Y02481*
X01018Y02222D02*
X01001D01*
Y0221*
X0101*
X01001*
Y02197*
X01026D02*
X01035D01*
X01031*
Y02222*
X01026Y02218*
X02437Y02822D02*
X02433Y02826D01*
X02425*
X02421Y02822*
Y02805*
X02425Y02801*
X02433*
X02437Y02805*
X02462Y02801D02*
X02446D01*
X02462Y02817*
Y02822*
X02458Y02826*
X0245*
X02446Y02822*
X02471D02*
X02475Y02826D01*
X02483*
X02487Y02822*
Y02817*
X02483Y02813*
X02487Y02809*
Y02805*
X02483Y02801*
X02475*
X02471Y02805*
Y02809*
X02475Y02813*
X02471Y02817*
Y02822*
X02475Y02813D02*
X02483D01*
X02382Y02904D02*
X02378Y02908D01*
X0237*
X02366Y02904*
Y02888*
X0237Y02883*
X02378*
X02382Y02888*
X02407Y02883D02*
X02391D01*
X02407Y029*
Y02904*
X02403Y02908*
X02395*
X02391Y02904*
X02416Y02888D02*
X0242Y02883D01*
X02428*
X02432Y02888*
Y02904*
X02428Y02908*
X0242*
X02416Y02904*
Y029*
X0242Y02896*
X02432*
X02102Y03189D02*
X02098Y03193D01*
X02089*
X02085Y03189*
Y03172*
X02089Y03168*
X02098*
X02102Y03172*
X02127Y03168D02*
X0211D01*
X02127Y03184*
Y03189*
X02123Y03193*
X02114*
X0211Y03189*
X02135D02*
X02139Y03193D01*
X02148*
X02152Y03189*
Y03184*
X02148Y0318*
X02143*
X02148*
X02152Y03176*
Y03172*
X02148Y03168*
X02139*
X02135Y03172*
X02309Y03591D02*
X02305Y03595D01*
X02297*
X02293Y03591*
Y03575*
X02297Y0357*
X02305*
X02309Y03575*
X02334Y0357D02*
X02318D01*
X02334Y03587*
Y03591*
X0233Y03595*
X02322*
X02318Y03591*
X02359Y0357D02*
X02343D01*
X02359Y03587*
Y03591*
X02355Y03595*
X02347*
X02343Y03591*
X02382Y02979D02*
X02378Y02983D01*
X0237*
X02366Y02979*
Y02962*
X0237Y02958*
X02378*
X02382Y02962*
X02407Y02958D02*
X02391D01*
X02407Y02975*
Y02979*
X02403Y02983*
X02395*
X02391Y02979*
X02416Y02983D02*
X02432D01*
Y02979*
X02416Y02962*
Y02958*
X02448Y02624D02*
X02444Y02628D01*
X02436*
X02432Y02624*
Y02607*
X02436Y02603*
X02444*
X02448Y02607*
X02473Y02603D02*
X02457D01*
X02473Y0262*
Y02624*
X02469Y02628*
X02461*
X02457Y02624*
X02498Y02628D02*
X0249Y02624D01*
X02482Y02615*
Y02607*
X02486Y02603*
X02494*
X02498Y02607*
Y02611*
X02494Y02615*
X02482*
X02318Y03139D02*
X02314Y03143D01*
X02306*
X02302Y03139*
Y03122*
X02306Y03118*
X02314*
X02318Y03122*
X02343Y03118D02*
X02327D01*
X02343Y03135*
Y03139*
X02339Y03143*
X02331*
X02327Y03139*
X02352Y03118D02*
X0236D01*
X02356*
Y03143*
X02352Y03139*
X02309Y03686D02*
X02305Y0369D01*
X02297*
X02293Y03686*
Y03669*
X02297Y03665*
X02305*
X02309Y03669*
X02334Y03665D02*
X02318D01*
X02334Y03682*
Y03686*
X0233Y0369*
X02322*
X02318Y03686*
X02343D02*
X02347Y0369D01*
X02355*
X02359Y03686*
Y03669*
X02355Y03665*
X02347*
X02343Y03669*
Y03686*
X03406Y03216D02*
Y03241D01*
X03418*
X03423Y03237*
Y03229*
X03418Y03224*
X03406*
X03414D02*
X03423Y03216D01*
X03443D02*
Y03241D01*
X03431Y03229*
X03448*
X03468Y03216D02*
Y03241D01*
X03456Y03229*
X03473*
X03286Y03355D02*
Y0338D01*
X03298*
X03303Y03376*
Y03367*
X03298Y03363*
X03286*
X03294D02*
X03303Y03355D01*
X03311Y03376D02*
X03315Y0338D01*
X03323*
X03328Y03376*
Y03371*
X03323Y03367*
X03319*
X03323*
X03328Y03363*
Y03359*
X03323Y03355*
X03315*
X03311Y03359*
X03336Y0338D02*
X03353D01*
Y03376*
X03336Y03359*
Y03355*
X02223Y02807D02*
X0224Y02782D01*
Y02807D02*
X02223Y02782D01*
X02265D02*
X02248D01*
X02265Y02799*
Y02803*
X0226Y02807*
X02252*
X02248Y02803*
X00993Y03379D02*
X01009Y03354D01*
Y03379D02*
X00993Y03354D01*
X01018Y03375D02*
X01022Y03379D01*
X0103*
X01034Y03375*
Y0337*
X0103Y03366*
X01026*
X0103*
X01034Y03362*
Y03358*
X0103Y03354*
X01022*
X01018Y03358*
X01645Y0429D02*
X01641Y04286D01*
Y04277*
X01645Y04273*
X01662*
X01666Y04277*
Y04286*
X01662Y0429*
X01641Y04315D02*
X01645Y04306D01*
X01653Y04298*
X01662*
X01666Y04302*
Y04311*
X01662Y04315*
X01658*
X01653Y04311*
Y04298*
X01645Y04323D02*
X01641Y04327D01*
Y04336*
X01645Y0434*
X01649*
X01653Y04336*
Y04331*
Y04336*
X01658Y0434*
X01662*
X01666Y04336*
Y04327*
X01662Y04323*
X02157Y0422D02*
X02153Y04224D01*
X02144*
X0214Y0422*
Y04203*
X02144Y04199*
X02153*
X02157Y04203*
X02182Y04224D02*
X02174Y0422D01*
X02165Y04212*
Y04203*
X02169Y04199*
X02178*
X02182Y04203*
Y04208*
X02178Y04212*
X02165*
X02203Y04199D02*
Y04224D01*
X0219Y04212*
X02207*
X01943Y02088D02*
X01939Y02084D01*
Y02076*
X01943Y02071*
X0196*
X01964Y02076*
Y02084*
X0196Y02088*
X01964Y02096D02*
Y02105D01*
Y02101*
X01939*
X01943Y02096*
Y02117D02*
X01939Y02121D01*
Y0213*
X01943Y02134*
X0196*
X01964Y0213*
Y02121*
X0196Y02117*
X01943*
Y02142D02*
X01939Y02146D01*
Y02155*
X01943Y02159*
X0196*
X01964Y02155*
Y02146*
X0196Y02142*
X01943*
X01254Y04046D02*
X01258Y0405D01*
Y04058*
X01254Y04062*
X01237*
X01233Y04058*
Y0405*
X01237Y04046*
X01233Y04038D02*
Y04029D01*
Y04033*
X01258*
X01254Y04038*
Y04017D02*
X01258Y04013D01*
Y04004*
X01254Y04*
X01237*
X01233Y04004*
Y04013*
X01237Y04017*
X01254*
X01258Y03975D02*
X01254Y03983D01*
X01245Y03992*
X01237*
X01233Y03988*
Y03979*
X01237Y03975*
X01241*
X01245Y03979*
Y03992*
X01418Y04293D02*
X01414Y04289D01*
Y04281*
X01418Y04277*
X01434*
X01438Y04281*
Y04289*
X01434Y04293*
X01438Y04301D02*
Y04309D01*
Y04305*
X01414*
X01418Y04301*
Y04321D02*
X01414Y04325D01*
Y04333*
X01418Y04337*
X01434*
X01438Y04333*
Y04325*
X01434Y04321*
X01418*
X01414Y04345D02*
Y04361D01*
X01418*
X01434Y04345*
X01438*
X01177Y03634D02*
X01173Y0363D01*
Y03622*
X01177Y03618*
X01194*
X01198Y03622*
Y0363*
X01194Y03634*
X01198Y03643D02*
Y03651D01*
Y03647*
X01173*
X01177Y03643*
Y03663D02*
X01173Y03668D01*
Y03676*
X01177Y0368*
X01194*
X01198Y03676*
Y03668*
X01194Y03663*
X01177*
Y03688D02*
X01173Y03693D01*
Y03701*
X01177Y03705*
X01182*
X01186Y03701*
X0119Y03705*
X01194*
X01198Y03701*
Y03693*
X01194Y03688*
X0119*
X01186Y03693*
X01182Y03688*
X01177*
X01186Y03693D02*
Y03701D01*
X01572Y03641D02*
X01568Y03637D01*
Y03629*
X01572Y03625*
X01589*
X01593Y03629*
Y03637*
X01589Y03641*
X01593Y03649D02*
Y03658D01*
Y03654*
X01568*
X01572Y03649*
Y0367D02*
X01568Y03674D01*
Y03683*
X01572Y03687*
X01589*
X01593Y03683*
Y03674*
X01589Y0367*
X01572*
X01589Y03695D02*
X01593Y03699D01*
Y03708*
X01589Y03712*
X01572*
X01568Y03708*
Y03699*
X01572Y03695*
X01576*
X01581Y03699*
Y03712*
X0316Y02917D02*
X03156Y02921D01*
X03147*
X03143Y02917*
Y029*
X03147Y02896*
X03156*
X0316Y029*
X03185Y02896D02*
X03168D01*
X03185Y02913*
Y02917*
X03181Y02921*
X03172*
X03168Y02917*
X03193D02*
X03197Y02921D01*
X03206*
X0321Y02917*
Y029*
X03206Y02896*
X03197*
X03193Y029*
Y02917*
X03218D02*
X03222Y02921D01*
X03231*
X03235Y02917*
Y029*
X03231Y02896*
X03222*
X03218Y029*
Y02917*
X02969Y03295D02*
Y0327D01*
X02981*
X02986Y03274*
Y03291*
X02981Y03295*
X02969*
X02994D02*
X03011D01*
Y03291*
X02994Y03274*
Y0327*
X03019D02*
X03027D01*
X03023*
Y03295*
X03019Y03291*
X01129Y04322D02*
Y04297D01*
X01141*
X01145Y04301*
Y04318*
X01141Y04322*
X01129*
X01154Y04297D02*
X01162D01*
X01158*
Y04322*
X01154Y04318*
X01175D02*
X01179Y04322D01*
X01187*
X01191Y04318*
Y04301*
X01187Y04297*
X01179*
X01175Y04301*
Y04318*
X012D02*
X01204Y04322D01*
X01212*
X01216Y04318*
Y04301*
X01212Y04297*
X01204*
X012Y04301*
Y04318*
X0195Y03864D02*
Y03881D01*
X01946Y03885*
X01938*
X01934Y03881*
Y03864*
X01938Y0386*
X01946*
X01942Y03868D02*
X0195Y0386D01*
X01946D02*
X0195Y03864D01*
X01971Y0386D02*
Y03885D01*
X01959Y03872*
X01975*
X01984Y03881D02*
X01988Y03885D01*
X01996*
X02Y03881*
Y03864*
X01996Y0386*
X01988*
X01984Y03864*
Y03881*
X01959Y03592D02*
Y03609D01*
X01955Y03613*
X01947*
X01942Y03609*
Y03592*
X01947Y03588*
X01955*
X01951Y03596D02*
X01959Y03588D01*
X01955D02*
X01959Y03592D01*
X0198Y03588D02*
Y03613D01*
X01967Y03601*
X01984*
X01992Y03588D02*
X02001D01*
X01997*
Y03613*
X01992Y03609*
X02032Y03712D02*
Y03737D01*
X02044*
X02049Y03733*
Y03725*
X02044Y0372*
X02032*
X0204D02*
X02049Y03712D01*
X02074Y03737D02*
X02065Y03733D01*
X02057Y03725*
Y03716*
X02061Y03712*
X02069*
X02074Y03716*
Y0372*
X02069Y03725*
X02057*
X02082Y03733D02*
X02086Y03737D01*
X02094*
X02099Y03733*
Y03716*
X02094Y03712*
X02086*
X02082Y03716*
Y03733*
X01835Y03791D02*
X0181D01*
Y03803*
X01814Y03808*
X01823*
X01827Y03803*
Y03791*
Y03799D02*
X01835Y03808D01*
X0181Y03832D02*
X01814Y03824D01*
X01823Y03816*
X01831*
X01835Y0382*
Y03828*
X01831Y03832*
X01827*
X01823Y03828*
Y03816*
X01835Y03841D02*
Y03849D01*
Y03845*
X0181*
X01814Y03841*
X0171Y0389D02*
Y03915D01*
X01723*
X01727Y03911*
Y03903*
X01723Y03899*
X0171*
X01718D02*
X01727Y0389D01*
X01752Y03915D02*
X01743Y03911D01*
X01735Y03903*
Y03894*
X01739Y0389*
X01748*
X01752Y03894*
Y03899*
X01748Y03903*
X01735*
X0176Y03911D02*
X01764Y03915D01*
X01773*
X01777Y03911*
Y03907*
X01773Y03903*
X01768*
X01773*
X01777Y03899*
Y03894*
X01773Y0389*
X01764*
X0176Y03894*
X01829Y04062D02*
Y04087D01*
X01842*
X01846Y04082*
Y04074*
X01842Y0407*
X01829*
X01838D02*
X01846Y04062D01*
X01871Y04087D02*
X01863Y04082D01*
X01854Y04074*
Y04066*
X01858Y04062*
X01867*
X01871Y04066*
Y0407*
X01867Y04074*
X01854*
X01892Y04062D02*
Y04087D01*
X01879Y04074*
X01896*
X03127Y02216D02*
Y02196D01*
X03132Y02191*
X0314*
X03144Y02196*
Y02216*
X03169Y02191D02*
X03152D01*
X03169Y02208*
Y02212*
X03165Y02216*
X03157*
X03152Y02212*
X03177D02*
X03182Y02216D01*
X0319*
X03194Y02212*
Y02196*
X0319Y02191*
X03182*
X03177Y02196*
Y02212*
X0244Y04387D02*
Y04366D01*
X02445Y04362*
X02453*
X02457Y04366*
Y04387*
X02482D02*
X02465D01*
Y04374*
X02474Y04378*
X02478*
X02482Y04374*
Y04366*
X02478Y04362*
X0247*
X02465Y04366*
X0249Y04383D02*
X02495Y04387D01*
X02503*
X02507Y04383*
Y04366*
X02503Y04362*
X02495*
X0249Y04366*
Y04383*
X01452Y04193D02*
Y04172D01*
X01456Y04168*
X01465*
X01469Y04172*
Y04193*
X01494D02*
X01486Y04189D01*
X01477Y0418*
Y04172*
X01481Y04168*
X0149*
X01494Y04172*
Y04176*
X0149Y0418*
X01477*
X01502Y04189D02*
X01506Y04193D01*
X01515*
X01519Y04189*
Y04172*
X01515Y04168*
X01506*
X01502Y04172*
Y04189*
X0295Y02874D02*
X02929D01*
X02925Y02869*
Y02861*
X02929Y02857*
X0295*
X02929Y02849D02*
X02925Y02844D01*
Y02836*
X02929Y02832*
X02946*
X0295Y02836*
Y02844*
X02946Y02849*
X02941*
X02937Y02844*
Y02832*
X02946Y02824D02*
X0295Y02819D01*
Y02811*
X02946Y02807*
X02929*
X02925Y02811*
Y02819*
X02929Y02824*
X02946*
X01892Y03457D02*
Y03436D01*
X01896Y03432*
X01905*
X01909Y03436*
Y03457*
X01917Y03436D02*
X01921Y03432D01*
X0193*
X01934Y03436*
Y03452*
X0193Y03457*
X01921*
X01917Y03452*
Y03448*
X01921Y03444*
X01934*
X01942Y03432D02*
X01951D01*
X01946*
Y03457*
X01942Y03452*
X02353Y01907D02*
Y01887D01*
X02357Y01882*
X02365*
X0237Y01887*
Y01907*
X02378Y01882D02*
X02386D01*
X02382*
Y01907*
X02378Y01903*
X02411Y01882D02*
Y01907D01*
X02399Y01895*
X02415*
X02424Y01903D02*
X02428Y01907D01*
X02436*
X0244Y01903*
Y01887*
X02436Y01882*
X02428*
X02424Y01887*
Y01903*
X02955Y01875D02*
Y0185D01*
X02968*
X02972Y01854*
Y01871*
X02968Y01875*
X02955*
X0298Y01854D02*
X02984Y0185D01*
X02993*
X02997Y01854*
Y01871*
X02993Y01875*
X02984*
X0298Y01871*
Y01867*
X02984Y01862*
X02997*
X03005Y01871D02*
X03009Y01875D01*
X03018*
X03022Y01871*
Y01854*
X03018Y0185*
X03009*
X03005Y01854*
Y01871*
X03259Y0189D02*
X03284D01*
Y01903*
X0328Y01907*
X03263*
X03259Y01903*
Y0189*
X0328Y01915D02*
X03284Y01919D01*
Y01928*
X0328Y01932*
X03263*
X03259Y01928*
Y01919*
X03263Y01915*
X03267*
X03271Y01919*
Y01932*
X03284Y0194D02*
Y01949D01*
Y01944*
X03259*
X03263Y0194*
X02458Y03303D02*
X02483D01*
Y03315*
X02479Y03319*
X02462*
X02458Y03315*
Y03303*
X02462Y03328D02*
X02458Y03332D01*
Y0334*
X02462Y03344*
X02466*
X0247Y0334*
Y03336*
Y0334*
X02474Y03344*
X02479*
X02483Y0334*
Y03332*
X02479Y03328*
X02462Y03353D02*
X02458Y03357D01*
Y03365*
X02462Y03369*
X02479*
X02483Y03365*
Y03357*
X02479Y03353*
X02462*
X0206Y04371D02*
Y04347D01*
X02072*
X02076Y04351*
Y04355*
X02072Y04359*
X0206*
X02072*
X02076Y04363*
Y04367*
X02072Y04371*
X0206*
X02084Y04347D02*
X02092D01*
X02088*
Y04371*
X02084Y04367*
X01678Y04367D02*
Y04343D01*
X0169*
X01694Y04347*
Y04351*
X0169Y04355*
X01678*
X0169*
X01694Y04359*
Y04363*
X0169Y04367*
X01678*
X01718Y04343D02*
X01702D01*
X01718Y04359*
Y04363*
X01714Y04367*
X01706*
X01702Y04363*
X03068Y0311D02*
X03064Y03106D01*
Y03097*
X03068Y03093*
X03085*
X03089Y03097*
Y03106*
X03085Y0311*
X03064Y03118D02*
Y03135D01*
X03068*
X03085Y03118*
X03089*
X03068Y03143D02*
X03064Y03147D01*
Y03155*
X03068Y0316*
X03085*
X03089Y03155*
Y03147*
X03085Y03143*
X03068*
X03066Y03204D02*
X03062Y032D01*
Y03192*
X03066Y03187*
X03083*
X03087Y03192*
Y032*
X03083Y03204*
X03062Y03212D02*
Y03229D01*
X03066*
X03083Y03212*
X03087*
Y03237D02*
Y03246D01*
Y03242*
X03062*
X03066Y03237*
X03758Y02689D02*
X0375D01*
X03754*
Y02668*
X0375Y02664*
X03746*
X03742Y02668*
X03767Y02685D02*
X03771Y02689D01*
X03779*
X03783Y02685*
Y02681*
X03779Y02676*
X03783Y02672*
Y02668*
X03779Y02664*
X03771*
X03767Y02668*
Y02672*
X03771Y02676*
X03767Y02681*
Y02685*
X03771Y02676D02*
X03779D01*
X03755Y0393D02*
X03747D01*
X03751*
Y03909*
X03747Y03905*
X03743*
X03739Y03909*
X03764D02*
X03768Y03905D01*
X03776*
X0378Y03909*
Y03926*
X03776Y0393*
X03768*
X03764Y03926*
Y03922*
X03768Y03918*
X0378*
X01766Y02583D02*
X01761Y02587D01*
X01753*
X01749Y02583*
Y02566*
X01753Y02562*
X01761*
X01766Y02566*
X01774Y02583D02*
X01778Y02587D01*
X01786*
X01791Y02583*
Y02578*
X01786Y02574*
X01791Y0257*
Y02566*
X01786Y02562*
X01778*
X01774Y02566*
Y0257*
X01778Y02574*
X01774Y02578*
Y02583*
X01778Y02574D02*
X01786D01*
X01799Y02562D02*
X01807D01*
X01803*
Y02587*
X01799Y02583*
X02524Y02397D02*
X02519Y02392D01*
Y02384*
X02524Y0238*
X0254*
X02544Y02384*
Y02392*
X0254Y02397*
X02544Y02405D02*
Y02413D01*
Y02409*
X02519*
X02524Y02405*
Y02426D02*
X02519Y0243D01*
Y02438*
X02524Y02442*
X02528*
X02532Y02438*
X02536Y02442*
X0254*
X02544Y02438*
Y0243*
X0254Y02426*
X02536*
X02532Y0243*
X02528Y02426*
X02524*
X02532Y0243D02*
Y02438D01*
X02544Y02467D02*
Y02451D01*
X02528Y02467*
X02524*
X02519Y02463*
Y02455*
X02524Y02451*
X01048Y03047D02*
X01043Y03042D01*
Y03031*
X01048Y03026*
X01053*
X01059Y03031*
Y03042*
X01064Y03047*
X01069*
X01074Y03042*
Y03031*
X01069Y03026*
X01074Y03058D02*
Y03068D01*
Y03063*
X01043*
X01048Y03058*
G54D103*
X03159Y02069D02*
X03156Y02078D01*
X03147Y02081*
X03139Y02078*
X03135Y02069*
G54D104*
X02608Y03232D02*
X026Y03236D01*
Y03228*
X02608Y03232*
X02948Y02213D02*
X0294D01*
X02948*
X03317Y02265D02*
X0331Y0227D01*
Y02261*
X03317Y02265*
X01758Y02082D02*
X01751Y02086D01*
Y02078*
X01758Y02082*
G54D105*
X0272Y03208D02*
X02725Y03201D01*
X02733Y03196*
X02742Y03196*
X02749Y03201*
X02754Y03208*
X0372Y02934D02*
Y02974D01*
X03663Y02934D02*
X0372D01*
Y03031D02*
Y03069D01*
X03663D02*
X0372D01*
X03727Y03326D02*
Y03367D01*
X0367Y03326D02*
X03727D01*
Y03424D02*
Y03461D01*
X0367D02*
X03727D01*
X02008Y02958D02*
Y02998D01*
X01951Y02958D02*
X02008D01*
Y03055D02*
Y03093D01*
X01951D02*
X02008D01*
X01672Y03312D02*
Y03472D01*
X01511Y03311D02*
Y03471D01*
X01616Y03092D02*
Y03147D01*
X01563Y032D02*
X01616Y03147D01*
X01289Y032D02*
X01563D01*
X01289Y03092D02*
Y032D01*
Y02874D02*
Y02982D01*
Y02874D02*
X01563D01*
X01616Y02927D02*
Y02982D01*
X01563Y02874D02*
X01616Y02927D01*
X01866Y02206D02*
Y02756D01*
X02416Y02206D02*
Y02756D01*
X01866Y02206D02*
X02416D01*
X01866Y02756D02*
X02416D01*
X01252Y02502D02*
Y02857D01*
X01725Y02502D02*
Y02857D01*
X01252Y02502D02*
X01725D01*
X01252Y02857D02*
X01725D01*
X02146Y02954D02*
X02165D01*
Y02929D02*
Y02954D01*
X02147Y02929D02*
X02165D01*
X01037Y02236D02*
Y0259D01*
X00919Y02236D02*
Y0259D01*
Y02236D02*
X01037D01*
X00919Y0259D02*
X01037D01*
X0148Y03311D02*
Y03471D01*
X01318Y03311D02*
Y03471D01*
X01077Y02542D02*
X01215D01*
X01077Y03014D02*
X01215D01*
Y02542D02*
Y03014D01*
X01077Y02542D02*
Y03014D01*
X01052Y02126D02*
X01209D01*
X01052Y02481D02*
X01209D01*
Y02126D02*
Y02481D01*
X01052Y02126D02*
Y02481D01*
X01658Y03107D02*
Y03158D01*
X01684Y03132D02*
X01632D01*
X03492Y01876D02*
X03523D01*
X03539Y01892*
X03523Y01908*
X03492*
X03507Y01924D02*
Y01932D01*
X03515*
Y01924*
X03507*
X03531D02*
Y01932D01*
X03539*
Y01924*
X03531*
X035Y0201D02*
X03492Y02018D01*
Y02034*
X035Y02042*
X03507*
X03515Y02034*
Y02026*
Y02034*
X03523Y02042*
X03531*
X03539Y02034*
Y02018*
X03531Y0201*
X03539Y02058D02*
X03531D01*
Y02065*
X03539*
Y02058*
X03492Y02128D02*
Y02097D01*
X03515*
X03507Y02113*
Y0212*
X03515Y02128*
X03531*
X03539Y0212*
Y02105*
X03531Y02097*
G54D106*
X01367Y03624D02*
X01374D01*
X01367Y03722D02*
X01374D01*
X01431Y04149D02*
X0157D01*
X01431Y03755D02*
X0157D01*
X02951Y02188D02*
X03031D01*
X02951Y02108D02*
X03031D01*
X02472Y02203D02*
Y02321D01*
X02872*
Y02203D02*
Y02321D01*
X02022Y03775D02*
Y03855D01*
X02102Y03775D02*
Y03855D01*
X01922Y03784D02*
Y03864D01*
X01842Y03784D02*
Y03864D01*
X01908Y03955D02*
Y0399D01*
Y03955D02*
X01938D01*
X01993D02*
X02023D01*
Y0399*
X02024Y0368D02*
Y03715D01*
X01994D02*
X02024D01*
X01909D02*
X01939D01*
X01909Y0368D02*
Y03715D01*
X01342Y0398D02*
Y0406D01*
X01267Y0398D02*
Y0406D01*
X01869Y03947D02*
Y04027D01*
X01789Y03947D02*
Y04027D01*
X02052Y03265D02*
X02199D01*
X02052Y03529D02*
X02199D01*
Y03265D02*
Y03275D01*
Y0352D02*
Y03529D01*
X02052Y03471D02*
Y03529D01*
Y03265D02*
Y03328D01*
X03278Y02976D02*
Y03263D01*
X03097Y02976D02*
Y03263D01*
X02681Y02983D02*
X02828D01*
X02681Y02719D02*
X02828D01*
X02681Y02973D02*
Y02983D01*
Y02719D02*
Y02728D01*
X02828Y02719D02*
Y02777D01*
Y0292D02*
Y02983D01*
X01786Y03948D02*
Y04028D01*
X01706Y03948D02*
Y04028D01*
X02947Y03309D02*
X02952Y03314D01*
X02942D02*
X02952D01*
X02942D02*
X02947Y03309D01*
X02892Y03249D02*
Y03309D01*
X02815Y03246D02*
X02928D01*
X02815Y03312D02*
X02928D01*
X03133Y01981D02*
X03213D01*
X03133Y02061D02*
X03213D01*
X02959D02*
X03039D01*
X02959Y01981D02*
X03039D01*
X03017Y01881D02*
Y0196D01*
X02968Y01881D02*
X03047D01*
X02968Y0196D02*
X03047D01*
Y0198*
Y01862D02*
Y01881D01*
X03214Y01861D02*
Y0188D01*
Y01959D02*
Y01979D01*
X03135Y01959D02*
X03214D01*
X03135Y0188D02*
X03214D01*
X03185D02*
Y01959D01*
X02449Y03258D02*
Y03428D01*
X02306Y03258D02*
Y03428D01*
Y03258D02*
X02323D01*
X02432D02*
X02449D01*
X02306Y03428D02*
X02323D01*
X02432D02*
X02449D01*
X0295Y03238D02*
X0303D01*
X0295Y03163D02*
X0303D01*
X02952Y03163D02*
X03032D01*
X02952Y03088D02*
X03032D01*
X01116Y04227D02*
X0112D01*
X01116Y04172D02*
X0112D01*
X01232Y04227D02*
X01236D01*
X01232Y04172D02*
X01236D01*
X01116D02*
Y04227D01*
X01236Y04172D02*
Y04227D01*
X01212Y03637D02*
Y03717D01*
X01287Y03637D02*
Y03717D01*
X01536Y03629D02*
Y03709D01*
X01461Y03629D02*
Y03709D01*
X01555Y04265D02*
Y04345D01*
X0163Y04265D02*
Y04345D01*
X01864Y04131D02*
Y04368D01*
X01726Y04131D02*
Y04368D01*
X0205Y04129D02*
Y04366D01*
X01912Y04129D02*
Y04366D01*
X01457Y04263D02*
Y04343D01*
X01532Y04263D02*
Y04343D01*
X02128Y0419D02*
X02208D01*
X02128Y04115D02*
X02208D01*
X03227Y04131D02*
Y04387D01*
X02518D02*
X03227D01*
X02518Y04131D02*
Y04387D01*
X03227Y03383D02*
Y03409D01*
X0313Y03383D02*
X03227D01*
X02518D02*
X02615D01*
X02518D02*
Y03409D01*
X03799Y03319D02*
X03818D01*
X03897D02*
X03917D01*
X03897D02*
Y03398D01*
X03818Y03319D02*
Y03398D01*
Y03349D02*
X03897D01*
X03799Y02841D02*
X03818D01*
X03897D02*
X03917D01*
X03897D02*
Y0292D01*
X03818Y02841D02*
Y0292D01*
Y02871D02*
X03897D01*
Y03153D02*
X03917D01*
X03799D02*
X03818D01*
Y03074D02*
Y03153D01*
X03897Y03074D02*
Y03153D01*
X03818Y03124D02*
X03897D01*
X02011Y0192D02*
X0207Y01861D01*
X02338*
X0207Y02187D02*
X02338D01*
X02011Y02128D02*
X0207Y02187D01*
X02011Y02086D02*
Y02128D01*
Y0192D02*
Y01962D01*
X02338Y02086D02*
Y02187D01*
Y01861D02*
Y01962D01*
G54D107*
X02542Y02553D02*
X02801D01*
X02542Y02331D02*
Y02553D01*
X02449Y02331D02*
X02542D01*
X02449Y01881D02*
Y02331D01*
Y01881D02*
X02895D01*
Y02331*
X02801D02*
X02895D01*
X02801D02*
Y02553D01*
G54D108*
X01272Y03431D02*
Y03447D01*
X01228D02*
X01272D01*
X01228Y03431D02*
Y03447D01*
Y03431D02*
X01272D01*
X01213Y03502D02*
X01288D01*
X01213Y03378D02*
Y03502D01*
X01288Y03378D02*
Y03502D01*
X01213Y03376D02*
X01288D01*
X03505Y03169D02*
X03521D01*
X03505Y03125D02*
Y03169D01*
Y03125D02*
X03521D01*
Y03169*
X0345Y0311D02*
Y03185D01*
Y0311D02*
X03574D01*
X0345Y03185D02*
X03574D01*
X03576Y0311D02*
Y03185D01*
X03642Y03123D02*
X03658D01*
Y03167*
X03642D02*
X03658D01*
X03642Y03123D02*
Y03167D01*
X03713Y03108D02*
Y03183D01*
X03589D02*
X03713D01*
X03589Y03108D02*
X03713D01*
X03587D02*
Y03183D01*
X03477Y03015D02*
Y03031D01*
X03433D02*
X03477D01*
X03433Y03015D02*
Y03031D01*
Y03015D02*
X03477D01*
X03418Y03086D02*
X03492D01*
X03418Y02962D02*
Y03086D01*
X03492Y02962D02*
Y03086D01*
X03418Y0296D02*
X03492D01*
X03564Y03015D02*
Y03031D01*
X0352D02*
X03564D01*
X0352Y03015D02*
Y03031D01*
Y03015D02*
X03564D01*
X03504Y03086D02*
X03579D01*
X03504Y02962D02*
Y03086D01*
X03579Y02962D02*
Y03086D01*
X03504Y0296D02*
X03579D01*
X03585Y03382D02*
Y03398D01*
X03541D02*
X03585D01*
X03541Y03382D02*
Y03398D01*
Y03382D02*
X03585D01*
X03526Y03453D02*
X03601D01*
X03526Y03329D02*
Y03453D01*
X03601Y03329D02*
Y03453D01*
X03526Y03327D02*
X03601D01*
X03671Y03272D02*
X03687D01*
X03671Y03228D02*
Y03272D01*
Y03228D02*
X03687D01*
Y03272*
X03616Y03212D02*
Y03287D01*
Y03212D02*
X0374D01*
X03616Y03287D02*
X0374D01*
X03742Y03212D02*
Y03287D01*
X02235Y03989D02*
Y04063D01*
X02105D02*
X02235D01*
X02105Y03989D02*
X02235D01*
X02105D02*
Y04063D01*
X02177Y04001D02*
Y04051D01*
X02163Y04001D02*
Y04051D01*
X02234Y03818D02*
Y03893D01*
X02104D02*
X02234D01*
X02104Y03818D02*
X02234D01*
X02104D02*
Y03893D01*
X02176Y03831D02*
Y03881D01*
X02162Y03831D02*
Y03881D01*
X02234Y03901D02*
Y03976D01*
X02104D02*
X02234D01*
X02104Y03901D02*
X02234D01*
X02104D02*
Y03976D01*
X02176Y03913D02*
Y03963D01*
X02162Y03913D02*
Y03963D01*
X02242Y03903D02*
Y03978D01*
Y03903D02*
X02372D01*
X02242Y03978D02*
X02372D01*
Y03903D02*
Y03978D01*
X023Y03915D02*
Y03965D01*
X02314Y03915D02*
Y03965D01*
X02242Y0382D02*
Y03895D01*
Y0382D02*
X02372D01*
X02242Y03895D02*
X02372D01*
Y0382D02*
Y03895D01*
X023Y03833D02*
Y03883D01*
X02314Y03833D02*
Y03883D01*
X02245Y03987D02*
Y04062D01*
Y03987D02*
X02375D01*
X02245Y04062D02*
X02375D01*
Y03987D02*
Y04062D01*
X02303Y03999D02*
Y04049D01*
X02317Y03999D02*
Y04049D01*
X01127Y03376D02*
X01202D01*
Y03506*
X01127Y03376D02*
Y03506D01*
X01202*
X0114Y03434D02*
X0119D01*
X0114Y03448D02*
X0119D01*
X01769Y0322D02*
X01844D01*
Y0335*
X01769Y0322D02*
Y0335D01*
X01844*
X01782Y03278D02*
X01832D01*
X01782Y03292D02*
X01832D01*
X0144Y01919D02*
Y01994D01*
Y01919D02*
X0157D01*
X0144Y01994D02*
X0157D01*
Y01919D02*
Y01994D01*
X01498Y01931D02*
Y01981D01*
X01512Y01931D02*
Y01981D01*
X03654Y02861D02*
X03704D01*
X03654Y02847D02*
X03704D01*
X03641Y02919D02*
X03716D01*
X03641Y02789D02*
Y02919D01*
X03716Y02789D02*
Y02919D01*
X03641Y02789D02*
X03716D01*
X01987Y03176D02*
X02003D01*
X01987Y03132D02*
Y03176D01*
Y03132D02*
X02003D01*
Y03176*
X01932Y03117D02*
Y03191D01*
Y03117D02*
X02056D01*
X01932Y03191D02*
X02056D01*
X02058Y03117D02*
Y03191D01*
X01792Y03005D02*
X01808D01*
Y03049*
X01792D02*
X01808D01*
X01792Y03005D02*
Y03049D01*
X01863Y0299D02*
Y03064D01*
X01739D02*
X01863D01*
X01739Y0299D02*
X01863D01*
X01737D02*
Y03064D01*
X01228Y03265D02*
Y03281D01*
Y03265D02*
X01272D01*
Y03281*
X01228D02*
X01272D01*
X01213Y0321D02*
X01288D01*
Y03334*
X01213Y0321D02*
Y03334D01*
Y03336D02*
X01288D01*
X01745Y03276D02*
Y03292D01*
X01701D02*
X01745D01*
X01701Y03276D02*
Y03292D01*
Y03276D02*
X01745D01*
X01686Y03347D02*
X0176D01*
X01686Y03223D02*
Y03347D01*
X0176Y03223D02*
Y03347D01*
X01686Y03221D02*
X0176D01*
X01758Y03494D02*
Y0351D01*
X01714D02*
X01758D01*
X01714Y03494D02*
Y0351D01*
Y03494D02*
X01758D01*
X01698Y03565D02*
X01773D01*
X01698Y03441D02*
Y03565D01*
X01773Y03441D02*
Y03565D01*
X01698Y03439D02*
X01773D01*
X03054Y03013D02*
Y03088D01*
X02924D02*
X03054D01*
X02924Y03013D02*
X03054D01*
X02924D02*
Y03088D01*
X02996Y03026D02*
Y03076D01*
X02982Y03026D02*
Y03076D01*
X02923Y02933D02*
Y03007D01*
Y02933D02*
X03053D01*
X02923Y03007D02*
X03053D01*
Y02933D02*
Y03007D01*
X02981Y02945D02*
Y02995D01*
X02995Y02945D02*
Y02995D01*
X02554Y03209D02*
Y03225D01*
X0251D02*
X02554D01*
X0251Y03209D02*
Y03225D01*
Y03209D02*
X02554D01*
X02495Y0328D02*
X02569D01*
X02495Y03156D02*
Y0328D01*
X02569Y03156D02*
Y0328D01*
X02495Y03154D02*
X02569D01*
X03132Y02488D02*
Y02562D01*
X03002D02*
X03132D01*
X03002Y02488D02*
X03132D01*
X03002D02*
Y02562D01*
X03074Y025D02*
Y0255D01*
X0306Y025D02*
Y0255D01*
X03003Y02399D02*
Y02474D01*
X03005Y02399D02*
X03129D01*
X03005Y02474D02*
X03129D01*
Y02399D02*
Y02474D01*
X03058Y02415D02*
Y02459D01*
X03074*
Y02415D02*
Y02459D01*
X03058Y02415D02*
X03074D01*
X03346Y02364D02*
Y02439D01*
X0322D02*
X03344D01*
X0322Y02364D02*
X03344D01*
X0322D02*
Y02439D01*
X03291Y02379D02*
Y02423D01*
X03275Y02379D02*
X03291D01*
X03275D02*
Y02423D01*
X03291*
X03218Y0245D02*
Y02525D01*
Y0245D02*
X03348D01*
X03218Y02525D02*
X03348D01*
Y0245D02*
Y02525D01*
X03276Y02463D02*
Y02513D01*
X0329Y02463D02*
Y02513D01*
X02206Y03638D02*
Y03688D01*
X0222Y03638D02*
Y03688D01*
X02148Y03625D02*
Y037D01*
Y03625D02*
X02278D01*
X02148Y037D02*
X02278D01*
Y03625D02*
Y037D01*
X0222Y03557D02*
Y03607D01*
X02206Y03557D02*
Y03607D01*
X02278Y03545D02*
Y0362D01*
X02148D02*
X02278D01*
X02148Y03545D02*
X02278D01*
X02148D02*
Y0362D01*
X02229Y03177D02*
Y03227D01*
X02215Y03177D02*
Y03227D01*
X02287Y03165D02*
Y0324D01*
X02157D02*
X02287D01*
X02157Y03165D02*
X02287D01*
X02157D02*
Y0324D01*
X02215Y03097D02*
Y03147D01*
X02229Y03097D02*
Y03147D01*
X02157Y03084D02*
Y03159D01*
Y03084D02*
X02287D01*
X02157Y03159D02*
X02287D01*
Y03084D02*
Y03159D01*
X02569Y02939D02*
Y03014D01*
X02439D02*
X02569D01*
X02439Y02939D02*
X02569D01*
X02439D02*
Y03014D01*
X02511Y02952D02*
Y03002D01*
X02497Y02952D02*
Y03002D01*
X0244Y02859D02*
Y02934D01*
Y02859D02*
X0257D01*
X0244Y02934D02*
X0257D01*
Y02859D02*
Y02934D01*
X02498Y02871D02*
Y02921D01*
X02512Y02871D02*
Y02921D01*
X02575Y02638D02*
Y02713D01*
X02445D02*
X02575D01*
X02445Y02638D02*
X02575D01*
X02445D02*
Y02713D01*
X02517Y02651D02*
Y02701D01*
X02503Y02651D02*
Y02701D01*
X02444Y02718D02*
Y02793D01*
Y02718D02*
X02574D01*
X02444Y02793D02*
X02574D01*
Y02718D02*
Y02793D01*
X02502Y0273D02*
Y0278D01*
X02516Y0273D02*
Y0278D01*
X03372Y03254D02*
Y03329D01*
X03374Y03254D02*
X03498D01*
X03374Y03329D02*
X03498D01*
Y03254D02*
Y03329D01*
X03427Y0327D02*
Y03314D01*
X03443*
Y0327D02*
Y03314D01*
X03427Y0327D02*
X03443D01*
X035Y03334D02*
Y03409D01*
X03374D02*
X03498D01*
X03374Y03334D02*
X03498D01*
X03374D02*
Y03409D01*
X03445Y0335D02*
Y03394D01*
X03429Y0335D02*
X03445D01*
X03429D02*
Y03394D01*
X03445*
X01738Y02599D02*
X01812D01*
Y02729*
X01738Y02599D02*
Y02729D01*
X01812*
X0175Y02657D02*
X018D01*
X0175Y02671D02*
X018D01*
X02434Y02357D02*
X02508D01*
Y02487*
X02434Y02357D02*
Y02487D01*
X02508*
X02446Y02415D02*
X02496D01*
X02446Y02429D02*
X02496D01*
G54D109*
X0296Y02225D02*
X03098D01*
X0296D02*
Y02375D01*
X03098*
Y02225D02*
Y02375D01*
G54D110*
X01312Y03774D02*
Y0377D01*
X01321Y03762*
X01329Y0377*
Y03774*
X01321Y03762D02*
Y0375D01*
X01337D02*
X01346D01*
X01342*
Y03774*
X01337Y0377*
X01105Y03023D02*
Y03048D01*
X01117*
X01121Y03044*
Y03036*
X01117Y03031*
X01105*
X01113D02*
X01121Y03023D01*
X0113Y03048D02*
Y03031D01*
X01138Y03023*
X01146Y03031*
Y03048*
X01155Y03023D02*
X01163D01*
X01159*
Y03048*
X01155Y03044*
X03346Y03664D02*
Y03681D01*
X03342Y03685*
X03333*
X03329Y03681*
Y03664*
X03333Y0366*
X03342*
X03338Y03668D02*
X03346Y0366D01*
X03342D02*
X03346Y03664D01*
X03354Y03681D02*
X03358Y03685D01*
X03367*
X03371Y03681*
Y03677*
X03367Y03672*
X03371Y03668*
Y03664*
X03367Y0366*
X03358*
X03354Y03664*
Y03668*
X03358Y03672*
X03354Y03677*
Y03681*
X03358Y03672D02*
X03367D01*
X03379Y0366D02*
X03388D01*
X03383*
Y03685*
X03379Y03681*
X01013Y03656D02*
X01005D01*
X01009*
Y03636*
X01005Y03631*
X01001*
X00997Y03636*
X01022Y03631D02*
X0103D01*
X01026*
Y03656*
X01022Y03652*
X01042D02*
X01047Y03656D01*
X01055*
X01059Y03652*
Y03636*
X01055Y03631*
X01047*
X01042Y03636*
Y03652*
G54D111*
X02944Y02439D02*
Y02471D01*
X0296*
X02965Y02466*
Y02455*
X0296Y0245*
X02944*
X02955D02*
X02965Y02439D01*
X02976Y02445D02*
X02981Y02439D01*
X02992*
X02997Y02445*
Y02466*
X02992Y02471*
X02981*
X02976Y02466*
Y0246*
X02981Y02455*
X02997*
X0112Y02103D02*
X01116Y02107D01*
X01108*
X01104Y02103*
Y02086*
X01108Y02082*
X01116*
X0112Y02086*
X01145Y02107D02*
X01129D01*
Y02095*
X01137Y02099*
X01141*
X01145Y02095*
Y02086*
X01141Y02082*
X01133*
X01129Y02086*
X01048Y0267D02*
X01043Y02665D01*
Y02654*
X01048Y02649*
X01069*
X01074Y02654*
Y02665*
X01069Y0267*
X01059*
Y0266*
X01074Y02681D02*
X01043D01*
X01074Y02702*
X01043*
Y02712D02*
X01074D01*
Y02728*
X01069Y02733*
X01048*
X01043Y02728*
Y02712*
X01048Y02926D02*
X01043Y02921D01*
Y0291*
X01048Y02905*
X01053*
X01059Y0291*
Y02921*
X01064Y02926*
X01069*
X01074Y02921*
Y0291*
X01069Y02905*
X01074Y02957D02*
Y02937D01*
X01053Y02957*
X01048*
X01043Y02952*
Y02942*
X01048Y02937*
X01048Y0317D02*
Y03149D01*
X01079*
Y0317*
X01063Y03149D02*
Y0316D01*
X01079Y03181D02*
Y03191D01*
Y03186*
X01048*
X01053Y03181*
X01042Y03279D02*
Y03258D01*
X01073*
Y03279*
X01058Y03258D02*
Y03269D01*
X01073Y03311D02*
Y0329D01*
X01052Y03311*
X01047*
X01042Y03306*
Y03295*
X01047Y0329*
X01074Y02778D02*
Y02789D01*
Y02783*
X01043*
X01048Y02778*
X01074Y02825D02*
Y02804D01*
X01053Y02825*
X01048*
X01043Y0282*
Y0281*
X01048Y02804*
X01043Y02836D02*
X01064D01*
X01074Y02846*
X01064Y02857*
X01043*
M02*