%FSTAX23Y23*%
%MOIN*%
%SFA1B1*%

%IPPOS*%
%AMD65*
4,1,8,-0.021000,-0.011400,0.021000,-0.011400,0.023800,-0.008600,0.023800,0.008600,0.021000,0.011400,-0.021000,0.011400,-0.023800,0.008600,-0.023800,-0.008600,-0.021000,-0.011400,0.0*
1,1,0.005700,-0.021000,-0.008600*
1,1,0.005700,0.021000,-0.008600*
1,1,0.005700,0.021000,0.008600*
1,1,0.005700,-0.021000,0.008600*
%
%AMD71*
4,1,8,0.021300,0.011800,-0.021300,0.011800,-0.024200,0.008900,-0.024200,-0.008900,-0.021300,-0.011800,0.021300,-0.011800,0.024200,-0.008900,0.024200,0.008900,0.021300,0.011800,0.0*
1,1,0.005900,0.021300,0.008900*
1,1,0.005900,-0.021300,0.008900*
1,1,0.005900,-0.021300,-0.008900*
1,1,0.005900,0.021300,-0.008900*
%
%AMD84*
4,1,8,0.027100,0.012800,-0.027100,0.012800,-0.033500,0.006400,-0.033500,-0.006400,-0.027100,-0.012800,0.027100,-0.012800,0.033500,-0.006400,0.033500,0.006400,0.027100,0.012800,0.0*
1,1,0.012800,0.027100,0.006400*
1,1,0.012800,-0.027100,0.006400*
1,1,0.012800,-0.027100,-0.006400*
1,1,0.012800,0.027100,-0.006400*
%
%AMD96*
4,1,8,-0.021200,-0.011600,0.021200,-0.011600,0.027000,-0.005800,0.027000,0.005800,0.021200,0.011600,-0.021200,0.011600,-0.027000,0.005800,-0.027000,-0.005800,-0.021200,-0.011600,0.0*
1,1,0.011620,-0.021200,-0.005800*
1,1,0.011620,0.021200,-0.005800*
1,1,0.011620,0.021200,0.005800*
1,1,0.011620,-0.021200,0.005800*
%
%ADD18R,0.051180X0.059050*%
%ADD19R,0.059050X0.051180*%
%ADD24R,0.039370X0.055120*%
%ADD25R,0.083460X0.089760*%
%ADD26R,0.043310X0.049210*%
%ADD28R,0.043310X0.055120*%
%ADD35R,0.055120X0.039370*%
%ADD52C,0.011810*%
%ADD53C,0.027560*%
%ADD54C,0.078740*%
%ADD55R,0.078740X0.078740*%
%ADD56C,0.090550*%
%ADD57R,0.090550X0.090550*%
%ADD58C,0.051180*%
%ADD59R,0.051180X0.051180*%
%ADD60C,0.080000*%
%ADD61C,0.082000*%
%ADD62C,0.070870*%
%ADD63R,0.078740X0.078740*%
%ADD64C,0.019680*%
G04~CAMADD=65~8~0.0~0.0~476.4~228.4~28.5~0.0~15~0.0~0.0~0.0~0.0~0~0.0~0.0~0.0~0.0~0~0.0~0.0~0.0~180.0~476.0~228.0*
%ADD65D65*%
%ADD66R,0.047240X0.086610*%
%ADD67R,0.047240X0.055120*%
%ADD68R,0.062990X0.055120*%
%ADD69R,0.027560X0.062990*%
%ADD70R,0.089760X0.083460*%
G04~CAMADD=71~8~0.0~0.0~484.2~236.2~29.5~0.0~15~0.0~0.0~0.0~0.0~0~0.0~0.0~0.0~0.0~0~0.0~0.0~0.0~0.0~484.2~236.2*
%ADD71D71*%
%ADD72R,0.043310X0.041340*%
%ADD73R,0.088580X0.043310*%
%ADD74R,0.020000X0.078000*%
%ADD75O,0.031500X0.062990*%
%ADD76O,0.062990X0.031500*%
%ADD77R,0.118110X0.118110*%
%ADD78R,0.059050X0.059050*%
%ADD79R,0.107990X0.110240*%
%ADD80R,0.059050X0.255900*%
%ADD81R,0.149610X0.078740*%
%ADD82R,0.059050X0.078740*%
%ADD83R,0.059050X0.078740*%
G04~CAMADD=84~8~0.0~0.0~669.3~255.9~64.0~0.0~15~0.0~0.0~0.0~0.0~0~0.0~0.0~0.0~0.0~0~0.0~0.0~0.0~0.0~669.3~255.9*
%ADD84D84*%
%ADD85R,0.066930X0.025590*%
%ADD86R,0.228350X0.244100*%
%ADD87R,0.062990X0.118110*%
%ADD88R,0.025590X0.045280*%
%ADD89R,0.039370X0.051180*%
%ADD90R,0.062990X0.066930*%
%ADD91R,0.021260X0.031500*%
%ADD92R,0.045000X0.040000*%
%ADD93R,0.078000X0.020000*%
%ADD94R,0.021000X0.071000*%
%ADD95R,0.059050X0.086610*%
G04~CAMADD=96~8~0.0~0.0~539.4~232.3~58.1~0.0~15~0.0~0.0~0.0~0.0~0~0.0~0.0~0.0~0.0~0~0.0~0.0~0.0~180.0~540.0~232.0*
%ADD96D96*%
%ADD97R,0.031500X0.047240*%
%ADD98R,0.047240X0.031500*%
%ADD99R,0.050590X0.057870*%
%ADD100C,0.027560*%
%LNtcs-1900-1*%
%LPD*%
G36*
X03565Y04413D02*
X03567Y04412D01*
X03568Y0441*
Y04409*
X03568Y04392*
X03571Y04358*
X03578Y04324*
X03588Y04291*
X03601Y0426*
X03617Y04229*
X03636Y04201*
X03658Y04174*
X03682Y0415*
X03709Y04128*
X03737Y04109*
X03767Y04093*
X03799Y0408*
X03832Y0407*
X03866Y04063*
X039Y0406*
X03917Y0406*
X03918*
X0392Y04059*
X03922Y04055*
X03922Y0405*
Y02202*
Y02201*
X03921Y02199*
X0392Y02199*
X03916Y02197*
X03911Y02197*
X03898Y02197*
X03864Y02193*
X03831Y02186*
X03798Y02176*
X03767Y02163*
X03737Y02147*
X03708Y02127*
X03682Y02106*
X03658Y02081*
X03637Y02055*
X03618Y02027*
X03602Y01997*
X03589Y01965*
X03579Y01932*
X03572Y01899*
X03569Y01865*
X03568Y01848*
Y01847*
X03568Y01845*
X03566Y01844*
X03564Y01843*
X01121*
X0112*
X0112Y01843*
X0112Y01843*
X0112Y01843*
X01119Y01843*
X01118Y01843*
X01116Y01843*
X01114Y01845*
X01113Y01848*
X01113Y01864*
X0111Y01897*
X01104Y01929*
X01094Y01961*
X01082Y01992*
X01067Y02021*
X01049Y02049*
X01029Y02074*
X01007Y02098*
X00982Y0212*
X00955Y02139*
X00927Y02156*
X00916Y02161*
X00912Y02163*
X00909Y02167*
X00909Y02168*
X00909Y02168*
X00909Y02169*
X00909Y02169*
X00909Y0217*
Y04086*
Y04087*
X00909Y04088*
X0091Y0409*
X00912Y04091*
X00912Y04091*
X00913Y04091*
X00913Y04091*
X00913Y04092*
X00914Y04092*
X00914Y04092*
X00929Y04099*
X00957Y04116*
X00984Y04135*
X01009Y04157*
X01032Y04181*
X01052Y04207*
X0107Y04235*
X01085Y04264*
X01097Y04295*
X01107Y04327*
X01113Y04359*
X01116Y04392*
X01117Y04409*
Y0441*
X01117Y04412*
X01119Y04413*
X01121Y04414*
X01122*
X03562*
X03563Y04414*
X03565Y04413*
G37*
%LNtcs-1900-2*%
%LPC*%
G36*
X03493Y02835D02*
X03483Y02833D01*
X03476Y02828*
X03472Y02822*
X03466*
X03462Y02828*
X03455Y02833*
X0345Y02834*
Y02795*
Y02756*
X03455Y02757*
X03462Y02762*
X03466Y02767*
X03471Y02765*
Y02692*
X03465*
X03462Y02691*
X03459Y02689*
X03458Y02687*
X03457Y02684*
Y02632*
X03458Y02629*
X03459Y02627*
X03462Y02625*
X03465Y02624*
X03524*
X03527Y02625*
X0353Y02627*
X03532Y02629*
X03532Y02632*
Y02684*
X03532Y02687*
X0353Y02689*
X03527Y02691*
X03524Y02692*
X03515*
Y02765*
X0352Y02767*
X03523Y02762*
X03531Y02757*
X03535Y02756*
Y02795*
Y02834*
X03531Y02833*
X03523Y02828*
X03519Y02822*
X03513*
X0351Y02828*
X03502Y02833*
X03493Y02835*
G37*
G36*
X03436Y02875D02*
X03424D01*
X03425Y02873*
X03429Y02868*
X03435Y02864*
X03436Y02863*
Y02875*
G37*
G36*
X03459D02*
X03446D01*
Y02863*
X03448Y02864*
X03454Y02868*
X03458Y02873*
X03459Y02875*
G37*
G36*
X01371Y0284D02*
X01361D01*
X01358Y0284*
X01355Y02838*
X01353Y02835*
X01353Y02832*
Y02814*
X01371*
Y0284*
G37*
G36*
X01392D02*
X01381D01*
Y02814*
X014*
Y02832*
X014Y02835*
X01398Y02838*
X01395Y0284*
X01392Y0284*
G37*
G36*
X01117Y02883D02*
X01065D01*
X01062Y02882*
X0106Y0288*
X01058Y02878*
X01057Y02875*
Y02816*
X01056Y02815*
X01053Y02814*
X01048Y02818*
X01041Y02823*
X01033Y02825*
X01033Y02828*
X01027Y02841*
X01019Y02852*
X01008Y02861*
X00995Y02866*
X00981Y02868*
X00967Y02866*
X00954Y02861*
X00943Y02852*
X00934Y02841*
X00929Y02828*
X00927Y02815*
X00929Y02801*
X00934Y02788*
X00943Y02777*
X00954Y02768*
X00967Y02763*
X00981Y02761*
X00995Y02763*
X01008Y02768*
X01019Y02777*
X01019Y02777*
X01024Y02775*
Y02753*
X01021Y0275*
X00986*
Y02696*
Y02643*
X01026*
Y02547*
X01027Y02538*
X01032Y02531*
X01083Y0248*
X0109Y02475*
X01099Y02473*
X0128*
Y02431*
X01248*
X01245Y0243*
X01242Y02428*
X0124Y02426*
X0124Y02423*
Y02312*
X0124Y02309*
X01242Y02307*
X01245Y02305*
X01248Y02304*
X01356*
X01359Y02305*
X01361Y02307*
X01363Y02309*
X01364Y02312*
Y02414*
X01369Y02416*
X01371Y02413*
X01376Y0241*
X01381Y02409*
X01418*
Y02397*
X01418Y02394*
X0142Y02391*
X01423Y0239*
X01426Y02389*
X01485*
X01488Y0239*
X0149Y02391*
X01492Y02394*
X01493Y02397*
Y02448*
X01492Y02451*
X0149Y02454*
X01488Y02456*
X01485Y02456*
X01426*
X01423Y02456*
X0142Y02454*
X01418Y02451*
X01418Y02448*
Y02437*
X01389*
Y02531*
X01392*
X01395Y02531*
X01398Y02533*
X014Y02536*
X014Y02539*
Y02586*
X014Y02589*
X01398Y02592*
X01395Y02594*
X01392Y02594*
X01361*
X01358Y02594*
X01355Y02592*
X01353Y02589*
X01353Y02586*
Y02539*
X01353Y02536*
X01355Y02533*
X01358Y02531*
X0136Y02531*
Y02435*
X01356Y02431*
X01324*
Y02485*
X01322Y02493*
X01317Y025*
X01306Y02511*
X01299Y02516*
X01291Y02518*
X01108*
X0107Y02556*
Y02751*
X01068Y02759*
X01068Y02759*
Y02789*
X01066Y02798*
X01063Y02803*
X01065Y02806*
X01066Y02807*
X01083*
Y02802*
X0108Y02798*
X01079Y02791*
X0108Y02784*
X01084Y02778*
X0109Y02774*
X01097Y02773*
X01104Y02774*
X0111Y02778*
X01114Y02784*
X01115Y02791*
X01114Y02798*
X01111Y02802*
Y02807*
X01117*
X0112Y02808*
X01122Y0281*
X01124Y02812*
X01125Y02815*
Y02849*
X01126Y0285*
X01127Y02856*
X01126Y02861*
X01125Y02863*
Y02875*
X01124Y02878*
X01122Y0288*
X0112Y02882*
X01117Y02883*
G37*
G36*
X01193Y02942D02*
X01151D01*
Y029*
X01158Y02901*
X0117Y02906*
X0118Y02914*
X01187Y02924*
X01192Y02935*
X01193Y02942*
G37*
G36*
X03181Y02967D02*
X03118D01*
Y02913*
X03119Y0291*
X03121Y02907*
X03123Y02905*
X03126Y02905*
X03181*
Y02967*
G37*
G36*
X03253D02*
X03191D01*
Y02905*
X03245*
X03248Y02905*
X0325Y02907*
X03252Y0291*
X03253Y02913*
Y02967*
G37*
G36*
X03436Y02897D02*
X03435Y02897D01*
X03429Y02893*
X03425Y02887*
X03424Y02885*
X03436*
Y02897*
G37*
G36*
X03446D02*
Y02885D01*
X03459*
X03458Y02887*
X03454Y02893*
X03448Y02897*
X03446Y02897*
G37*
G36*
X01141Y02942D02*
X01099D01*
X011Y02935*
X01105Y02924*
X01112Y02914*
X01122Y02906*
X01134Y02901*
X01141Y029*
Y02942*
G37*
G36*
X0376Y02813D02*
X03726D01*
X03726Y02811*
X03729Y02807*
X03726Y02802*
X03726Y028*
X0376*
X03759Y02802*
X03756Y02807*
X03759Y02811*
X0376Y02813*
G37*
G36*
X03866Y0266D02*
X03853Y02658D01*
X03841Y02653*
X03831Y02646*
X03823Y02635*
X03818Y02623*
X03816Y02611*
X03818Y02598*
X03823Y02586*
X03831Y02576*
X03841Y02568*
X03853Y02563*
X03866Y02561*
X03878Y02563*
X0389Y02568*
X03901Y02576*
X03908Y02586*
X03913Y02598*
X03915Y02611*
X03913Y02623*
X03908Y02635*
X03901Y02646*
X0389Y02653*
X03878Y02658*
X03866Y0266*
G37*
G36*
X02037Y02638D02*
X02008D01*
Y02614*
X02009Y02611*
X02011Y02608*
X02013Y02606*
X02016Y02606*
X02037*
Y02638*
G37*
G36*
X02075D02*
X02047D01*
Y02606*
X02067*
X0207Y02606*
X02073Y02608*
X02075Y02611*
X02075Y02614*
Y02638*
G37*
G36*
X0178Y0246D02*
X01759D01*
X01756Y0246*
X01754Y02458*
X01752Y02455*
X01751Y02452*
Y02428*
X0178*
Y0246*
G37*
G36*
X01811D02*
X0179D01*
Y02428*
X01819*
Y02452*
X01818Y02455*
X01816Y02458*
X01814Y0246*
X01811Y0246*
G37*
G36*
X03666Y0266D02*
X03653Y02658D01*
X03641Y02653*
X03631Y02646*
X03623Y02635*
X03618Y02623*
X03616Y02611*
X03618Y02598*
X03623Y02586*
X03631Y02576*
X03641Y02568*
X03653Y02563*
X03666Y02561*
X03678Y02563*
X0369Y02568*
X03701Y02576*
X03708Y02586*
X03713Y02598*
X03715Y02611*
X03713Y02623*
X03708Y02635*
X03701Y02646*
X0369Y02653*
X03678Y02658*
X03666Y0266*
G37*
G36*
X014Y02804D02*
X01381D01*
Y02777*
X01392*
X01395Y02778*
X01398Y02779*
X014Y02782*
X014Y02785*
Y02804*
G37*
G36*
X03738Y0279D02*
X03726D01*
X03726Y02788*
X0373Y02782*
X03736Y02778*
X03738Y02778*
Y0279*
G37*
G36*
X0376D02*
X03748D01*
Y02778*
X0375Y02778*
X03755Y02782*
X03759Y02788*
X0376Y0279*
G37*
G36*
X00976Y02691D02*
X00927D01*
Y02651*
X00928Y02648*
X0093Y02645*
X00932Y02644*
X00935Y02643*
X00976*
Y02691*
G37*
G36*
Y0275D02*
X00935D01*
X00932Y02749*
X0093Y02747*
X00928Y02745*
X00927Y02742*
Y02701*
X00976*
Y0275*
G37*
G36*
X01371Y02804D02*
X01353D01*
Y02785*
X01353Y02782*
X01355Y02779*
X01358Y02778*
X01361Y02777*
X01371*
Y02804*
G37*
G36*
X01141Y02994D02*
X01134Y02993D01*
X01122Y02989*
X01112Y02981*
X01105Y02971*
X011Y0296*
X01099Y02952*
X01141*
Y02994*
G37*
G36*
X03271Y03227D02*
X03239D01*
Y03202*
X03239Y03199*
X03241Y03197*
X03243Y03195*
X03247Y03194*
X03271*
Y03227*
G37*
G36*
X03314D02*
X03281D01*
Y03194*
X03306*
X03309Y03195*
X03311Y03197*
X03313Y03199*
X03314Y03202*
Y03227*
G37*
G36*
X03035Y0327D02*
X02997D01*
X02958*
X02959Y03266*
X02964Y03258*
X02969Y03254*
Y03249*
X02964Y03245*
X02959Y03237*
X02957Y03228*
X02959Y03219*
X02964Y03211*
X02969Y03207*
Y03201*
X02964Y03198*
X02959Y0319*
X02957Y03181*
X02959Y03171*
X02964Y03164*
X02969Y0316*
Y03154*
X02964Y0315*
X02959Y03143*
X02957Y03133*
X02959Y03124*
X02964Y03116*
X02969Y03113*
Y03107*
X02964Y03103*
X02959Y03095*
X02957Y03086*
X02959Y03077*
X02964Y03069*
X02969Y03065*
Y0306*
X02964Y03056*
X02959Y03048*
X02957Y03039*
X02959Y0303*
X02964Y03022*
X02969Y03018*
Y03012*
X02964Y03009*
X02959Y03001*
X02957Y02992*
X02959Y02982*
X02964Y02975*
X02969Y02971*
Y02965*
X02964Y02961*
X02959Y02954*
X02957Y02944*
X02959Y02935*
X02964Y02927*
X02969Y02924*
Y02918*
X02964Y02914*
X02959Y02906*
X02957Y02897*
X02959Y02888*
X02964Y0288*
X02969Y02876*
Y02871*
X02964Y02867*
X02959Y02859*
X02957Y0285*
X02959Y02841*
X02964Y02833*
X02972Y02828*
X02981Y02826*
X03012*
X03022Y02828*
X03029Y02833*
X03035Y02841*
X03036Y0285*
X03035Y02859*
X03029Y02867*
X03024Y02871*
Y02876*
X03029Y0288*
X03035Y02888*
X03035Y02889*
X0304Y02891*
X03042Y0289*
Y02875*
X03043Y0287*
X03046Y02866*
X03058Y02853*
X03063Y0285*
X03068Y02849*
X03363*
X03368Y0285*
X03373Y02853*
X03385Y02866*
X03388Y0287*
X0339Y02875*
Y02967*
X03395Y0297*
X03396Y02969*
X03398Y02969*
Y02986*
Y03003*
X03396Y03002*
X03395Y03001*
X0339Y03004*
Y03156*
X03392Y0316*
X03394Y03167*
X03392Y03174*
X03388Y0318*
X03382Y03184*
X03375Y03185*
X03369Y03184*
X03367Y03182*
X03363Y03186*
X03412Y03234*
X03424*
X03428Y03232*
X03435Y0323*
X03441Y03232*
X03447Y03236*
X03451Y03242*
X03453Y03249*
X03451Y03255*
X03447Y03261*
X03441Y03265*
X03435Y03267*
X03428Y03265*
X03424Y03263*
X03406*
X03401Y03262*
X03396Y03258*
X03384Y03247*
X0338Y03249*
X0338Y03249*
X03368*
Y03237*
X03368Y03237*
X0337Y03233*
X03314Y03177*
X03312Y03179*
X03305Y0318*
X03298Y03179*
X03292Y03175*
X03288Y03169*
X03287Y03162*
X03288Y03155*
X03292Y03149*
X03298Y03145*
X03305Y03144*
X03312Y03145*
X03315Y03148*
X03319*
X03325Y03149*
X03329Y03152*
X03356Y03179*
X0336Y03176*
X03359Y03174*
X03357Y03167*
X03359Y0316*
X03361Y03156*
Y02881*
X03357Y02877*
X03074*
X0307Y02881*
Y02894*
X03072Y02898*
X03074Y02905*
X03072Y02912*
X03068Y02918*
X03063Y02922*
X03056Y02923*
X03049Y02922*
X03043Y02918*
X03039Y02912*
X03038Y0291*
X03033Y02908*
X03029Y02914*
X03024Y02918*
Y02924*
X03029Y02927*
X03035Y02935*
X03036Y02944*
X03035Y02954*
X03029Y02961*
X03024Y02965*
Y02971*
X03029Y02975*
X03035Y02982*
X03036Y02992*
X03035Y03001*
X03029Y03009*
X03024Y03012*
Y03018*
X03029Y03022*
X03035Y0303*
X03036Y03039*
X03035Y03048*
X03029Y03056*
X03024Y0306*
Y03065*
X03029Y03069*
X03035Y03077*
X03036Y03086*
X03035Y03095*
X03029Y03103*
X03024Y03107*
Y03113*
X03029Y03116*
X03035Y03124*
X03036Y03133*
X03035Y03143*
X03029Y0315*
X03024Y03154*
Y0316*
X03029Y03164*
X03035Y03171*
X03036Y03181*
X03035Y0319*
X03029Y03198*
X03024Y03201*
Y03207*
X03029Y03211*
X03031Y03214*
X03071*
X03075Y0321*
Y0314*
X03076Y03135*
X03079Y0313*
X03096Y03114*
X031Y03111*
X03106Y03109*
X03293*
X033Y03102*
Y03087*
X033Y03086*
X03298Y03079*
X033Y03072*
X03304Y03066*
X0331Y03063*
X03316Y03061*
X03323Y03063*
X03329Y03066*
X03333Y03072*
X03334Y03079*
X03333Y03086*
X03329Y03092*
X03329Y03092*
Y03108*
X03327Y03113*
X03324Y03118*
X03309Y03133*
X03304Y03137*
X03299Y03138*
X03112*
X03103Y03146*
Y03216*
X03102Y03221*
X03099Y03226*
X03087Y03238*
X03083Y03241*
X03077Y03242*
X03031*
X03029Y03245*
X03024Y03249*
Y03254*
X03029Y03258*
X03035Y03266*
X03035Y0327*
G37*
G36*
X03225Y03092D02*
Y0308D01*
X03237*
X03237Y03082*
X03233Y03088*
X03227Y03092*
X03225Y03092*
G37*
G36*
X03215D02*
X03213Y03092D01*
X03208Y03089*
X03205Y03088*
X03204*
X03202Y03089*
X03196Y03092*
X03194Y03092*
Y03075*
Y03058*
X03196Y03059*
X03202Y03062*
X03204Y03063*
X03205*
X03208Y03062*
X03213Y03059*
X03215Y03058*
Y03075*
Y03092*
G37*
G36*
X03338Y03349D02*
X03331Y03348D01*
X03325Y03344*
X03321Y03338*
X0332Y03331*
X03321Y03324*
X03325Y03318*
X03331Y03314*
X03338Y03313*
X03345Y03314*
X0335Y03318*
X03463*
Y03184*
X03452Y03174*
X03433*
X03429Y03177*
X03422Y03178*
X03415Y03177*
X03409Y03173*
X03405Y03167*
X03404Y0316*
X03405Y03153*
X03409Y03147*
X03415Y03143*
X03422Y03142*
X03429Y03143*
X03433Y03146*
X03458*
X03464Y03147*
X03468Y0315*
X03487Y03169*
X0349Y03173*
X03491Y03179*
Y03325*
X0349Y03331*
X03487Y03335*
X0348Y03342*
X03475Y03345*
X0347Y03346*
X03347*
X03345Y03348*
X03338Y03349*
G37*
G36*
X03358Y03271D02*
X03356Y03271D01*
X0335Y03267*
X03346Y03261*
X03346Y03259*
X03358*
Y03271*
G37*
G36*
X03368D02*
Y03259D01*
X0338*
X03379Y03261*
X03375Y03267*
X0337Y03271*
X03368Y03271*
G37*
G36*
X03832Y03321D02*
X03804D01*
Y03289*
X03824*
X03827Y03289*
X0383Y03291*
X03832Y03294*
X03832Y03297*
Y03321*
G37*
G36*
X03899Y03364D02*
X03848D01*
X03845Y03363*
X03842Y03361*
X03841Y03359*
X0384Y03356*
Y03297*
X03841Y03294*
X03842Y03291*
X03845Y03289*
X03848Y03289*
X03859*
Y03274*
X03851Y03266*
X03849Y03265*
X03843Y03261*
X03839Y03255*
X03838Y03249*
X03839Y03242*
X03843Y03236*
X03849Y03232*
X03856Y0323*
X03863Y03232*
X03869Y03236*
X03872Y03242*
X03874Y03249*
X03874Y03249*
X03883Y03258*
X03887Y03263*
X03888Y03268*
Y03289*
X03899*
X03902Y03289*
X03905Y03291*
X03907Y03294*
X03907Y03297*
Y03356*
X03907Y03359*
X03905Y03361*
X03902Y03363*
X03899Y03364*
G37*
G36*
X03012Y03488D02*
X02981D01*
X02972Y03486*
X02964Y03481*
X02959Y03473*
X02957Y03464*
X02959Y03455*
X02964Y03447*
X02969Y03443*
Y03438*
X02964Y03434*
X02959Y03426*
X02957Y03417*
X02959Y03408*
X02964Y034*
X02969Y03396*
Y0339*
X02964Y03387*
X02959Y03379*
X02957Y0337*
X02959Y0336*
X02964Y03353*
X02969Y03349*
Y03343*
X02964Y03339*
X02959Y03332*
X02957Y03322*
X02959Y03313*
X02964Y03305*
X02969Y03302*
Y03296*
X02964Y03292*
X02959Y03284*
X02958Y0328*
X02997*
X03035*
X03035Y03284*
X03029Y03292*
X03025Y03295*
X03026Y033*
X03249*
X03252Y03297*
Y03295*
X03254Y03286*
X03259Y03279*
X03266Y03274*
X03266Y03274*
X03265Y03269*
X03247*
X03243Y03269*
X03241Y03267*
X03239Y03264*
X03239Y03261*
Y03237*
X03314*
Y03261*
X03313Y03264*
X03311Y03267*
X03309Y03269*
X03306Y03269*
X03283*
X03282Y03274*
X03283Y03274*
X0329Y03279*
X03295Y03286*
X03296Y03295*
Y03306*
X03295Y03315*
X0329Y03322*
X03274Y03338*
X03266Y03343*
X03258Y03344*
X03098*
Y03361*
X03097Y03369*
X03092Y03376*
X03083Y03385*
X03076Y0339*
X03067Y03392*
X03026*
X03025Y03397*
X03029Y034*
X03035Y03408*
X03036Y03417*
X03035Y03426*
X03029Y03434*
X03024Y03438*
Y03443*
X03029Y03447*
X03035Y03455*
X03036Y03464*
X03035Y03473*
X03029Y03481*
X03022Y03486*
X03012Y03488*
G37*
G36*
X03358Y03249D02*
X03346D01*
X03346Y03248*
X0335Y03242*
X03356Y03238*
X03358Y03237*
Y03249*
G37*
G36*
X03184Y03092D02*
X03183Y03092D01*
X03177Y03088*
X03173Y03082*
X03172Y0308*
X03184*
Y03092*
G37*
G36*
X03245Y03039D02*
X03191D01*
Y02977*
X03253*
Y03031*
X03252Y03034*
X0325Y03037*
X03248Y03038*
X03245Y03039*
G37*
G36*
X03787Y03016D02*
X03758D01*
Y02992*
X03759Y02989*
X03761Y02986*
X03763Y02984*
X03766Y02984*
X03787*
Y03016*
G37*
G36*
X03825D02*
X03797D01*
Y02984*
X03817*
X0382Y02984*
X03823Y02986*
X03825Y02989*
X03825Y02992*
Y03016*
G37*
G36*
X01151Y02994D02*
Y02952D01*
X01193*
X01192Y0296*
X01187Y02971*
X0118Y02981*
X0117Y02989*
X01158Y02993*
X01151Y02994*
G37*
G36*
X0342Y02981D02*
X03408D01*
Y02969*
X0341Y02969*
X03416Y02973*
X0342Y02979*
X0342Y02981*
G37*
G36*
X03181Y03039D02*
X03126D01*
X03123Y03038*
X03121Y03037*
X03119Y03034*
X03118Y03031*
Y02977*
X03181*
Y03039*
G37*
G36*
X03817Y03059D02*
X03797D01*
Y03026*
X03825*
Y03051*
X03825Y03054*
X03823Y03056*
X0382Y03058*
X03817Y03059*
G37*
G36*
X03184Y0307D02*
X03172D01*
X03173Y03068*
X03177Y03063*
X03183Y03059*
X03184Y03058*
Y0307*
G37*
G36*
X03237D02*
X03225D01*
Y03058*
X03227Y03059*
X03233Y03063*
X03237Y03068*
X03237Y0307*
G37*
G36*
X03902Y03132D02*
X03859D01*
X03856Y03131*
X03853Y03129*
X03851Y03127*
X03851Y03124*
Y03074*
X03851Y03071*
X03853Y03069*
X03854Y03063*
X03851Y03059*
X03841*
X03838Y03058*
X03835Y03056*
X03834Y03054*
X03833Y03051*
Y02992*
X03834Y02989*
X03835Y02986*
X03838Y02984*
X03841Y02984*
X03892*
X03895Y02984*
X03898Y02986*
X039Y02989*
X039Y02992*
Y03051*
X039Y03054*
X03898Y03056*
X03895Y03058*
X03894Y03063*
X03895Y03065*
X03896Y03066*
X03902*
X03905Y03067*
X03908Y03069*
X03909Y03071*
X0391Y03074*
Y03124*
X03909Y03127*
X03908Y03129*
X03905Y03131*
X03902Y03132*
G37*
G36*
X03408Y03003D02*
Y02991D01*
X0342*
X0342Y02993*
X03416Y02998*
X0341Y03002*
X03408Y03003*
G37*
G36*
X03787Y03059D02*
X03766D01*
X03763Y03058*
X03761Y03056*
X03759Y03054*
X03758Y03051*
Y03026*
X03787*
Y03059*
G37*
G36*
X01571Y02456D02*
X01547D01*
Y02428*
X01579*
Y02448*
X01579Y02451*
X01577Y02454*
X01574Y02456*
X01571Y02456*
G37*
G36*
X03632Y02176D02*
X03584D01*
Y02151*
X03624*
X03627Y02152*
X03629Y02153*
X03631Y02156*
X03632Y02159*
Y02176*
G37*
G36*
X01125Y02196D02*
X01083D01*
X01084Y02189*
X01089Y02177*
X01097Y02168*
X01107Y0216*
X01118Y02155*
X01125Y02154*
Y02196*
G37*
G36*
X01177D02*
X01135D01*
Y02154*
X01143Y02155*
X01154Y0216*
X01164Y02168*
X01172Y02177*
X01176Y02189*
X01177Y02196*
G37*
G36*
X03375Y0218D02*
X03347D01*
Y02155*
X03347Y02152*
X03349Y02149*
X03352Y02148*
X03355Y02147*
X03375*
Y0218*
G37*
G36*
X03414D02*
X03385D01*
Y02147*
X03406*
X03409Y02148*
X03412Y02149*
X03413Y02152*
X03414Y02155*
Y0218*
G37*
G36*
X03574Y02176D02*
X03527D01*
Y02159*
X03528Y02156*
X03529Y02153*
X03532Y02152*
X03535Y02151*
X03574*
Y02176*
G37*
G36*
X02144Y02232D02*
X02066D01*
X02063Y02231*
X02061Y02229*
X02059Y02227*
X02058Y02223*
Y02203*
X02059Y022*
X02061Y02198*
X02063Y02196*
X02066Y02195*
X02144*
X02147Y02196*
X0215Y02198*
X02152Y022*
X02152Y02203*
Y02223*
X02152Y02227*
X0215Y02229*
X02147Y02231*
X02144Y02232*
G37*
G36*
X01125Y02248D02*
X01118Y02247D01*
X01107Y02243*
X01097Y02235*
X01089Y02225*
X01084Y02214*
X01083Y02206*
X01125*
Y02248*
G37*
G36*
X01135D02*
Y02206D01*
X01177*
X01176Y02214*
X01172Y02225*
X01164Y02235*
X01154Y02243*
X01143Y02247*
X01135Y02248*
G37*
G36*
X03574Y0221D02*
X03535D01*
X03532Y0221*
X03529Y02208*
X03528Y02205*
X03527Y02202*
Y02186*
X03574*
Y0221*
G37*
G36*
X03375Y02222D02*
X03355D01*
X03352Y02221*
X03349Y0222*
X03347Y02217*
X03347Y02214*
Y0219*
X03375*
Y02222*
G37*
G36*
X03406D02*
X03385D01*
Y0219*
X03414*
Y02214*
X03413Y02217*
X03412Y0222*
X03409Y02221*
X03406Y02222*
G37*
G36*
X02144Y02182D02*
X02066D01*
X02063Y02181*
X02061Y02179*
X02059Y02177*
X02058Y02173*
Y02153*
X02059Y0215*
X02061Y02148*
X02063Y02146*
X02066Y02145*
X02144*
X02147Y02146*
X0215Y02148*
X02152Y0215*
X02152Y02153*
Y02173*
X02152Y02177*
X0215Y02179*
X02147Y02181*
X02144Y02182*
G37*
G36*
X03373Y02045D02*
X03359D01*
X03358Y02045*
X03357*
X03343Y02042*
X03343Y02042*
X03342Y02042*
X03329Y02036*
X03328Y02036*
X03328Y02036*
X03316Y02028*
X03315Y02027*
X03315Y02027*
X03305Y02017*
X03304Y02016*
X03304Y02016*
X03296Y02004*
X03296Y02003*
X03295Y02003*
X0329Y0199*
X0329Y01989*
X0329Y01988*
X03287Y01975*
Y01974*
X03287Y01973*
Y01959*
X03287Y01958*
Y01957*
X0329Y01944*
X0329Y01943*
X0329Y01942*
X03295Y01929*
X03296Y01929*
X03296Y01928*
X03304Y01916*
X03304Y01916*
X03305Y01915*
X03315Y01905*
X03315Y01905*
X03316Y01904*
X03328Y01897*
X03328Y01896*
X03329Y01896*
X03342Y0189*
X03343Y0189*
X03343Y0189*
X03357Y01887*
X03358*
X03359Y01887*
X03373*
X03373Y01887*
X03374*
X03388Y0189*
X03389Y0189*
X03389Y0189*
X03402Y01896*
X03403Y01896*
X03404Y01897*
X03415Y01904*
X03416Y01905*
X03416Y01905*
X03426Y01915*
X03427Y01916*
X03427Y01916*
X03435Y01928*
X03435Y01929*
X03436Y01929*
X03441Y01942*
X03441Y01943*
X03442Y01944*
X03444Y01957*
Y01958*
X03445Y01959*
Y01973*
X03444Y01974*
Y01975*
X03442Y01988*
X03441Y01989*
X03441Y0199*
X03436Y02003*
X03435Y02003*
X03435Y02004*
X03427Y02016*
X03427Y02016*
X03426Y02017*
X03416Y02027*
X03416Y02027*
X03415Y02028*
X03404Y02036*
X03403Y02036*
X03402Y02036*
X03389Y02042*
X03389Y02042*
X03388Y02042*
X03374Y02045*
X03373*
X03373Y02045*
G37*
G36*
X0195Y02182D02*
X01872D01*
X01869Y02181*
X01867Y02179*
X01865Y02177*
X01864Y02173*
Y02153*
X01865Y0215*
X01867Y02148*
X01869Y02146*
X01872Y02145*
X01878*
Y01998*
X01838*
X01835Y01997*
X01832Y01996*
X0183Y01993*
X0183Y0199*
Y01907*
X0183Y01904*
X01832Y01901*
X01835Y01899*
X01838Y01899*
X01928*
X01931Y01899*
X01933Y01901*
X01935Y01904*
X01936Y01907*
Y0199*
X01935Y01993*
X01933Y01996*
X01931Y01997*
X01928Y01998*
X01906*
Y02145*
X0195*
X01953Y02146*
X01956Y02148*
X01958Y0215*
X01958Y02153*
Y02173*
X01958Y02177*
X01956Y02179*
X01953Y02181*
X0195Y02182*
G37*
G36*
X02885Y01953D02*
X02864D01*
X02861Y01953*
X02858Y01951*
X02856Y01948*
X02856Y01945*
Y01914*
X02856Y01911*
X02858Y01908*
X02861Y01906*
X02864Y01906*
X02885*
X02888Y01906*
X02891Y01908*
X02892Y01911*
X02893Y01914*
Y01945*
X02892Y01948*
X02891Y01951*
X02888Y01953*
X02885Y01953*
G37*
G36*
X02762Y01948D02*
X02699D01*
X02696Y01947*
X02693Y01946*
X02691Y01943*
X02691Y0194*
Y01873*
X02691Y0187*
X02693Y01867*
X02696Y01866*
X02699Y01865*
X02762*
X02765Y01866*
X02767Y01867*
X02769Y0187*
X0277Y01873*
Y0194*
X02769Y01943*
X02767Y01946*
X02765Y01947*
X02762Y01948*
G37*
G36*
X03244D02*
X03181D01*
X03178Y01947*
X03175Y01946*
X03174Y01943*
X03173Y0194*
Y01873*
X03174Y0187*
X03175Y01867*
X03178Y01866*
X03181Y01865*
X03244*
X03247Y01866*
X0325Y01867*
X03251Y0187*
X03252Y01873*
Y0194*
X03251Y01943*
X0325Y01946*
X03247Y01947*
X03244Y01948*
G37*
G36*
X01323Y02045D02*
X01309D01*
X01308Y02045*
X01307*
X01293Y02042*
X01293Y02042*
X01292Y02042*
X01279Y02036*
X01278Y02036*
X01278Y02036*
X01266Y02028*
X01265Y02027*
X01265Y02027*
X01255Y02017*
X01254Y02016*
X01254Y02016*
X01246Y02004*
X01246Y02003*
X01245Y02003*
X0124Y0199*
X0124Y01989*
X0124Y01988*
X01237Y01975*
Y01974*
X01237Y01973*
Y01959*
X01237Y01958*
Y01957*
X0124Y01944*
X0124Y01943*
X0124Y01942*
X01245Y01929*
X01246Y01929*
X01246Y01928*
X01254Y01916*
X01254Y01916*
X01255Y01915*
X01265Y01905*
X01265Y01905*
X01266Y01904*
X01278Y01897*
X01278Y01896*
X01279Y01896*
X01292Y0189*
X01293Y0189*
X01293Y0189*
X01307Y01887*
X01308*
X01309Y01887*
X01323*
X01323Y01887*
X01324*
X01338Y0189*
X01339Y0189*
X01339Y0189*
X01352Y01896*
X01353Y01896*
X01354Y01897*
X01365Y01904*
X01366Y01905*
X01366Y01905*
X01376Y01915*
X01377Y01916*
X01377Y01916*
X01385Y01928*
X01385Y01929*
X01386Y01929*
X01391Y01942*
X01391Y01943*
X01392Y01944*
X01394Y01957*
Y01958*
X01395Y01959*
Y01973*
X01394Y01974*
Y01975*
X01392Y01988*
X01391Y01989*
X01391Y0199*
X01386Y02003*
X01385Y02003*
X01385Y02004*
X01377Y02016*
X01377Y02016*
X01376Y02017*
X01366Y02027*
X01366Y02027*
X01365Y02028*
X01354Y02036*
X01353Y02036*
X01352Y02036*
X01339Y02042*
X01339Y02042*
X01338Y02042*
X01324Y02045*
X01323*
X01323Y02045*
G37*
G36*
X00978Y02559D02*
X00967Y02557D01*
X00956Y02553*
X00947Y02546*
X0094Y02537*
X00936Y02527*
X00934Y02515*
X00936Y02504*
X0094Y02493*
X00947Y02484*
X00956Y02478*
Y02418*
X00957Y02409*
X00962Y02402*
X01091Y02273*
X01098Y02268*
X01107Y02267*
X0117*
X01191Y02246*
X01193Y02243*
X0124Y02197*
Y02117*
X0124Y02114*
X01242Y02111*
X01245Y02109*
X01248Y02109*
X01356*
X01359Y02109*
X01361Y02111*
X01363Y02114*
X01364Y02117*
Y02227*
X01363Y0223*
X01361Y02233*
X01359Y02234*
X01356Y02235*
X01264*
X01226Y02272*
X01224Y02275*
X01195Y02304*
X01188Y02309*
X0118Y02311*
X01116*
X01Y02427*
Y02478*
X01009Y02484*
X01016Y02493*
X0102Y02504*
X01022Y02515*
X0102Y02527*
X01016Y02537*
X01009Y02546*
X01Y02553*
X00989Y02557*
X00978Y02559*
G37*
G36*
X03376Y02141D02*
X03356D01*
X03353Y02141*
X0335Y02139*
X03348Y02136*
X03348Y02133*
Y02109*
X03376*
Y02141*
G37*
G36*
X03407D02*
X03386D01*
Y02109*
X03415*
Y02133*
X03414Y02136*
X03413Y02139*
X0341Y02141*
X03407Y02141*
G37*
G36*
X03079Y01953D02*
X03057D01*
X03054Y01953*
X03052Y01951*
X0305Y01948*
X03049Y01945*
Y01914*
X0305Y01911*
X03052Y01908*
X03054Y01906*
X03057Y01906*
X03079*
X03082Y01906*
X03084Y01908*
X03086Y01911*
X03087Y01914*
Y01945*
X03086Y01948*
X03084Y01951*
X03082Y01953*
X03079Y01953*
G37*
G36*
X03376Y02099D02*
X03348D01*
Y02074*
X03348Y02071*
X0335Y02069*
X03353Y02067*
X03356Y02066*
X03376*
Y02099*
G37*
G36*
X03415D02*
X03386D01*
Y02066*
X03407*
X0341Y02067*
X03413Y02069*
X03414Y02071*
X03415Y02074*
Y02099*
G37*
G36*
X02144Y02282D02*
X02066D01*
X02063Y02281*
X02061Y02279*
X02059Y02277*
X02058Y02273*
Y02253*
X02059Y0225*
X02061Y02248*
X02063Y02246*
X02066Y02245*
X02144*
X02147Y02246*
X0215Y02248*
X02152Y0225*
X02152Y02253*
Y02273*
X02152Y02277*
X0215Y02279*
X02147Y02281*
X02144Y02282*
G37*
G36*
X0195Y02382D02*
X01872D01*
X01869Y02381*
X01867Y02379*
X01866Y02378*
X01866Y02378*
X01863Y02378*
X01813*
X01808Y02376*
X01803Y02373*
X01771Y02341*
X01771Y02341*
X01771Y02341*
X01769Y02339*
X01768Y02337*
X01768Y02336*
X01768Y02336*
X01767Y02334*
X01767Y02331*
X01767Y02331*
X01767Y02331*
X01767Y02329*
X01762Y02324*
X01755*
X01752Y02324*
X0175Y02322*
X01748Y0232*
X01747Y02316*
Y02257*
X01748Y02254*
X0175Y02252*
X01752Y0225*
X01755Y02249*
X0176*
Y02225*
X01762Y02216*
X01766Y02209*
X01778Y02198*
X01785Y02193*
X01793Y02191*
X01911*
X0192Y02193*
X01923Y02195*
X0195*
X01953Y02196*
X01956Y02198*
X01957Y02199*
X01994*
X02006Y02188*
Y021*
X02007Y02095*
X0201Y0209*
X02017Y02083*
X02022Y0208*
X02027Y02079*
X02041*
X02042Y02075*
X02046Y02069*
X02046Y02069*
Y01998*
X02008*
X02005Y01997*
X02003Y01996*
X02001Y01993*
X02Y0199*
Y01907*
X02001Y01904*
X02003Y01901*
X02005Y01899*
X02008Y01899*
X02098*
X02101Y01899*
X02104Y01901*
X02106Y01904*
X02106Y01907*
Y0199*
X02106Y01993*
X02104Y01996*
X02101Y01997*
X02098Y01998*
X02075*
Y02074*
X02075Y02075*
X02077Y02082*
X02075Y02089*
X02071Y02095*
X02071Y02095*
X0207Y02096*
X02064Y02103*
X02059Y02106*
X02054Y02107*
X02034*
Y02193*
X02033Y02199*
X0203Y02203*
X0201Y02223*
X02005Y02226*
X02Y02228*
X01957*
X01956Y02229*
X01953Y02231*
X0195Y02232*
X01923*
X0192Y02234*
X01911Y02236*
X01804*
Y02249*
X01807*
X0181Y0225*
X01812Y02252*
X01814Y02254*
X01815Y02257*
Y02316*
X01814Y0232*
X01812Y02322*
X0181Y02324*
X01807Y02324*
X01801*
X01799Y02329*
X01819Y02349*
X01864*
X01864Y02349*
X01866Y02349*
X01866Y02349*
X01867Y02348*
X01869Y02346*
X01872Y02345*
X0195*
X01953Y02346*
X01956Y02348*
X01958Y0235*
X01958Y02353*
Y02373*
X01958Y02377*
X01956Y02379*
X01953Y02381*
X0195Y02382*
G37*
G36*
X0113Y02454D02*
X01118Y02452D01*
X01107Y02447*
X01097Y0244*
X01089Y0243*
X01084Y02418*
X01083Y02406*
X01084Y02394*
X01089Y02382*
X01097Y02372*
X01107Y02365*
X01118Y0236*
X0113Y02358*
X01143Y0236*
X01154Y02365*
X01164Y02372*
X01172Y02382*
X01176Y02394*
X01178Y02406*
X01176Y02418*
X01172Y0243*
X01164Y0244*
X01154Y02447*
X01143Y02452*
X0113Y02454*
G37*
G36*
X03666Y0246D02*
X03653Y02458D01*
X03641Y02453*
X03631Y02446*
X03623Y02435*
X03618Y02423*
X03616Y02411*
X03618Y02398*
X03623Y02386*
X03631Y02376*
X03641Y02368*
X03653Y02363*
X03666Y02361*
X03678Y02363*
X0369Y02368*
X03701Y02376*
X03708Y02386*
X03713Y02398*
X03715Y02411*
X03713Y02423*
X03708Y02435*
X03701Y02446*
X0369Y02453*
X03678Y02458*
X03666Y0246*
G37*
G36*
X021Y02332D02*
X02066D01*
X02063Y02331*
X02061Y02329*
X02059Y02327*
X02058Y02323*
Y02318*
X021*
Y02332*
G37*
G36*
X02144D02*
X0211D01*
Y02318*
X02152*
Y02323*
X02152Y02327*
X0215Y02329*
X02147Y02331*
X02144Y02332*
G37*
G36*
X03235Y02395D02*
X03195D01*
X03192Y02395*
X03189Y02393*
X03188Y0239*
X03187Y02387*
Y02336*
X03188Y02333*
X03189Y0233*
X03192Y02329*
X03195Y02328*
X03235*
X03238Y02329*
X0324Y0233*
X03242Y02333*
X03243Y02336*
Y02387*
X03242Y0239*
X0324Y02393*
X03238Y02395*
X03235Y02395*
G37*
G36*
X01537Y02418D02*
X01504D01*
Y02397*
X01505Y02394*
X01507Y02391*
X01509Y0239*
X01512Y02389*
X01537*
Y02418*
G37*
G36*
X01579D02*
X01547D01*
Y02389*
X01571*
X01574Y0239*
X01577Y02391*
X01579Y02394*
X01579Y02397*
Y02418*
G37*
G36*
X01537Y02456D02*
X01512D01*
X01509Y02456*
X01507Y02454*
X01505Y02451*
X01504Y02448*
Y02428*
X01537*
Y02456*
G37*
G36*
X03866Y0246D02*
X03853Y02458D01*
X03841Y02453*
X03831Y02446*
X03823Y02435*
X03818Y02423*
X03816Y02411*
X03818Y02398*
X03823Y02386*
X03831Y02376*
X03841Y02368*
X03853Y02363*
X03866Y02361*
X03878Y02363*
X0389Y02368*
X03901Y02376*
X03908Y02386*
X03913Y02398*
X03915Y02411*
X03913Y02423*
X03908Y02435*
X03901Y02446*
X0389Y02453*
X03878Y02458*
X03866Y0246*
G37*
G36*
X0178Y02418D02*
X01751D01*
Y02393*
X01752Y0239*
X01754Y02388*
X01756Y02386*
X01759Y02385*
X0178*
Y02418*
G37*
G36*
X01819D02*
X0179D01*
Y02385*
X01811*
X01814Y02386*
X01816Y02388*
X01818Y0239*
X01819Y02393*
Y02418*
G37*
G36*
X03624Y02326D02*
X03584D01*
Y02302*
X03632*
Y02318*
X03631Y02321*
X03629Y02324*
X03627Y02326*
X03624Y02326*
G37*
G36*
X03524Y02617D02*
X03465D01*
X03462Y02616*
X03459Y02614*
X03458Y02612*
X03457Y02609*
Y02558*
X03458Y02555*
X03459Y02552*
X03462Y0255*
X03465Y0255*
X03473*
Y02517*
X03474Y02509*
X03479Y02502*
X03485Y02496*
X03488Y02493*
X03492Y02491*
X03492*
X03492Y02491*
X03496Y0249*
X035Y02489*
X03723Y02489*
X03724Y02487*
X03732Y02477*
X03742Y02469*
X03744Y02468*
Y02328*
X03677Y02262*
X03669*
X03669Y02262*
X03668Y02265*
X03665Y02267*
X03662Y02267*
X03634*
X03631Y02272*
X03631Y02272*
X03632Y02275*
Y02292*
X03584*
Y02267*
X03608*
X03611Y02263*
X03611Y02262*
X03611Y02259*
Y02218*
X03611Y02215*
X03611Y02215*
X03608Y0221*
X03584*
Y02186*
X03632*
Y02202*
X03631Y02205*
X03631Y02205*
X03634Y0221*
X03662*
X03665Y02211*
X03668Y02212*
X03669Y02215*
X0367Y02218*
X03686*
X03695Y02219*
X03702Y02224*
X03781Y02303*
X03786Y02311*
X03788Y02319*
Y02468*
X0379Y02469*
X038Y02477*
X03807Y02487*
X03812Y02498*
X03814Y02511*
X03812Y02523*
X03807Y02535*
X038Y02545*
X0379Y02553*
X03778Y02557*
X03766Y02559*
X03753Y02557*
X03742Y02553*
X03732Y02545*
X03724Y02535*
X03723Y02533*
X03517Y02533*
Y0255*
X03524*
X03527Y0255*
X0353Y02552*
X03532Y02555*
X03532Y02558*
Y02609*
X03532Y02612*
X0353Y02614*
X03527Y02616*
X03524Y02617*
G37*
G36*
X00978Y02354D02*
X00967Y02353D01*
X00956Y02348*
X00947Y02341*
X0094Y02332*
X00936Y02322*
X00934Y02311*
X00936Y02299*
X0094Y02289*
X00947Y0228*
X00956Y02273*
X00967Y02268*
X00978Y02267*
X00989Y02268*
X01Y02273*
X01009Y0228*
X01016Y02289*
X0102Y02299*
X01022Y02311*
X0102Y02322*
X01016Y02332*
X01009Y02341*
X01Y02348*
X00989Y02353*
X00978Y02354*
G37*
G36*
X03574Y02292D02*
X03527D01*
Y02275*
X03528Y02272*
X03529Y02269*
X03532Y02268*
X03535Y02267*
X03574*
Y02292*
G37*
G36*
X01701Y02282D02*
X01673D01*
Y02257*
X01673Y02254*
X01675Y02252*
X01678Y0225*
X01681Y02249*
X01701*
Y02282*
G37*
G36*
X0174D02*
X01711D01*
Y02249*
X01732*
X01735Y0225*
X01737Y02252*
X01739Y02254*
X0174Y02257*
Y02282*
G37*
G36*
X03235Y02317D02*
X03195D01*
X03192Y02316*
X03189Y02314*
X03188Y02312*
X03187Y02309*
Y02257*
X03188Y02254*
X03189Y02252*
X03192Y0225*
X03195Y02249*
X03235*
X03238Y0225*
X0324Y02252*
X03242Y02254*
X03243Y02257*
Y02309*
X03242Y02312*
X0324Y02314*
X03238Y02316*
X03235Y02317*
G37*
G36*
X021Y02308D02*
X02058D01*
Y02303*
X02059Y023*
X02061Y02298*
X02063Y02296*
X02066Y02295*
X021*
Y02308*
G37*
G36*
X02152D02*
X0211D01*
Y02295*
X02144*
X02147Y02296*
X0215Y02298*
X02152Y023*
X02152Y02303*
Y02308*
G37*
G36*
X03574Y02326D02*
X03535D01*
X03532Y02326*
X03529Y02324*
X03528Y02321*
X03527Y02318*
Y02302*
X03574*
Y02326*
G37*
G36*
X0195Y02282D02*
X01872D01*
X01869Y02281*
X01867Y02279*
X01867Y02279*
X01861Y02278*
X0186Y02279*
X01853Y0228*
X01846Y02279*
X0184Y02275*
X01836Y02269*
X01835Y02262*
X01836Y02255*
X0184Y0225*
X01846Y02246*
X01853Y02244*
X0186Y02246*
X01861Y02247*
X01867Y02248*
X01869Y02246*
X01872Y02245*
X0195*
X01953Y02246*
X01956Y02248*
X01958Y0225*
X01958Y02253*
Y02273*
X01958Y02277*
X01956Y02279*
X01953Y02281*
X0195Y02282*
G37*
G36*
X01701Y02324D02*
X01681D01*
X01678Y02324*
X01675Y02322*
X01673Y0232*
X01673Y02316*
Y02292*
X01701*
Y02324*
G37*
G36*
X01732D02*
X01711D01*
Y02292*
X0174*
Y02316*
X01739Y0232*
X01737Y02322*
X01735Y02324*
X01732Y02324*
G37*
G36*
X03314Y0359D02*
X03312Y0359D01*
X03307Y03586*
X03303Y0358*
X03302Y03578*
X03314*
Y0359*
G37*
G36*
X03511Y03737D02*
X03477D01*
X03477Y03735*
X03481Y03729*
Y03729*
X03477Y03723*
X03477Y03721*
X03511*
X0351Y03723*
X03506Y03729*
Y03729*
X0351Y03735*
X03511Y03737*
G37*
G36*
X01058Y03955D02*
X01046D01*
X01047Y03953*
X01051Y03947*
X01057Y03943*
X01058Y03943*
Y03955*
G37*
G36*
X01248Y03914D02*
X01241Y03913D01*
X01235Y03909*
X01231Y03903*
X01229Y03896*
X01231Y03889*
X01235Y03883*
X01241Y03879*
X01248Y03878*
X01254Y03879*
X01258Y03882*
X01306*
X01307Y03881*
X01312Y03878*
X01319Y03876*
X01326Y03878*
X01332Y03881*
X01336Y03887*
X01337Y03894*
X01336Y03901*
X01332Y03907*
X01326Y03911*
X01319Y03912*
X01312Y03911*
X01311Y0391*
X01258*
X01254Y03913*
X01248Y03914*
G37*
G36*
X00951Y03929D02*
X00935D01*
X00931Y03928*
X00929Y03926*
X00927Y03924*
X00927Y03921*
Y03901*
X00951*
Y03929*
G37*
G36*
X00978D02*
X00961D01*
Y03901*
X00986*
Y03921*
X00985Y03924*
X00984Y03926*
X00981Y03928*
X00978Y03929*
G37*
G36*
X0361Y03976D02*
X03563D01*
Y03951*
X03602*
X03605Y03952*
X03608Y03953*
X03609Y03956*
X0361Y03959*
Y03976*
G37*
G36*
X0131Y04018D02*
X01275D01*
Y03964*
X01276Y03961*
X01278Y03959*
X0128Y03957*
X01283Y03956*
X0131*
Y04018*
G37*
G36*
X01058Y03977D02*
X01057Y03977D01*
X01051Y03973*
X01047Y03967*
X01046Y03965*
X01058*
Y03977*
G37*
G36*
X03651Y03712D02*
X03639Y0371D01*
X03627Y03705*
X03617Y03697*
X03609Y03687*
X03604Y03675*
X03602Y03662*
X03604Y0365*
X03609Y03638*
X03617Y03627*
X03627Y0362*
X03639Y03615*
X03651Y03613*
X03664Y03615*
X03676Y0362*
X03686Y03627*
X03694Y03638*
X03699Y0365*
X03701Y03662*
X03699Y03675*
X03694Y03687*
X03686Y03697*
X03676Y03705*
X03664Y0371*
X03651Y03712*
G37*
G36*
X01081Y03955D02*
X01068D01*
Y03943*
X0107Y03943*
X01076Y03947*
X0108Y03953*
X01081Y03955*
G37*
G36*
X03553Y03976D02*
X03505D01*
Y03959*
X03506Y03956*
X03508Y03953*
X0351Y03952*
X03513Y03951*
X03553*
Y03976*
G37*
G36*
X03867Y03574D02*
X03817D01*
X03813Y03573*
X03811Y03572*
X03809Y03569*
X03809Y03566*
Y03508*
X03809Y03505*
X03811Y03502*
X03813Y03501*
X03817Y035*
X03867*
X0387Y03501*
X03873Y03502*
X03875Y03505*
X03875Y03508*
Y03515*
X03878Y03518*
X03885Y03519*
X03891Y03523*
X03895Y03529*
X03897Y03536*
X03895Y03543*
X03891Y03549*
X03885Y03553*
X03878Y03554*
X03875Y03557*
Y03566*
X03875Y03569*
X03873Y03572*
X0387Y03573*
X03867Y03574*
G37*
G36*
X03639Y03558D02*
Y03524D01*
X03658*
Y03535*
X03657Y03544*
X03651Y03552*
X03644Y03557*
X03639Y03558*
G37*
G36*
X03851Y03912D02*
X03839Y0391D01*
X03827Y03905*
X03817Y03897*
X03809Y03887*
X03804Y03875*
X03802Y03862*
X03804Y0385*
X03809Y03838*
X03817Y03827*
X03827Y0382*
X03839Y03815*
X03851Y03813*
X03864Y03815*
X03876Y0382*
X03886Y03827*
X03894Y03838*
X03899Y0385*
X03901Y03862*
X03899Y03875*
X03894Y03887*
X03886Y03897*
X03876Y03905*
X03864Y0391*
X03851Y03912*
G37*
G36*
X03651D02*
X03639Y0391D01*
X03627Y03905*
X03617Y03897*
X03609Y03887*
X03604Y03875*
X03602Y03862*
X03604Y0385*
X03609Y03838*
X03617Y03827*
X03627Y0382*
X03639Y03815*
X03651Y03813*
X03664Y03815*
X03676Y0382*
X03686Y03827*
X03694Y03838*
X03699Y0385*
X03701Y03862*
X03699Y03875*
X03694Y03887*
X03686Y03897*
X03676Y03905*
X03664Y0391*
X03651Y03912*
G37*
G36*
X03658Y03514D02*
X03639D01*
Y0348*
X03644Y03481*
X03651Y03486*
X03657Y03494*
X03658Y03503*
Y03514*
G37*
G36*
X0361Y04092D02*
X03563D01*
Y04067*
X03587*
X03589Y04063*
X03589Y04062*
X03589Y0406*
Y04018*
X03589Y04015*
X03589Y04015*
X03587Y0401*
X03563*
Y03986*
X0361*
Y04002*
X03609Y04005*
X03609Y04006*
X03612Y0401*
X0364*
X03643Y04011*
X03646Y04013*
X03648Y04015*
X03648Y04018*
Y04019*
X03696*
X03729Y03985*
Y03805*
X03727Y03804*
X03717Y03796*
X0371Y03786*
X03705Y03775*
X03703Y03762*
X03705Y0375*
X0371Y03738*
X03717Y03728*
X03727Y0372*
X03739Y03716*
X03739Y03716*
Y03574*
X03737Y03573*
X03734Y03572*
X03733Y03569*
X03732Y03566*
Y03508*
X03733Y03505*
X03734Y03502*
X03735Y03502*
Y03497*
X03726Y03488*
X03724*
X03723Y03488*
X03721Y03488*
X03689*
X0368Y03486*
X03672Y03481*
X03667Y03473*
X03665Y03464*
X03667Y03455*
X03672Y03447*
X03678Y03443*
Y03438*
X03672Y03434*
X03667Y03426*
X03666Y03422*
X03705*
X03744*
X03743Y03426*
X03738Y03434*
X03732Y03438*
Y03439*
X03735Y03444*
X03744Y03446*
X03751Y0345*
X03773Y03472*
X03777Y03479*
X03779Y03488*
Y035*
X03791*
X03794Y03501*
X03796Y03502*
X03798Y03505*
X03799Y03508*
Y03566*
X03798Y03569*
X03796Y03572*
X03794Y03573*
X03791Y03574*
X03783*
Y03726*
X03786Y03728*
X03793Y03738*
X03798Y0375*
X038Y03762*
X03798Y03775*
X03793Y03786*
X03786Y03796*
X03776Y03804*
X03774Y03805*
Y03995*
X03772Y04003*
X03767Y0401*
X03721Y04056*
X03714Y04061*
X03705Y04063*
X03647*
X03646Y04065*
X03643Y04067*
X0364Y04068*
X03612*
X03609Y04072*
X03609Y04073*
X0361Y04075*
Y04092*
G37*
G36*
X03499Y03759D02*
Y03747D01*
X03511*
X0351Y03749*
X03506Y03754*
X03501Y03758*
X03499Y03759*
G37*
G36*
X03489D02*
X03487Y03758D01*
X03481Y03754*
X03477Y03749*
X03477Y03747*
X03489*
Y03759*
G37*
G36*
X03351Y03589D02*
Y03577D01*
X03363*
X03363Y03579*
X03359Y03585*
X03353Y03589*
X03351Y03589*
G37*
G36*
X03324Y0359D02*
Y03573D01*
X03319*
Y03568*
X03302*
X03303Y03566*
X03304Y03564*
X03304Y03563*
X03302Y03559*
X03294Y03557*
X03287Y03552*
X03283Y03546*
X03277*
X03273Y03552*
X03266Y03557*
X03256Y03559*
X03247Y03557*
X03239Y03552*
X03236Y03546*
X0323*
X03226Y03552*
X03218Y03557*
X03209Y03559*
X032Y03557*
X03192Y03552*
X03188Y03546*
X03183*
X03179Y03552*
X03171Y03557*
X03162Y03559*
X03153Y03557*
X03145Y03552*
X03141Y03546*
X03135*
X03132Y03552*
X03124Y03557*
X03115Y03559*
X03105Y03557*
X03098Y03552*
X03094Y03546*
X03088*
X03084Y03552*
X03077Y03557*
X03067Y03559*
X03058Y03557*
X0305Y03552*
X03045Y03544*
X03043Y03535*
Y03503*
X03045Y03494*
X0305Y03486*
X03053Y03484*
Y03435*
X03054Y03429*
X03057Y03425*
X03098Y03384*
X03102Y03381*
X03108Y0338*
X03341*
X03345Y03375*
X03344Y03371*
X03345Y03364*
X03349Y03358*
X03355Y03354*
X03362Y03353*
X03369Y03354*
X03371Y03356*
X03606*
X03623Y03338*
Y03067*
X03608Y03051*
X03562*
X03556Y0305*
X03552Y03047*
X0354Y03035*
X03537Y0303*
X03536Y03025*
Y02866*
X03537Y0286*
X0354Y02856*
X03554Y02842*
X03558Y02839*
X03563Y02838*
X03578*
X03578Y02833*
X03578Y02833*
X0357Y02828*
X03566Y02822*
X03561*
X03557Y02828*
X03549Y02833*
X03545Y02834*
Y02795*
Y02756*
X03549Y02757*
X03557Y02762*
X03561Y02768*
X03566*
X0357Y02762*
X03578Y02757*
X03587Y02755*
X03596Y02757*
X03604Y02762*
X03608Y02768*
X03614*
X03617Y02762*
X03622Y02759*
X03622Y02759*
X03622Y02755*
Y02748*
X03622Y02747*
X03622Y02745*
X03622Y02745*
X03622Y02744*
X03622Y02744*
X03622Y02744*
X03622Y02744*
X03622Y02744*
X03622Y02744*
X03622Y02744*
X0362Y02741*
X03618Y02734*
X0362Y02727*
X03624Y02721*
X03629Y02717*
X03636Y02716*
X03643Y02717*
X03649Y02721*
X03653Y02727*
X03654Y02734*
X03653Y02741*
X03651Y02744*
X03651Y02744*
X03651Y02744*
X03651Y02744*
X03651Y02744*
X03651Y02744*
Y02744*
X03651Y02745*
X03651Y02745*
X0365Y02749*
Y02756*
X0365Y02757*
X03651Y02758*
X03651Y02759*
X03651Y0276*
X03652Y02762*
X03652Y02763*
X03653Y02764*
X03654Y02765*
X03655Y02766*
X03655Y02767*
X03655Y02767*
X03655Y02767*
X03657Y0277*
X03658Y02779*
Y02805*
X03663Y02807*
X03667Y02803*
Y02741*
X03664Y02737*
X03663Y0273*
X03664Y02723*
X03668Y02717*
X03674Y02713*
X03681Y02712*
X03688Y02713*
X03693Y02717*
X03697Y02723*
X03699Y0273*
X03697Y02737*
X03695Y02741*
Y0281*
X03694Y02815*
X03691Y02819*
X03689Y02821*
X03691Y02826*
X03721*
X03723Y02823*
X0376*
X03759Y02825*
X03755Y02831*
X0375Y02835*
X03746Y02836*
X03743Y02841*
X03743Y02841*
X03745Y0285*
X03743Y02859*
X03738Y02867*
X03732Y02871*
Y02876*
X03738Y0288*
X03743Y02888*
X03745Y02897*
X03743Y02906*
X03738Y02914*
X03732Y02918*
X03732Y02924*
X03732Y02924*
X03733Y02924*
X03733Y02924*
X03733Y02924*
X03734Y02925*
X03735Y02925*
X03735Y02925*
X03736Y02925*
X03737Y02926*
X03738Y02926*
X0374Y02926*
X03742Y02926*
X03763*
X03764Y02926*
X03766Y02926*
X03766Y02926*
X03767Y02926*
X03767Y02926*
X03767Y02926*
X03767Y02926*
X03767Y02926*
X03767Y02926*
X03767Y02926*
X0377Y02924*
X03777Y02922*
X03784Y02924*
X0379Y02928*
X03794Y02934*
X03795Y0294*
X03794Y02947*
X0379Y02953*
X03784Y02957*
X03777Y02959*
X0377Y02957*
X03767Y02955*
X03767Y02955*
X03767Y02955*
X03767Y02955*
X03767Y02955*
X03767Y02955*
X03767Y02955*
X03766Y02955*
X03766Y02955*
X03762Y02954*
X03745*
X03744Y02955*
X03742Y02955*
X03741Y02956*
X03741Y02956*
X03741Y02956*
X03738Y02961*
X03732Y02965*
Y02971*
X03738Y02975*
X03743Y02982*
X03745Y02992*
X03743Y03001*
X03738Y03009*
X03732Y03012*
Y03018*
X03738Y03022*
X03743Y0303*
X03745Y03039*
X03743Y03048*
X03738Y03056*
X03732Y0306*
Y03065*
X03738Y03069*
X03743Y03077*
X03745Y03086*
X03743Y03095*
X03738Y03103*
X03732Y03107*
Y03113*
X03738Y03116*
X03743Y03124*
X03745Y03133*
X03743Y03143*
X03738Y0315*
X03732Y03154*
Y0316*
X03738Y03164*
X03743Y03171*
X03745Y03181*
X03743Y0319*
X03738Y03198*
X03732Y03201*
Y03207*
X03738Y03211*
X0374Y03214*
X03746Y03214*
X03767Y03193*
Y03132*
X0376*
X03757Y03131*
X03755Y03129*
X03753Y03127*
X03752Y03124*
Y03074*
X03753Y03071*
X03755Y03069*
X03757Y03067*
X0376Y03066*
X03804*
X03807Y03067*
X03809Y03069*
X03811Y03071*
X03812Y03074*
Y03124*
X03811Y03127*
X03809Y03129*
X03807Y03131*
X03804Y03132*
X03795*
Y03199*
X03794Y03205*
X03791Y03209*
X03767Y03233*
Y03285*
X03772Y03289*
X03773Y03289*
X03794*
Y03326*
Y03364*
X03773*
X0377Y03363*
X03767Y03361*
X03767*
X03763Y03364*
X03748Y0338*
X03743Y03383*
X0374Y03383*
X03738Y03387*
X03732Y0339*
Y03396*
X03738Y034*
X03743Y03408*
X03744Y03412*
X03705*
X03666*
X03667Y03408*
X03672Y034*
X03678Y03396*
Y0339*
X03672Y03387*
X03667Y03379*
X03665Y0337*
X03667Y0336*
X03672Y03353*
X03678Y03349*
Y03343*
X03672Y03339*
X03667Y03332*
X03665Y03322*
X03667Y03313*
X03672Y03305*
X03678Y03302*
Y03296*
X03672Y03292*
X03667Y03284*
X03665Y03275*
X03667Y03266*
X03672Y03258*
X03678Y03254*
Y03249*
X03672Y03245*
X03667Y03237*
X03665Y03228*
X03667Y03219*
X03672Y03211*
X03678Y03207*
Y03201*
X03672Y03198*
X03667Y0319*
X03665Y03181*
X03667Y03171*
X03672Y03164*
X03678Y0316*
Y03154*
X03672Y0315*
X03667Y03143*
X03665Y03133*
X03667Y03124*
X03672Y03116*
X03678Y03113*
Y03107*
X03672Y03103*
X03667Y03095*
X03665Y03086*
X03667Y03077*
X03672Y03069*
X03678Y03065*
Y0306*
X03672Y03056*
X03667Y03048*
X03665Y03039*
X03667Y0303*
X03672Y03022*
X03678Y03018*
Y03012*
X03672Y03009*
X03667Y03001*
X03665Y02992*
X03667Y02982*
X03672Y02975*
X03678Y02971*
Y02965*
X03672Y02961*
X03667Y02954*
X03665Y02944*
X03667Y02935*
X03672Y02927*
X03678Y02924*
Y02918*
X03672Y02914*
X0367Y0291*
X03617*
Y02917*
X0362Y02921*
X03621Y02928*
X0362Y02935*
X03616Y0294*
X0361Y02944*
X03603Y02946*
X03596Y02944*
X0359Y0294*
X03586Y02935*
X03585Y02928*
X03586Y02921*
X03586Y0292*
X03585Y02914*
X03585Y02914*
X03584Y02914*
X03577Y02915*
X0357Y02914*
X03569Y02913*
X03564Y02915*
Y03019*
X03567Y03023*
X03613*
X03619Y03024*
X03623Y03027*
X03647Y03051*
X0365Y03055*
X03651Y03061*
Y03344*
X0365Y03349*
X03647Y03354*
X03622Y0338*
X03617Y03383*
X03612Y03384*
X03518*
X03516Y03389*
X03519Y03392*
X03522Y03397*
X03523Y03402*
Y03447*
X03526Y03451*
X03527Y03458*
X03526Y03465*
X03522Y03471*
X03516Y03475*
X03509Y03476*
X03502Y03475*
X03497Y03471*
X03493Y03465*
X03491Y03458*
X03493Y03451*
X03495Y03447*
Y03408*
X03399*
X03398Y03409*
X034Y03416*
X03401Y03417*
X03405Y03423*
X03406Y0343*
X03405Y03437*
X03401Y03442*
X03395Y03446*
X03388Y03448*
X03381Y03446*
X03376Y03443*
X03223*
Y03484*
X03226Y03486*
X0323Y03492*
X03236*
X03239Y03486*
X03247Y03481*
X03256Y03479*
X03266Y03481*
X03273Y03486*
X03277Y03492*
X03283*
X03287Y03486*
X03294Y03481*
X03304Y03479*
X03313Y03481*
X03321Y03486*
X03324Y03492*
X0333*
X03334Y03486*
X03342Y03481*
X03351Y03479*
X0336Y03481*
X03368Y03486*
X03372Y03492*
X03377*
X03381Y03486*
X03389Y03481*
X03398Y03479*
X03407Y03481*
X03415Y03486*
X03419Y03492*
X03425*
X03428Y03486*
X03436Y03481*
X03445Y03479*
X03455Y03481*
X03462Y03486*
X03466Y03492*
X03472*
X03476Y03486*
X03483Y03481*
X03493Y03479*
X03502Y03481*
X0351Y03486*
X03513Y03492*
X03519*
X03523Y03486*
X03531Y03481*
X0354Y03479*
X03549Y03481*
X03557Y03486*
X03561Y03492*
X03566*
X0357Y03486*
X03578Y03481*
X03587Y03479*
X03596Y03481*
X03604Y03486*
X03608Y03492*
X03614*
X03617Y03486*
X03625Y03481*
X03629Y0348*
Y03519*
Y03558*
X03625Y03557*
X03617Y03552*
X03614Y03546*
X03608*
X03605Y03551*
X03604Y03557*
X03608Y03562*
X03609Y03569*
X03608Y03576*
X03604Y03582*
X03598Y03586*
X03591Y03587*
X03584Y03586*
X03578Y03582*
X03574Y03576*
X03573Y03569*
X03573Y03568*
X03573Y03567*
Y03554*
X0357Y03552*
X03566Y03546*
X03561*
X03557Y03552*
X03549Y03557*
X0354Y03559*
X03531Y03557*
X03523Y03552*
X03519Y03546*
X03513*
X0351Y03552*
X03502Y03557*
X03493Y03559*
X03483Y03557*
X03476Y03552*
X03472Y03546*
X03466*
X03462Y03552*
X03455Y03557*
X03445Y03559*
X03436Y03557*
X03428Y03552*
X03425Y03546*
X03419*
X03415Y03552*
X03407Y03557*
X03398Y03559*
X03389Y03557*
X03381Y03552*
X03377Y03546*
X03372*
X03368Y03552*
X03362Y03556*
X0336Y03558*
X0336Y03562*
X03363Y03565*
X03363Y03567*
X03346*
Y03572*
X03341*
Y03589*
X03339Y03589*
X03337Y03588*
X03332Y03586*
X03326Y0359*
X03324Y0359*
G37*
G36*
X00951Y03891D02*
X00927D01*
Y03872*
X00927Y03868*
X00929Y03866*
X00931Y03864*
X00935Y03864*
X00951*
Y03891*
G37*
G36*
X03416Y03829D02*
X03374D01*
Y03786*
X03408*
X03411Y03787*
X03414Y03789*
X03415Y03791*
X03416Y03794*
Y03829*
G37*
G36*
X02246Y04393D02*
X02206D01*
X02203Y04393*
X02201Y04391*
X02199Y04388*
X02198Y04385*
Y0433*
X02199Y04327*
X02201Y04325*
X02203Y04323*
X02206Y04322*
X02212*
Y0431*
X02206*
X02203Y04309*
X02201Y04307*
X02199Y04305*
X02198Y04302*
Y04247*
X02199Y04243*
X02201Y04241*
X02203Y04239*
X02206Y04239*
X02212*
Y0422*
X02205*
X02202Y0422*
X022Y04218*
X02198Y04215*
X02197Y04212*
Y04157*
X02198Y04154*
X022Y04151*
X02202Y0415*
X02205Y04149*
X0221*
Y04141*
X02195Y04127*
X02151*
X02149Y04131*
X0216Y04142*
X02163Y04147*
X02164Y04149*
X0217*
X02173Y0415*
X02175Y04151*
X02177Y04154*
X02178Y04157*
Y04212*
X02177Y04215*
X02175Y04218*
X02173Y0422*
X0217Y0422*
X0213*
X02127Y0422*
X02125Y04218*
X02123Y04215*
X02122Y04212*
Y04157*
X02123Y04154*
X02125Y04151*
X02125Y04151*
X02123Y04146*
X02107*
X02105Y04151*
X02106Y04153*
X02107Y0416*
X02106Y04167*
X02102Y04173*
X02096Y04177*
X02094Y04177*
X02093Y04182*
X02094Y04183*
X02096Y04185*
X02096Y04188*
Y04227*
X02069*
Y0418*
X02075*
X02077Y04175*
X02076Y04174*
X0204*
X02038Y04174*
X02036Y04174*
X02029Y04173*
X02023Y04169*
X02019Y04163*
X02018Y04156*
X02018Y04155*
X02014Y04151*
X02013Y04151*
Y04219*
X02012Y04224*
X02008Y04229*
X01985Y04253*
X0198Y04256*
X01975Y04257*
X01908*
X01903Y04256*
X01898Y04253*
X01889Y04244*
X01884Y04246*
X01884Y04248*
X01881Y04253*
X01862Y04271*
X01864Y04276*
X01879*
X01879Y04275*
X01885Y04271*
X01892Y0427*
X01899Y04271*
X01905Y04275*
X01909Y04281*
X0191Y04288*
X01909Y04294*
X01909Y04296*
X01911Y04299*
X02079*
X02079Y04296*
X02083Y0429*
X02086Y04288*
X02084Y04283*
X02069*
Y04237*
X02096*
Y04275*
X02096Y04278*
X02094Y0428*
X02095Y04283*
X02096Y04283*
X02097Y04285*
X02103Y04286*
X02109Y0429*
X02112Y04294*
X02117Y04296*
X02123Y0429*
Y04247*
X02124Y04243*
X02126Y04241*
X02128Y04239*
X02131Y04239*
X02171*
X02174Y04239*
X02176Y04241*
X02178Y04243*
X02179Y04247*
Y04302*
X02178Y04305*
X02176Y04307*
X02174Y04309*
X02171Y0431*
X02143*
X02136Y04317*
X02138Y04322*
X02171*
X02174Y04323*
X02176Y04325*
X02178Y04327*
X02179Y0433*
Y04385*
X02178Y04388*
X02176Y04391*
X02174Y04393*
X02171Y04393*
X02131*
X02128Y04393*
X02126Y04391*
X02124Y04388*
X02123Y04385*
Y04372*
X01595*
X0159Y04371*
X01585Y04368*
X01491Y04274*
X01487Y04275*
X01486Y04276*
X01485Y04278*
X01484Y04281*
X01481Y04283*
X01478Y04283*
X01459*
Y04232*
Y0418*
X01478*
X01479Y04181*
X01483Y04178*
X01484Y04177*
Y0401*
X01486Y04005*
X01489Y04*
X01574Y03915*
Y03874*
X01571Y03873*
X01569Y03871*
X01564*
X01562Y03873*
X01559Y03874*
X01531*
X01528Y03873*
X01525Y03871*
X01521*
X01518Y03873*
X01515Y03874*
X01488*
X01486Y03875*
Y03881*
X01485Y03884*
X01484Y03887*
X01481Y03889*
X01478Y03889*
X01459*
Y03854*
Y03818*
X01478*
X0148Y03817*
Y03803*
X0148Y038*
X01482Y03797*
X01485Y03795*
X01488Y03795*
X01515*
X01518Y03795*
X01521Y03797*
X01525*
X01528Y03795*
X01531Y03795*
X01559*
X01562Y03795*
X01564Y03797*
X01569*
X01571Y03795*
X01574Y03795*
Y03766*
X01575Y03761*
X01578Y03756*
X01623Y03712*
X01622Y03708*
X01617Y03707*
X01549Y03775*
X01544Y03778*
X01539Y03779*
X01446*
X01421Y03805*
Y03818*
X01422Y03818*
X01426Y0382*
X01428Y03819*
X01431Y03818*
X01449*
Y03854*
Y03889*
X01431*
X01428Y03889*
X01426Y03888*
X01422Y03889*
X01421Y0389*
Y04175*
X0142Y0418*
X01417Y04185*
X0139Y04211*
X01386Y04214*
X0138Y04215*
X01352*
X01351Y0422*
X01356Y04223*
X01357Y04223*
X01358Y04223*
X01369Y04231*
X0137Y04232*
X0137Y04232*
X0138Y04242*
X01381Y04243*
X01381Y04243*
X01389Y04255*
X01389Y04256*
X0139Y04256*
X01395Y04269*
X01395Y0427*
X01396Y04271*
X01398Y04284*
Y04285*
X01398Y04286*
Y043*
X01398Y04301*
Y04301*
X01396Y04315*
X01395Y04316*
X01395Y04317*
X0139Y04329*
X01389Y0433*
X01389Y04331*
X01381Y04342*
X01381Y04343*
X0138Y04344*
X0137Y04354*
X0137Y04354*
X01369Y04355*
X01358Y04362*
X01357Y04363*
X01356Y04363*
X01343Y04368*
X01343Y04369*
X01342Y04369*
X01328Y04372*
X01327*
X01327Y04372*
X01313*
X01312Y04372*
X01311*
X01297Y04369*
X01297Y04369*
X01296Y04368*
X01283Y04363*
X01282Y04363*
X01282Y04362*
X0127Y04355*
X01269Y04354*
X01269Y04354*
X01259Y04344*
X01258Y04343*
X01258Y04342*
X0125Y04331*
X0125Y0433*
X01249Y04329*
X01244Y04317*
X01244Y04316*
X01244Y04315*
X01241Y04301*
Y04301*
X01241Y043*
Y04286*
X01241Y04285*
Y04284*
X01244Y04271*
X01244Y0427*
X01244Y04269*
X01249Y04256*
X0125Y04256*
X0125Y04255*
X01258Y04243*
X01258Y04243*
X01259Y04242*
X01269Y04232*
X01269Y04232*
X0127Y04231*
X01282Y04223*
X01282Y04223*
X01283Y04223*
X01288Y0422*
X01287Y04215*
X01095*
X0109Y04214*
X01085Y04211*
X00999Y04126*
X00996Y04121*
X00995Y04116*
Y03879*
X00991Y03875*
X00986Y03877*
Y03891*
X00961*
Y03864*
X00973*
X00975Y03859*
X00974Y03856*
X00973Y03851*
Y03757*
X00974Y03752*
X00977Y03747*
X00993Y03732*
X00997Y03729*
X00997Y03729*
Y03716*
X00998Y03713*
X01Y0371*
X01002Y03709*
X01005Y03708*
X01064*
X01068Y03709*
X0107Y0371*
X01072Y03713*
X01072Y03716*
Y03767*
X01072Y0377*
X0107Y03773*
X01068Y03775*
X01064Y03775*
X01005*
X01004Y03777*
Y03778*
X01008Y03783*
X01064*
X01068Y03783*
X0107Y03785*
X01072Y03788*
X01072Y03791*
Y03842*
X01072Y03845*
X0107Y03848*
X01068Y03849*
X01067Y0385*
X01067Y0385*
X01065Y03855*
X01067Y03857*
X01068Y03863*
Y03864*
X01076*
X01079Y03864*
X01082Y03866*
X01084Y03868*
X01084Y03872*
Y03921*
X01084Y03924*
X01082Y03926*
X01079Y03928*
X01076Y03929*
X01033*
X0103Y03928*
X01028Y03927*
X01025Y03929*
X01023Y03929*
Y03995*
X01028Y03997*
X01028Y03997*
X01031Y03995*
X01034Y03994*
X01077*
X0108Y03995*
X01083Y03997*
X01085Y03999*
X01085Y04002*
Y04052*
X01085Y04055*
X01083Y04057*
X0108Y04059*
X01077Y0406*
X0107*
Y041*
X01075Y041*
X01075Y04097*
X01079Y04091*
X01085Y04087*
X01092Y04086*
X01095Y04081*
Y03964*
X01096Y03961*
X01098Y03959*
X011Y03957*
X01103Y03956*
X01166*
X0117Y03957*
X01172Y03959*
X01174Y03961*
X01174Y03964*
Y04066*
X01175Y04071*
X01174Y04075*
Y04082*
X01174Y04085*
X01172Y04088*
X0117Y0409*
X01166Y0409*
X01147*
Y04099*
X01146Y04104*
X01143Y04109*
X01139Y04113*
X01139Y04115*
X0114Y04118*
X01165*
X01168Y04119*
X01171Y04121*
X01172Y04123*
X01173Y04126*
Y04186*
X01174Y04187*
X01176*
X0118Y04183*
Y04126*
X01181Y04123*
X01183Y04121*
X01185Y04119*
X01188Y04118*
X0124*
X01243Y04119*
X01245Y04121*
X01247Y04123*
X01248Y04126*
Y04144*
X01303*
X01306Y04139*
X01305Y04134*
X01307Y04127*
X01311Y04122*
X01316Y04118*
X01323Y04116*
X01326Y04117*
X01347Y04095*
X01347Y04093*
X01345Y0409*
X0132*
Y04023*
Y03956*
X01346*
X01347Y03956*
X01352Y03953*
Y03866*
X01347Y03865*
X01346Y03866*
X01345Y03868*
X01342Y0387*
X01339Y03871*
X01111*
X01108Y0387*
X01105Y03868*
X01103Y03866*
X01103Y03863*
Y03674*
X01083*
X01075Y03672*
X01068Y03668*
X01038Y03638*
X01033Y03631*
X01032Y03623*
X01033Y03614*
X01034Y03614*
Y03311*
X01029Y0331*
X01027Y03314*
X01019Y03325*
X01008Y03333*
X00995Y03339*
X00981Y03341*
X00967Y03339*
X00954Y03333*
X00943Y03325*
X00934Y03314*
X00929Y03301*
X00927Y03287*
X00929Y03273*
X00934Y0326*
X00943Y03249*
X00954Y03241*
X00967Y03235*
X00981Y03233*
X00995Y03235*
X01008Y03241*
X01019Y03249*
X01027Y0326*
X01029Y03264*
X01034Y03263*
Y03193*
X01029Y03192*
X01027Y03196*
X01019Y03207*
X01008Y03215*
X00995Y03221*
X00981Y03222*
X00967Y03221*
X00954Y03215*
X00943Y03207*
X00934Y03196*
X00929Y03183*
X00927Y03169*
X00929Y03155*
X00934Y03142*
X00943Y03131*
X00954Y03122*
X00967Y03117*
X00981Y03115*
X00995Y03117*
X01008Y03122*
X01019Y03131*
X01027Y03142*
X01029Y03145*
X01034Y03144*
Y03113*
X01013Y03093*
X01008Y03097*
X00995Y03103*
X00981Y03104*
X00967Y03103*
X00954Y03097*
X00943Y03089*
X00934Y03078*
X00929Y03065*
X00927Y03051*
X00929Y03037*
X00934Y03024*
X00943Y03013*
X00954Y03004*
X00967Y02999*
X00981Y02997*
X00995Y02999*
X01008Y03004*
X01019Y03013*
X01027Y03024*
X01033Y03037*
X01034Y03051*
X01034Y03051*
X01055Y03072*
X01059Y03069*
X01059Y03068*
X01061Y03061*
X01064Y03056*
X01066Y03055*
X01066Y03049*
X01065Y03046*
X0106Y03044*
X00999Y02982*
X00995Y02984*
X00981Y02986*
X00967Y02984*
X00954Y02979*
X00943Y02971*
X00934Y02959*
X00929Y02947*
X00927Y02933*
X00929Y02919*
X00934Y02906*
X00943Y02895*
X00954Y02886*
X00967Y02881*
X00981Y02879*
X00995Y02881*
X01008Y02886*
X01019Y02895*
X01027Y02906*
X01033Y02919*
X01034Y02933*
X01033Y02947*
X01031Y02951*
X01092Y03012*
X01092Y03013*
X01223*
Y02862*
X01223Y02859*
X01219Y02856*
X01215Y0286*
X01211Y02863*
X01205Y02864*
X01199*
Y02875*
X01199Y02878*
X01197Y0288*
X01195Y02882*
X01191Y02883*
X0114*
X01137Y02882*
X01135Y0288*
X01133Y02878*
X01132Y02875*
Y02815*
X01133Y02812*
X01135Y0281*
X01137Y02808*
X0114Y02807*
X01191*
X01195Y02808*
X01197Y0281*
X01199Y02812*
X01199Y02815*
Y02829*
X01204Y02831*
X01237Y02799*
X01241Y02796*
X01247Y02795*
X01252*
Y02785*
X01253Y02782*
X01255Y02779*
X01257Y02778*
X0126Y02777*
X01292*
X01295Y02778*
X01298Y02779*
X01299Y02782*
X013Y02785*
Y02832*
X01299Y02835*
X01298Y02838*
X01295Y0284*
X01292Y0284*
X0126*
X01257Y0284*
X01255Y02838*
X01253Y02835*
X01252Y02832*
Y02829*
X01248Y02827*
X01225Y0285*
X01228Y02854*
X01231Y02854*
X01459*
X01462Y02854*
X01465Y02856*
X01467Y02859*
X01467Y02862*
Y03106*
X01467Y03109*
X01465Y03111*
X01464Y03112*
X01465Y03117*
X01473*
Y03117*
X01476Y03113*
X01483Y03106*
Y03056*
X01484Y0305*
X01487Y03046*
X01528Y03005*
Y02832*
X01523Y02831*
X01522Y02831*
X01513Y02839*
X01501Y02844*
X01489Y02845*
X01476Y02844*
X01465Y02839*
X01455Y02831*
X01447Y02822*
X01443Y0281*
X01441Y02798*
X01443Y02785*
X01447Y02774*
X01455Y02764*
X01465Y02756*
X01476Y02752*
X01489Y0275*
X01501Y02752*
X01513Y02756*
X01522Y02764*
X01528Y02772*
X01534Y02772*
X01535Y02772*
X01559Y02748*
X01557Y02743*
X01521*
X01516Y02742*
X01511Y02739*
X01475Y02703*
X01313*
X01242Y02774*
X01237Y02777*
X01232Y02778*
X01208*
Y02789*
X01208Y02792*
X01206Y02795*
X01203Y02796*
X012Y02797*
X01162*
X01162Y02797*
X01161Y02797*
X01141*
X01138Y02796*
X01136Y02795*
X01134Y02792*
X01133Y02789*
Y02738*
X01134Y02735*
X01136Y02732*
X01138Y0273*
X0114Y0273*
X01142Y02727*
X01142Y02725*
X0114Y02722*
X01138Y02721*
X01136Y0272*
X01134Y02717*
X01133Y02714*
Y02663*
X01134Y0266*
Y02659*
X01132Y02654*
X01122Y0265*
X01112Y02642*
X01105Y02633*
X011Y02621*
X01099Y02609*
X011Y02596*
X01105Y02585*
X01112Y02575*
X01122Y02567*
X01134Y02563*
X01146Y02561*
X01158Y02563*
X0117Y02567*
X0118Y02575*
X01187Y02585*
X01192Y02596*
X01194Y02609*
X01192Y02621*
X01187Y02633*
X0118Y02642*
X0117Y0265*
X0117Y0265*
X01172Y02655*
X012*
X01203Y02655*
X01206Y02657*
X01208Y0266*
X01208Y02663*
Y02675*
X01233*
X01262Y02646*
Y02594*
X0126*
X01257Y02594*
X01255Y02592*
X01253Y02589*
X01252Y02586*
Y02539*
X01253Y02536*
X01255Y02533*
X01257Y02531*
X0126Y02531*
X01292*
X01295Y02531*
X01298Y02533*
X01299Y02536*
X013Y02539*
Y02586*
X01299Y02589*
X01298Y02592*
X01295Y02594*
X01292Y02594*
X0129*
Y02652*
X01289Y02657*
X01286Y02662*
X01249Y02699*
X01244Y02702*
X01239Y02704*
X01208*
Y02714*
X01208Y02717*
X01206Y0272*
X01203Y02721*
X012Y02722*
X01162*
X0116Y02725*
X01162Y0273*
X012*
X01203Y0273*
X01206Y02732*
X01208Y02735*
X01208Y02738*
Y0275*
X01226*
X01298Y02679*
X01302Y02676*
X01308Y02674*
X01481*
X01486Y02676*
X01491Y02679*
X01527Y02715*
X01587*
X01589Y02713*
X01586Y02708*
X01541*
X01532Y02706*
X01525Y02701*
X01476Y02652*
X01471Y02645*
X0147Y02636*
Y02609*
X01449*
X01446Y02608*
X01444Y02607*
X01442Y02604*
X01441Y02601*
Y02522*
X01442Y02519*
X01444Y02516*
X01446Y02515*
X01449Y02514*
X01528*
X01531Y02515*
X01534Y02516*
X01535Y02519*
X01536Y02522*
Y02601*
X01535Y02604*
X01534Y02607*
X01531Y02608*
X01528Y02609*
X01514*
Y02627*
X0155Y02663*
X0167*
X01673Y0266*
X01673Y02658*
X01673Y02656*
Y02631*
X01706*
Y02621*
X01673*
Y0261*
X01668Y0261*
X01667Y02614*
X01663Y0262*
X01657Y02623*
X0165Y02625*
X01643Y02623*
X01637Y0262*
X01633Y02614*
X01632Y02609*
X01606Y02582*
X01603Y02578*
X01602Y02572*
Y02375*
X01588Y02362*
X01579*
Y02374*
X01579Y02377*
X01577Y02379*
X01574Y02381*
X01571Y02382*
X01512*
X01509Y02381*
X01507Y02379*
X01505Y02377*
X01504Y02374*
Y02362*
X01493*
Y02374*
X01492Y02377*
X0149Y02379*
X01488Y02381*
X01485Y02382*
X01426*
X01423Y02381*
X0142Y02379*
X01418Y02377*
X01418Y02374*
Y02322*
X01418Y02319*
X0142Y02317*
X01423Y02315*
X01426Y02314*
X01485*
X01488Y02315*
X0149Y02317*
X01492Y02319*
X01493Y02322*
Y02334*
X01504*
Y02322*
X01505Y02319*
X01507Y02317*
X01509Y02315*
X01512Y02314*
X01571*
X01574Y02315*
X01577Y02317*
X01579Y02319*
X01579Y02322*
Y02334*
X01594*
X01599Y02335*
X01604Y02338*
X01626Y0236*
X01629Y02364*
X0163Y0237*
Y02567*
X01652Y02589*
X01657Y0259*
X01663Y02594*
X01667Y026*
X01668Y02604*
X01673Y02603*
Y02597*
X01673Y02594*
X01675Y02591*
X01678Y0259*
X01681Y02589*
X01708*
X01709Y02584*
X01708Y02583*
X01698Y02573*
X01695Y02569*
X01694Y02563*
Y02547*
X01685*
X01681Y02546*
X01679Y02545*
X01677Y02542*
X01677Y02539*
Y0248*
X01677Y02477*
X01679Y02474*
X01681Y02472*
X01685Y02472*
X01696*
Y0246*
X01685*
X01681Y0246*
X01679Y02458*
X01677Y02455*
X01677Y02452*
Y02393*
X01677Y0239*
X01679Y02388*
X01681Y02386*
X01685Y02385*
X01736*
X01739Y02386*
X01741Y02388*
X01743Y0239*
X01744Y02393*
Y02452*
X01743Y02455*
X01741Y02458*
X01739Y0246*
X01736Y0246*
X01724*
Y02472*
X01736*
X01739Y02472*
X01741Y02474*
X01743Y02477*
X01744Y0248*
Y02539*
X01743Y02542*
X01741Y02545*
X01739Y02546*
X01736Y02547*
X01722*
Y02558*
X01724Y02559*
X01815*
X01828Y02546*
X0183Y02545*
Y02536*
X0183Y02533*
X01832Y0253*
X01835Y02529*
X01838Y02528*
X01883*
X01886Y02529*
X01888Y0253*
X0189Y02533*
X01891Y02536*
Y02576*
X0189Y02579*
X01888Y02582*
X01886Y02583*
X01883Y02584*
X01838*
X01835Y02583*
X01832Y02582*
X0183Y02583*
X01828Y02585*
X01828Y02585*
X01826Y02586*
X0182Y02587*
X01815*
X01814Y02589*
X01813Y02592*
X01814Y02594*
X01815Y02597*
Y02606*
X0182Y0261*
X01823Y02609*
X01826Y0261*
X01829Y02607*
X0183Y02606*
X0183Y02603*
X01832Y026*
X01835Y02599*
X01838Y02598*
X01883*
X01886Y02599*
X01888Y026*
X0189Y02603*
X01891Y02606*
Y02637*
X01895Y02638*
X01911Y02622*
X01912Y02617*
X0191Y02614*
X0191Y02611*
Y02571*
X0191Y02568*
X01912Y02565*
X01915Y02564*
X01918Y02563*
X01918*
Y02529*
X01908Y02519*
X01903Y02512*
X01902Y02503*
X01903Y02495*
X01908Y02488*
X0191Y02487*
X01909Y02482*
X01872*
X0187Y02481*
X01831Y02519*
X01827Y02522*
X01821Y02523*
X01819*
X01819Y02523*
Y02539*
X01818Y02542*
X01816Y02545*
X01814Y02546*
X01811Y02547*
X01759*
X01756Y02546*
X01754Y02545*
X01752Y02542*
X01751Y02539*
Y0248*
X01752Y02477*
X01754Y02474*
X01756Y02472*
X01759Y02472*
X01811*
X01814Y02472*
X01816Y02474*
X01818Y02477*
X01819Y0248*
Y02486*
X01823Y02488*
X01857Y02454*
X01862Y02451*
X01865Y0245*
X01867Y02448*
X01869Y02446*
X01872Y02445*
X0195*
X01953Y02446*
X01956Y02448*
X01958Y0245*
X01958Y02453*
Y02473*
X01958Y02477*
X01956Y02479*
X01953Y02481*
X0195Y02482*
X01939*
X01937Y02487*
X01939Y02488*
X01956Y02504*
X0196Y02511*
X01962Y0252*
Y02563*
X01963*
X01966Y02564*
X01968Y02565*
X0197Y02568*
X01971Y02571*
Y02611*
X0197Y02614*
X01968Y02617*
X01966Y02618*
X01963Y02619*
X01962*
Y02625*
X0196Y02633*
X01956Y0264*
X01927Y02669*
X0193Y02673*
X02008*
X02008Y02673*
Y02648*
X02075*
Y02673*
X02076Y02673*
X02083*
X02083Y02673*
Y02614*
X02084Y02611*
X02085Y02608*
X02088Y02606*
X02091Y02606*
X02103*
Y02591*
X02091*
X02088Y02591*
X02085Y02589*
X02084Y02586*
X02083Y02583*
Y02524*
X02084Y02521*
X02085Y02518*
X02088Y02517*
X02091Y02516*
X021*
Y02505*
X02101Y025*
X02104Y02496*
X02111Y02489*
X02114Y02487*
X02112Y02482*
X02066*
X02063Y02481*
X02061Y02479*
X02061Y02479*
X0206Y02479*
X02057Y0248*
X02056Y02482*
Y02515*
X02056Y02516*
X02056Y02516*
X02067*
X0207Y02517*
X02073Y02518*
X02075Y02521*
X02075Y02524*
Y02583*
X02075Y02586*
X02073Y02589*
X0207Y02591*
X02067Y02591*
X02016*
X02013Y02591*
X02011Y02589*
X02009Y02586*
X02008Y02583*
Y02524*
X02009Y02521*
X02011Y02518*
X02013Y02517*
X02016Y02516*
X02028*
X02028Y02516*
X02028Y02515*
Y02476*
X02028Y02474*
X02027Y02473*
X02027Y02471*
X02026Y0247*
X02026Y02468*
X02025Y02467*
X02024Y02466*
X02023Y02465*
X01986Y02428*
X01959*
X01958Y02428*
X01957Y02428*
X01957Y02428*
X01956Y02429*
X01953Y02431*
X0195Y02432*
X01872*
X01869Y02431*
X01867Y02429*
X01865Y02427*
X01864Y02423*
Y02403*
X01865Y024*
X01867Y02398*
X01869Y02396*
X01872Y02395*
X0195*
X01953Y02396*
X01956Y02398*
X01957Y02399*
X01957Y02399*
X01959Y02399*
X01992*
X01997Y02401*
X02002Y02404*
X02043Y02445*
X02044Y02446*
X02045Y02447*
X02047Y02447*
X02048Y02448*
X0205Y02449*
X02051Y02449*
X02053Y02449*
X02054Y02449*
X02058*
X02058Y02449*
X0206Y02449*
X0206Y02449*
X02061Y02448*
X02063Y02446*
X02066Y02445*
X02144*
X02145Y02446*
X0215Y02442*
Y02435*
X02145Y02431*
X02144Y02432*
X02066*
X02063Y02431*
X02061Y02429*
X02059Y02427*
X02058Y02423*
Y02403*
X02059Y024*
X02061Y02398*
X02063Y02396*
X02066Y02395*
X02144*
X02147Y02396*
X0215Y02398*
X02151Y02399*
X02157*
X02162Y02401*
X02167Y02404*
X0217Y02407*
X02175Y02405*
Y02393*
X02176Y02391*
X02162Y02378*
X02153*
X02152Y02378*
X02151Y02378*
X02151Y02378*
X0215Y02379*
X02147Y02381*
X02144Y02382*
X02066*
X02063Y02381*
X02061Y02379*
X0206Y02378*
X0206Y02378*
X02057Y02378*
X0204*
X02034Y02376*
X0203Y02373*
X01984Y02328*
X01959*
X01958Y02328*
X01957Y02328*
X01957Y02328*
X01956Y02329*
X01953Y02331*
X0195Y02332*
X01872*
X01869Y02331*
X01867Y02329*
X01865Y02327*
X01864Y02323*
Y02303*
X01865Y023*
X01867Y02298*
X01869Y02296*
X01872Y02295*
X0195*
X01953Y02296*
X01956Y02298*
X01957Y02299*
X01957Y02299*
X01959Y02299*
X0199*
X01995Y02301*
X02Y02304*
X02045Y02349*
X02058*
X02058Y02349*
X0206Y02349*
X0206Y02349*
X02061Y02348*
X02063Y02346*
X02066Y02345*
X02144*
X02147Y02346*
X0215Y02348*
X02151Y02349*
X02151Y02349*
X02153Y02349*
X02168*
X02173Y02351*
X02178Y02354*
X02195Y02371*
X02197Y02371*
X02206Y02373*
X02213Y02377*
X02214Y02377*
X02218Y02376*
Y02358*
X02216Y02357*
X02213Y02352*
X02212Y02347*
Y01925*
X02213Y01919*
X02216Y01915*
X0225Y0188*
X02255Y01877*
X0226Y01876*
X02573*
X02579Y01877*
X02583Y0188*
X02682Y01979*
X03013*
X03019Y0198*
X03023Y01983*
X03044Y02003*
X03047Y02008*
X03048Y02013*
Y02079*
X03059Y0209*
X03089*
X03091Y02085*
X03074Y02068*
X03068Y02064*
X03065Y02059*
X03063Y02052*
X03065Y02045*
X03068Y02039*
X03074Y02035*
X03081Y02034*
X03088Y02035*
X03094Y02039*
X03098Y02045*
X03099Y02052*
X03099Y02053*
X03135Y0209*
X03273*
Y02074*
X03274Y02071*
X03275Y02069*
X03278Y02067*
X03281Y02066*
X03332*
X03335Y02067*
X03338Y02069*
X0334Y02071*
X0334Y02074*
Y02133*
X0334Y02136*
X03338Y02139*
X03335Y02141*
X03332Y02141*
X03281*
X03278Y02141*
X03275Y02139*
X03274Y02136*
X03273Y02133*
Y02118*
X03203*
X03153Y02168*
X03153Y02168*
X03152Y02175*
X03151Y02177*
X03155Y0218*
X03178Y02157*
X03182Y02154*
X03187Y02153*
X03237*
X03241Y0215*
X03248Y02149*
X03254Y0215*
X0326Y02154*
X03264Y0216*
X03265Y02162*
X03267Y02164*
X03272Y02161*
Y02155*
X03273Y02152*
X03274Y02149*
X03277Y02148*
X0328Y02147*
X03331*
X03334Y02148*
X03337Y02149*
X03339Y02152*
X03339Y02155*
Y02214*
X03339Y02217*
X03337Y0222*
X03334Y02221*
X03331Y02222*
X0328*
X03277Y02221*
X03274Y0222*
X03273Y02217*
X03272Y02214*
Y02197*
X03263*
X03258Y02196*
X03253Y02193*
X03245Y02184*
X03241Y02184*
X03237Y02181*
X03193*
X03169Y02205*
Y02388*
Y02508*
X03172Y02512*
X03173Y02519*
X03172Y02526*
X03168Y02532*
X03162Y02536*
X03155Y02537*
X03148Y02536*
X03142Y02532*
X03138Y02526*
X03137Y02519*
X03138Y02512*
X03141Y02508*
Y02394*
X03136Y0239*
X02955*
X0295Y02388*
X02945Y02385*
X02937Y02377*
X02928Y02385*
X02923Y02388*
X02918Y0239*
X02907*
X02904Y02395*
X02905Y024*
X02904Y02407*
X02901Y02411*
X02903Y02416*
X02903Y02416*
X02922*
X02925Y02417*
X02928Y02419*
X0293Y02421*
X0293Y02425*
Y0247*
X0293Y02473*
X02928Y02475*
X02925Y02477*
X02924Y02478*
X02924Y02483*
X02938*
X0294Y0248*
X02941Y02475*
X02939Y02473*
X02939Y0247*
Y02425*
X02939Y02421*
X02941Y02419*
X02944Y02417*
X02947Y02416*
X02972*
X02975Y02417*
X02978Y02419*
X0298Y02421*
X0298Y02425*
Y0247*
X0298Y02473*
X02978Y02475*
X02975Y02477*
X02974Y02478*
Y02484*
X02973Y0249*
X02969Y02494*
X02957Y02506*
X02953Y0251*
X02947Y02511*
X02842*
Y02522*
X02842Y02523*
X02842Y02523*
X02856*
X02859Y02524*
X02861Y02525*
X02863Y02528*
X02864Y02531*
Y0257*
X02868Y02575*
X02873*
X02876Y0257*
Y02531*
X02877Y02528*
X02879Y02525*
X02881Y02524*
X02884Y02523*
X02939*
X02943Y02524*
X02945Y02525*
X02947Y02528*
X02947Y02531*
Y02537*
X02948Y02537*
X02949Y02537*
X02957*
X02958Y02537*
X02958Y02537*
Y02532*
X02959Y02529*
X0296Y02526*
X02963Y02525*
X02966Y02524*
X0298*
Y02508*
X02981Y02503*
X02984Y02498*
X02995Y02487*
Y02478*
X02994Y02477*
X02991Y02475*
X02989Y02473*
X02989Y0247*
Y02425*
X02989Y02421*
X02991Y02419*
X02994Y02417*
X02997Y02416*
X03022*
X03025Y02417*
X03028Y02419*
X0303Y02421*
X0303Y02425*
Y0247*
X0303Y02473*
X03028Y02475*
X03025Y02477*
X03024Y02478*
Y02492*
X03023Y02498*
X03019Y02502*
X03008Y02514*
Y02524*
X03021*
X03024Y02525*
X03027Y02526*
X03029Y02529*
X03029Y02532*
Y02569*
X03033Y02573*
X03038Y02573*
X0304Y0257*
Y02531*
X0304Y02528*
X03042Y02525*
X03045Y02524*
X03048Y02523*
X03061*
X03061Y02523*
X03061Y02522*
Y02515*
X0305Y02504*
X03047Y02499*
X03045Y02494*
Y02479*
X03045Y02478*
X03045Y02478*
X03044Y02477*
X03041Y02475*
X03039Y02473*
X03039Y0247*
Y02425*
X03039Y02421*
X03041Y02419*
X03044Y02417*
X03047Y02416*
X03072*
X03075Y02417*
X03078Y02419*
X0308Y02421*
X0308Y02425*
Y0247*
X0308Y02473*
X03078Y02475*
X03075Y02477*
X03074Y02478*
X03074Y02478*
X03074Y02479*
Y02488*
X03085Y02499*
X03088Y02504*
X03089Y02509*
Y02522*
X03089Y02523*
X03089Y02523*
X03103*
X03106Y02524*
X03109Y02525*
X0311Y02528*
X03111Y02531*
Y0257*
X0311Y02573*
X03109Y02576*
X03106Y02578*
X03103Y02578*
X03084*
X03082Y02583*
X03085Y02587*
X03088Y02592*
X03089Y02597*
Y02598*
X03103*
X03106Y02598*
X03109Y026*
X0311Y02603*
X03111Y02606*
Y02611*
X03111Y02611*
X03112Y02611*
X03125*
X0313Y02613*
X03134Y02616*
X03165Y02646*
X03168Y02651*
X03169Y02656*
Y0267*
X03169Y02671*
X03169Y02672*
X03169Y02672*
X03169Y02673*
X0317Y02673*
X03174Y02679*
X03175Y02686*
X03174Y02692*
X0317Y02698*
X03164Y02702*
X03157Y02704*
X0315Y02702*
X03144Y02698*
X0314Y02692*
X03139Y02686*
X0314Y02679*
X03141Y02678*
X03141Y02672*
Y02662*
X03119Y0264*
X03112*
X03111Y0264*
X03111Y0264*
Y02645*
X0311Y02648*
X03109Y02651*
X03106Y02653*
X03103Y02653*
X03056*
X03054Y02658*
X03054Y02658*
X0306Y02662*
X03063Y02668*
X03065Y02675*
X03063Y02682*
X0306Y02687*
X03054Y02691*
X03047Y02693*
X0304Y02691*
X03036Y02689*
X03034*
X03029Y0269*
X02959*
X02951Y02698*
X02953Y02703*
X02957Y02704*
X02963Y02708*
X02967Y02714*
X02967Y02716*
X02973Y02718*
X02978Y02713*
X02982Y0271*
X02988Y02709*
X03088*
X03093Y0271*
X03098Y02713*
X03125Y0274*
X03128Y02744*
X03129Y0275*
Y0276*
X03132Y02762*
X03135Y02768*
X03141*
X03145Y02762*
X03153Y02757*
X03162Y02755*
X03171Y02757*
X03179Y02762*
X03183Y02768*
X03188*
X03192Y02762*
X032Y02757*
X03209Y02755*
X03218Y02757*
X03226Y02762*
X0323Y02768*
X03236*
X03239Y02762*
X03247Y02757*
X03256Y02755*
X03266Y02757*
X03273Y02762*
X03277Y02768*
X03283*
X03287Y02762*
X03294Y02757*
X03304Y02755*
X03313Y02757*
X03321Y02762*
X03324Y02768*
X0333*
X03334Y02762*
X03342Y02757*
X03351Y02755*
X0336Y02757*
X03368Y02762*
X03372Y02768*
X03377*
X03381Y02762*
X03389Y02757*
X03398Y02755*
X03407Y02757*
X03415Y02762*
X03419Y02768*
X03425*
X03428Y02762*
X03436Y02757*
X0344Y02756*
Y02795*
Y02834*
X03436Y02833*
X03428Y02828*
X03425Y02822*
X03419*
X03415Y02828*
X03407Y02833*
X03398Y02835*
X03389Y02833*
X03381Y02828*
X03377Y02822*
X03372*
X03368Y02828*
X0336Y02833*
X03351Y02835*
X03342Y02833*
X03334Y02828*
X0333Y02822*
X03324*
X03321Y02828*
X03313Y02833*
X03304Y02835*
X03294Y02833*
X03287Y02828*
X03283Y02822*
X03277*
X03273Y02828*
X03266Y02833*
X03256Y02835*
X03247Y02833*
X03239Y02828*
X03236Y02822*
X0323*
X03226Y02828*
X03218Y02833*
X03209Y02835*
X032Y02833*
X03192Y02828*
X03188Y02822*
X03183*
X03179Y02828*
X03171Y02833*
X03162Y02835*
X03153Y02833*
X03145Y02828*
X03141Y02822*
X03135*
X03132Y02828*
X03124Y02833*
X03115Y02835*
X03105Y02833*
X03098Y02828*
X03094Y02822*
X03088*
X03084Y02828*
X03077Y02833*
X03067Y02835*
X03058Y02833*
X0305Y02828*
X03045Y0282*
X03043Y02811*
Y02779*
X03045Y0277*
X03047Y02767*
X03045Y02763*
X03011*
X02948Y02826*
Y03521*
X0301Y03584*
X03044*
X03048Y03581*
X03055Y0358*
X03062Y03581*
X03065Y03584*
X03288*
X03293Y03585*
X03298Y03588*
X03332Y03622*
X03335Y03627*
X03336Y03632*
Y03782*
X03336Y03782*
X03339Y03786*
X03364*
Y03834*
X03369*
Y03839*
X03416*
Y03873*
X03415Y03876*
X03414Y03879*
X03411Y0388*
X03408Y03881*
X03373*
X03372Y03881*
X03373Y03884*
X03374Y03887*
X03381Y03888*
X03392Y03892*
X03402Y039*
X0341Y0391*
X03415Y03921*
X03416Y03934*
X03415Y03946*
X0341Y03957*
X03402Y03967*
X03392Y03975*
X03381Y0398*
X03372Y03981*
X0337Y03981*
Y03986*
X03372Y03986*
X03381Y03988*
X03392Y03992*
X03402Y04*
X0341Y0401*
X03415Y04021*
X03416Y04034*
X03415Y04046*
X0341Y04057*
X03402Y04067*
X03392Y04075*
X03381Y0408*
X03369Y04081*
X03356Y0408*
X03345Y04075*
X03335Y04067*
X03327Y04057*
X03325Y04052*
X03305*
X03299Y04051*
X03295Y04048*
X0328Y04033*
X03279Y04032*
X03274Y04034*
Y04077*
X03273Y04083*
X0327Y04087*
X03264Y04093*
X0326Y04096*
X03254Y04097*
X02496*
X02443Y04151*
Y04275*
X02442Y0428*
X02439Y04285*
X02434Y04288*
X02429Y04289*
X02375*
Y04295*
X02374Y04298*
X02372Y043*
X0237Y04302*
X02367Y04303*
X02312*
X02308Y04302*
X02306Y043*
X02304Y04298*
X02303Y04295*
Y04289*
X02254*
Y04302*
X02253Y04305*
X02251Y04307*
X02249Y04309*
X02246Y0431*
X0224*
Y04322*
X02246*
X02249Y04323*
X02251Y04325*
X02253Y04327*
X02254Y0433*
Y04385*
X02253Y04388*
X02251Y04391*
X02249Y04393*
X02246Y04393*
G37*
G36*
X03227Y04395D02*
X02518D01*
X02515Y04394*
X02513Y04393*
X02511Y0439*
X0251Y04387*
Y04139*
X02511Y04136*
X02513Y04133*
X02515Y04131*
X02518Y04131*
X03227*
X0323Y04131*
X03233Y04133*
X03234Y04136*
X03235Y04139*
Y04387*
X03234Y0439*
X03233Y04393*
X0323Y04394*
X03227Y04395*
G37*
G36*
X03602Y04127D02*
X03563D01*
Y04102*
X0361*
Y04119*
X03609Y04122*
X03608Y04124*
X03605Y04126*
X03602Y04127*
G37*
G36*
X03553Y04092D02*
X03505D01*
Y04075*
X03506Y04072*
X03508Y0407*
X0351Y04068*
X03513Y04067*
X03553*
Y04092*
G37*
G36*
Y04127D02*
X03513D01*
X0351Y04126*
X03508Y04124*
X03506Y04122*
X03505Y04119*
Y04102*
X03553*
Y04127*
G37*
G36*
X01449Y04227D02*
X01423D01*
Y04188*
X01423Y04185*
X01425Y04183*
X01428Y04181*
X01431Y0418*
X01449*
Y04227*
G37*
G36*
X03373Y0437D02*
X03359D01*
X03358Y0437*
X03357*
X03343Y04367*
X03343Y04367*
X03342Y04366*
X03329Y04361*
X03328Y04361*
X03328Y0436*
X03316Y04353*
X03315Y04352*
X03315Y04352*
X03305Y04342*
X03304Y04341*
X03304Y0434*
X03296Y04329*
X03296Y04328*
X03295Y04327*
X0329Y04315*
X0329Y04314*
X0329Y04313*
X03287Y04299*
Y04299*
X03287Y04298*
Y04284*
X03287Y04283*
Y04282*
X0329Y04269*
X0329Y04268*
X0329Y04267*
X03295Y04254*
X03296Y04254*
X03296Y04253*
X03304Y04241*
X03304Y04241*
X03305Y0424*
X03315Y0423*
X03315Y0423*
X03316Y04229*
X03328Y04221*
X03328Y04221*
X03329Y04221*
X03342Y04215*
X03343Y04215*
X03343Y04215*
X03357Y04212*
X03358*
X03359Y04212*
X03373*
X03373Y04212*
X03374*
X03388Y04215*
X03389Y04215*
X03389Y04215*
X03402Y04221*
X03403Y04221*
X03404Y04221*
X03415Y04229*
X03416Y0423*
X03416Y0423*
X03426Y0424*
X03427Y04241*
X03427Y04241*
X03435Y04253*
X03435Y04254*
X03436Y04254*
X03441Y04267*
X03441Y04268*
X03442Y04269*
X03444Y04282*
Y04283*
X03445Y04284*
Y04298*
X03444Y04299*
Y04299*
X03442Y04313*
X03441Y04314*
X03441Y04315*
X03436Y04327*
X03435Y04328*
X03435Y04329*
X03427Y0434*
X03427Y04341*
X03426Y04342*
X03416Y04352*
X03416Y04352*
X03415Y04353*
X03404Y0436*
X03403Y04361*
X03402Y04361*
X03389Y04366*
X03389Y04367*
X03388Y04367*
X03374Y0437*
X03373*
X03373Y0437*
G37*
G36*
X01449Y04283D02*
X01431D01*
X01428Y04283*
X01425Y04281*
X01423Y04278*
X01423Y04275*
Y04237*
X01449*
Y04283*
G37*
G36*
X03824Y03364D02*
X03804D01*
Y03331*
X03832*
Y03356*
X03832Y03359*
X0383Y03361*
X03827Y03363*
X03824Y03364*
G37*
G36*
X02059Y04227D02*
X02033D01*
Y04188*
X02033Y04185*
X02035Y04183*
X02038Y04181*
X02041Y0418*
X02059*
Y04227*
G37*
G36*
Y04283D02*
X02041D01*
X02038Y04283*
X02035Y04281*
X02033Y04278*
X02033Y04275*
Y04237*
X02059*
Y04283*
G37*
G36*
X03553Y0401D02*
X03513D01*
X0351Y0401*
X03508Y04008*
X03506Y04006*
X03505Y04002*
Y03986*
X03553*
Y0401*
G37*
G36*
X03851Y03712D02*
X03839Y0371D01*
X03827Y03705*
X03817Y03697*
X03809Y03687*
X03804Y03675*
X03802Y03662*
X03804Y0365*
X03809Y03638*
X03817Y03627*
X03827Y0362*
X03839Y03615*
X03851Y03613*
X03864Y03615*
X03876Y0362*
X03886Y03627*
X03894Y03638*
X03899Y0365*
X03901Y03662*
X03899Y03675*
X03894Y03687*
X03886Y03697*
X03876Y03705*
X03864Y0371*
X03851Y03712*
G37*
G36*
X00952Y04022D02*
X00928D01*
Y04002*
X00928Y03999*
X0093Y03997*
X00932Y03995*
X00936Y03994*
X00952*
Y04022*
G37*
G36*
X03511Y03711D02*
X03499D01*
Y03699*
X03501Y03699*
X03506Y03703*
X0351Y03709*
X03511Y03711*
G37*
G36*
X00987Y04022D02*
X00962D01*
Y03994*
X00979*
X00982Y03995*
X00985Y03997*
X00986Y03999*
X00987Y04002*
Y04022*
G37*
G36*
X00952Y0406D02*
X00936D01*
X00932Y04059*
X0093Y04057*
X00928Y04055*
X00928Y04052*
Y04032*
X00952*
Y0406*
G37*
G36*
X00979D02*
X00962D01*
Y04032*
X00987*
Y04052*
X00986Y04055*
X00985Y04057*
X00982Y04059*
X00979Y0406*
G37*
G36*
X03489Y03711D02*
X03477D01*
X03477Y03709*
X03481Y03703*
X03487Y03699*
X03489Y03699*
Y03711*
G37*
G36*
X0131Y0409D02*
X01283D01*
X0128Y0409*
X01278Y04088*
X01276Y04085*
X01275Y04082*
Y04028*
X0131*
Y0409*
G37*
G36*
X01068Y03977D02*
Y03965D01*
X01081*
X0108Y03967*
X01076Y03973*
X0107Y03977*
X01068Y03977*
G37*
%LNtcs-1900-3*%
%LPD*%
G36*
X01788Y02287D02*
X01788Y02287D01*
X01789Y02286*
X01792Y02283*
X01772Y02282*
X01776Y02287*
X01788Y02287*
X01788Y02287*
G37*
G36*
X01787Y02326D02*
X01787Y02324D01*
X01788Y02322*
X01788Y0232*
X01789Y02319*
X01789Y02318*
X0179Y02317*
X01791Y02317*
X01792Y02316*
X01793Y02316*
X01769*
X01771Y02316*
X01772Y02317*
X01772Y02317*
X01773Y02318*
X01774Y02319*
X01774Y0232*
X01775Y02322*
X01775Y02324*
X01775Y02326*
X01775Y02328*
X01787*
X01787Y02326*
G37*
G36*
X01872Y02354D02*
X01872Y02354D01*
X01872Y02355*
X01871Y02356*
X01871Y02356*
X0187Y02357*
X01868Y02357*
X01867Y02357*
X01865Y02357*
X01861Y02358*
Y02369*
X01863Y02369*
X01867Y0237*
X01868Y0237*
X0187Y0237*
X01871Y02371*
X01871Y02371*
X01872Y02372*
X01872Y02373*
X01872Y02373*
Y02354*
G37*
G36*
X03647Y0277D02*
X03646Y02768D01*
X03645Y02766*
X03644Y02765*
X03644Y02763*
X03643Y02761*
X03643Y02759*
X03642Y02757*
X03642Y02756*
X03642Y02754*
X0363Y02752*
X0363Y02755*
X0363Y0276*
X03629Y02762*
X03629Y02764*
X03628Y02765*
X03628Y02766*
X03627Y02767*
X03626Y02767*
X03625Y02767*
X03648Y02771*
X03647Y0277*
G37*
G36*
X03642Y0275D02*
X03643Y02744D01*
X03643Y02743*
X03643Y02742*
X03643Y02741*
X03644Y0274*
X03644Y0274*
X03629*
X03629Y0274*
X03629Y02741*
X03629Y02742*
X0363Y02743*
X0363Y02744*
X0363Y02747*
X0363Y02748*
X0363Y02751*
X03642*
X03642Y0275*
G37*
G36*
X03771Y02933D02*
X0377Y02933D01*
X0377Y02933*
X03769Y02934*
X03768Y02934*
X03767Y02934*
X03764Y02934*
X03763Y02934*
X03759Y02935*
Y02946*
X03761Y02946*
X03767Y02947*
X03768Y02947*
X03769Y02947*
X0377Y02948*
X0377Y02948*
X03771Y02948*
Y02933*
G37*
G36*
X03734Y02951D02*
X03735Y0295D01*
X03735Y02949*
X03736Y02948*
X03737Y02948*
X03739Y02947*
X03741Y02947*
X03743Y02947*
X03745Y02946*
X03748Y02946*
X03745Y02935*
X03743Y02935*
X03739Y02934*
X03737Y02934*
X03735Y02934*
X03734Y02933*
X03732Y02933*
X03731Y02932*
X0373Y02931*
X03729Y02931*
X03735Y02952*
X03734Y02951*
G37*
G36*
X03192Y03486D02*
X03195Y03484D01*
Y03436*
X03196Y0343*
X03199Y03426*
X03206Y03419*
X03211Y03416*
X03216Y03415*
X03376*
X03378Y03412*
X03376Y03408*
X03114*
X03081Y0344*
Y03484*
X03084Y03486*
X03088Y03492*
X03094*
X03098Y03486*
X03105Y03481*
X03115Y03479*
X03124Y03481*
X03132Y03486*
X03135Y03492*
X03141*
X03145Y03486*
X03153Y03481*
X03162Y03479*
X03171Y03481*
X03179Y03486*
X03183Y03492*
X03188*
X03192Y03486*
G37*
G36*
X02858Y02717D02*
X02856Y02714D01*
X02854Y02707*
X02856Y027*
X0286Y02694*
X02866Y02691*
X02866Y0269*
X02865Y02685*
X02861Y02685*
X02858Y02683*
X02828*
X02823Y02682*
X02818Y02679*
X02815Y02674*
X02814Y02669*
Y02653*
X02801*
X02798Y02653*
X02795Y02651*
X02793Y02648*
X02793Y02645*
Y0263*
X02766Y02602*
X02761Y02604*
Y02607*
X0276Y02612*
X02758Y02615*
X02758Y02615*
Y0262*
X02758Y02621*
X0276Y02624*
X02761Y02628*
Y02645*
X0276Y02649*
X02758Y02653*
X02754Y02655*
X0275Y02656*
X02708*
X02704Y02655*
X027Y02653*
X02698Y02649*
X02697Y02645*
Y02628*
X02698Y02624*
X027Y02621*
X027Y0262*
Y02615*
X027Y02615*
X02698Y02612*
X02696Y02611*
X02693Y02611*
X02686Y02618*
Y02711*
X02696Y02722*
X02855*
X02858Y02717*
G37*
G36*
X02536Y03034D02*
X02539Y0303D01*
Y02989*
X0254Y02983*
X02543Y02979*
X02598Y02924*
Y02824*
X02599Y02819*
X02602Y02814*
X02611Y02806*
X02615Y02802*
X02621Y02801*
X02684*
X02689Y02802*
X02693Y02806*
X027Y02812*
X02703Y02817*
X02704Y02822*
Y02893*
X02709Y02895*
X0271Y02894*
X02712Y02894*
Y02911*
X02722*
Y02892*
X02725Y02889*
Y02883*
X02725Y0288*
X02727Y02878*
X0273Y02876*
X02733Y02875*
X02753*
Y02913*
X02758*
Y02918*
X02792*
Y02942*
X02791Y02945*
X0279Y02948*
X02789Y02949*
X02788Y02954*
X02789Y02954*
X02789Y02954*
X0279Y02957*
X02791Y0296*
Y03019*
X02795Y03023*
X02795*
X02799Y03019*
X02799Y03019*
Y0296*
X02799Y02957*
X02801Y02954*
X02802Y02954*
X02802Y02949*
X02802Y02948*
X02802Y02948*
X028Y02945*
X028Y02942*
Y02883*
X028Y0288*
X02802Y02878*
X02805Y02876*
X02808Y02875*
X02823*
Y02852*
X02814Y02843*
X02809Y02845*
Y02855*
X02808Y02859*
X02806Y02863*
X02802Y02865*
X02798Y02866*
X02782*
Y02846*
Y02826*
X0279*
X02792Y02821*
X0277Y028*
X02767Y02795*
X02766Y02791*
X02755*
X02751Y0279*
X02748Y02788*
X02745Y02784*
X02744Y0278*
Y02762*
X02745Y02758*
X02747Y02755*
X02747Y02753*
X02746Y0275*
X02703*
X02701Y02754*
X0271Y02763*
X02714*
X02719Y02764*
X02723Y02766*
X02728Y02767*
X02734Y02771*
X02738Y02777*
X02739Y02784*
X02738Y02791*
X02734Y02797*
X02728Y02801*
X02721Y02802*
X02714Y02801*
X02708Y02797*
X02704Y02791*
X02704*
X02699Y0279*
X02694Y02787*
X02558Y02651*
X02553Y02653*
Y02668*
X02552Y02671*
X0255Y02673*
X02548Y02675*
X02545Y02676*
X02486*
X02483Y02675*
X0248Y02673*
X02478Y02671*
X02478Y02668*
Y02581*
X02478Y02578*
X0248Y02576*
X02483Y02574*
X02486Y02573*
X02486*
X02487Y02573*
X02487Y02573*
X02487Y02572*
X02488Y02571*
X02489Y02569*
X0249Y02566*
X0249Y02563*
X0249Y0256*
Y02435*
X02447*
X02439Y02433*
X02438Y02433*
X02426*
X02421Y02432*
X02416Y02429*
X02413Y02424*
X02412Y02419*
Y02407*
X02413Y02402*
X02416Y02397*
X02416Y02397*
Y02391*
X02416Y02391*
X02413Y02387*
X02412Y02381*
Y0238*
X02447*
X02482*
Y02381*
X02481Y02386*
X02484Y02391*
X02497*
X02504Y02386*
X02512Y02385*
X02523*
X02526Y02384*
X02529Y02384*
X02532Y02383*
X02534Y02382*
X02535Y02381*
X02536Y02381*
X02536Y0238*
X02536Y0238*
Y02362*
X02537Y02359*
X02539Y02356*
X02541Y02354*
X02544Y02354*
X02628*
X02631Y02354*
X02634Y02356*
X02635Y02359*
X02636Y02362*
Y02444*
X0264Y02446*
X02685Y02401*
X0269Y02398*
X02695Y02397*
X027*
X027Y02396*
X02702Y02392*
X02701Y0239*
X027Y02387*
Y02336*
X02701Y02333*
X02702Y0233*
X02705Y02329*
X02708Y02328*
X02748*
X02751Y02329*
X02753Y0233*
X02755Y02333*
X02756Y02336*
Y02382*
X02761Y02384*
X02779Y02366*
X02783Y02363*
X02789Y02361*
X02912*
X02922Y02351*
Y02184*
X02901Y02163*
X02281*
X02276Y02162*
X02271Y02159*
X02252Y0214*
X02249Y02136*
X02248Y0213*
Y01957*
X02249Y01952*
X02252Y01947*
X02263Y01936*
X02268Y01933*
X02273Y01932*
X02383*
X02385Y01928*
X0239Y01921*
X02397Y01915*
X02405Y01912*
X02414Y01911*
X02423Y01912*
X02431Y01915*
X02438Y01921*
X02443Y01928*
X02446Y01936*
X02448Y01944*
X02446Y01953*
X02443Y01961*
X02438Y01968*
X02431Y01974*
X02423Y01977*
X02414Y01978*
X02405Y01977*
X02397Y01974*
X0239Y01968*
X02385Y01961*
X02384Y0196*
X02279*
X02276Y01963*
Y02125*
X02287Y02135*
X02452*
X02455Y0213*
X02453Y02128*
X02452Y02123*
Y02052*
X02447Y02051*
X02447Y02052*
X02445Y02054*
X02443Y02056*
X02439Y02057*
X02388*
X02385Y02056*
X02383Y02054*
X02381Y02052*
X0238Y02049*
Y01998*
X02381Y01994*
X02383Y01992*
X02385Y0199*
X02388Y0199*
X02439*
X02443Y0199*
X02445Y01992*
X02447Y01994*
X02447Y01998*
Y02009*
X02459*
X02464Y0201*
X02469Y02013*
X02476Y0202*
X02479Y02025*
X0248Y0203*
Y02115*
X02548*
Y02095*
X02585*
X02623*
Y02115*
X02979*
X02984Y02116*
X02989Y02119*
X03003Y02133*
X03006Y02138*
X03007Y02143*
Y02298*
X03009Y02302*
X03011Y02309*
X03009Y02315*
X03005Y02321*
X03Y02325*
X02993Y02327*
X02986Y02325*
X0298Y02321*
X02976Y02315*
X02975Y02309*
X02976Y02302*
X02979Y02298*
Y02149*
X02973Y02143*
X02928*
X02926Y02148*
X02946Y02169*
X02949Y02173*
X02951Y02179*
Y02351*
X02961Y02361*
X03141*
Y02199*
X03142Y02194*
X03145Y02189*
X03147Y02187*
X03144Y02183*
X03142Y02185*
X03135Y02186*
X03128Y02185*
X03123Y02181*
X03119Y02175*
X03117Y02168*
X03119Y02161*
X03123Y02155*
X03128Y02151*
X03131Y02151*
X03159Y02123*
X03157Y02118*
X03091*
X03088Y02122*
X03089Y02123*
X03089Y02125*
X03055*
X03056Y02123*
X03056Y02122*
X03054Y02118*
X03053*
X03048Y02117*
X03043Y02114*
X03024Y02094*
X03021Y0209*
X0302Y02084*
Y02019*
X03007Y02007*
X02676*
X0267Y02006*
X02666Y02003*
X02568Y01904*
X02266*
X0224Y01931*
Y02207*
X02264*
Y02241*
Y02274*
X0224*
Y02282*
X02299*
X02302Y02282*
X02304Y02284*
X02306Y02287*
X02307Y0229*
Y02341*
X02306Y02344*
X02304Y02347*
X02302Y02348*
X02303Y02353*
X02318*
X02321Y02348*
X0232Y02344*
Y02332*
X02321Y02327*
X02324Y02322*
X02329Y02319*
X02334Y02318*
X02334Y02313*
X02332Y02313*
X02329Y02311*
X02328Y02309*
X02327Y02306*
Y02254*
X02328Y02251*
X02329Y02249*
X02332Y02247*
X02335Y02246*
X02394*
X02397Y02247*
X024Y02249*
X02402Y02251*
X02402Y02254*
Y02266*
X02403Y02266*
X02403Y02266*
X0241*
X0241Y02266*
X02411Y02266*
Y02254*
X02411Y02251*
X02413Y02249*
X02416Y02247*
X02419Y02246*
X02478*
X02481Y02247*
X02484Y02249*
X02485Y02251*
X02486Y02254*
Y02306*
X02485Y02309*
X02484Y02311*
X02481Y02313*
X02478Y02314*
X0247*
X0247Y02319*
X02474Y02319*
X02478Y02322*
X02481Y02327*
X02482Y02332*
Y02344*
X02481Y02349*
X02478Y02354*
X02478Y02354*
Y0236*
X02478Y0236*
X02481Y02364*
X02482Y0237*
Y0237*
X02447*
X02412*
Y0237*
X02413Y02364*
X02416Y0236*
X02416Y0236*
Y02354*
X02416Y02354*
X02413Y02349*
X02412Y02344*
Y02332*
X02413Y02327*
X02416Y02322*
X02421Y02319*
X02424Y02319*
X02424Y02314*
X02419*
X02416Y02313*
X02413Y02311*
X02411Y02309*
X02411Y02306*
Y02294*
X0241Y02294*
X0241Y02294*
X02403*
X02403Y02294*
X02402Y02294*
Y02306*
X02402Y02309*
X024Y02311*
X02397Y02313*
X02394Y02314*
X02378*
X02378Y02319*
X02382Y02319*
X02386Y02322*
X02389Y02327*
X0239Y02332*
Y02344*
X02389Y02349*
X02386Y02354*
X02386Y02354*
Y0236*
X02386Y0236*
X02389Y02364*
X0239Y0237*
Y02381*
X02389Y02387*
X02386Y02391*
X02386Y02391*
Y02397*
X02386Y02397*
X02389Y02402*
X0239Y02407*
Y02419*
X02389Y02424*
X02386Y02429*
X02382Y02432*
X02376Y02433*
X02334*
X02329Y02432*
X02324Y02429*
X02321Y02424*
X0232Y02419*
Y02407*
X02321Y02403*
X02318Y02398*
X0229*
X02289Y02398*
Y0243*
X023Y02441*
X02331*
X02336Y0244*
X02384*
X02392Y02442*
X024Y02446*
X02416Y02463*
X0242Y0247*
X02422Y02478*
Y02703*
X02433Y02714*
X02545*
X02553Y02715*
X0256Y0272*
X02578Y02738*
X02583Y02745*
X02585Y02753*
Y02854*
X02583Y02862*
X02578Y02869*
X02515Y02933*
Y03029*
X02522*
X02525Y03029*
X02528Y03031*
X0253Y03034*
X0253Y03037*
Y03037*
X02535Y03038*
X02536Y03034*
G37*
G36*
X02537Y02581D02*
X02535Y0258D01*
X02533Y02579*
X02531Y02577*
X0253Y02574*
X02528Y02571*
X02527Y02568*
X02527Y02564*
X02526Y02559*
X02526Y02554*
X02499*
X02498Y02559*
X02498Y02564*
X02497Y02568*
X02496Y02571*
X02495Y02574*
X02494Y02577*
X02492Y02579*
X0249Y0258*
X02488Y02581*
X02486Y02581*
X0254*
X02537Y02581*
G37*
G36*
X03164Y02678D02*
X03163Y02678D01*
X03163Y02677*
X03162Y02676*
X03162Y02675*
X03162Y02674*
X03161Y02673*
X03161Y02672*
X03161Y02668*
X03161Y02667*
X03149Y0267*
X03149Y0268*
X03164Y02678*
G37*
G36*
X03103Y02636D02*
X03103Y02635D01*
X03104Y02634*
X03105Y02634*
X03106Y02633*
X03107Y02632*
X03108Y02632*
X0311Y02632*
X03112Y02631*
X03115Y02631*
Y0262*
X03112Y0262*
X0311Y02619*
X03108Y02619*
X03107Y02619*
X03106Y02618*
X03105Y02617*
X03104Y02617*
X03103Y02616*
X03103Y02615*
X03103Y02614*
Y02637*
X03103Y02636*
G37*
G36*
X01831Y03795D02*
X01834Y03795D01*
X01862*
X01865Y03795*
X01866Y03796*
X0187Y03795*
X01871Y03794*
Y03789*
X01872Y03783*
X01875Y03779*
X01892Y03762*
X01897Y03759*
X01902Y03758*
X01955*
X01959Y03755*
X01966Y03754*
X01973Y03755*
X01975Y03757*
X01987*
X01993Y03751*
X01991Y03746*
X01819*
Y03795*
X01821Y03795*
X01824Y03797*
X01828*
X01831Y03795*
G37*
G36*
X02706Y03741D02*
Y03671D01*
X02701Y03669*
X02699Y0367*
X02692Y03671*
X02686Y0367*
X02683Y03668*
X02677Y0367*
X02677Y03672*
X02673Y03678*
X02667Y03682*
X02661Y03683*
X02634Y0371*
X02635Y03715*
X02639Y03718*
X02643Y03724*
X02644Y03731*
X02643Y03738*
X02641Y0374*
X02644Y03745*
X02701*
X02706Y03741*
G37*
G36*
X01701Y03795D02*
X01704Y03795D01*
X01732*
X01735Y03795*
X01737Y03797*
X01742*
X01744Y03795*
X01747Y03795*
Y0372*
X01748Y03715*
X01751Y0371*
X0175Y03708*
X01749Y03705*
X01721*
X01689Y03738*
Y03795*
X01692Y03795*
X01694Y03797*
X01699*
X01701Y03795*
G37*
G36*
X01994Y02799D02*
X01993Y02798D01*
X01993Y02798*
X01992Y02797*
X01992Y02796*
X01991Y02795*
X01991Y02793*
X01991Y02791*
X0199Y02789*
X0199Y02787*
X01979*
X01979Y02789*
X01978Y02793*
X01978Y02795*
X01978Y02796*
X01977Y02797*
X01976Y02798*
X01976Y02798*
X01975Y02799*
X01974Y02799*
X01995*
X01994Y02799*
G37*
G36*
X02892Y03058D02*
Y02829D01*
X02887Y02827*
X02886Y02828*
X02881Y02828*
X02846*
X02843Y02833*
X02847Y02837*
X0285Y02841*
X02851Y02847*
Y02875*
X02859*
X02862Y02876*
X02864Y02878*
X02866Y0288*
X02867Y02883*
Y02942*
X02866Y02945*
X02864Y02948*
X02864Y02949*
X02863Y02954*
X02863Y02954*
X02863Y02954*
X02865Y02957*
X02866Y0296*
Y03019*
X02865Y03022*
X02863Y03025*
X02861Y03027*
X02861Y03027*
X02859Y03032*
X02887Y0306*
X02892Y03058*
G37*
G36*
X02112Y03428D02*
Y03368D01*
X02113Y03362*
X02117Y03358*
X02122Y03352*
X02127Y03349*
X02132Y03348*
X02167*
X0218Y03335*
X02178Y0333*
X02145*
X02142Y0333*
X0214Y03328*
X02138Y03325*
X02137Y03322*
Y03212*
X02138Y03209*
X0214Y03206*
X02142Y03205*
X02145Y03204*
X02177*
Y03165*
X02169*
X02166Y03164*
X02163Y03163*
X02161Y0316*
X02161Y03159*
X02131*
X02123Y03158*
X02116Y03153*
X02111Y03146*
X02109Y03137*
Y02792*
X0209Y02773*
X02086Y02776*
X02087Y02778*
X02088Y02783*
Y03298*
X02087Y03303*
X02084Y03308*
X02002Y0339*
Y03424*
X02097*
X02102Y03426*
X02107Y03429*
X02108Y03429*
X02112Y03428*
G37*
G36*
X03323Y04021D02*
X03327Y0401D01*
X03335Y04*
X03345Y03992*
X03356Y03988*
X03365Y03986*
X03367Y03986*
Y03981*
X03365Y03981*
X03356Y0398*
X03345Y03975*
X03335Y03967*
X03327Y03957*
X03323Y03946*
X03321Y03934*
X03322Y03925*
X03313Y03916*
X0331Y03915*
X03309Y03914*
X03304Y03917*
Y04017*
X0331Y04024*
X03322*
X03323Y04021*
G37*
G36*
X02419Y02268D02*
X02419Y02269D01*
X02419Y0227*
X02418Y02271*
X02417Y02272*
X02416Y02273*
X02415Y02273*
X02413Y02274*
X02411Y02274*
X02409Y02274*
X02407Y02274*
Y02286*
X02409Y02286*
X02411Y02286*
X02413Y02286*
X02415Y02287*
X02416Y02287*
X02417Y02288*
X02418Y02289*
X02419Y0229*
X02419Y02291*
X02419Y02292*
Y02268*
G37*
G36*
X0195Y02323D02*
X01951Y02322D01*
X01951Y02321*
X01952Y02321*
X01953Y0232*
X01954Y0232*
X01956Y0232*
X01958Y0232*
X01962Y02319*
Y02308*
X0196Y02308*
X01956Y02307*
X01954Y02307*
X01953Y02307*
X01952Y02306*
X01951Y02306*
X01951Y02305*
X0195Y02304*
X0195Y02304*
Y02323*
X0195Y02323*
G37*
G36*
X02361Y02359D02*
X02361Y02357D01*
X02361Y02355*
X02362Y02354*
X02362Y02353*
X02363Y02351*
X02364Y02351*
X02365Y0235*
X02366Y0235*
X02367Y0235*
X02343*
X02344Y0235*
X02345Y0235*
X02346Y02351*
X02347Y02351*
X02348Y02353*
X02348Y02354*
X02349Y02355*
X02349Y02357*
X02349Y02359*
X02349Y02362*
X02361*
X02361Y02359*
G37*
G36*
X02459Y02326D02*
X02458Y02326D01*
X02457Y02326*
X02456Y02325*
X02456Y02324*
X02455Y02322*
X02455Y02321*
X02454Y02319*
X02454Y02317*
X02454Y02316*
X02454Y02315*
X02454Y02313*
X02455Y02311*
X02455Y0231*
X02456Y02308*
X02456Y02307*
X02457Y02306*
X02458Y02306*
X02459Y02305*
X0246Y02305*
X02437*
X02438Y02305*
X02439Y02306*
X0244Y02306*
X0244Y02307*
X02441Y02308*
X02441Y0231*
X02442Y02311*
X02442Y02313*
X02442Y02315*
X02442Y02316*
X02442Y02317*
X02442Y02319*
X02442Y02321*
X02441Y02322*
X02441Y02324*
X0244Y02325*
X0244Y02326*
X02439Y02326*
X02438Y02326*
X02437Y02327*
X0246*
X02459Y02326*
G37*
G36*
X01634Y04271D02*
X01637Y04269D01*
X01638Y04263*
X01642Y04257*
X01648Y04253*
X01654Y04252*
X01661Y04253*
X01665Y04256*
X01837*
X01857Y04237*
Y04199*
X01854Y04195*
X01853Y04188*
X01854Y04182*
X01858Y04176*
X01864Y04172*
X01871Y0417*
X01876Y04172*
X01881Y04169*
Y04149*
X01871Y04139*
X01768*
X01763Y04137*
X01758Y04134*
X01746Y04122*
X01741Y04124*
Y04151*
X01744Y04155*
X01745Y04162*
X01744Y04169*
X0174Y04175*
X01734Y04179*
X01727Y0418*
X0172Y04179*
X01714Y04175*
X0171Y04169*
X01709Y04162*
X0171Y04155*
X01713Y04151*
Y04117*
X01701Y04105*
X01698Y04101*
X01697Y04095*
Y03877*
X01693Y03874*
X01689Y03876*
Y03876*
X01688Y03882*
X01685Y03886*
X01543Y04028*
X01546Y04032*
X01549Y04032*
X01556Y04033*
X01561Y04037*
X01565Y04043*
X01566Y04047*
X0159Y04071*
X01593Y04076*
X01594Y04081*
Y04234*
X01632Y04272*
X01634Y04271*
G37*
G36*
X01984Y04213D02*
Y04143D01*
X0198Y04141*
X0198Y04141*
X01936Y04184*
Y04207*
X01938Y04211*
X0194Y04218*
X01939Y04224*
X01942Y04229*
X01969*
X01984Y04213*
G37*
G36*
X02415Y04145D02*
X02416Y0414D01*
X02419Y04135*
X02419Y04135*
X02332Y04048*
X02112*
X021Y0406*
X021Y04061*
X02096Y04067*
X0209Y0407*
X02083Y04072*
X02076Y0407*
X0207Y04067*
X02066Y04061*
X02065Y04054*
X02066Y04047*
X0207Y04041*
X02076Y04037*
X02083Y04036*
X02083Y04036*
X02086Y04033*
X02084Y04028*
X01907*
Y04042*
X0191Y04046*
X01911Y04053*
X0191Y0406*
X01906Y04065*
X019Y04069*
X01893Y04071*
X01886Y04069*
X0188Y04065*
X01877Y0406*
X01875Y04053*
X01877Y04046*
X01879Y04042*
Y04021*
X0188Y04016*
X01883Y04011*
X0189Y04004*
X01895Y04001*
X019Y04*
X0195*
Y03905*
X01947Y03901*
X01946Y03894*
X01947Y03887*
X01951Y03881*
X01957Y03878*
X01964Y03876*
X01971Y03878*
X01977Y03881*
X01981Y03887*
X01982Y03894*
X01981Y03901*
X01978Y03905*
Y04*
X02362*
X02379Y03983*
X02384Y0398*
X02389Y03979*
X02447*
X02448Y03979*
X0245Y03978*
X0245Y03978*
X0245Y03978*
X02452Y03977*
X02459Y03976*
X02466Y03977*
X02472Y03981*
X02476Y03987*
X02477Y03994*
X02476Y03997*
X0248Y04002*
X02844*
X02848Y04*
X02855Y03998*
X02862Y04*
X02868Y04003*
X02872Y04009*
X02873Y04016*
X02872Y04023*
X02868Y04029*
X02862Y04033*
X02858Y04034*
X02859Y04039*
X02952*
X03108Y03883*
X03112Y0388*
X03118Y03879*
X0313*
X03134Y03877*
X03141Y03875*
X03148Y03877*
X03154Y0388*
X03158Y03886*
X03159Y03893*
X03158Y039*
X03154Y03906*
X03148Y0391*
X03141Y03911*
X03134Y0391*
X0313Y03907*
X03123*
X02968Y04063*
X02966Y04064*
X02967Y04069*
X03095*
X03097Y04064*
X03094Y0406*
X03093Y04053*
X03094Y04046*
X03098Y0404*
X03104Y04036*
X03111Y04035*
X03118Y04036*
X03122Y04039*
X03223*
Y03994*
X03218Y03992*
X0321Y04*
X03206Y04003*
X032Y04004*
X0314*
X03136Y04006*
X03129Y04008*
X03123Y04006*
X03117Y04002*
X03113Y03997*
X03111Y0399*
X03113Y03983*
X03117Y03977*
X03123Y03973*
X03129Y03972*
X03136Y03973*
X0314Y03976*
X03194*
X032Y0397*
Y0377*
X03162Y03732*
X02837*
X02832Y03731*
X02827Y03728*
X02742Y03643*
X02737Y03645*
X02737Y03646*
X02734Y0365*
Y03747*
X02733Y03752*
X0273Y03756*
X02717Y03769*
X02713Y03772*
X02707Y03773*
X02624*
X02624Y03775*
X02623Y03778*
X02627Y03781*
X02629Y03783*
X02844*
X02849Y03784*
X02854Y03787*
X02866Y03799*
X02869Y03803*
X0287Y03809*
Y0391*
X02869Y03915*
X02866Y0392*
X0285Y03936*
X02845Y03939*
X0284Y0394*
X02412*
X02408Y03942*
X02401Y03944*
X02394Y03942*
X0239Y0394*
X0234*
X02335Y03939*
X0233Y03936*
X0232Y03926*
X02317Y03921*
X02316Y03916*
Y03913*
X0231*
X02306Y03912*
X02304Y03911*
X02302Y03908*
X02302Y03905*
Y0385*
X02302Y03847*
X02304Y03844*
X02306Y03842*
X0231Y03842*
X02349*
X02352Y03842*
X02355Y03844*
X02356Y03847*
X02357Y0385*
Y03905*
X02357Y03907*
X02359Y03911*
X0236Y03912*
X02373*
X02374Y03911*
X02377Y03907*
X02376Y03905*
Y0385*
X02377Y03847*
X02379Y03844*
X02381Y03842*
X02384Y03842*
X02424*
X02427Y03842*
X02429Y03844*
X02431Y03847*
X02432Y0385*
Y03854*
X02436Y03858*
X02447*
X0245Y03853*
X02449Y0385*
X02447Y03847*
X02446Y03842*
Y0384*
X02529*
Y03842*
X02528Y03847*
X02526Y0385*
X02525Y03854*
X02526Y03857*
X02528Y03861*
X02529Y03866*
Y03879*
X02528Y03885*
X02525Y03889*
X0252Y03892*
X02515Y03893*
X02461*
X02455Y03892*
X0245Y03889*
X02448Y03886*
X02441*
X0244Y03887*
X02435Y0389*
X02432Y03891*
Y03905*
X02431Y03907*
X02434Y03911*
X02435Y03912*
X02642*
X02643Y03911*
X02642Y03904*
X0264Y03903*
X02636Y03897*
X02635Y03893*
X02633Y0389*
X02627Y03889*
X02623Y03892*
X02617Y03893*
X02563*
X02557Y03892*
X02553Y03889*
X0255Y03885*
X02548Y03879*
Y03866*
X0255Y03861*
X02553Y03856*
X02557Y03853*
X02563Y03852*
X02617*
X02623Y03853*
X02627Y03856*
X02629Y03858*
X02635*
X02641Y0386*
X02645Y03863*
X02653Y0387*
X02663Y03861*
X02667Y03858*
X02673Y03857*
X02697*
Y03843*
X02698Y0384*
X027Y03837*
X02702Y03836*
X02705Y03835*
X02745*
X02748Y03836*
X0275Y03837*
X02752Y0384*
X02753Y03843*
Y03898*
X02752Y03901*
X0275Y03904*
X02748Y03906*
X02745Y03906*
X02705*
X02702Y03906*
X027Y03904*
X02698Y03901*
X02697Y03898*
Y03885*
X02679*
X02671Y03893*
X0267Y03897*
X02666Y03903*
X02664Y03904*
X02663Y03911*
X02664Y03912*
X02834*
X02842Y03904*
Y03814*
X02838Y03811*
X0263*
X02627Y03814*
X02623Y03818*
X02617Y03819*
X02563*
X02557Y03818*
X02553Y03814*
X0255Y0381*
X02548Y03804*
Y03791*
X0255Y03786*
X02553Y03781*
X02557Y03778*
X02556Y03775*
X02556Y03773*
X02527*
X02526Y03778*
X02527Y03779*
X02529Y03782*
X02529Y03785*
Y03811*
X02529Y03814*
X02527Y03816*
X02527Y03822*
X02528Y03823*
X02529Y03829*
Y0383*
X02446*
Y03829*
X02447Y03823*
X02448Y03822*
X02448Y03817*
X02445Y03813*
X02436*
X02435Y03814*
X02431Y03815*
Y03828*
X0243Y03831*
X02428Y03834*
X02426Y03836*
X02423Y03836*
X02383*
X0238Y03836*
X02378Y03834*
X02376Y03831*
X02375Y03828*
Y03773*
X02356*
Y03828*
X02355Y03831*
X02354Y03834*
X02351Y03836*
X02348Y03836*
X02309*
X02305Y03836*
X02303Y03834*
X02301Y03831*
X02301Y03828*
Y03815*
X02296*
X0229Y03814*
X02286Y03811*
X02284Y03809*
X02284Y03809*
X02277Y03808*
X02271Y03804*
X02267Y03798*
X02266Y03791*
X02267Y03784*
X02271Y03778*
X02271Y03777*
X02269Y03773*
X0201*
X02003Y03781*
X01999Y03784*
X01993Y03785*
X01979*
X01979Y03785*
X01973Y03789*
X01966Y0379*
X01959Y03789*
X01955Y03786*
X01908*
X01899Y03795*
Y03874*
X01898Y03879*
X01895Y03883*
X01888Y0389*
X01884Y03893*
X01878Y03894*
X01827*
X01788Y03933*
Y04059*
X01791Y04062*
X01792Y04069*
X01791Y04074*
X01795Y04079*
X02321*
X02327Y0408*
X02331Y04083*
X02349Y04101*
X02352Y04105*
X02353Y04111*
Y04173*
X02367*
X0237Y04173*
X02372Y04175*
X02374Y04178*
X02375Y04181*
Y0422*
X02374Y04223*
X02372Y04226*
X0237Y04227*
X02367Y04228*
X02312*
X02308Y04227*
X02306Y04226*
X02304Y04223*
X02303Y0422*
Y04187*
X02303Y04187*
X02303Y04186*
Y04181*
X02304Y04178*
X02306Y04175*
X02308Y04173*
X02312Y04173*
X02317*
X02317Y04172*
X02318Y04173*
X02325*
Y04117*
X02316Y04107*
X02263*
X02261Y04112*
X02264Y04117*
X02265Y04119*
X02248*
Y04124*
X02243*
Y04141*
X02238Y04144*
Y04149*
X02245*
X02248Y0415*
X0225Y04151*
X02252Y04154*
X02253Y04157*
Y04212*
X02252Y04215*
X0225Y04218*
X02248Y0422*
X02245Y0422*
X0224*
Y04239*
X02246*
X02249Y04239*
X02251Y04241*
X02253Y04243*
X02254Y04247*
Y04261*
X02303*
Y04255*
X02304Y04252*
X02306Y0425*
X02308Y04248*
X02312Y04247*
X02367*
X0237Y04248*
X02372Y0425*
X02374Y04252*
X02375Y04255*
Y04261*
X02415*
Y04145*
G37*
G36*
X02483Y04039D02*
X02851D01*
X02851Y04034*
X02848Y04033*
X02844Y0403*
X02483*
X02479Y04034*
X02481Y04039*
X02483Y04039*
G37*
G36*
X02394Y02291D02*
X02394Y0229D01*
X02395Y02289*
X02396Y02288*
X02397Y02287*
X02398Y02287*
X024Y02286*
X02402Y02286*
X02404Y02286*
X02406Y02286*
Y02274*
X02404Y02274*
X02402Y02274*
X024Y02274*
X02398Y02273*
X02397Y02273*
X02396Y02272*
X02395Y02271*
X02394Y0227*
X02394Y02269*
X02394Y02268*
Y02292*
X02394Y02291*
G37*
G36*
X02454Y03986D02*
X02453Y03986D01*
X02453Y03986*
X02452Y03986*
X02451Y03986*
X02449Y03987*
X02446Y03987*
X02442Y03987*
X02441Y03999*
X02443Y03999*
X02447Y03999*
X02448Y03999*
X02449Y03999*
X0245Y04*
X02451Y04*
X02452Y04*
X02452Y04001*
X02454Y03986*
G37*
G36*
X02417Y04086D02*
X02417Y04085D01*
X02418Y04078*
X02422Y04073*
X02421Y04067*
X02419Y04064*
X02417Y04058*
X02419Y04051*
X02423Y04045*
X02429Y04041*
X02433Y0404*
X02457Y04016*
X02455Y04011*
X02452Y0401*
X02448Y04007*
X02448Y04007*
X02447Y04007*
X02447Y04007*
X02446Y04007*
X02443Y04007*
X02395*
X02378Y04024*
X02373Y04027*
X02368Y04028*
X02359*
X02357Y04033*
X02412Y04088*
X02417Y04086*
G37*
G36*
X02053Y02524D02*
X02052Y02524D01*
X02051Y02523*
X0205Y02522*
X02049Y02521*
X02049Y0252*
X02048Y02518*
X02048Y02517*
X02048Y02515*
X02048Y02512*
X02036*
X02036Y02515*
X02036Y02517*
X02035Y02518*
X02035Y0252*
X02034Y02521*
X02034Y02522*
X02033Y02523*
X02032Y02524*
X02031Y02524*
X0203Y02524*
X02054*
X02053Y02524*
G37*
G36*
X0181Y02519D02*
X01811Y02518D01*
X01811Y02518*
X01812Y02517*
X01813Y02517*
X01814Y02516*
X01816Y02516*
X01817Y02515*
X01819Y02515*
X01821Y02515*
Y02503*
X01819Y02503*
X01817Y02503*
X01816Y02503*
X01814Y02503*
X01813Y02502*
X01812Y02502*
X01811Y02501*
X01811Y025*
X0181Y02499*
X0181Y02498*
Y0252*
X0181Y02519*
G37*
G36*
X03066Y02479D02*
X03066Y02477D01*
X03066Y02475*
X03066Y02474*
X03067Y02473*
X03068Y02471*
X03068Y02471*
X03069Y0247*
X0307Y0247*
X03071Y0247*
X03048*
X03049Y0247*
X0305Y0247*
X03051Y02471*
X03052Y02471*
X03052Y02473*
X03053Y02474*
X03053Y02475*
X03053Y02477*
X03054Y02479*
X03054Y02481*
X03065*
X03066Y02479*
G37*
G36*
X02839Y02531D02*
X02838Y02531D01*
X02837Y0253*
X02836Y02529*
X02836Y02528*
X02835Y02527*
X02835Y02525*
X02834Y02524*
X02834Y02522*
X02834Y02519*
X02822*
X02822Y02522*
X02822Y02524*
X02822Y02525*
X02821Y02527*
X02821Y02528*
X0282Y02529*
X02819Y0253*
X02819Y02531*
X02818Y02531*
X02816Y02531*
X0284*
X02839Y02531*
G37*
G36*
X02966Y02539D02*
X02966Y0254D01*
X02966Y02541*
X02965Y02542*
X02964Y02543*
X02963Y02543*
X02962Y02544*
X0296Y02544*
X02959Y02545*
X02957Y02545*
X02954Y02545*
Y02557*
X02957Y02557*
X02959Y02557*
X0296Y02557*
X02962Y02558*
X02963Y02558*
X02964Y02559*
X02965Y02559*
X02966Y0256*
X02966Y02561*
X02966Y02562*
Y02539*
G37*
G36*
X02939Y02561D02*
X0294Y0256D01*
X0294Y02559*
X02941Y02559*
X02942Y02558*
X02944Y02558*
X02945Y02557*
X02947Y02557*
X02949Y02557*
X02951Y02557*
Y02545*
X02949Y02545*
X02947Y02545*
X02945Y02544*
X02944Y02544*
X02942Y02543*
X02941Y02543*
X0294Y02542*
X0294Y02541*
X02939Y0254*
X02939Y02539*
Y02562*
X02939Y02561*
G37*
G36*
X03086Y02531D02*
X03085Y02531D01*
X03084Y0253*
X03083Y02529*
X03083Y02528*
X03082Y02527*
X03082Y02525*
X03081Y02524*
X03081Y02522*
X03081Y02519*
X03069*
X03069Y02522*
X03069Y02524*
X03069Y02525*
X03068Y02527*
X03068Y02528*
X03067Y02529*
X03066Y0253*
X03066Y02531*
X03065Y02531*
X03063Y02531*
X03087*
X03086Y02531*
G37*
G36*
X02545Y02379D02*
X02544Y02382D01*
X02544Y02384*
X02542Y02386*
X0254Y02388*
X02538Y02389*
X02535Y02391*
X02531Y02392*
X02527Y02392*
X02522Y02393*
X02517Y02393*
Y0242*
X02522Y02421*
X02527Y02421*
X02531Y02422*
X02535Y02423*
X02538Y02424*
X0254Y02425*
X02542Y02427*
X02544Y02429*
X02544Y02432*
X02545Y02434*
Y02379*
G37*
G36*
X02144Y02373D02*
X02145Y02372D01*
X02145Y02371*
X02146Y02371*
X02147Y0237*
X02148Y0237*
X0215Y0237*
X02152Y0237*
X02156Y02369*
Y02358*
X02154Y02358*
X0215Y02357*
X02148Y02357*
X02147Y02357*
X02146Y02356*
X02145Y02356*
X02145Y02355*
X02144Y02354*
X02144Y02354*
Y02373*
X02144Y02373*
G37*
G36*
X02066Y02354D02*
X02066Y02354D01*
X02066Y02355*
X02065Y02356*
X02065Y02356*
X02064Y02357*
X02062Y02357*
X02061Y02357*
X02059Y02357*
X02055Y02358*
Y02369*
X02057Y02369*
X02061Y0237*
X02062Y0237*
X02064Y0237*
X02065Y02371*
X02065Y02371*
X02066Y02372*
X02066Y02373*
X02066Y02373*
Y02354*
G37*
G36*
X0195Y02423D02*
X01951Y02422D01*
X01951Y02421*
X01952Y02421*
X01953Y0242*
X01954Y0242*
X01956Y0242*
X01958Y0242*
X01962Y02419*
Y02408*
X0196Y02408*
X01956Y02407*
X01954Y02407*
X01953Y02407*
X01952Y02406*
X01951Y02406*
X01951Y02405*
X0195Y02404*
X0195Y02404*
Y02423*
X0195Y02423*
G37*
G36*
X0255Y0257D02*
Y02542D01*
X02551Y02536*
X02555Y02532*
X02622Y02464*
X0262Y0246*
X02544*
X02541Y02459*
X02539Y02458*
X02537Y02458*
X02534Y0246*
Y0256*
X02535Y02563*
X02535Y02566*
X02536Y02569*
X02537Y02571*
X02537Y02572*
X02538Y02573*
X02539Y02573*
X02539Y02573*
X02539*
X02545*
X02545Y02573*
X0255Y0257*
G37*
G36*
X02048Y02479D02*
X02048Y02477D01*
X02049Y02475*
X0205Y02474*
X02051Y02472*
X02052Y02471*
X02054Y0247*
X02055Y0247*
X02057Y0247*
X02058Y02469*
X02061Y0247*
X02062Y0247*
X02064Y0247*
X02065Y02471*
X02065Y02471*
X02066Y02472*
X02066Y02473*
X02066Y02473*
Y02454*
X02066Y02454*
X02066Y02455*
X02065Y02456*
X02065Y02456*
X02064Y02457*
X02062Y02457*
X02061Y02457*
X02059Y02457*
X02055Y02458*
X02054Y02457*
X02051Y02457*
X02049Y02457*
X02047Y02456*
X02045Y02455*
X02043Y02455*
X02041Y02453*
X02039Y02452*
X02038Y02451*
X02036Y02449*
X02028Y02458*
X02029Y02459*
X02031Y02461*
X02032Y02463*
X02033Y02465*
X02034Y02467*
X02035Y02469*
X02035Y02471*
X02036Y02473*
X02036Y02475*
X02036Y02478*
X02048Y02481*
X02048Y02479*
G37*
G36*
X02814Y02523D02*
X02814Y02522D01*
Y02501*
X02815Y02496*
X02818Y02492*
X02823Y02487*
X02828Y02484*
X02833Y02483*
X02845*
X02845Y02478*
X02844Y02477*
X02841Y02475*
X02839Y02473*
X02839Y0247*
Y02425*
X02839Y02421*
X02841Y02419*
X0284Y02417*
X02839Y02414*
X0283*
X02829Y02417*
X02828Y02419*
X0283Y02421*
X0283Y02425*
Y02442*
X0281*
X02789*
Y0243*
X02784Y02428*
X02772Y02441*
X02767Y02444*
X02762Y02445*
X02709*
X02658Y02496*
X0266Y025*
X02778*
X02783Y02501*
X02788Y02504*
X02796Y02513*
X02799Y02517*
X028Y02523*
Y02523*
X02801Y02523*
X02814*
X02814Y02523*
G37*
G36*
X02315Y03563D02*
X02313Y03559D01*
X02113*
X02107Y03558*
X02103Y03555*
X02095Y03547*
X02091Y03546*
X02088Y03547*
X02058Y03577*
X02058Y03578*
X02057Y03585*
X02053Y03591*
X02047Y03595*
X0204Y03596*
X02033Y03595*
X02027Y03591*
X02025Y03588*
X02019Y03588*
X01993Y03614*
X01995Y03618*
X0226*
X02315Y03563*
G37*
G36*
X01352Y03616D02*
Y03599D01*
X01349Y03599*
X01343Y03595*
X01339Y03589*
X01338Y03582*
X01339Y03575*
X01343Y03569*
X01349Y03565*
X01356Y03564*
X01362Y03565*
X01363Y03565*
X01364Y0356*
X01336Y03533*
X01331Y03535*
Y03558*
X0133Y03563*
X01327Y03568*
X01314Y03581*
X01309Y03584*
X01304Y03585*
X01257*
Y03599*
X01256Y03602*
X01254Y03605*
X01253Y03606*
X01254Y03611*
X01339*
X01342Y03611*
X01345Y03613*
X01346Y03616*
X01347Y03616*
X01352Y03616*
G37*
G36*
X02761Y03581D02*
Y03248D01*
X0276Y03247*
X02755Y03246*
X02752Y03249*
Y03571*
X02754Y03575*
X02756Y03581*
X02761Y03581*
G37*
G36*
X02482Y0324D02*
X02482Y03242D01*
X02481Y03245*
X0248Y03247*
X02478Y03248*
X02475Y0325*
X02472Y03251*
X02469Y03252*
X02464Y03253*
X0246Y03253*
X02454Y03253*
Y03281*
X0246Y03281*
X02464Y03282*
X02469Y03282*
X02472Y03283*
X02475Y03284*
X02478Y03286*
X0248Y03288*
X02481Y0329*
X02482Y03292*
X02482Y03295*
Y0324*
G37*
G36*
X01653Y0341D02*
X01654Y03406D01*
X01654Y03404*
X01654Y03403*
X01655Y03402*
X01655Y03401*
X01656Y03401*
X01657Y034*
X01657Y034*
X01638*
X01638Y034*
X01639Y03401*
X0164Y03401*
X0164Y03402*
X01641Y03403*
X01641Y03404*
X01641Y03406*
X01641Y03408*
X01642Y03412*
X01653*
X01653Y0341*
G37*
G36*
X02479Y03526D02*
X02479Y03526D01*
X02476Y03524*
X02475Y03521*
X02474Y03518*
Y03408*
X02475Y03405*
X02476Y03402*
X02479Y03401*
X02482Y034*
X0259*
X02593Y03401*
X02596Y03402*
X02597Y03405*
X02598Y03408*
Y03441*
X02622*
X0264Y03423*
Y03225*
X02641Y0322*
Y03189*
X02592Y0314*
X02534*
X02526Y03138*
X02518Y03133*
X02509Y03124*
X02463*
X0246Y03123*
X02457Y03121*
X02456Y03119*
X02455Y03116*
Y03037*
X02456Y03034*
X02457Y03031*
X0246Y03029*
X02463Y03029*
X02471*
Y02924*
X02472Y02915*
X02477Y02908*
X0254Y02845*
Y02763*
X02536Y02758*
X02424*
X02415Y02756*
X02408Y02751*
X02384Y02728*
X0238Y02721*
X02378Y02712*
Y02487*
X02375Y02484*
X0234*
X02335Y02485*
X02291*
X02289Y02486*
Y02573*
X02297*
X023Y02574*
X02302Y02576*
X02304Y02578*
X02305Y02581*
Y02668*
X02304Y02671*
X02302Y02673*
X023Y02675*
X02297Y02676*
X02238*
X02234Y0268*
Y02723*
X02233Y02728*
X0223Y02733*
X022Y02762*
X02196Y02765*
X0219Y02767*
X02188*
X02185Y02772*
X02187Y02775*
X02189Y02782*
X02187Y02789*
X02184Y02794*
X02182Y02795*
X0218Y02799*
X02177Y02802*
Y03002*
X02177Y03002*
X02182Y03*
Y02958*
X02183Y02955*
X02185Y02952*
X02187Y02951*
X0219Y0295*
X02242*
X02245Y02951*
X02247Y02952*
X02249Y02955*
X0225Y02958*
Y03009*
X02249Y03012*
X02247Y03015*
X02245Y03017*
X02242Y03017*
X0219*
X02187Y03017*
X02186Y03016*
X02183Y03017*
X02182Y03017*
X02181Y03018*
X0218Y03024*
X02176Y0303*
X02176Y03031*
X02177Y03035*
X02191*
Y03057*
X02161*
Y03043*
X02161Y0304*
X02161Y0304*
X02161Y03039*
X02158Y03038*
X02153Y03042*
Y03115*
X02161*
X02161Y03115*
X02163Y03112*
X02166Y0311*
X02169Y0311*
X02193*
X02199Y03108*
X02206Y0311*
X02224*
X02227Y0311*
X0223Y03112*
X02231Y03115*
X02232Y03116*
X02273*
X02274Y03116*
Y03037*
X02275Y03034*
X02276Y03031*
X02279Y03029*
X02282Y03029*
X02341*
X02344Y03029*
X02347Y03031*
X02348Y03034*
X02349Y03037*
Y03116*
X02348Y03119*
X02347Y03121*
X02344Y03123*
X02341Y03124*
X02333*
Y03128*
X02331Y03137*
X02326Y03144*
X02318Y03152*
X02318Y03154*
X02319Y03158*
X02319Y03158*
X02322Y0316*
X02587*
X02592Y03161*
X02597Y03164*
X02622Y03188*
X02625Y03193*
X02626Y03198*
Y03239*
X02629Y03245*
X02631Y03251*
X02629Y03258*
X02625Y03264*
X0262Y03268*
X02613Y0327*
X02606Y03268*
X02603Y03266*
X02598Y03269*
Y03322*
X02597Y03325*
X02596Y03328*
X02593Y0333*
X0259Y0333*
X02482*
X02479Y0333*
X02476Y03328*
X02475Y03325*
X02474Y03322*
Y03294*
X02474Y03293*
X02474Y03293*
X02473Y03292*
X02472Y03292*
X0247Y03291*
X02467Y0329*
X02463Y0329*
X02461Y03289*
X0244*
X02437Y0329*
X02434Y0329*
X02431Y03291*
X02429Y03292*
X02428Y03292*
X02427Y03293*
X02427Y03293*
X02427Y03294*
Y03321*
X02426Y03324*
X02424Y03327*
X02422Y03329*
X02419Y03329*
X02391*
X02388Y03334*
X02389Y03336*
X0239Y03338*
X02355*
X02356Y03336*
X02357Y03334*
X02354Y03329*
X02311*
X02308Y03329*
X02305Y03327*
X02303Y03324*
X02303Y03321*
Y03211*
X02303Y03208*
X02305Y03205*
X02308Y03204*
X02311Y03203*
X02419*
X02422Y03204*
X02424Y03205*
X02426Y03208*
X02427Y03211*
Y03241*
X02427Y03241*
X02427Y03241*
X02428Y03242*
X02429Y03243*
X02431Y03244*
X02434Y03244*
X02437Y03245*
X0244Y03245*
X02461*
X02463Y03245*
X02467Y03244*
X0247Y03244*
X02472Y03243*
X02473Y03242*
X02474Y03241*
X02474Y03241*
X02474Y03241*
Y03212*
X02475Y03209*
X02476Y03206*
X02479Y03205*
X02482Y03204*
X0259*
X02591Y03204*
X02593Y032*
X02581Y03188*
X02322*
X02318Y0319*
X02312Y03192*
X02305Y0319*
X02299Y03186*
X02295Y03181*
X02293Y03174*
X02295Y03167*
X02296Y03165*
X02293Y0316*
X02231*
X0223Y03163*
X02227Y03164*
X02224Y03165*
X02221*
Y03204*
X02253*
X02256Y03205*
X02259Y03206*
X02261Y03209*
X02261Y03212*
Y03322*
X02261Y03325*
X02259Y03328*
X02256Y0333*
X02253Y0333*
X02213*
Y03335*
X02212Y03341*
X02209Y03345*
X02183Y03372*
X02178Y03375*
X02173Y03376*
X02141*
Y03396*
X02145Y034*
X02253*
X02256Y03401*
X02259Y03402*
X02261Y03405*
X02261Y03408*
Y03438*
X02261Y03438*
X02262Y03438*
X02262Y03439*
X02264Y0344*
X02266Y0344*
X02268Y03441*
X02272Y03442*
X02274Y03442*
X0229*
X02292Y03442*
X02296Y03441*
X02298Y0344*
X023Y0344*
X02302Y03439*
X02302Y03438*
X02303Y03438*
X02303Y03438*
Y03407*
X02303Y03404*
X02305Y03401*
X02308Y034*
X02311Y03399*
X02419*
X02422Y034*
X02424Y03401*
X02426Y03404*
X02427Y03407*
Y03517*
X02426Y0352*
X02424Y03523*
X02422Y03525*
X02419Y03525*
X02311*
X02308Y03525*
X02305Y03523*
X02303Y0352*
X02303Y03517*
Y0349*
X02303Y0349*
X02302Y0349*
X02302Y03489*
X023Y03488*
X02298Y03488*
X02296Y03487*
X02292Y03486*
X0229Y03486*
X02274*
X02272Y03486*
X02268Y03487*
X02266Y03488*
X02264Y03488*
X02262Y03489*
X02262Y0349*
X02261Y0349*
X02261Y0349*
Y03518*
X02261Y03521*
X02259Y03524*
X02256Y03526*
X02256Y03526*
X02256Y03531*
X02479*
X02479Y03526*
G37*
G36*
X0272Y03238D02*
X0272Y03238D01*
X02721Y03231*
X02725Y03225*
X02731Y03221*
X02738Y0322*
X02745Y03221*
X0275Y03225*
X02754Y0323*
X02755Y0323*
X02758*
X02759Y0323*
X02762Y03225*
X02768Y03221*
X02775Y0322*
X02782Y03221*
X02788Y03225*
X0279Y03227*
X02795Y03226*
Y03109*
X02776*
X02772Y03112*
X02765Y03113*
X02758Y03112*
X02752Y03108*
X02749Y03102*
X02747Y03095*
X02749Y03088*
X02752Y03082*
X02753Y03082*
X02752Y03077*
X02588*
X02585Y0308*
X02585Y03083*
X02584Y0309*
X02583Y03091*
X02586Y03096*
X02601*
X02609Y03097*
X02616Y03102*
X02679Y03164*
X02683Y03171*
X02685Y0318*
Y03216*
X0269Y0322*
X02693Y0322*
X027Y03221*
X02706Y03225*
X0271Y03231*
X02711Y03235*
X02713Y03238*
X02715Y0324*
X0272Y03238*
G37*
G36*
X02419Y03292D02*
X0242Y0329D01*
X02421Y03288*
X02423Y03286*
X02425Y03284*
X02428Y03283*
X02432Y03282*
X02436Y03282*
X02441Y03281*
X02446Y03281*
Y03253*
X02441Y03253*
X02436Y03253*
X02432Y03252*
X02428Y03251*
X02425Y0325*
X02423Y03248*
X02421Y03247*
X0242Y03245*
X02419Y03242*
X02418Y0324*
Y03295*
X02419Y03292*
G37*
G36*
X01193Y03606D02*
X01192Y03605D01*
X0119Y03602*
X01189Y03599*
Y0354*
X0119Y03537*
X01192Y03534*
X01194Y03532*
X01197Y03532*
X01249*
X01252Y03532*
X01254Y03534*
X01256Y03537*
X01257Y0354*
Y03557*
X01298*
X01303Y03552*
Y03168*
X01304Y03162*
X01307Y03158*
X01344Y03121*
X01348Y03119*
X01348Y03116*
X01347Y03114*
X01231*
X01228Y03113*
X01225Y03111*
X01223Y03109*
X01223Y03106*
Y03057*
X01096*
X01094Y03061*
X01094Y03062*
X01095Y03068*
X01095Y03069*
X01098Y03072*
X01102Y03075*
X01105Y03073*
X01108Y03072*
X01132*
Y03106*
Y03139*
X01108*
X01107Y0314*
Y03142*
X01111Y03147*
X01167*
X0117Y03148*
X01173Y03149*
X01174Y03152*
X01175Y03155*
Y03206*
X01174Y03209*
X01173Y03212*
X0117Y03214*
X01167Y03214*
X01151*
Y03222*
X01167*
X0117Y03222*
X01172Y03224*
X01175Y03223*
X01177Y03222*
X01178Y03219*
X01182Y03213*
X01187Y03209*
X01189Y03209*
Y03226*
X01199*
Y03209*
X01201Y03209*
X01207Y03213*
X0121Y03218*
X01215Y03218*
X01215Y03217*
Y03207*
X01216Y03204*
X01218Y03202*
X0122Y032*
X01224Y03199*
X01287*
X0129Y032*
X01292Y03202*
X01294Y03204*
X01295Y03207*
Y03325*
X01294Y03329*
X01292Y03331*
X0129Y03333*
X01287Y03334*
X01224*
X0122Y03333*
X01218Y03331*
X01216Y03329*
X01215Y03325*
Y03269*
X01175*
Y03281*
X01174Y03284*
X01173Y03287*
X0117Y03288*
X01167Y03289*
X01108*
X01107Y0329*
Y03292*
X01111Y03297*
X01167*
X0117Y03297*
X01173Y03299*
X01174Y03302*
X01175Y03305*
Y03356*
X01174Y03359*
X01173Y03361*
X0117Y03363*
X01167Y03364*
X01156*
Y0338*
X01166*
X01169Y03381*
X01172Y03383*
X01173Y03385*
X01174Y03388*
Y0342*
X01173Y03423*
X01172Y03425*
X01169Y03427*
X01166Y03428*
X01119*
X01116Y03427*
X01113Y03425*
X01111Y03423*
X01111Y0342*
Y03388*
X01111Y03385*
X01113Y03383*
X01116Y03381*
X01119Y0338*
X01128*
Y03364*
X01108*
X01105Y03366*
Y03575*
X01106Y03575*
X0111Y03581*
X0111Y03581*
X01115Y03579*
Y0354*
X01115Y03537*
X01117Y03534*
X01118Y03533*
X01118Y03531*
X01118Y03529*
X01118Y03528*
X01116Y03528*
X01113Y03526*
X01111Y03523*
X01111Y0352*
Y03489*
X01111Y03486*
X01113Y03483*
X01116Y03481*
X01119Y03481*
X01166*
X01169Y03481*
X01172Y03483*
X01173Y03486*
X01174Y03489*
Y0352*
X01173Y03523*
X01172Y03526*
X0117Y03527*
X01171Y03532*
X01174*
X01177Y03532*
X01179Y03534*
X01181Y03537*
X01182Y0354*
Y03599*
X01181Y03602*
X01179Y03605*
X01178Y03606*
X01179Y03611*
X01192*
X01193Y03606*
G37*
G36*
X01725Y02887D02*
X01724Y02888D01*
X01724Y02888*
X01723Y02888*
X01722Y02889*
X01721Y02889*
X01718Y02889*
X01717Y02889*
X01713Y02889*
Y02901*
X01715Y02901*
X01721Y02902*
X01722Y02902*
X01723Y02902*
X01724Y02902*
X01724Y02903*
X01725Y02903*
Y02887*
G37*
G36*
X02592Y0361D02*
X02596Y03607D01*
X02602Y03606*
X02659*
X02664Y03607*
X02669Y0361*
X02695Y03635*
X02699Y03636*
X02703Y03635*
X02703Y03632*
X02707Y03626*
X02713Y03623*
X02714Y03622*
X02716Y03617*
X02658Y03559*
X02462*
X02459Y03563*
X0246Y03564*
X02461Y03571*
X0246Y03578*
X02457Y03582*
X0246Y03587*
X02465Y03586*
X02472Y03587*
X02478Y03591*
X02482Y03597*
X02483Y03604*
X02482Y03611*
X02478Y03617*
X02472Y03621*
X02465Y03622*
X02458Y03621*
X02454Y03618*
X0241*
X02405Y03617*
X024Y03614*
X02389Y03603*
X02349*
X0233Y03622*
X02332Y03627*
X02333Y03628*
X02337Y0363*
X02373*
X02376Y03628*
X02383Y03626*
X0239Y03628*
X02396Y03631*
X024Y03637*
X02401Y03644*
X024Y03651*
X02399Y03653*
X02402Y03658*
X02544*
X02592Y0361*
G37*
G36*
X02672Y03044D02*
X02657Y03029D01*
X02654Y03025*
X02653Y03019*
Y02862*
X0265Y02858*
X02649Y02851*
X0265Y02844*
X02654Y02838*
X02656Y02837*
X02657Y0283*
X02656Y02829*
X02626*
X02626Y0283*
Y0293*
X02625Y02935*
X02622Y0294*
X02567Y02994*
Y0303*
X02569Y03034*
X02571Y03041*
X0257Y03044*
X02571Y03046*
X02574Y03048*
X02578Y03047*
X02581Y03048*
X02583Y03048*
X0267*
X02672Y03044*
G37*
G36*
X02689Y03543D02*
X02689Y03542D01*
Y03261*
X02689Y03261*
X02684Y03264*
Y03433*
X02682Y03441*
X02678Y03448*
X02647Y03479*
X0264Y03483*
X02631Y03485*
X02598*
Y03518*
X02597Y03521*
X02596Y03524*
X02593Y03526*
X02592Y03526*
X02593Y03531*
X02664*
X02669Y03532*
X02674Y03535*
X02684Y03545*
X02689Y03543*
G37*
G36*
X02253Y03489D02*
X02254Y03487D01*
X02256Y03485*
X02257Y03483*
X0226Y03481*
X02263Y0348*
X02267Y03479*
X02271Y03478*
X02275Y03478*
X02281Y03478*
Y0345*
X02275Y0345*
X02271Y0345*
X02267Y03449*
X02263Y03448*
X0226Y03447*
X02257Y03445*
X02256Y03444*
X02254Y03441*
X02253Y03439*
X02253Y03437*
Y03492*
X02253Y03489*
G37*
G36*
X03276Y03725D02*
Y03679D01*
X03241Y03643*
X0306*
X03056Y03646*
X03049Y03647*
X03042Y03646*
X03038Y03643*
X02992*
X02986Y03642*
X02982Y03639*
X02977Y03634*
X02899Y03557*
X02894Y03559*
X02894Y03562*
X0299Y03658*
X03196*
X03202Y03659*
X03206Y03662*
X0327Y03726*
X03271Y03727*
X03276Y03725*
G37*
G36*
X02311Y03437D02*
X02311Y03439D01*
X0231Y03441*
X02308Y03444*
X02306Y03445*
X02304Y03447*
X02301Y03448*
X02297Y03449*
X02293Y0345*
X02288Y0345*
X02283Y0345*
Y03478*
X02288Y03478*
X02293Y03478*
X02297Y03479*
X02301Y0348*
X02304Y03481*
X02306Y03483*
X02308Y03485*
X0231Y03487*
X02311Y03489*
X02311Y03492*
Y03437*
G37*
G36*
X0297Y03678D02*
X0289Y03598D01*
X02886Y036*
Y03613*
X02888Y03617*
X0289Y03624*
X02888Y0363*
X02884Y03636*
X02878Y0364*
X02872Y03642*
X02865Y0364*
X02859Y03636*
X02855Y0363*
X02853Y03624*
X02855Y03617*
X02858Y03613*
Y03597*
X02838Y03577*
X02835Y03573*
X02834Y03567*
Y03089*
X02821Y03077*
X02805*
X02805Y03082*
X02807Y03082*
X02812Y03085*
X02818Y03092*
X02822Y03097*
X02823Y03102*
Y03557*
X02825Y03561*
X02827Y03567*
X02825Y03574*
X02821Y0358*
X02815Y03584*
X02809Y03585*
X02802Y03584*
X02796Y0358*
X02794Y03577*
X02789Y03579*
Y03606*
X02866Y03683*
X02968*
X0297Y03678*
G37*
G36*
X01553Y03689D02*
X01551Y03684D01*
X01549Y03684*
X01543Y0368*
X01539Y03674*
X01538Y03667*
X01538Y03666*
X01535Y03662*
X01467*
X01462Y03661*
X01457Y03658*
X01452Y03653*
X01449Y03649*
X01448Y03643*
Y03634*
X01438*
X01435Y03633*
X01433Y03631*
X01431Y03629*
X0143Y03625*
Y03574*
X01431Y03571*
X01433Y03569*
X01435Y03567*
X01438Y03566*
X01498*
X01501Y03567*
X01503Y03569*
X01505Y03571*
X01506Y03574*
Y03625*
X01505Y03629*
X01505Y03629*
X01507Y03634*
X01566*
X01568Y03632*
X01566Y03627*
X01551*
X01545Y03626*
X01541Y03623*
X01523Y03605*
X0152Y03601*
X01519Y03595*
Y03592*
X01516Y03587*
X01515Y0358*
X01516Y03573*
X0152Y03567*
X01526Y03564*
X01533Y03562*
X0154Y03564*
X01546Y03567*
X0155Y03573*
X01551Y0358*
X0155Y03587*
X01548Y0359*
X01557Y03599*
X01576*
X0158Y03594*
Y03516*
X0158Y03513*
X01582Y0351*
X01584Y03509*
X01588Y03508*
X01608*
X01611Y03509*
X01613Y0351*
X01615Y03513*
X01616Y03516*
Y03594*
X0162Y03599*
X01626*
X0163Y03594*
Y03516*
X0163Y03513*
X01632Y0351*
X01634Y03509*
X01638Y03508*
X01658*
X01661Y03509*
X01663Y0351*
X01665Y03513*
X01666Y03516*
Y03594*
X0167Y03599*
X01676*
X0168Y03594*
Y03516*
X0168Y03513*
X01682Y0351*
X01682Y03505*
X01644Y03467*
X01638*
X01635Y03466*
X01507*
X01502Y0347*
X01496Y03471*
X01489Y0347*
X01483Y03466*
X01479Y0346*
X01478Y03453*
X01479Y03446*
X01483Y0344*
X01489Y03436*
X01496Y03435*
X01502Y03436*
X01505Y03438*
X01632*
X01633Y03437*
Y03409*
X01633Y03408*
X01633Y03407*
X01633Y03407*
X01632Y03406*
X0163Y03403*
X0163Y034*
Y03322*
X0163Y03319*
X01632Y03316*
X01632Y03311*
X01624Y03303*
X01564*
X01559Y03302*
X01555Y03299*
X0155Y03301*
Y03347*
X0158*
Y03322*
X0158Y03319*
X01582Y03316*
X01584Y03315*
X01588Y03314*
X01608*
X01611Y03315*
X01613Y03316*
X01615Y03319*
X01616Y03322*
Y034*
X01615Y03403*
X01613Y03406*
X01611Y03408*
X01608Y03408*
X01588*
X01584Y03408*
X01582Y03406*
X0158Y03403*
X0158Y034*
Y03375*
X01536*
X01531Y03374*
X01526Y03371*
X01523Y03367*
X01522Y03361*
Y03294*
X01521Y03292*
X0152Y03286*
Y03094*
X01521Y03088*
X01524Y03084*
X0157Y03038*
Y02885*
X0157Y02883*
Y02877*
X01568Y02875*
X01567Y02873*
X01566Y0287*
Y02799*
X01567Y02796*
X01568Y02793*
X01571Y02791*
X01574Y02791*
X01595*
X01598Y02791*
X01601Y02793*
X01602Y02796*
X01603Y02799*
Y0287*
X01602Y02873*
X01601Y02875*
X016Y02876*
X016Y02881*
X01618*
X0162Y02876*
X01618Y02875*
X01617Y02873*
X01616Y0287*
Y02839*
X01635*
X01653*
Y0287*
X01652Y02873*
X01651Y02875*
X0165Y02876*
X01651Y02881*
X01668*
X0167Y02876*
X01668Y02875*
X01667Y02873*
X01666Y0287*
Y02799*
X01667Y02796*
X01668Y02793*
X01671Y02791*
X01674Y02791*
X01695*
X01698Y02791*
X01701Y02793*
X01702Y02796*
X01703Y02799*
Y0287*
X01702Y02873*
X01701Y02875*
X017Y02876*
X01701Y02881*
X01717*
X01717Y02881*
X01718Y02881*
X01719Y02877*
X01719Y02876*
X01719Y02876*
X01719Y02876*
X01718Y02875*
X01717Y02873*
X01716Y0287*
Y02799*
X01717Y02796*
X01718Y02793*
X01721Y02791*
X01724Y02791*
X01745*
X01748Y02791*
X01751Y02793*
X01752Y02796*
X01753Y02799*
Y0287*
X01752Y02873*
X01751Y02875*
X01748Y02877*
X01745Y02878*
X01745Y02879*
X01744Y0288*
X01744Y02883*
X01747Y02888*
X01749Y02895*
X01747Y02902*
X01744Y02908*
X01738Y02912*
X01731Y02913*
X01724Y02912*
X01721Y0291*
X01721Y0291*
X01721Y0291*
X01721Y0291*
X0172Y0291*
X0172Y0291*
X0172Y0291*
X0172Y0291*
X0172Y0291*
X01716Y02909*
X01598*
Y03044*
X01597Y03049*
X01594Y03053*
X01593Y03055*
X01595Y03059*
X02003*
X0202Y03041*
Y02877*
X02018Y02875*
X02017Y02873*
X02016Y0287*
Y02799*
X02017Y02796*
X02018Y02793*
X02021Y02791*
X02024Y02791*
X02045*
X02048Y02791*
X02051Y02793*
X02052Y02796*
X02053Y02799*
Y0287*
X02052Y02873*
X02051Y02875*
X02049Y02877*
Y03047*
X02048Y03053*
X02044Y03057*
X02018Y03083*
X02014Y03086*
X02008Y03087*
X01588*
X01568Y03108*
Y03163*
X01569Y03164*
X01573Y03167*
X01574Y03167*
X0158*
Y0321*
Y03254*
X01574*
X01573Y03253*
X01569Y03256*
X01568Y03257*
Y03272*
X0157Y03275*
X01629*
X01635Y03276*
X01639Y03279*
X01657Y03297*
X01661Y03302*
X01662Y03307*
Y03315*
X01663Y03316*
X01665Y03319*
X01666Y03322*
Y034*
X01665Y03403*
X01663Y03406*
X01662Y03407*
X01662Y03407*
X01662Y03409*
Y0343*
X01664Y03431*
X01667Y03432*
X01672Y03429*
X01674Y03428*
Y03445*
X01679*
Y0345*
X01696*
X01695Y03452*
X01691Y03458*
X01686Y03462*
X01685Y03462*
X01683Y03467*
X01701Y03484*
X01915*
X0192Y03486*
X01925Y03489*
X01942Y03506*
X01987*
X01993Y03503*
X02Y03501*
X02006Y03503*
X02012Y03506*
X02016Y03512*
X02018Y03519*
X02016Y03526*
X02012Y03532*
X02006Y03536*
X02Y03537*
X01993Y03536*
X0199Y03534*
X0196*
X01958Y03539*
X01962Y03542*
X01966Y03548*
X01966Y0355*
X01932*
X01933Y03548*
X01937Y03542*
X0194Y03539*
X01939Y03534*
X01937*
X01931Y03533*
X01927Y0353*
X0192Y03524*
X01916Y03526*
Y0355*
X01898*
Y0356*
X01916*
Y03594*
X0192Y03599*
X01968*
X02003Y03564*
X02003Y03563*
X02006Y03559*
X02037Y03528*
Y03499*
X02036Y03498*
X0203Y03495*
X02026Y03489*
X02025Y03482*
X02026Y03475*
X0203Y03469*
X02036Y03465*
X02043Y03464*
X0205Y03465*
X02056Y03469*
X0206Y03475*
X0206Y0348*
X02061Y0348*
X02061Y03481*
X02064Y03481*
X02068Y03481*
X02072Y03478*
X02079Y03477*
X02085Y03478*
X0209Y03475*
Y03453*
X02002*
Y03466*
X02001Y03471*
X01998Y03476*
X01983Y03491*
X01978Y03494*
X01973Y03495*
X01965*
X01961Y03497*
X01954Y03499*
X01947Y03497*
X01941Y03494*
X01938Y03488*
X01936Y03481*
X01938Y03474*
X01941Y03468*
X01947Y03464*
X01954Y03463*
X01961Y03464*
X01965Y03467*
X01967*
X01974Y0346*
Y03439*
Y03384*
X01975Y03379*
X01978Y03374*
X0206Y03292*
Y02789*
X02056Y02784*
X01999*
Y0279*
X01999Y0279*
X01999Y02792*
X02001Y02793*
X02002Y02796*
X02003Y02799*
Y0287*
X02002Y02873*
X02001Y02875*
X01998Y02877*
X01995Y02878*
X01974*
X01971Y02877*
X01968Y02875*
X01967Y02873*
X01966Y0287*
Y02799*
X01967Y02796*
X01968Y02793*
X0197Y02792*
X0197Y0279*
Y02785*
X01965Y02783*
X01963Y02786*
X01956Y02791*
X01955Y02791*
X01952Y02796*
X01953Y02799*
Y0287*
X01952Y02873*
X01951Y02875*
X01948Y02877*
X01945Y02878*
X01924*
X01921Y02877*
X01918Y02875*
X01917Y02873*
X01916Y0287*
Y02799*
X01916Y02797*
X01914Y02793*
X01913Y02792*
X01906*
X01905Y02793*
X01903Y02797*
X01903Y02799*
Y0287*
X01902Y02873*
X01901Y02875*
X01898Y02877*
X01895Y02878*
X01874*
X01871Y02877*
X01868Y02875*
X01867Y02873*
X01866Y0287*
Y02799*
X01866Y02797*
X01864Y02793*
X01863Y02792*
X01856*
X01855Y02793*
X01853Y02797*
X01853Y02799*
Y0287*
X01852Y02873*
X01851Y02875*
X01848Y02877*
X01845Y02878*
X01824*
X01821Y02877*
X01818Y02875*
X01817Y02873*
X01816Y0287*
Y02799*
X01816Y02797*
X01815Y02794*
X01813Y02792*
X01806Y02791*
X01804Y02789*
X01801Y02793*
X01802Y02796*
X01803Y02799*
Y0287*
X01802Y02873*
X01801Y02875*
X01798Y02877*
X01795Y02878*
X01774*
X01771Y02877*
X01768Y02875*
X01767Y02873*
X01766Y0287*
Y02799*
X01767Y02796*
X01768Y02793*
X01771Y02791*
X01774Y02791*
X01795*
X01798Y02791*
X01801Y02787*
X01799Y02786*
X01794Y02779*
X01792Y0277*
X01794Y02762*
X01798Y02756*
X01796Y02751*
X01606*
X01597Y02749*
X01556Y02791*
Y0301*
X01555Y03016*
X01552Y0302*
X01511Y03061*
Y03112*
X0151Y03118*
X01506Y03122*
X01499Y0313*
X01499Y0313*
X01496Y03134*
X01489Y03141*
X01485Y03144*
X01479Y03145*
X01399*
X01396Y0315*
X01397Y03156*
X01396Y03163*
X01392Y03169*
X01386Y03173*
X01384Y03173*
X01358Y03199*
Y03377*
X01359Y03378*
X01363Y03381*
X01365Y0338*
X01383*
Y03404*
Y03428*
X01365*
X01363Y03427*
X01359Y0343*
X01358Y03431*
Y03478*
X01359Y03479*
X01363Y03481*
X01365Y03481*
X01412*
X01415Y03481*
X01418Y03483*
X01419Y03486*
X0142Y03489*
Y03493*
X01422Y03494*
X01426Y03498*
X01431Y03497*
X01431Y03496*
X01433Y03494*
X01435Y03492*
X01438Y03491*
X01498*
X01501Y03492*
X01503Y03494*
X01505Y03496*
X01506Y035*
Y03551*
X01505Y03554*
X01503Y03556*
X01501Y03558*
X01498Y03559*
X01438*
X01435Y03558*
X01433Y03556*
X01431Y03554*
X0143Y03551*
Y03539*
X01427Y03538*
X01423Y03535*
X01415Y03528*
X01415Y03528*
X01412Y03528*
X01378*
X01377Y03533*
X01398Y03555*
X01401Y03559*
X01402Y03564*
Y03726*
X01516*
X01553Y03689*
G37*
%LNtcs-1900-4*%
%LPC*%
G36*
X02739Y02682D02*
X02727D01*
Y02669*
X02729Y0267*
X02735Y02674*
X02739Y0268*
X02739Y02682*
G37*
G36*
X02717D02*
X02705D01*
X02705Y0268*
X02709Y02674*
X02715Y0267*
X02717Y02669*
Y02682*
G37*
G36*
X02727Y02704D02*
Y02692D01*
X02739*
X02739Y02693*
X02735Y02699*
X02729Y02703*
X02727Y02704*
G37*
G36*
X02717D02*
X02715Y02703D01*
X02709Y02699*
X02705Y02693*
X02705Y02692*
X02717*
Y02704*
G37*
G36*
X0236Y02239D02*
X02335D01*
X02332Y02238*
X02329Y02236*
X02328Y02234*
X02327Y02231*
Y0221*
X0236*
Y02239*
G37*
G36*
X02748Y02317D02*
X02708D01*
X02705Y02316*
X02702Y02314*
X02701Y02312*
X027Y02309*
Y02257*
X02701Y02254*
X02702Y02252*
X02705Y0225*
X02708Y02249*
X02748*
X02751Y0225*
X02753Y02252*
X02755Y02254*
X02756Y02257*
Y02309*
X02755Y02312*
X02753Y02314*
X02751Y02316*
X02748Y02317*
G37*
G36*
X02299Y02274D02*
X02274D01*
Y02246*
X02307*
Y02266*
X02306Y02269*
X02304Y02272*
X02302Y02274*
X02299Y02274*
G37*
G36*
X02628Y02289D02*
X02544D01*
X02541Y02288*
X02539Y02287*
X02537Y02284*
X02536Y02281*
Y02257*
X02536Y02257*
X02535Y02257*
X02534Y02256*
X02531Y02255*
X02528Y02255*
X02527Y02255*
X0252*
X02512Y02253*
X02505Y02248*
X0249Y02234*
X02489Y02234*
X02484Y02235*
X02484Y02236*
X02481Y02238*
X02478Y02239*
X02419*
X02416Y02238*
X02413Y02236*
X02411Y02234*
X02411Y02231*
Y0218*
X02411Y02177*
X02413Y02174*
X02416Y02172*
X02419Y02172*
X02478*
X02481Y02172*
X02484Y02174*
X02485Y02177*
X02486Y0218*
Y02183*
X02493*
X02501Y02185*
X02508Y0219*
X02529Y0221*
X02531Y0221*
X02534Y0221*
X02535Y02209*
X02536Y02208*
X02536Y02208*
Y02191*
X02537Y02188*
X02539Y02186*
X02541Y02184*
X02544Y02183*
X02628*
X02631Y02184*
X02634Y02186*
X02635Y02188*
X02636Y02191*
Y02214*
X02644*
X02652Y02216*
X02659Y02221*
X02664Y02228*
X02666Y02236*
X02664Y02245*
X02659Y02252*
X02652Y02257*
X02644Y02258*
X02636*
Y02281*
X02635Y02284*
X02634Y02287*
X02631Y02288*
X02628Y02289*
G37*
G36*
X02394Y02239D02*
X0237D01*
Y0221*
X02402*
Y02231*
X02402Y02234*
X024Y02236*
X02397Y02238*
X02394Y02239*
G37*
G36*
X02623Y02085D02*
X0259D01*
Y02056*
X02615*
X02618Y02057*
X0262Y02059*
X02622Y02061*
X02623Y02064*
Y02085*
G37*
G36*
X0258D02*
X02548D01*
Y02064*
X02548Y02061*
X0255Y02059*
X02553Y02057*
X02556Y02056*
X0258*
Y02085*
G37*
G36*
X03077Y02147D02*
Y02135D01*
X03089*
X03089Y02137*
X03085Y02143*
X03079Y02147*
X03077Y02147*
G37*
G36*
X03067D02*
X03065Y02147D01*
X0306Y02143*
X03056Y02137*
X03055Y02135*
X03067*
Y02147*
G37*
G36*
X02615Y02049D02*
X02556D01*
X02553Y02048*
X0255Y02047*
X02548Y02044*
X02548Y02041*
Y0199*
X02548Y01987*
X0255Y01984*
X02553Y01982*
X02556Y01982*
X02615*
X02618Y01982*
X0262Y01984*
X02622Y01987*
X02623Y0199*
Y02041*
X02622Y02044*
X0262Y02047*
X02618Y02048*
X02615Y02049*
G37*
G36*
X02307Y02236D02*
X02274D01*
Y02207*
X02299*
X02302Y02208*
X02304Y02209*
X02306Y02212*
X02307Y02215*
Y02236*
G37*
G36*
X02402Y022D02*
X0237D01*
Y02172*
X02394*
X02397Y02172*
X024Y02174*
X02402Y02177*
X02402Y0218*
Y022*
G37*
G36*
X0236D02*
X02327D01*
Y0218*
X02328Y02177*
X02329Y02174*
X02332Y02172*
X02335Y02172*
X0236*
Y022*
G37*
G36*
X02792Y02908D02*
X02763D01*
Y02875*
X02784*
X02787Y02876*
X0279Y02878*
X02791Y0288*
X02792Y02883*
Y02908*
G37*
G36*
X02772Y02866D02*
X02755D01*
X02751Y02865*
X02748Y02863*
X02745Y02859*
X02744Y02855*
Y02851*
X02772*
Y02866*
G37*
G36*
Y02841D02*
X02744D01*
Y02837*
X02745Y02833*
X02748Y02829*
X02751Y02827*
X02755Y02826*
X02772*
Y02841*
G37*
G36*
X02201Y03989D02*
X02185D01*
X02181Y03988*
X02179Y03986*
X02177Y03984*
X02177Y03981*
Y03958*
X02201*
Y03989*
G37*
G36*
X02228D02*
X02211D01*
Y03958*
X02236*
Y03981*
X02235Y03984*
X02234Y03986*
X02231Y03988*
X02228Y03989*
G37*
G36*
X02201Y03948D02*
X02177D01*
Y03926*
X02177Y03923*
X02179Y0392*
X02181Y03918*
X02185Y03918*
X02201*
Y03948*
G37*
G36*
X02236D02*
X02211D01*
Y03918*
X02228*
X02231Y03918*
X02234Y0392*
X02235Y03923*
X02236Y03926*
Y03948*
G37*
G36*
X02253Y04141D02*
Y04129D01*
X02265*
X02264Y0413*
X0226Y04136*
X02254Y0414*
X02253Y04141*
G37*
G36*
X02153Y03989D02*
X0211D01*
X02107Y03988*
X02104Y03986*
X02102Y03984*
X02102Y03984*
X02097Y03983*
X02097Y03983*
X02091Y03987*
X02084Y03988*
X02077Y03987*
X02071Y03983*
X02067Y03977*
X02066Y0397*
X02067Y03963*
X02071Y03957*
X02077Y03953*
X02082Y03952*
X02088Y03946*
X02093Y03943*
X02098Y03942*
X02102*
Y03926*
X02102Y03923*
X02104Y0392*
X02107Y03918*
X0211Y03918*
X02114*
Y03898*
X02107*
X02104Y03898*
X02101Y03896*
X02099Y03893*
X02099Y0389*
Y03835*
X02099Y03832*
X02101Y03829*
X02104Y03828*
X02107Y03827*
X0215*
X02153Y03828*
X02156Y03829*
X02158Y03832*
X02158Y03835*
Y0389*
X02158Y03893*
X02156Y03896*
X02153Y03898*
X0215Y03898*
X02142*
Y03918*
X02153*
X02156Y03918*
X02159Y0392*
X0216Y03923*
X02161Y03926*
Y03981*
X0216Y03984*
X02159Y03986*
X02156Y03988*
X02153Y03989*
G37*
G36*
X02201Y03804D02*
X02189D01*
X0219Y03802*
X02193Y03796*
X02199Y03792*
X02201Y03791*
Y03804*
G37*
G36*
X02223D02*
X02211D01*
Y03791*
X02213Y03792*
X02219Y03796*
X02223Y03802*
X02223Y03804*
G37*
G36*
X03049Y03801D02*
X03037D01*
Y03789*
X03039Y03789*
X03045Y03793*
X03049Y03799*
X03049Y03801*
G37*
G36*
Y03829D02*
X03015D01*
X03015Y03827*
X03018Y03823*
X03019Y03818*
X03015Y03813*
X03015Y03811*
X03049*
X03049Y03813*
X03046Y03816*
X03045Y03821*
X03049Y03827*
X03049Y03829*
G37*
G36*
X03027Y03801D02*
X03015D01*
X03015Y03799*
X03019Y03793*
X03025Y03789*
X03027Y03789*
Y03801*
G37*
G36*
X02024Y03889D02*
X01998D01*
X01994Y03889*
X01992Y03887*
X0199Y03884*
X0199Y03881*
Y03859*
X02024*
Y03889*
G37*
G36*
X02061D02*
X02034D01*
Y03859*
X02069*
Y03881*
X02068Y03884*
X02066Y03887*
X02064Y03889*
X02061Y03889*
G37*
G36*
X02795Y03906D02*
X0278D01*
X02777Y03906*
X02774Y03904*
X02773Y03901*
X02772Y03898*
Y03876*
X02795*
Y03906*
G37*
G36*
X02819D02*
X02805D01*
Y03876*
X02827*
Y03898*
X02827Y03901*
X02825Y03904*
X02822Y03906*
X02819Y03906*
G37*
G36*
X02198Y03898D02*
X02182D01*
X02179Y03898*
X02176Y03896*
X02174Y03893*
X02174Y0389*
Y03868*
X02198*
Y03898*
G37*
G36*
X02225D02*
X02208D01*
Y03868*
X02233*
Y0389*
X02232Y03893*
X02231Y03896*
X02228Y03898*
X02225Y03898*
G37*
G36*
X03037Y03851D02*
Y03839D01*
X03049*
X03049Y03841*
X03045Y03847*
X03039Y03851*
X03037Y03851*
G37*
G36*
X02203Y03863D02*
D01*
Y03858*
X02174*
Y03835*
X02174Y03832*
X02176Y03829*
X02179Y03828*
X02182Y03827*
X02193*
X02195Y03822*
X02193Y03821*
X0219Y03815*
X02189Y03814*
X02198*
X02197Y03823*
X02199Y03823*
X02197*
X02197Y03826*
X02197Y03828*
X02197Y03829*
X02196Y03831*
X02196Y03832*
X02195Y03833*
X02194Y03834*
X02194Y03835*
X02193Y03835*
X02191Y03835*
X02215*
X02214Y03835*
X02213Y03835*
X02212Y03834*
X02211Y03833*
X02211Y03832*
X0221Y03831*
X0221Y03829*
X02209Y03828*
X02209Y03826*
X02209Y03826*
X02209Y03823*
X0221Y03822*
X0221Y0382*
X0221Y03819*
X02211Y03818*
X02211Y03818*
X02211Y03817*
X02212Y03817*
X02199Y03814*
X02223*
X02223Y03815*
X02219Y03821*
X02218Y03822*
X02219Y03827*
X02225*
X02228Y03828*
X02231Y03829*
X02232Y03832*
X02233Y03835*
Y03858*
X02203*
Y03863*
G37*
G36*
X02024Y03849D02*
X0199D01*
Y03826*
X0199Y03823*
X01992Y03821*
X01994Y03819*
X01998Y03818*
X02024*
Y03849*
G37*
G36*
X02795Y03866D02*
X02772D01*
Y03843*
X02773Y0384*
X02774Y03837*
X02777Y03836*
X0278Y03835*
X02795*
Y03866*
G37*
G36*
X02827D02*
X02805D01*
Y03835*
X02819*
X02822Y03836*
X02825Y03837*
X02827Y0384*
X02827Y03843*
Y03866*
G37*
G36*
X03027Y03851D02*
X03025Y03851D01*
X03019Y03847*
X03015Y03841*
X03015Y03839*
X03027*
Y03851*
G37*
G36*
X02069Y03849D02*
X02034D01*
Y03818*
X02061*
X02064Y03819*
X02066Y03821*
X02068Y03823*
X02069Y03826*
Y03849*
G37*
G36*
X02805Y02478D02*
X02797D01*
X02794Y02477*
X02791Y02475*
X02789Y02473*
X02789Y0247*
Y02452*
X02805*
Y02478*
G37*
G36*
X02822D02*
X02815D01*
Y02452*
X0283*
Y0247*
X0283Y02473*
X02828Y02475*
X02825Y02477*
X02822Y02478*
G37*
G36*
X02378Y0336D02*
Y03348D01*
X0239*
X02389Y0335*
X02385Y03356*
X02379Y0336*
X02378Y0336*
G37*
G36*
X02368D02*
X02366Y0336D01*
X0236Y03356*
X02356Y0335*
X02355Y03348*
X02368*
Y0336*
G37*
G36*
X02583Y03367D02*
X02571D01*
X02571Y03365*
X02575Y03359*
X02581Y03355*
X02583Y03354*
Y03367*
G37*
G36*
X02593Y03389D02*
Y03377D01*
X02605*
X02605Y03378*
X02601Y03384*
X02595Y03388*
X02593Y03389*
G37*
G36*
X02583D02*
X02581Y03388D01*
X02575Y03384*
X02571Y03378*
X02571Y03377*
X02583*
Y03389*
G37*
G36*
X02605Y03367D02*
X02593D01*
Y03354*
X02595Y03355*
X02601Y03359*
X02605Y03365*
X02605Y03367*
G37*
G36*
X02211Y02938D02*
X02207Y02938D01*
X02199Y02934*
X02192Y02929*
X02187Y02922*
X02183Y02914*
X02183Y0291*
X02211*
Y02938*
G37*
G36*
X02432Y03124D02*
X02373D01*
X02369Y03123*
X02367Y03121*
X02365Y03119*
X02365Y03116*
Y02876*
X02327*
X02324Y02875*
X02322Y02873*
X0232Y02871*
X02319Y02868*
Y02789*
X0232Y02786*
X02322Y02783*
X02324Y02781*
X02327Y02781*
X02477*
X0248Y02781*
X02483Y02783*
X02484Y02786*
X02485Y02789*
Y02809*
X02493*
X02497Y02807*
X02503Y02805*
X0251Y02807*
X02516Y02811*
X0252Y02816*
X02522Y02823*
X0252Y0283*
X02516Y02836*
X0251Y0284*
X02503Y02841*
X02497Y0284*
X02493Y02837*
X02485*
Y02868*
X02484Y02871*
X02483Y02873*
X0248Y02875*
X02477Y02876*
X0244*
Y03116*
X02439Y03119*
X02437Y03121*
X02435Y03123*
X02432Y03124*
G37*
G36*
X02221Y02938D02*
Y0291D01*
X02249*
X02249Y02914*
X02245Y02922*
X0224Y02929*
X02233Y02934*
X02225Y02938*
X02221Y02938*
G37*
G36*
X02249Y029D02*
X02221D01*
Y02872*
X02225Y02872*
X02233Y02876*
X0224Y02881*
X02245Y02888*
X02249Y02896*
X02249Y029*
G37*
G36*
X02211D02*
X02183D01*
X02183Y02896*
X02187Y02888*
X02192Y02881*
X02199Y02876*
X02207Y02872*
X02211Y02872*
Y029*
G37*
G36*
X02232Y03057D02*
X02201D01*
Y03035*
X02224*
X02227Y03035*
X0223Y03037*
X02231Y0304*
X02232Y03043*
Y03057*
G37*
G36*
X02191Y0309D02*
X02169D01*
X02166Y0309*
X02163Y03088*
X02161Y03085*
X02161Y03082*
Y03067*
X02191*
Y0309*
G37*
G36*
X02224D02*
X02201D01*
Y03067*
X02232*
Y03082*
X02231Y03085*
X0223Y03088*
X02227Y0309*
X02224Y0309*
G37*
G36*
X01175Y03101D02*
X01142D01*
Y03072*
X01167*
X0117Y03073*
X01173Y03075*
X01174Y03077*
X01175Y0308*
Y03101*
G37*
G36*
X01167Y03139D02*
X01142D01*
Y03111*
X01175*
Y03131*
X01174Y03134*
X01173Y03137*
X0117Y03139*
X01167Y03139*
G37*
G36*
X02619Y02996D02*
X02606D01*
X02607Y02995*
X02611Y02989*
X02617Y02985*
X02619Y02984*
Y02996*
G37*
G36*
X02641D02*
X02629D01*
Y02984*
X0263Y02985*
X02636Y02989*
X0264Y02995*
X02641Y02996*
G37*
G36*
X02619Y03019D02*
X02617Y03018D01*
X02611Y03014*
X02607Y03008*
X02606Y03006*
X02619*
Y03019*
G37*
G36*
X02629D02*
Y03006D01*
X02641*
X0264Y03008*
X02636Y03014*
X0263Y03018*
X02629Y03019*
G37*
G36*
X0142Y03399D02*
X01393D01*
Y0338*
X01412*
X01415Y03381*
X01418Y03383*
X01419Y03385*
X0142Y03388*
Y03399*
G37*
G36*
X01695Y03254D02*
X01674D01*
X01671Y03253*
X01668Y03251*
X01667Y03249*
X01666Y03246*
Y03175*
X01667Y03172*
X01668Y03169*
X01671Y03167*
X01674Y03167*
X01695*
X01698Y03167*
X01701Y03169*
X01702Y03172*
X01703Y03175*
Y03246*
X01702Y03249*
X01701Y03251*
X01698Y03253*
X01695Y03254*
G37*
G36*
X01745D02*
X01724D01*
X01721Y03253*
X01718Y03251*
X01717Y03249*
X01716Y03246*
Y03175*
X01717Y03172*
X01718Y03169*
X01721Y03167*
X01724Y03167*
X01745*
X01748Y03167*
X01751Y03169*
X01752Y03172*
X01753Y03175*
Y03246*
X01752Y03249*
X01751Y03251*
X01748Y03253*
X01745Y03254*
G37*
G36*
X01645D02*
X01624D01*
X01621Y03253*
X01618Y03251*
X01617Y03249*
X01616Y03246*
Y03175*
X01617Y03172*
X01618Y03169*
X01621Y03167*
X01624Y03167*
X01645*
X01648Y03167*
X01651Y03169*
X01652Y03172*
X01653Y03175*
Y03246*
X01652Y03249*
X01651Y03251*
X01648Y03253*
X01645Y03254*
G37*
G36*
X01725Y03137D02*
X01723Y03136D01*
X01717Y03132*
X01713Y03126*
X01713Y03125*
X01725*
Y03137*
G37*
G36*
X01735D02*
Y03125D01*
X01747*
X01747Y03126*
X01743Y03132*
X01737Y03136*
X01735Y03137*
G37*
G36*
X01603Y03205D02*
X0159D01*
Y03167*
X01595*
X01598Y03167*
X01601Y03169*
X01602Y03172*
X01603Y03175*
Y03205*
G37*
G36*
X01909Y03467D02*
X01743D01*
X01737Y03466*
X01733Y03463*
X01688Y03418*
X01685Y03414*
X01683Y03408*
Y03407*
X01682Y03406*
X0168Y03403*
X0168Y034*
Y03322*
X0168Y03319*
X01682Y03316*
X01684Y03315*
X01688Y03314*
X01708*
X01711Y03315*
X01713Y03316*
X01715Y03319*
X01716Y03322*
Y034*
X01715Y03403*
X01714Y03405*
X01729Y0342*
X01734Y03418*
X01733Y03415*
Y03409*
X01733Y03408*
X01733Y03407*
X01733Y03407*
X01732Y03406*
X0173Y03403*
X0173Y034*
Y03322*
X0173Y03319*
X01732Y03316*
X01734Y03315*
X01738Y03314*
X01758*
X01761Y03315*
X01763Y03316*
X01765Y03319*
X01766Y03322*
Y034*
X01765Y03403*
X01763Y03406*
X01764Y03411*
X01768Y03416*
X01805*
X01807Y03414*
X01809Y03413*
X01808Y03408*
X01806*
X01788*
X01784Y03408*
X01782Y03406*
X0178Y03403*
X0178Y034*
Y03322*
X0178Y03319*
X01782Y03316*
X01783Y03316*
X01783Y03315*
X01783Y03313*
Y03299*
X01785Y03294*
X01788Y03289*
X01799Y03278*
X01803Y03275*
X01809Y03274*
X01914*
X0192Y03267*
Y03254*
X0192Y03254*
X0192Y03253*
X01918Y03251*
X01917Y03249*
X01916Y03246*
Y03175*
X01917Y03172*
X01918Y03169*
X01921Y03167*
X01924Y03167*
X01945*
X01948Y03167*
X01951Y03169*
X01952Y03172*
X01953Y03175*
Y03246*
X01952Y03249*
X01951Y03251*
X01949Y03253*
X01949Y03255*
Y03273*
X01948Y03279*
X01944Y03283*
X0193Y03298*
X01925Y03301*
X0192Y03302*
X01814*
X01812Y03305*
Y03313*
X01812Y03314*
X01812Y03315*
X01812Y03316*
X01813Y03316*
X01815Y03319*
X01816Y03322*
Y034*
X01815Y03403*
X01813Y03406*
X01811Y03408*
X01812Y03412*
X01813Y03412*
X01815Y03412*
X01822Y03413*
X01828Y03417*
X01832Y03423*
X01834Y0343*
X01833Y03434*
X01836Y03439*
X01903*
X01934Y03408*
Y03333*
X01935Y03328*
X01938Y03323*
X0197Y03291*
Y03254*
X0197Y03254*
X0197Y03253*
X01968Y03251*
X01967Y03249*
X01966Y03246*
Y03175*
X01967Y03172*
X01968Y03169*
X01971Y03167*
X01974Y03167*
X01995*
X01998Y03167*
X02001Y03169*
X02002Y03172*
X02003Y03175*
Y03246*
X02002Y03249*
X02001Y03251*
X01999Y03253*
X01999Y03255*
Y03297*
X01998Y03302*
X01994Y03307*
X01962Y03339*
Y03414*
X01961Y03419*
X01958Y03424*
X01919Y03463*
X01914Y03466*
X01909Y03467*
G37*
G36*
X0203Y03205D02*
X02016D01*
Y03175*
X02017Y03172*
X02018Y03169*
X02021Y03167*
X02024Y03167*
X0203*
Y03205*
G37*
G36*
X02053D02*
X0204D01*
Y03167*
X02045*
X02048Y03167*
X02051Y03169*
X02052Y03172*
X02053Y03175*
Y03205*
G37*
G36*
X01895Y03254D02*
X01874D01*
X01871Y03253*
X01868Y03251*
X01867Y03249*
X01866Y03246*
Y03175*
X01867Y03172*
X01868Y03169*
X01871Y03167*
X01874Y03167*
X01895*
X01898Y03167*
X01901Y03169*
X01902Y03172*
X01903Y03175*
Y03246*
X01902Y03249*
X01901Y03251*
X01898Y03253*
X01895Y03254*
G37*
G36*
X01795D02*
X01774D01*
X01771Y03253*
X01768Y03251*
X01767Y03249*
X01766Y03246*
Y03175*
X01767Y03172*
X01768Y03169*
X01771Y03167*
X01774Y03167*
X01795*
X01798Y03167*
X01801Y03169*
X01802Y03172*
X01803Y03175*
Y03246*
X01802Y03249*
X01801Y03251*
X01798Y03253*
X01795Y03254*
G37*
G36*
X01845D02*
X01824D01*
X01821Y03253*
X01818Y03251*
X01817Y03249*
X01816Y03246*
Y03175*
X01817Y03172*
X01818Y03169*
X01821Y03167*
X01824Y03167*
X01845*
X01848Y03167*
X01851Y03169*
X01852Y03172*
X01853Y03175*
Y03246*
X01852Y03249*
X01851Y03251*
X01848Y03253*
X01845Y03254*
G37*
G36*
X01466Y03334D02*
X0144D01*
Y03271*
X01474*
Y03325*
X01474Y03329*
X01472Y03331*
X0147Y03333*
X01466Y03334*
G37*
G36*
X01858Y03408D02*
X01838D01*
X01834Y03408*
X01832Y03406*
X0183Y03403*
X0183Y034*
Y03322*
X0183Y03319*
X01832Y03316*
X01834Y03315*
X01838Y03314*
X01858*
X01861Y03315*
X01863Y03316*
X01865Y03319*
X01866Y03322*
Y034*
X01865Y03403*
X01863Y03406*
X01861Y03408*
X01858Y03408*
G37*
G36*
X01908D02*
X01888D01*
X01884Y03408*
X01882Y03406*
X0188Y03403*
X0188Y034*
Y03322*
X0188Y03319*
X01882Y03316*
X01884Y03315*
X01888Y03314*
X01908*
X01911Y03315*
X01913Y03316*
X01915Y03319*
X01916Y03322*
Y034*
X01915Y03403*
X01913Y03406*
X01911Y03408*
X01908Y03408*
G37*
G36*
X0143Y03334D02*
X01403D01*
X014Y03333*
X01398Y03331*
X01396Y03329*
X01395Y03325*
Y03271*
X0143*
Y03334*
G37*
G36*
X01494Y03401D02*
X01487Y034D01*
X01481Y03396*
X01477Y0339*
X01476Y03383*
X01477Y03376*
X0148Y03373*
Y03209*
X01479Y03209*
X01474Y03211*
Y03261*
X0144*
Y03199*
X01463*
X01467Y03195*
X01467Y03195*
X01467Y03194*
X01461Y0319*
X01457Y03185*
X01456Y03178*
X01457Y03171*
X01461Y03165*
X01467Y03161*
X01474Y0316*
X01481Y03161*
X01487Y03165*
X01491Y03171*
X01492Y03177*
X01504Y03188*
X01507Y03193*
X01508Y03198*
Y03373*
X0151Y03376*
X01512Y03383*
X0151Y0339*
X01506Y03396*
X01501Y034*
X01494Y03401*
G37*
G36*
X0203Y03254D02*
X02024D01*
X02021Y03253*
X02018Y03251*
X02017Y03249*
X02016Y03246*
Y03215*
X0203*
Y03254*
G37*
G36*
X01595D02*
X0159D01*
Y03215*
X01603*
Y03246*
X01602Y03249*
X01601Y03251*
X01598Y03253*
X01595Y03254*
G37*
G36*
X0143Y03261D02*
X01395D01*
Y03207*
X01396Y03204*
X01398Y03202*
X014Y032*
X01403Y03199*
X0143*
Y03261*
G37*
G36*
X02045Y03254D02*
X0204D01*
Y03215*
X02053*
Y03246*
X02052Y03249*
X02051Y03251*
X02048Y03253*
X02045Y03254*
G37*
G36*
X01962Y0302D02*
X0195D01*
X0195Y03018*
X01954Y03012*
X0196Y03008*
X01962Y03008*
Y0302*
G37*
G36*
X01984D02*
X01972D01*
Y03008*
X01974Y03008*
X0198Y03012*
X01984Y03018*
X01984Y0302*
G37*
G36*
X01962Y03042D02*
X0196Y03042D01*
X01954Y03038*
X0195Y03032*
X0195Y0303*
X01962*
Y03042*
G37*
G36*
X0163Y02829D02*
X01616D01*
Y02799*
X01617Y02796*
X01618Y02793*
X01621Y02791*
X01624Y02791*
X0163*
Y02829*
G37*
G36*
X01954Y03572D02*
Y0356D01*
X01966*
X01966Y03562*
X01962Y03567*
X01956Y03571*
X01954Y03572*
G37*
G36*
X01653Y02829D02*
X0164D01*
Y02791*
X01645*
X01648Y02791*
X01651Y02793*
X01652Y02796*
X01653Y02799*
Y02829*
G37*
G36*
X01944Y03572D02*
X01942Y03571D01*
X01937Y03567*
X01933Y03562*
X01932Y0356*
X01944*
Y03572*
G37*
G36*
X01972Y03042D02*
Y0303D01*
X01984*
X01984Y03032*
X0198Y03038*
X01974Y03042*
X01972Y03042*
G37*
G36*
X01696Y0344D02*
X01684D01*
Y03428*
X01686Y03429*
X01691Y03433*
X01695Y03438*
X01696Y0344*
G37*
G36*
X01412Y03428D02*
X01393D01*
Y03409*
X0142*
Y0342*
X01419Y03423*
X01418Y03425*
X01415Y03427*
X01412Y03428*
G37*
G36*
X01725Y03115D02*
X01713D01*
X01713Y03113*
X01717Y03107*
X01723Y03103*
X01725Y03103*
Y03115*
G37*
G36*
X01747D02*
X01735D01*
Y03103*
X01737Y03103*
X01743Y03107*
X01747Y03113*
X01747Y03115*
G37*
%LNtcs-1900-5*%
%LPD*%
G36*
X02545Y02208D02*
X02544Y0221D01*
X02544Y02212*
X02542Y02214*
X02541Y02215*
X02539Y02216*
X02536Y02217*
X02533Y02218*
X02529Y02219*
X02525Y02219*
X0252Y02219*
Y02247*
X02525Y02247*
X02529Y02247*
X02533Y02248*
X02536Y02248*
X02539Y02249*
X02541Y0225*
X02542Y02252*
X02544Y02253*
X02544Y02255*
X02545Y02257*
Y02208*
G37*
G36*
X02478Y0222D02*
X02478Y0222D01*
X02479Y0222*
X0248Y02219*
X02483Y02219*
X02493Y02219*
Y02191*
X0249Y02191*
X02478Y02191*
X02478Y02191*
X02478Y0219*
Y0222*
X02478Y0222*
G37*
G36*
X01807Y03322D02*
X01806Y03322D01*
X01805Y03321*
X01805Y0332*
X01804Y03319*
X01804Y03318*
X01804Y03317*
X01804Y03315*
X01803Y0331*
X01792*
X01792Y03313*
X01791Y03317*
X01791Y03318*
X01791Y03319*
X0179Y0332*
X0179Y03321*
X01789Y03322*
X01788Y03322*
X01788Y03322*
X01807*
X01807Y03322*
G37*
G36*
X01753Y0341D02*
X01754Y03406D01*
X01754Y03404*
X01754Y03403*
X01755Y03402*
X01755Y03401*
X01756Y03401*
X01757Y034*
X01757Y034*
X01738*
X01738Y034*
X01739Y03401*
X0174Y03401*
X0174Y03402*
X01741Y03403*
X01741Y03404*
X01741Y03406*
X01741Y03408*
X01742Y03412*
X01753*
X01753Y0341*
G37*
G36*
X0199Y03255D02*
X01991Y03251D01*
X01991Y0325*
X01992Y03248*
X01992Y03247*
X01993Y03247*
X01993Y03246*
X01994Y03246*
X01995Y03246*
X01974*
X01975Y03246*
X01976Y03246*
X01976Y03247*
X01977Y03247*
X01978Y03248*
X01978Y0325*
X01978Y03251*
X01978Y03253*
X01979Y03255*
X01979Y03257*
X0199*
X0199Y03255*
G37*
G36*
X0194D02*
X01941Y03251D01*
X01941Y0325*
X01942Y03248*
X01942Y03247*
X01943Y03247*
X01943Y03246*
X01944Y03246*
X01945Y03246*
X01924*
X01925Y03246*
X01926Y03246*
X01926Y03247*
X01927Y03247*
X01928Y03248*
X01928Y0325*
X01928Y03251*
X01928Y03253*
X01929Y03255*
X01929Y03257*
X0194*
X0194Y03255*
G37*
G54D18*
X01785Y02509D03*
X0171D03*
X03381Y02104D03*
X03307D03*
X0338Y02185D03*
X03306D03*
X01785Y02423D03*
X0171D03*
X01706Y02287D03*
X01781D03*
X02042Y02554D03*
X02117D03*
X02042Y02643D03*
X02117D03*
X01706Y02626D03*
X01781D03*
X01148Y03569D03*
X01223D03*
X01139Y04156D03*
X01214D03*
X01166Y02845D03*
X01091D03*
X02757Y0299D03*
X02832D03*
X02758Y02913D03*
X02833D03*
X03867Y03021D03*
X03792D03*
X03874Y03326D03*
X03799D03*
G54D19*
X02585Y0209D03*
Y02015D03*
X02365Y02205D03*
Y0228D03*
X02448D03*
Y02205D03*
X02269Y02241D03*
Y02315D03*
X01468Y036D03*
Y03525D03*
X01035Y03742D03*
Y03816D03*
X01455Y02348D03*
Y02423D03*
X01542Y02348D03*
Y02423D03*
X01137Y03106D03*
Y03181D03*
Y0333D03*
Y03255D03*
X01171Y02763D03*
Y02688D03*
X03495Y02583D03*
Y02658D03*
G54D24*
X028Y03871D03*
X02725D03*
X0215Y04185D03*
X02225D03*
X02151Y04274D03*
X02226D03*
X02151Y04358D03*
X02226D03*
X02329Y03877D03*
X02404D03*
X02328Y03801D03*
X02403D03*
G54D25*
X02586Y02407D03*
Y02236D03*
G54D26*
X01055Y03896D03*
X00956D03*
X01056Y04027D03*
X00957D03*
X0388Y03099D03*
X03782D03*
G54D28*
X02206Y03953D03*
X02131D03*
X02128Y03863D03*
X02203D03*
G54D35*
X02339Y042D03*
Y04275D03*
X02196Y03062D03*
Y03137D03*
X02994Y02626D03*
Y02552D03*
X02828Y02551D03*
Y02625D03*
X03075Y02551D03*
Y02625D03*
X02912Y02551D03*
Y02625D03*
G54D52*
X02085Y04055D02*
X02106Y04034D01*
X03842Y03537D02*
X03878D01*
X02328Y03876D02*
X0233Y03878D01*
X02612Y03198D02*
Y03253D01*
X01915Y03499D02*
X01937Y0352D01*
X02016Y03568D02*
Y03571D01*
X01974Y03613D02*
X02016Y03571D01*
X01551Y03613D02*
X01974D01*
X01948Y03333D02*
Y03414D01*
X01909Y03453D02*
X01948Y03414D01*
X01743Y03453D02*
X01909D01*
X01698Y03408D02*
X01743Y03453D01*
X01496Y03452D02*
X01638D01*
X01496Y03453D02*
X01496Y03452D01*
X01638D02*
X01648Y03443D01*
X01221Y03571D02*
X01304D01*
X01162Y02783D02*
X01181Y02764D01*
X01497Y03056D02*
X01542Y0301D01*
Y02785D02*
Y0301D01*
Y02785D02*
X01598Y02729D01*
X02126Y03368D02*
X02132Y03362D01*
X02703Y03248D02*
Y03546D01*
X02702Y03547D02*
X02703Y03546D01*
X02702Y03547D02*
X02711D01*
X02693Y03238D02*
X02703Y03248D01*
X03362Y0337D02*
X03612D01*
X03263Y02183D02*
X03307D01*
X0242Y02806D02*
X02437Y02823D01*
X02704Y02777D02*
X02714D01*
X02564Y02638D02*
X02704Y02777D01*
X02564Y02542D02*
Y02638D01*
X01631Y03834D02*
D01*
Y03775D02*
Y03834D01*
Y03775D02*
X01651Y03755D01*
X02338Y04034D02*
X02438Y04134D01*
X02106Y04034D02*
X02338D01*
X02429Y04145D02*
X02491Y04083D01*
X02429Y04145D02*
Y04275D01*
X02339D02*
X02429D01*
X01668Y0429D02*
X01893D01*
X02132Y03362D02*
X02173D01*
X01584Y02885D02*
Y03044D01*
X01534Y03094D02*
X01584Y03044D01*
X01536Y03289D02*
Y03361D01*
X01534Y03286D02*
X01536Y03289D01*
X01534Y03094D02*
Y03286D01*
X01764Y04093D02*
X02321D01*
X02163Y02796D02*
Y03017D01*
Y02796D02*
X0217Y02789D01*
X03314Y03076D02*
Y03108D01*
X01851Y02263D02*
X01911D01*
X03155Y02656D02*
Y02686D01*
X02994Y02675D02*
X03051D01*
X02867Y02669D02*
X02868Y0267D01*
X01805Y03834D02*
Y03869D01*
Y03739D02*
Y03834D01*
X01761D02*
Y03869D01*
Y0372D02*
Y03834D01*
X0186Y02626D02*
X01861Y02625D01*
X01781Y02626D02*
X0186D01*
X02061Y01956D02*
Y02086D01*
X01781Y02331D02*
X01782Y02287D01*
X01782Y02273*
X0335Y03933D02*
Y03934D01*
X02389Y03993D02*
X02459D01*
X02652Y03889D02*
X02654D01*
X02054Y02093D02*
X02061Y02086D01*
X02775Y0262D02*
Y02665D01*
X02753Y02687D02*
X02775Y02665D01*
X02722Y02687D02*
X02753D01*
X02754Y02599D02*
X02775Y0262D01*
X02729Y02599D02*
X02754D01*
X02809Y02626D02*
X02827D01*
X02767Y02584D02*
X02809Y02626D01*
X02767Y02546D02*
Y02584D01*
X02756Y02536D02*
X02767Y02546D01*
X02828Y02625D02*
Y02669D01*
X02657Y02599D02*
X02668Y02588D01*
Y02554D02*
Y02588D01*
Y02554D02*
X02686Y02536D01*
X02672Y02612D02*
X02687Y02596D01*
X02672Y02717D02*
X0269Y02736D01*
X02672Y02612D02*
Y02717D01*
X0269Y02736D02*
X02893D01*
X02687Y02573D02*
Y02596D01*
Y02573D02*
X02699Y02562D01*
X02729*
X0263Y02599D02*
X02657D01*
X02686Y02536D02*
X02756D01*
X02778Y02514D02*
X02786Y02523D01*
Y02575*
X028Y02589*
X0265Y02514D02*
X02778D01*
X0263Y02534D02*
X0265Y02514D01*
X0263Y02534D02*
Y02562D01*
X02599Y02636D02*
X0263D01*
X02584Y02622D02*
X02599Y02636D01*
X02584Y0255D02*
Y02622D01*
Y0255D02*
X02704Y02431D01*
X02564Y02542D02*
X02695Y02411D01*
X02792Y024D02*
X02867D01*
X02762Y02431D02*
X02792Y024D01*
X02867D02*
X02887D01*
X0286Y02407D02*
X02867Y024D01*
X02704Y02431D02*
X02762D01*
X02789Y02375D02*
X02918D01*
X02753Y02411D02*
X02789Y02375D01*
X02695Y02411D02*
X02753D01*
X02833Y02497D02*
X02947D01*
X02828Y02501D02*
X02833Y02497D01*
X02828Y02501D02*
Y02551D01*
X02947Y02497D02*
X0296Y02484D01*
X028Y02589D02*
X03067D01*
X02083Y04054D02*
X02085Y04055D01*
X02036Y04156D02*
X0204Y0416D01*
X02098Y03956D02*
X02128D01*
X02084Y0397D02*
X02098Y03956D01*
X02128D02*
X02131Y03953D01*
X02128Y03863D02*
Y0395D01*
X02131Y03953*
X03874Y03268D02*
Y03326D01*
X03856Y03251D02*
X03874Y03268D01*
X03856Y03249D02*
Y03251D01*
X03364Y04038D02*
X03369Y04034D01*
X03305Y04038D02*
X03364D01*
X03319Y03902D02*
X0335Y03933D01*
X03315Y03902D02*
X03319D01*
X03315Y03788D02*
X03322Y03782D01*
X0335Y03934D02*
X03369D01*
X03322Y03632D02*
Y03782D01*
X03315Y03788D02*
Y03902D01*
X03288Y03598D02*
X03322Y03632D01*
X01076Y03028D02*
X01083Y03035D01*
X01076Y0307D02*
X01091Y03085D01*
X00986Y03046D02*
X00998D01*
X01097Y02846D02*
X0111Y02859D01*
X01113Y02856*
X0215Y02499D02*
X02164Y02485D01*
Y0242D02*
Y02485D01*
X02114Y02505D02*
Y02555D01*
X02105Y02413D02*
X02157D01*
X02164Y0242*
X02121Y02499D02*
X0215D01*
X02114Y02505D02*
X02121Y02499D01*
X02714Y02777D02*
X02721Y02784D01*
X02837Y03718D02*
X03168D01*
X03214Y03764*
Y03976*
X0286Y03697D02*
X03183D01*
X03237Y03751D02*
Y04045D01*
X03183Y03697D02*
X03237Y03751D01*
X02984Y03672D02*
X03196D01*
X0326Y03736*
X03049Y03629D02*
X03247D01*
X0329Y03673D02*
Y04023D01*
X03247Y03629D02*
X0329Y03673D01*
X02992Y03629D02*
X03049D01*
X03055Y03598D02*
X03288D01*
X01497Y03056D02*
Y03112D01*
X01486Y03123D02*
X01497Y03112D01*
X01354Y03131D02*
X01479D01*
X01486Y03124*
Y03123D02*
Y03124D01*
X01381Y02423D02*
X01455D01*
X01375Y0243D02*
X01381Y02423D01*
X01375Y0243D02*
Y02566D01*
X03155Y02388D02*
Y02519D01*
Y02199D02*
Y02388D01*
X02955Y02375D02*
X03142D01*
X03155Y02388*
X02918Y02375D02*
X02937Y02357D01*
Y02179D02*
Y02357D01*
X02955Y02375*
X02907Y02149D02*
X02937Y02179D01*
X02168Y02363D02*
X02197Y02393D01*
X02226Y01925D02*
Y02347D01*
X02232Y02353*
X03638Y02852D02*
X03681Y0281D01*
Y0273D02*
Y0281D01*
X03563Y02852D02*
X03638D01*
X03056Y02875D02*
Y02905D01*
Y02875D02*
X03068Y02863D01*
X03363*
X03613Y03037D02*
X03637Y03061D01*
Y03344*
X03562Y03037D02*
X03613D01*
X0355Y03025D02*
X03562Y03037D01*
X0355Y02866D02*
Y03025D01*
X03458Y0316D02*
X03477Y03179D01*
Y03325*
X03423Y0316D02*
X03458D01*
X03612Y0337D02*
X03637Y03344D01*
X03209Y03436D02*
Y03519D01*
Y03436D02*
X03216Y03429D01*
X03509Y03402D02*
Y03458D01*
X03108Y03394D02*
X03501D01*
X03509Y03402*
X03067Y03435D02*
X03108Y03394D01*
X03067Y03435D02*
Y03519D01*
X0347Y03332D02*
X03477Y03325D01*
X03339Y03332D02*
X0347D01*
X03375Y02875D02*
Y03167D01*
X03363Y02863D02*
X03375Y02875D01*
X02802Y03095D02*
X02809Y03102D01*
X02765Y03095D02*
X02802D01*
X02809Y03102D02*
Y03567D01*
X02848Y03083D02*
Y03567D01*
X02579Y03062D02*
X02827D01*
X02848Y03083*
X02878Y03071D02*
Y03566D01*
X02687Y0304D02*
X02847D01*
X02878Y03071*
X03187Y02167D02*
X03248D01*
X03155Y02199D02*
X03187Y02167D01*
X02676Y01993D02*
X03013D01*
X03034Y02084D02*
X03053Y02104D01*
X03034Y02013D02*
Y02084D01*
X03013Y01993D02*
X03034Y02013D01*
X02281Y02149D02*
X02907D01*
X02993Y02143D02*
Y02309D01*
X02473Y02129D02*
X02979D01*
X02993Y02143*
X02867Y02768D02*
X02903D01*
X0286Y02775D02*
Y02809D01*
Y02775D02*
X02867Y02768D01*
X0278Y0279D02*
X02837Y02847D01*
X02834Y02909D02*
Y02916D01*
X02833Y02913D02*
X02837Y02909D01*
Y02847D02*
Y02909D01*
X02834Y02916D02*
Y02959D01*
X02697Y02991D02*
X02756D01*
X0269Y02984D02*
X02697Y02991D01*
X0269Y02822D02*
Y02984D01*
X02612Y02824D02*
X02621Y02815D01*
X02612Y02824D02*
Y0293D01*
X02684Y02815D02*
X0269Y02822D01*
X02621Y02815D02*
X02684D01*
X02667Y02851D02*
Y03019D01*
X02687Y0304*
X01598Y02729D02*
X01606D01*
X01521D02*
X01598D01*
X01582Y03073D02*
X02008D01*
X01554Y03102D02*
Y03278D01*
Y03102D02*
X01582Y03073D01*
X02008D02*
X02035Y03047D01*
Y02834D02*
Y03047D01*
X01474Y03178D02*
Y03179D01*
X01494Y03198D02*
Y03383D01*
X01474Y03179D02*
X01494Y03198D01*
X01536Y03361D02*
X01598D01*
X01533Y03581D02*
Y03595D01*
X01533Y0358D02*
X01533Y03581D01*
Y03595D02*
X01551Y03613D01*
X01573Y03648D02*
X01589Y03632D01*
X01462Y03643D02*
X01467Y03648D01*
X01573*
X01304Y03571D02*
X01317Y03558D01*
Y03168D02*
Y03558D01*
X01412Y03504D02*
X01433Y03525D01*
X01388Y03504D02*
X01412D01*
X01715Y03691D02*
X0258D01*
X01675Y03732D02*
Y03834D01*
Y03732D02*
X01715Y03691D01*
X01769Y03712D02*
X02612D01*
X01761Y0372D02*
X01769Y03712D01*
X01812Y03732D02*
X02625D01*
X01805Y03739D02*
X01812Y03732D01*
X03111Y04053D02*
X03229D01*
X03237Y04045*
X03129Y0399D02*
X032D01*
X03214Y03976*
X0233Y03878D02*
Y03916D01*
X0234Y03926*
X02296Y03801D02*
X02328D01*
X01885Y03789D02*
X01902Y03772D01*
X01885Y03789D02*
Y03874D01*
X01993Y03771D02*
X02005Y03759D01*
X01968Y03771D02*
X01993D01*
X02005Y03759D02*
X02707D01*
X01902Y03772D02*
X01966D01*
X01968Y03771*
X0175Y03923D02*
X01805Y03869D01*
X01731Y039D02*
X01761Y03869D01*
X01893Y04021D02*
Y04053D01*
Y04021D02*
X019Y04014D01*
X01967*
X01774Y03927D02*
Y04069D01*
X0175Y03923D02*
Y04079D01*
X01731Y039D02*
Y04087D01*
X02317Y04187D02*
X02331Y042D01*
X02339*
X01078Y04156D02*
X01139D01*
X02227Y04275D02*
X02339D01*
X02148Y04187D02*
X0215Y04185D01*
X01095Y04201D02*
X0138D01*
X01009Y04116D02*
X01095Y04201D01*
X00987Y03757D02*
X01002Y03742D01*
X00987Y03757D02*
Y03851D01*
X01009Y03874*
X01002Y03742D02*
X01032D01*
X01762Y0343D02*
X01815D01*
X01748Y03415D02*
X01762Y0343D01*
X01731Y04087D02*
X01768Y04125D01*
X01711Y03843D02*
Y04095D01*
Y03843D02*
X01716Y03838D01*
X01727Y04111D02*
Y04162D01*
X01711Y04095D02*
X01727Y04111D01*
X0244Y03568D02*
X02443Y03571D01*
X0233Y03568D02*
X0244D01*
X01093Y03587D02*
Y03588D01*
X01091Y03585D02*
X01093Y03587D01*
X01964Y03894D02*
Y04011D01*
X03338Y03331D02*
X03339Y03332D01*
X02903Y02768D02*
X0295Y02721D01*
X0204Y0416D02*
X02089D01*
X01135Y04046D02*
X01161Y04071D01*
X01135Y04023D02*
Y04046D01*
X02844Y03797D02*
X02856Y03809D01*
X02602Y03797D02*
X02844D01*
X02856Y03809D02*
Y0391D01*
X0284Y03926D02*
X02856Y0391D01*
X02673Y03871D02*
X02725D01*
X02654Y03889D02*
X02673Y03871D01*
X02226Y04274D02*
X02227Y04275D01*
X02225Y04185D02*
X02226Y04186D01*
X02224Y04184D02*
X02225Y04185D01*
X02226Y04186D02*
Y04274D01*
Y04358*
X02151Y04274D02*
Y04282D01*
X02612Y03712D02*
X02652Y03672D01*
X02625Y03732D02*
X02626Y03731D01*
X02692Y03653D02*
D01*
X02602Y0362D02*
X02659D01*
X02692Y03653*
X0272Y03639D02*
Y03747D01*
X02707Y03759D02*
X0272Y03747D01*
X0255Y03672D02*
X02602Y0362D01*
Y0367D02*
Y03671D01*
X01883Y01948D02*
X01892Y01958D01*
Y02159*
X01895Y02162*
X01913*
X02053Y01948D02*
X02061Y01956D01*
X02027Y02093D02*
X02054D01*
X02412Y01946D02*
X02414Y01944D01*
X02273Y01946D02*
X02412D01*
X02466Y0203D02*
Y02123D01*
X02414Y02023D02*
X02459D01*
X02466Y0203*
X02262Y01957D02*
X02273Y01946D01*
X02262Y01957D02*
Y0213D01*
X02466Y02123D02*
X02473Y02129D01*
X0202Y021D02*
Y02193D01*
X01911Y02213D02*
X02D01*
X0202Y02193*
Y021D02*
X02027Y02093D01*
X02262Y0213D02*
X02281Y02149D01*
X0222Y02562D02*
Y02723D01*
X02106Y02752D02*
X0219D01*
X0222Y02723*
Y02562D02*
X02232Y02551D01*
X02226Y01925D02*
X0226Y0189D01*
X02232Y02353D02*
Y02551D01*
X02573Y0189D02*
X02676Y01993D01*
X0226Y0189D02*
X02573D01*
X03636Y02734D02*
Y02793D01*
X03634Y02795D02*
X03636Y02793D01*
X03187Y03322D02*
X03188Y03324D01*
X02664Y03545D02*
X02837Y03718D01*
X02906Y03544D02*
X02987Y03625D01*
X02738Y03238D02*
Y03582D01*
Y03238D02*
D01*
X0355Y02866D02*
X03563Y02852D01*
X03669Y02853D02*
X03702D01*
X03648Y02874D02*
X03669Y02853D01*
X03583Y02874D02*
X03648D01*
X03702Y02853D02*
X03705Y0285D01*
X03577Y02877D02*
Y02897D01*
Y02877D02*
X03579Y02879D01*
X03583Y02875*
Y02874D02*
Y02875D01*
X03603Y02904D02*
Y02928D01*
Y02904D02*
X03611Y02896D01*
X03704*
X02775Y03238D02*
X02775Y03238D01*
X01973Y03481D02*
X01988Y03466D01*
X02266Y03632D02*
X0233Y03568D01*
X03053Y02104D02*
X03129D01*
X03083Y02058D02*
X03129Y02104D01*
X03197*
X02437Y02823D02*
X02503D01*
X02406Y02819D02*
X0242Y02806D01*
X02062Y0277D02*
X02074Y02783D01*
X01993Y0277D02*
X02062D01*
X01985Y02778D02*
X01993Y0277D01*
X02828Y02669D02*
X02867D01*
X02343Y03589D02*
X02395D01*
X0228Y03652D02*
X02343Y03589D01*
X01988Y03121D02*
X02035Y03168D01*
X01585Y03162D02*
X01625Y03121D01*
X01585Y03162D02*
Y0321D01*
X0286Y02407D02*
Y02447D01*
X03197Y02104D02*
X03307D01*
X03248Y02167D02*
X03263Y02183D01*
X02432Y03799D02*
X02488D01*
X0243Y03801D02*
X02432Y03799D01*
X02403Y03801D02*
X0243D01*
X02436Y03872D02*
X02491D01*
X0243Y03877D02*
X02436Y03872D01*
X02404Y03877D02*
X0243D01*
X02635Y03873D02*
X02652Y03889D01*
X0259Y03873D02*
X02635D01*
X02872Y03591D02*
Y03624D01*
X02848Y03567D02*
X02872Y03591D01*
X01988Y03384D02*
X02074Y03298D01*
Y02783D02*
Y03298D01*
X03115Y0275D02*
Y02787D01*
X03088Y02723D02*
X03115Y0275D01*
X02988Y02723D02*
X03088D01*
X03062Y02749D02*
X03067Y02753D01*
Y02793*
X03005Y02749D02*
X03062D01*
X0329Y04023D02*
X03305Y04038D01*
X01708Y02506D02*
Y02563D01*
X0171Y02423D02*
Y02509D01*
X01708Y02563D02*
X01718Y02573D01*
X0182*
X01838Y02556*
X0186*
X01954Y03481D02*
X01973D01*
X01648Y03307D02*
Y03361D01*
X01798Y03299D02*
Y03361D01*
X01948Y03333D02*
X01985Y03297D01*
X01698Y03361D02*
Y03408D01*
X03075Y02597D02*
Y02625D01*
X03067Y02589D02*
X03075Y02597D01*
X01592Y02895D02*
X01731D01*
X03118Y03893D02*
X03141D01*
X03704Y02896D02*
X03705Y02897D01*
X03709Y0294D02*
X03777D01*
X03705Y02944D02*
X03709Y0294D01*
X01648Y03361D02*
Y03443D01*
X01813Y02363D02*
X01911D01*
X01781Y02331D02*
X01813Y02363D01*
X0204D02*
X02105D01*
X0199Y02313D02*
X0204Y02363D01*
X01911Y02313D02*
X0199D01*
X02355Y02338D02*
Y02375D01*
X01867Y02463D02*
X01911D01*
X01821Y02509D02*
X01867Y02463D01*
X01785Y02509D02*
X01821D01*
X01992Y02413D02*
X02042Y02463D01*
X01911Y02413D02*
X01992D01*
X02042Y02463D02*
Y02554D01*
Y02463D02*
X02105D01*
Y02363D02*
X02168D01*
X0171Y02423D02*
D01*
X03125Y02625D02*
X03155Y02656D01*
X03075Y02625D02*
X03125D01*
X02994Y02626D02*
Y02675D01*
X02827Y02626D02*
X02828Y02625D01*
X0296Y02447D02*
Y02484D01*
X02993Y02551D02*
X02994Y02552D01*
X02912Y02551D02*
X02993D01*
X03075Y02509D02*
Y02551D01*
X0306Y02494D02*
X03075Y02509D01*
X0306Y02447D02*
Y02494D01*
X02994Y02508D02*
Y02552D01*
Y02508D02*
X0301Y02492D01*
Y02447D02*
Y02492D01*
X01985Y02778D02*
Y02834D01*
X02365Y03462D02*
X02367Y03464D01*
X02583Y02233D02*
X02586Y02236D01*
X02447Y02338D02*
X02448Y02337D01*
Y0228D02*
Y02337D01*
Y0228D02*
D01*
X02365D02*
X02448D01*
X02512Y02622D02*
X02515Y02625D01*
X02368Y04014D02*
X02389Y03993D01*
X01967Y04014D02*
X02368D01*
X01748Y03361D02*
Y03415D01*
X01985Y0321D02*
Y03297D01*
X01935Y0321D02*
Y03273D01*
X0192Y03288D02*
X01935Y03273D01*
X01809Y03288D02*
X0192D01*
X01798Y03299D02*
X01809Y03288D01*
X02203Y03812D02*
X02206Y03809D01*
X02203Y03812D02*
Y03863D01*
X00971Y02515D02*
X00978D01*
X01964Y04011D02*
X01967Y04014D01*
X01296Y02173D02*
X01299D01*
X01564Y03289D02*
X01629D01*
X01648Y03307*
X01148Y03505D02*
Y03569D01*
X01146Y03503D02*
X01148Y03505D01*
X01142Y03339D02*
Y03404D01*
X01136Y03333D02*
X01142Y03339D01*
X01433Y03525D02*
X01468D01*
X01472*
X01137Y03181D02*
Y03255D01*
X01136Y0318D02*
X01137Y03181D01*
X02117Y02559D02*
Y02643D01*
Y02559D02*
X02118Y02558D01*
X01448Y02346D02*
X0145Y02348D01*
X01455*
X01276Y02562D02*
Y02652D01*
X01481Y02688D02*
X01521Y02729D01*
X01308Y02688D02*
X01481D01*
X01137Y03255D02*
X01257D01*
X01264Y03262*
X01175Y02689D02*
X01239D01*
X01276Y02652*
X01585Y02834D02*
Y02888D01*
X01592Y02895*
X01151Y02713D02*
X01175Y02689D01*
X01554Y03278D02*
X01564Y03289D01*
X01247Y02809D02*
X01276D01*
X01205Y0285D02*
X01247Y02809D01*
X01182Y0285D02*
X01205D01*
X01589Y03632D02*
X02266D01*
X01317Y03168D02*
X01354Y03131D01*
X01344Y03193D02*
X01376Y03161D01*
X01091Y03085D02*
Y03585D01*
X01181Y02764D02*
X01232D01*
X01308Y02688*
X01616Y02572D02*
X0165Y02607D01*
X01616Y0237D02*
Y02572D01*
X01594Y02348D02*
X01616Y0237D01*
X01455Y02348D02*
X01542D01*
X01594*
X03493Y02652D02*
X03494Y02651D01*
X01009Y03874D02*
Y04116D01*
X01035Y03816D02*
Y03844D01*
X01054Y03863*
Y03872*
X01053D02*
Y03894D01*
X02775Y03238D02*
Y03612D01*
X0286Y03697*
X02878Y03566D02*
X02984Y03672D01*
X02987Y03625D02*
X02992Y03629D01*
X02934Y03527D02*
X03004Y03598D01*
X03055*
X0241Y03604D02*
X02465D01*
X02395Y03589D02*
X0241Y03604D01*
X02326Y03644D02*
X02383D01*
X02567Y03072D02*
Y03083D01*
Y03072D02*
X02578Y03062D01*
X02579Y03062*
X02553Y02989D02*
Y03041D01*
Y02989D02*
X02612Y0293D01*
X03587Y03519D02*
Y03567D01*
X03588Y03568*
X03738Y0337D02*
X03753Y03354D01*
Y03227D02*
Y03354D01*
Y03227D02*
X03781Y03199D01*
Y031D02*
Y03199D01*
X03705Y0337D02*
X03738D01*
X03867Y03021D02*
Y03057D01*
X03879Y03069*
Y03101*
X02312Y03174D02*
X02587D01*
X02612Y03198*
X03301Y03162D02*
X03305D01*
X03319*
X03406Y03249*
X03435*
X02199Y03267D02*
Y03335D01*
X02173Y03362D02*
X02199Y03335D01*
X0204Y03575D02*
Y03578D01*
X02757Y02963D02*
X02759Y02961D01*
X02833Y0296D02*
X02834Y02959D01*
X02777Y02771D02*
X0278Y02775D01*
Y0279*
X02934Y0282D02*
Y03527D01*
Y0282D02*
X03005Y02749D01*
X02906Y02805D02*
Y03544D01*
Y02805D02*
X02988Y02723D01*
X02873Y02707D02*
X02886D01*
X02912Y02625D02*
Y02682D01*
X02886Y02707D02*
X02912Y02682D01*
X02893Y02736D02*
X02953Y02676D01*
X03029*
X03299Y03124D02*
X03314Y03108D01*
X02997Y03228D02*
X03077D01*
X03089Y03216*
Y0314D02*
Y03216D01*
Y0314D02*
X03106Y03124D01*
X03299*
X0234Y03926D02*
X02401D01*
X0284*
X01161Y04071D02*
X01161Y04071D01*
X01056Y04134D02*
X01078Y04156D01*
X01056Y04027D02*
Y04134D01*
X01092Y04104D02*
X01128D01*
X01133Y04099*
Y04064D02*
Y04099D01*
X01248Y03896D02*
X01317D01*
X01319Y03894*
X014Y0374D02*
X01522D01*
X0161Y03652*
X0228*
X01539Y03765D02*
X01615Y03689D01*
X0138Y04201D02*
X01407Y04175D01*
X0144Y03765D02*
X01539D01*
X01407Y03799D02*
X0144Y03765D01*
X01407Y03799D02*
Y04175D01*
X01462Y03599D02*
Y03643D01*
X01555Y03667D02*
X01573Y03648D01*
X01555Y03667D02*
Y03669D01*
X01388Y03751D02*
X014Y0374D01*
X01344Y03193D02*
Y0352D01*
X01388Y03564*
Y03751*
X01356Y03582D02*
X01366Y03592D01*
X01332Y04131D02*
X01366Y04097D01*
Y03592D02*
Y04097D01*
X0136Y04158D02*
X01387Y0413D01*
X01774Y03927D02*
X01821Y0388D01*
X01878*
X01885Y03874*
X01588Y03766D02*
Y03834D01*
Y03766D02*
X01683Y03672D01*
X0255*
X01654Y0427D02*
X01843D01*
X01588Y03834D02*
Y03921D01*
X01675Y03834D02*
Y03876D01*
X01499Y0401D02*
X01588Y03921D01*
X0152Y04031D02*
X01675Y03876D01*
X0152Y04031D02*
Y04236D01*
X01545Y04097D02*
Y04232D01*
X01549Y0405D02*
X0158Y04081D01*
X02224Y04135D02*
Y04184D01*
X0215Y04152D02*
Y04185D01*
X0175Y04079D02*
X01764Y04093D01*
X01999Y04141D02*
X02007Y04132D01*
X01768Y04125D02*
X01876D01*
X0158Y04081D02*
Y0424D01*
X01626Y04313D02*
X02087D01*
X01545Y04232D02*
X01626Y04313D01*
X02087D02*
X02096Y04305D01*
X0152Y04236D02*
X01623Y04338D01*
X02095*
X02151Y04282*
X0258Y03691D02*
X02602Y0367D01*
X01499Y0401D02*
Y04261D01*
X01595Y04358*
X02151*
X01664Y04294D02*
X01668Y0429D01*
X0158Y0424D02*
X01634Y04294D01*
X01664*
X01843Y0427D02*
X01871Y04243D01*
Y04188D02*
Y04243D01*
X01922Y04179D02*
Y04218D01*
Y04179D02*
X01988Y04113D01*
X01876Y04125D02*
X01895Y04143D01*
Y0423*
X01908Y04243*
X02339Y04111D02*
Y042D01*
X0326Y03736D02*
Y04077D01*
X03254Y04083D02*
X0326Y04077D01*
X02491Y04083D02*
X03254D01*
X02321Y04093D02*
X02339Y04111D01*
X01988Y04113D02*
X02201D01*
X02224Y04135*
X02007Y04132D02*
X0213D01*
X0215Y04152*
X01908Y04243D02*
X01975D01*
X01999Y04219*
Y04141D02*
Y04219D01*
X02435Y04085D02*
X0245D01*
X02483Y04053*
X02958*
X03118Y03893*
X02436Y04058D02*
X02477Y04016D01*
X02855*
X01387Y03752D02*
X01388Y03751D01*
X01387Y03752D02*
Y0413D01*
X03216Y03429D02*
X03389D01*
X01097Y02791D02*
Y02846D01*
X01208Y04158D02*
X0136D01*
X02113Y03545D02*
X02664D01*
X02127Y03487D02*
Y03498D01*
X02126Y03368D02*
Y03487D01*
X02104Y03536D02*
X02113Y03545D01*
X02097Y03438D02*
X02104Y03445D01*
X01988Y03439D02*
Y03466D01*
Y03439D02*
X01989Y03438D01*
X02097*
X01988Y03384D02*
Y03439D01*
X01638Y03453D02*
X01649D01*
X01695Y03499*
X01915*
X01937Y0352D02*
X02D01*
X0217Y0278D02*
Y02789D01*
X02043Y03482D02*
X02051Y0349D01*
Y03534*
X02016Y03568D02*
X02051Y03534D01*
X01322Y04131D02*
X01332D01*
X02104Y03445D02*
Y03536D01*
X02079Y03495D02*
Y03536D01*
X0204Y03575D02*
X02079Y03536D01*
X03134Y02167D02*
X03197Y02104D01*
X02126Y03487D02*
X02127D01*
X02284Y03789D02*
X02296Y03801D01*
X01625Y03121D02*
X01988D01*
X02035Y03168D02*
Y03214D01*
X02714Y02913D02*
X02758D01*
G54D53*
X02631Y03463D02*
X02662Y03433D01*
Y03225D02*
Y03433D01*
Y03225D02*
X02663Y03224D01*
Y0318D02*
Y03224D01*
X02601Y03118D02*
X02663Y0318D01*
X02131Y02783D02*
Y03137D01*
X02084Y02736D02*
X02131Y02783D01*
X01924Y02503D02*
X0194Y0252D01*
X01048Y02547D02*
Y02751D01*
Y02547D02*
X01099Y02496D01*
X01291*
X01046Y02753D02*
Y02789D01*
X00981Y02815D02*
X00993Y02802D01*
X01033*
X01046Y02789*
Y02753D02*
X01048Y02751D01*
X00998Y03046D02*
X01056Y03104D01*
X01339Y03036D02*
X01347Y03044D01*
X03761Y03541D02*
X03765Y03537D01*
X03751Y03762D02*
X03761Y03752D01*
Y03541D02*
Y03752D01*
X03751Y03762D02*
Y03995D01*
X03757Y03529D02*
X03765Y03537D01*
X03735Y03466D02*
X03757Y03488D01*
Y03529*
X03722Y03464D02*
X03724Y03466D01*
X03705Y03464D02*
X03722D01*
X03724Y03466D02*
X03735D01*
X02336Y02462D02*
X02384D01*
X024Y02478D02*
Y02712D01*
X02384Y02462D02*
X024Y02478D01*
X02267Y02439D02*
X02291Y02463D01*
X02335*
X02336Y02462*
X024Y02712D02*
X02424Y02736D01*
X02545*
X02267Y02439D02*
Y02625D01*
Y02389D02*
Y02439D01*
Y02389D02*
X02281Y02375D01*
X02265Y02319D02*
Y0236D01*
X02281Y02375*
X02265Y02319D02*
X02269Y02315D01*
X03274Y03295D02*
Y03306D01*
X03258Y03322D02*
X03274Y03306D01*
X03187Y03322D02*
X03258D01*
X02131Y03137D02*
X02196D01*
X02301Y03138D02*
X02311Y03128D01*
X02207Y03138D02*
X02301D01*
X02562Y02753D02*
Y02854D01*
X02545Y02736D02*
X02562Y02753D01*
X02586Y02236D02*
X02644D01*
X01492Y02563D02*
Y02636D01*
X0194Y0252D02*
Y02591D01*
X02199Y03464D02*
X02367D01*
X02365Y03267D02*
X02536D01*
X02997Y03322D02*
X03076D01*
Y03361*
X03067Y0337D02*
X03076Y03361D01*
X02997Y0337D02*
X03067D01*
X02365Y03266D02*
Y03267D01*
X02199Y03463D02*
Y03464D01*
X01782Y02225D02*
Y02273D01*
Y02225D02*
X01793Y02213D01*
X01911*
X02281Y02375D02*
X02355D01*
X02536Y03463D02*
X02631D01*
X0252Y02233D02*
X02583D01*
X02493Y02205D02*
X0252Y02233D01*
X02448Y02205D02*
X02493D01*
X02512Y02407D02*
X02586D01*
X02512Y02413D02*
Y02622D01*
X02447Y02413D02*
X02512D01*
X00977Y02312D02*
X00978Y02311D01*
Y02418D02*
Y02515D01*
Y02418D02*
X01107Y02289D01*
X0118*
X01209Y02259D02*
X01266Y02202D01*
X01209Y02259D02*
Y0226D01*
X0118Y02289D02*
X01209Y0226D01*
X01266Y02202D02*
X01267D01*
X01296Y02173*
X01291Y02496D02*
X01302Y02485D01*
Y02368D02*
Y02485D01*
X01947Y0277D02*
X01982Y02736D01*
X02084*
X01492Y02636D02*
X01541Y02686D01*
X01879*
X0194Y02625*
Y02591D02*
Y02625D01*
X02197Y02393D02*
Y02536D01*
X01929Y02695D02*
X02166D01*
X01895Y02729D02*
X01929Y02695D01*
X01606Y02729D02*
X01895D01*
X02182Y02552D02*
X02197Y02536D01*
X02182Y02552D02*
Y0268D01*
X02166Y02695D02*
X02182Y0268D01*
X03705Y04041D02*
X03751Y03995D01*
X03495Y02517D02*
Y02583D01*
X03686Y0224D02*
X03766Y02319D01*
X03641Y0224D02*
X03686D01*
X03495Y02517D02*
X035Y02511D01*
X03766Y02511*
X03493Y02652D02*
Y02795D01*
X03076Y03322D02*
X03187D01*
X02493Y03076D02*
X02534Y03118D01*
X02601*
X02493Y02924D02*
X02562Y02854D01*
X02493Y02924D02*
Y03076D01*
X03619Y04041D02*
X03705D01*
X03766Y02319D02*
Y02511D01*
X01056Y03104D02*
Y03621D01*
X01054Y03623D02*
X01056Y03621D01*
X01083Y03652D02*
X01129D01*
X01054Y03623D02*
X01083Y03652D01*
X01129D02*
X01227Y0375D01*
X01814Y0277D02*
X01947D01*
X02199Y0313D02*
Y03267D01*
X02311Y03073D02*
Y03128D01*
G54D54*
X0113Y02406D03*
Y02201D03*
X03369Y03934D03*
Y04034D03*
X01146Y02947D03*
Y02609D03*
X01489Y02798D03*
G54D55*
X03369Y03834D03*
G54D56*
X00981Y03287D03*
Y02815D03*
Y02933D03*
Y03051D03*
Y03169D03*
G54D57*
X00981Y02696D03*
G54D58*
X02414Y01944D03*
X02216Y02905D03*
G54D59*
X02414Y02023D03*
X02216Y02984D03*
G54D60*
X03751Y03762D03*
X03766Y02511D03*
G54D61*
X03851Y03862D03*
X03651D03*
Y03662D03*
X03851D03*
X03866Y02611D03*
X03666D03*
Y02411D03*
X03866D03*
G54D62*
X00978Y02515D03*
Y02311D03*
G54D63*
X01489Y02562D03*
G54D64*
X0322Y03075D03*
X03189D03*
X03441Y0288D03*
X03363Y03254D03*
X03743Y02818D03*
Y02795D03*
X01496Y03453D03*
X02693Y03238D03*
X02721Y02784D03*
X03494Y03742D03*
Y03716D03*
X03319Y03573D03*
X03346Y03572D03*
X02248Y04124D03*
X03032Y03806D03*
Y03834D03*
X01651Y03755D03*
X01949Y03555D03*
X02171Y02782D03*
X01063Y0396D03*
X02059Y02082D03*
X02083Y04054D03*
X02036Y04156D03*
X02084Y0397D03*
X03856Y03249D03*
X01077Y03068D03*
X01097Y02791D03*
X02197Y02393D03*
X03072Y0213D03*
X02284Y03791D03*
X01966Y03772D03*
X01815Y0343D03*
X01774Y04069D03*
X02443Y03571D03*
X01093Y03588D03*
X01964Y03894D03*
X01533Y0358D03*
X03338Y03331D03*
X03274Y03295D03*
X0295Y02721D03*
X02089Y0416D03*
X02653Y0389D03*
X02626Y03731D03*
X02738Y03582D03*
X0266Y03665D03*
X03129Y0399D03*
X02553Y03041D03*
X02711Y03547D03*
X02588Y03372D03*
X02383Y03644D03*
X02872Y03624D03*
X02459Y03994D03*
X02692Y03653D03*
X02602Y03671D03*
X02Y03519D03*
X02465Y03604D03*
X03141Y03893D03*
X03111Y04053D03*
X0272Y03639D03*
X03049Y03629D03*
X03055Y03598D03*
X02809Y03567D03*
X01727Y04162D03*
X01893Y04053D03*
X03636Y02734D03*
X03681Y0273D03*
X03056Y02905D03*
X03362Y03371D03*
X03577Y02897D03*
X03603Y02928D03*
X03422Y0316D03*
X03375Y03167D03*
X02738Y03238D03*
X02775D03*
X03509Y03458D03*
X01967Y03025D03*
X02993Y02309D03*
X03081Y02052D03*
X02503Y02823D03*
X02163Y03017D03*
X02722Y02687D03*
X02887Y024D03*
X02645Y02237D03*
X02624Y03001D03*
X02868Y02668D03*
X03155Y02519D03*
X0173Y0312D03*
X03248Y02167D03*
X03135Y02168D03*
X03388Y0343D03*
X01925Y02503D03*
X01954Y03481D03*
X01731Y02895D03*
X02765Y03095D03*
X03777Y0294D03*
X03047Y02675D03*
X01494Y03383D03*
X03403Y02986D03*
X01853Y02262D03*
X03157Y02686D03*
X02206Y03809D03*
X01814Y02769D03*
X01823Y02627D03*
X01474Y03178D03*
X01379Y03156D03*
X01556Y03667D03*
X0165Y02607D03*
X02667Y02851D03*
X02326Y03644D03*
X02567Y03083D03*
X03591Y03569D03*
X02312Y03174D03*
X02613Y03251D03*
X02401Y03926D03*
X03878Y03536D03*
X03435Y03249D03*
X03305Y03162D03*
X0204Y03578D03*
X02717Y02911D03*
X02873Y02707D03*
X03316Y03079D03*
X01092Y04104D03*
X01248Y03896D03*
X01319Y03894D03*
X01615Y03689D03*
X01356Y03582D03*
X01323Y04134D03*
X01654Y0427D03*
X01545Y04097D03*
X01549Y0405D03*
X01892Y04288D03*
X02096Y04303D03*
X01871Y04188D03*
X01922Y04218D03*
X02436Y04058D03*
X02435Y04085D03*
X02855Y04016D03*
X02127Y03498D03*
X01679Y03445D03*
X02043Y03482D03*
X02373Y03343D03*
X01194Y03226D03*
X02079Y03495D03*
X0281Y02483D03*
G54D65*
X0263Y02636D03*
Y02599D03*
Y02562D03*
X02729D03*
Y02599D03*
Y02636D03*
G54D66*
X01454Y04232D03*
X02064D03*
G54D67*
X01454Y03854D03*
G54D68*
X02029Y03854D03*
G54D69*
X01848Y03834D03*
X01805D03*
X01761D03*
X01718D03*
X01675D03*
X01631D03*
X01588D03*
X01545D03*
X01501D03*
G54D70*
X02053Y01948D03*
X01883D03*
G54D71*
X0286Y02809D03*
X02777Y02846D03*
Y02771D03*
G54D72*
X03619Y04039D03*
X0364Y02239D03*
G54D73*
X03558Y03981D03*
Y04097D03*
X03579Y02297D03*
Y02181D03*
G54D74*
X01598Y03555D03*
X01648D03*
X01698D03*
X01748D03*
X01798D03*
X01848D03*
X01898D03*
Y03361D03*
X01848D03*
X01798D03*
X01748D03*
X01698D03*
X01648D03*
X01598D03*
G54D75*
X03634Y02795D03*
X03587D03*
X0354D03*
X03493D03*
X03445D03*
X03398D03*
X03351D03*
X03304D03*
X03256D03*
X03209D03*
X03162D03*
X03115D03*
X03067D03*
X03634Y03519D03*
X03587D03*
X0354D03*
X03493D03*
X03445D03*
X03398D03*
X03351D03*
X03304D03*
X03256D03*
X03209D03*
X03162D03*
X03115D03*
X03067D03*
G54D76*
X03705Y0285D03*
Y02897D03*
Y02944D03*
Y02992D03*
Y03039D03*
Y03086D03*
Y03133D03*
Y03181D03*
Y03228D03*
Y03275D03*
Y03322D03*
Y0337D03*
Y03417D03*
Y03464D03*
X02997Y0285D03*
Y02897D03*
Y02944D03*
Y02992D03*
Y03039D03*
Y03086D03*
Y03133D03*
Y03181D03*
Y03228D03*
Y03275D03*
Y03322D03*
Y0337D03*
Y03417D03*
Y03464D03*
G54D77*
X03186Y02972D03*
G54D78*
X03276Y03232D03*
G54D79*
X01302Y02368D03*
Y02172D03*
X02199Y03267D03*
Y03463D03*
X02365Y03462D03*
Y03266D03*
X02536Y03267D03*
Y03463D03*
G54D80*
X02402Y02988D03*
G54D81*
X02402Y02828D03*
G54D82*
X02312Y03076D03*
G54D83*
X02493Y03076D03*
G54D84*
X02488Y03835D03*
Y03873D03*
X0259D03*
Y03798D03*
G54D85*
X02488Y03798D03*
G54D86*
X01225Y03741D03*
X01345Y02984D03*
G54D87*
X01135Y04023D03*
X01315D03*
X01255Y03266D03*
X01435D03*
G54D88*
X0286Y02447D03*
X0296D03*
X0306D03*
X0281D03*
X0291D03*
X0301D03*
G54D89*
X02728Y02362D03*
Y02283D03*
X03215D03*
Y02362D03*
G54D90*
X0273Y01907D03*
X03212D03*
G54D91*
X03068Y01929D03*
X02874D03*
G54D92*
X0194Y02591D03*
X0186Y02626D03*
Y02556D03*
G54D93*
X01911Y02163D03*
Y02213D03*
Y02263D03*
Y02313D03*
Y02363D03*
Y02413D03*
Y02463D03*
X02105D03*
Y02413D03*
Y02363D03*
Y02313D03*
Y02263D03*
Y02213D03*
Y02163D03*
G54D94*
X01585Y02834D03*
X01635D03*
X01685D03*
X01735D03*
X01785D03*
X01835D03*
X01885D03*
X01935D03*
X01985D03*
X02035D03*
Y0321D03*
X01985D03*
X01935D03*
X01885D03*
X01835D03*
X01785D03*
X01735D03*
X01685D03*
X01635D03*
X01585D03*
G54D95*
X02515Y02625D03*
X02267D03*
G54D96*
X02447Y02413D03*
Y02375D03*
Y02338D03*
X02355D03*
Y02375D03*
Y02413D03*
G54D97*
X01276Y02562D03*
X01376D03*
X01276Y02809D03*
X01376D03*
G54D98*
X01142Y03504D03*
Y03404D03*
X01388Y03504D03*
Y03404D03*
G54D99*
X03765Y03537D03*
X03842D03*
G54D100*
X01294Y03035D02*
X01345Y02984D01*
X01083Y03035D02*
X01294D01*
X00981Y02933D02*
X01076Y03028D01*
M02*