%FSTAX23Y23*%
%MOIN*%
%SFA1B1*%

%IPPOS*%
%AMD70*
4,1,8,0.021200,0.011600,-0.021200,0.011600,-0.027000,0.005800,-0.027000,-0.005800,-0.021200,-0.011600,0.021200,-0.011600,0.027000,-0.005800,0.027000,0.005800,0.021200,0.011600,0.0*
1,1,0.011620,0.021200,0.005800*
1,1,0.011620,-0.021200,0.005800*
1,1,0.011620,-0.021200,-0.005800*
1,1,0.011620,0.021200,-0.005800*
%
%AMD81*
4,1,8,0.027100,0.012800,-0.027100,0.012800,-0.033500,0.006400,-0.033500,-0.006400,-0.027100,-0.012800,0.027100,-0.012800,0.033500,-0.006400,0.033500,0.006400,0.027100,0.012800,0.0*
1,1,0.012800,0.027100,0.006400*
1,1,0.012800,-0.027100,0.006400*
1,1,0.012800,-0.027100,-0.006400*
1,1,0.012800,0.027100,-0.006400*
%
%AMD93*
4,1,8,0.021300,0.011800,-0.021300,0.011800,-0.024200,0.008900,-0.024200,-0.008900,-0.021300,-0.011800,0.021300,-0.011800,0.024200,-0.008900,0.024200,0.008900,0.021300,0.011800,0.0*
1,1,0.005900,0.021300,0.008900*
1,1,0.005900,-0.021300,0.008900*
1,1,0.005900,-0.021300,-0.008900*
1,1,0.005900,0.021300,-0.008900*
%
%AMD99*
4,1,8,-0.021000,-0.011400,0.021000,-0.011400,0.023800,-0.008600,0.023800,0.008600,0.021000,0.011400,-0.021000,0.011400,-0.023800,0.008600,-0.023800,-0.008600,-0.021000,-0.011400,0.0*
1,1,0.005700,-0.021000,-0.008600*
1,1,0.005700,0.021000,-0.008600*
1,1,0.005700,0.021000,0.008600*
1,1,0.005700,-0.021000,0.008600*
%
%ADD17R,0.051180X0.059050*%
%ADD22R,0.059050X0.051180*%
%ADD24R,0.055120X0.039370*%
%ADD25R,0.039370X0.055120*%
%ADD28R,0.043310X0.055120*%
%ADD41R,0.043310X0.049210*%
%ADD42R,0.083460X0.089760*%
%ADD54C,0.082000*%
%ADD55C,0.080000*%
%ADD56C,0.078740*%
%ADD57R,0.078740X0.078740*%
%ADD58C,0.051180*%
%ADD59R,0.051180X0.051180*%
%ADD60C,0.070870*%
%ADD61C,0.090550*%
%ADD62R,0.090550X0.090550*%
%ADD63R,0.078740X0.078740*%
%ADD65R,0.043310X0.041340*%
%ADD66R,0.088580X0.043310*%
%ADD67R,0.050590X0.057870*%
%ADD68R,0.047240X0.031500*%
%ADD69R,0.031500X0.047240*%
G04~CAMADD=70~8~0.0~0.0~539.4~232.3~58.1~0.0~15~0.0~0.0~0.0~0.0~0~0.0~0.0~0.0~0.0~0~0.0~0.0~0.0~0.0~539.4~232.3*
%ADD70D70*%
%ADD71R,0.059050X0.086610*%
%ADD72R,0.021000X0.071000*%
%ADD73R,0.078000X0.020000*%
%ADD74R,0.045000X0.040000*%
%ADD75R,0.021260X0.031500*%
%ADD76R,0.039370X0.051180*%
%ADD77R,0.062990X0.066930*%
%ADD78R,0.025590X0.045280*%
%ADD79R,0.062990X0.118110*%
%ADD80R,0.228350X0.244100*%
G04~CAMADD=81~8~0.0~0.0~669.3~255.9~64.0~0.0~15~0.0~0.0~0.0~0.0~0~0.0~0.0~0.0~0.0~0~0.0~0.0~0.0~0.0~669.3~255.9*
%ADD81D81*%
%ADD82R,0.066930X0.025590*%
%ADD83R,0.059050X0.078740*%
%ADD84R,0.059050X0.078740*%
%ADD85R,0.149610X0.078740*%
%ADD86R,0.059050X0.255900*%
%ADD87R,0.107990X0.110240*%
%ADD88R,0.059050X0.059050*%
%ADD89R,0.118110X0.118110*%
%ADD90O,0.062990X0.031500*%
%ADD91O,0.031500X0.062990*%
%ADD92R,0.020000X0.078000*%
G04~CAMADD=93~8~0.0~0.0~484.2~236.2~29.5~0.0~15~0.0~0.0~0.0~0.0~0~0.0~0.0~0.0~0.0~0~0.0~0.0~0.0~0.0~484.2~236.2*
%ADD93D93*%
%ADD94R,0.089760X0.083460*%
%ADD95R,0.027560X0.062990*%
%ADD96R,0.062990X0.055120*%
%ADD97R,0.047240X0.055120*%
%ADD98R,0.047240X0.086610*%
G04~CAMADD=99~8~0.0~0.0~476.4~228.4~28.5~0.0~15~0.0~0.0~0.0~0.0~0~0.0~0.0~0.0~0.0~0~0.0~0.0~0.0~180.0~476.0~228.0*
%ADD99D99*%
%LNtcs-1900-1*%
%LPD*%
G54D17*
X03799Y03326D03*
X03874D03*
X03792Y03021D03*
X03867D03*
X02833Y02913D03*
X02758D03*
X02832Y0299D03*
X02757D03*
X01091Y02845D03*
X01166D03*
X01214Y04156D03*
X01139D03*
X01223Y03569D03*
X01148D03*
X01781Y02626D03*
X01706D03*
X02117Y02643D03*
X02042D03*
X02117Y02554D03*
X02042D03*
X01781Y02287D03*
X01706D03*
X0171Y02423D03*
X01785D03*
X03306Y02185D03*
X0338D03*
X03307Y02104D03*
X03381D03*
X0171Y02509D03*
X01785D03*
G54D22*
X03495Y02658D03*
Y02583D03*
X01171Y02688D03*
Y02763D03*
X01137Y03255D03*
Y0333D03*
Y03181D03*
Y03106D03*
X01542Y02423D03*
Y02348D03*
X01455Y02423D03*
Y02348D03*
X01035Y03816D03*
Y03742D03*
X01468Y03525D03*
Y036D03*
X02269Y02315D03*
Y02241D03*
X02448Y02205D03*
Y0228D03*
X02365D03*
Y02205D03*
X02585Y02015D03*
Y0209D03*
G54D24*
X02912Y02625D03*
Y02551D03*
X03075Y02625D03*
Y02551D03*
X02828Y02625D03*
Y02551D03*
X02994Y02552D03*
Y02626D03*
X02196Y03137D03*
Y03062D03*
X02339Y04275D03*
Y042D03*
G54D25*
X02403Y03801D03*
X02328D03*
X02404Y03877D03*
X02329D03*
X02226Y04358D03*
X02151D03*
X02226Y04274D03*
X02151D03*
X02225Y04185D03*
X0215D03*
X02725Y03871D03*
X028D03*
G54D28*
X02203Y03863D03*
X02128D03*
X02131Y03953D03*
X02206D03*
G54D41*
X03782Y03099D03*
X0388D03*
X00957Y04027D03*
X01056D03*
X00956Y03896D03*
X01055D03*
G54D42*
X02586Y02236D03*
Y02407D03*
G54D54*
X03866Y02411D03*
X03666D03*
Y02611D03*
X03866D03*
X03851Y03662D03*
X03651D03*
Y03862D03*
X03851D03*
G54D55*
X03766Y02511D03*
X03751Y03762D03*
G54D56*
X01489Y02798D03*
X01146Y02609D03*
Y02947D03*
X03369Y04034D03*
Y03934D03*
X0113Y02201D03*
Y02406D03*
G54D57*
X01489Y02562D03*
G54D58*
X02216Y02905D03*
X02414Y01944D03*
G54D59*
X02216Y02984D03*
X02414Y02023D03*
G54D60*
X00978Y02311D03*
Y02515D03*
G54D61*
X00981Y03169D03*
Y03051D03*
Y02933D03*
Y02815D03*
Y03287D03*
G54D62*
X00981Y02696D03*
G54D63*
X03369Y03834D03*
G54D65*
X0364Y02239D03*
X03619Y04039D03*
G54D66*
X03579Y02181D03*
Y02297D03*
X03558Y04097D03*
Y03981D03*
G54D67*
X03842Y03537D03*
X03765D03*
G54D68*
X01388Y03404D03*
Y03504D03*
X01142Y03404D03*
Y03504D03*
G54D69*
X01376Y02809D03*
X01276D03*
X01376Y02562D03*
X01276D03*
G54D70*
X02355Y02413D03*
Y02375D03*
Y02338D03*
X02447D03*
Y02375D03*
Y02413D03*
G54D71*
X02267Y02625D03*
X02515D03*
G54D72*
X01585Y0321D03*
X01635D03*
X01685D03*
X01735D03*
X01785D03*
X01835D03*
X01885D03*
X01935D03*
X01985D03*
X02035D03*
Y02834D03*
X01985D03*
X01935D03*
X01885D03*
X01835D03*
X01785D03*
X01735D03*
X01685D03*
X01635D03*
X01585D03*
G54D73*
X02105Y02163D03*
Y02213D03*
Y02263D03*
Y02313D03*
Y02363D03*
Y02413D03*
Y02463D03*
X01911D03*
Y02413D03*
Y02363D03*
Y02313D03*
Y02263D03*
Y02213D03*
Y02163D03*
G54D74*
X0186Y02556D03*
Y02626D03*
X0194Y02591D03*
G54D75*
X02874Y01929D03*
X03068D03*
G54D76*
X03215Y02362D03*
Y02283D03*
X02728D03*
Y02362D03*
G54D77*
X03212Y01907D03*
X0273D03*
G54D78*
X0301Y02447D03*
X0291D03*
X0281D03*
X0306D03*
X0296D03*
X0286D03*
G54D79*
X01435Y03266D03*
X01255D03*
X01315Y04023D03*
X01135D03*
G54D80*
X01345Y02984D03*
X01225Y03741D03*
G54D81*
X0259Y03798D03*
Y03873D03*
X02488D03*
Y03835D03*
G54D82*
X02488Y03798D03*
G54D83*
X02493Y03076D03*
G54D84*
X02312Y03076D03*
G54D85*
X02402Y02828D03*
G54D86*
X02402Y02988D03*
G54D87*
X02536Y03463D03*
Y03267D03*
X02365Y03266D03*
Y03462D03*
X02199Y03463D03*
Y03267D03*
X01302Y02172D03*
Y02368D03*
G54D88*
X03276Y03232D03*
G54D89*
X03186Y02972D03*
G54D90*
X02997Y03464D03*
Y03417D03*
Y0337D03*
Y03322D03*
Y03275D03*
Y03228D03*
Y03181D03*
Y03133D03*
Y03086D03*
Y03039D03*
Y02992D03*
Y02944D03*
Y02897D03*
Y0285D03*
X03705Y03464D03*
Y03417D03*
Y0337D03*
Y03322D03*
Y03275D03*
Y03228D03*
Y03181D03*
Y03133D03*
Y03086D03*
Y03039D03*
Y02992D03*
Y02944D03*
Y02897D03*
Y0285D03*
G54D91*
X03067Y03519D03*
X03115D03*
X03162D03*
X03209D03*
X03256D03*
X03304D03*
X03351D03*
X03398D03*
X03445D03*
X03493D03*
X0354D03*
X03587D03*
X03634D03*
X03067Y02795D03*
X03115D03*
X03162D03*
X03209D03*
X03256D03*
X03304D03*
X03351D03*
X03398D03*
X03445D03*
X03493D03*
X0354D03*
X03587D03*
X03634D03*
G54D92*
X01598Y03361D03*
X01648D03*
X01698D03*
X01748D03*
X01798D03*
X01848D03*
X01898D03*
Y03555D03*
X01848D03*
X01798D03*
X01748D03*
X01698D03*
X01648D03*
X01598D03*
G54D93*
X02777Y02771D03*
Y02846D03*
X0286Y02809D03*
G54D94*
X01883Y01948D03*
X02053D03*
G54D95*
X01501Y03834D03*
X01545D03*
X01588D03*
X01631D03*
X01675D03*
X01718D03*
X01761D03*
X01805D03*
X01848D03*
G54D96*
X02029Y03854D03*
G54D97*
X01454Y03854D03*
G54D98*
X02064Y04232D03*
X01454D03*
G54D99*
X02729Y02636D03*
Y02599D03*
Y02562D03*
X0263D03*
Y02599D03*
Y02636D03*
M02*