%FSTAX23Y23*%
%MOIN*%
%SFA1B1*%

%IPPOS*%
%AMD65*
4,1,8,-0.021000,-0.011400,0.021000,-0.011400,0.023800,-0.008600,0.023800,0.008600,0.021000,0.011400,-0.021000,0.011400,-0.023800,0.008600,-0.023800,-0.008600,-0.021000,-0.011400,0.0*
1,1,0.005700,-0.021000,-0.008600*
1,1,0.005700,0.021000,-0.008600*
1,1,0.005700,0.021000,0.008600*
1,1,0.005700,-0.021000,0.008600*
%
%AMD71*
4,1,8,0.021300,0.011800,-0.021300,0.011800,-0.024200,0.008900,-0.024200,-0.008900,-0.021300,-0.011800,0.021300,-0.011800,0.024200,-0.008900,0.024200,0.008900,0.021300,0.011800,0.0*
1,1,0.005900,0.021300,0.008900*
1,1,0.005900,-0.021300,0.008900*
1,1,0.005900,-0.021300,-0.008900*
1,1,0.005900,0.021300,-0.008900*
%
%AMD84*
4,1,8,0.027100,0.012800,-0.027100,0.012800,-0.033500,0.006400,-0.033500,-0.006400,-0.027100,-0.012800,0.027100,-0.012800,0.033500,-0.006400,0.033500,0.006400,0.027100,0.012800,0.0*
1,1,0.012800,0.027100,0.006400*
1,1,0.012800,-0.027100,0.006400*
1,1,0.012800,-0.027100,-0.006400*
1,1,0.012800,0.027100,-0.006400*
%
%AMD96*
4,1,8,-0.021200,-0.011600,0.021200,-0.011600,0.027000,-0.005800,0.027000,0.005800,0.021200,0.011600,-0.021200,0.011600,-0.027000,0.005800,-0.027000,-0.005800,-0.021200,-0.011600,0.0*
1,1,0.011620,-0.021200,-0.005800*
1,1,0.011620,0.021200,-0.005800*
1,1,0.011620,0.021200,0.005800*
1,1,0.011620,-0.021200,0.005800*
%
%ADD18R,0.051180X0.059050*%
%ADD19R,0.059050X0.051180*%
%ADD24R,0.039370X0.055120*%
%ADD25R,0.083460X0.089760*%
%ADD26R,0.043310X0.049210*%
%ADD28R,0.043310X0.055120*%
%ADD35R,0.055120X0.039370*%
%ADD54C,0.078740*%
%ADD55R,0.078740X0.078740*%
%ADD56C,0.090550*%
%ADD57R,0.090550X0.090550*%
%ADD58C,0.051180*%
%ADD59R,0.051180X0.051180*%
%ADD60C,0.080000*%
%ADD61C,0.082000*%
%ADD62C,0.070870*%
%ADD63R,0.078740X0.078740*%
G04~CAMADD=65~8~0.0~0.0~476.4~228.4~28.5~0.0~15~0.0~0.0~0.0~0.0~0~0.0~0.0~0.0~0.0~0~0.0~0.0~0.0~180.0~476.0~228.0*
%ADD65D65*%
%ADD66R,0.047240X0.086610*%
%ADD67R,0.047240X0.055120*%
%ADD68R,0.062990X0.055120*%
%ADD69R,0.027560X0.062990*%
%ADD70R,0.089760X0.083460*%
G04~CAMADD=71~8~0.0~0.0~484.2~236.2~29.5~0.0~15~0.0~0.0~0.0~0.0~0~0.0~0.0~0.0~0.0~0~0.0~0.0~0.0~0.0~484.2~236.2*
%ADD71D71*%
%ADD72R,0.043310X0.041340*%
%ADD73R,0.088580X0.043310*%
%ADD74R,0.020000X0.078000*%
%ADD75O,0.031500X0.062990*%
%ADD76O,0.062990X0.031500*%
%ADD77R,0.118110X0.118110*%
%ADD78R,0.059050X0.059050*%
%ADD79R,0.107990X0.110240*%
%ADD80R,0.059050X0.255900*%
%ADD81R,0.149610X0.078740*%
%ADD82R,0.059050X0.078740*%
%ADD83R,0.059050X0.078740*%
G04~CAMADD=84~8~0.0~0.0~669.3~255.9~64.0~0.0~15~0.0~0.0~0.0~0.0~0~0.0~0.0~0.0~0.0~0~0.0~0.0~0.0~0.0~669.3~255.9*
%ADD84D84*%
%ADD85R,0.066930X0.025590*%
%ADD86R,0.228350X0.244100*%
%ADD87R,0.062990X0.118110*%
%ADD88R,0.025590X0.045280*%
%ADD89R,0.039370X0.051180*%
%ADD90R,0.062990X0.066930*%
%ADD91R,0.021260X0.031500*%
%ADD92R,0.045000X0.040000*%
%ADD93R,0.078000X0.020000*%
%ADD94R,0.021000X0.071000*%
%ADD95R,0.059050X0.086610*%
G04~CAMADD=96~8~0.0~0.0~539.4~232.3~58.1~0.0~15~0.0~0.0~0.0~0.0~0~0.0~0.0~0.0~0.0~0~0.0~0.0~0.0~180.0~540.0~232.0*
%ADD96D96*%
%ADD97R,0.031500X0.047240*%
%ADD98R,0.047240X0.031500*%
%ADD99R,0.050590X0.057870*%
%LNtcs-1900-1*%
%LPD*%
G54D18*
X01785Y02509D03*
X0171D03*
X03381Y02104D03*
X03307D03*
X0338Y02185D03*
X03306D03*
X01785Y02423D03*
X0171D03*
X01706Y02287D03*
X01781D03*
X02042Y02554D03*
X02117D03*
X02042Y02643D03*
X02117D03*
X01706Y02626D03*
X01781D03*
X01148Y03569D03*
X01223D03*
X01139Y04156D03*
X01214D03*
X01166Y02845D03*
X01091D03*
X02757Y0299D03*
X02832D03*
X02758Y02913D03*
X02833D03*
X03867Y03021D03*
X03792D03*
X03874Y03326D03*
X03799D03*
G54D19*
X02585Y0209D03*
Y02015D03*
X02365Y02205D03*
Y0228D03*
X02448D03*
Y02205D03*
X02269Y02241D03*
Y02315D03*
X01468Y036D03*
Y03525D03*
X01035Y03742D03*
Y03816D03*
X01455Y02348D03*
Y02423D03*
X01542Y02348D03*
Y02423D03*
X01137Y03106D03*
Y03181D03*
Y0333D03*
Y03255D03*
X01171Y02763D03*
Y02688D03*
X03495Y02583D03*
Y02658D03*
G54D24*
X028Y03871D03*
X02725D03*
X0215Y04185D03*
X02225D03*
X02151Y04274D03*
X02226D03*
X02151Y04358D03*
X02226D03*
X02329Y03877D03*
X02404D03*
X02328Y03801D03*
X02403D03*
G54D25*
X02586Y02407D03*
Y02236D03*
G54D26*
X01055Y03896D03*
X00956D03*
X01056Y04027D03*
X00957D03*
X0388Y03099D03*
X03782D03*
G54D28*
X02206Y03953D03*
X02131D03*
X02128Y03863D03*
X02203D03*
G54D35*
X02339Y042D03*
Y04275D03*
X02196Y03062D03*
Y03137D03*
X02994Y02626D03*
Y02552D03*
X02828Y02551D03*
Y02625D03*
X03075Y02551D03*
Y02625D03*
X02912Y02551D03*
Y02625D03*
G54D54*
X0113Y02406D03*
Y02201D03*
X03369Y03934D03*
Y04034D03*
X01146Y02947D03*
Y02609D03*
X01489Y02798D03*
G54D55*
X03369Y03834D03*
G54D56*
X00981Y03287D03*
Y02815D03*
Y02933D03*
Y03051D03*
Y03169D03*
G54D57*
X00981Y02696D03*
G54D58*
X02414Y01944D03*
X02216Y02905D03*
G54D59*
X02414Y02023D03*
X02216Y02984D03*
G54D60*
X03751Y03762D03*
X03766Y02511D03*
G54D61*
X03851Y03862D03*
X03651D03*
Y03662D03*
X03851D03*
X03866Y02611D03*
X03666D03*
Y02411D03*
X03866D03*
G54D62*
X00978Y02515D03*
Y02311D03*
G54D63*
X01489Y02562D03*
G54D65*
X0263Y02636D03*
Y02599D03*
Y02562D03*
X02729D03*
Y02599D03*
Y02636D03*
G54D66*
X01454Y04232D03*
X02064D03*
G54D67*
X01454Y03854D03*
G54D68*
X02029Y03854D03*
G54D69*
X01848Y03834D03*
X01805D03*
X01761D03*
X01718D03*
X01675D03*
X01631D03*
X01588D03*
X01545D03*
X01501D03*
G54D70*
X02053Y01948D03*
X01883D03*
G54D71*
X0286Y02809D03*
X02777Y02846D03*
Y02771D03*
G54D72*
X03619Y04039D03*
X0364Y02239D03*
G54D73*
X03558Y03981D03*
Y04097D03*
X03579Y02297D03*
Y02181D03*
G54D74*
X01598Y03555D03*
X01648D03*
X01698D03*
X01748D03*
X01798D03*
X01848D03*
X01898D03*
Y03361D03*
X01848D03*
X01798D03*
X01748D03*
X01698D03*
X01648D03*
X01598D03*
G54D75*
X03634Y02795D03*
X03587D03*
X0354D03*
X03493D03*
X03445D03*
X03398D03*
X03351D03*
X03304D03*
X03256D03*
X03209D03*
X03162D03*
X03115D03*
X03067D03*
X03634Y03519D03*
X03587D03*
X0354D03*
X03493D03*
X03445D03*
X03398D03*
X03351D03*
X03304D03*
X03256D03*
X03209D03*
X03162D03*
X03115D03*
X03067D03*
G54D76*
X03705Y0285D03*
Y02897D03*
Y02944D03*
Y02992D03*
Y03039D03*
Y03086D03*
Y03133D03*
Y03181D03*
Y03228D03*
Y03275D03*
Y03322D03*
Y0337D03*
Y03417D03*
Y03464D03*
X02997Y0285D03*
Y02897D03*
Y02944D03*
Y02992D03*
Y03039D03*
Y03086D03*
Y03133D03*
Y03181D03*
Y03228D03*
Y03275D03*
Y03322D03*
Y0337D03*
Y03417D03*
Y03464D03*
G54D77*
X03186Y02972D03*
G54D78*
X03276Y03232D03*
G54D79*
X01302Y02368D03*
Y02172D03*
X02199Y03267D03*
Y03463D03*
X02365Y03462D03*
Y03266D03*
X02536Y03267D03*
Y03463D03*
G54D80*
X02402Y02988D03*
G54D81*
X02402Y02828D03*
G54D82*
X02312Y03076D03*
G54D83*
X02493Y03076D03*
G54D84*
X02488Y03835D03*
Y03873D03*
X0259D03*
Y03798D03*
G54D85*
X02488Y03798D03*
G54D86*
X01225Y03741D03*
X01345Y02984D03*
G54D87*
X01135Y04023D03*
X01315D03*
X01255Y03266D03*
X01435D03*
G54D88*
X0286Y02447D03*
X0296D03*
X0306D03*
X0281D03*
X0291D03*
X0301D03*
G54D89*
X02728Y02362D03*
Y02283D03*
X03215D03*
Y02362D03*
G54D90*
X0273Y01907D03*
X03212D03*
G54D91*
X03068Y01929D03*
X02874D03*
G54D92*
X0194Y02591D03*
X0186Y02626D03*
Y02556D03*
G54D93*
X01911Y02163D03*
Y02213D03*
Y02263D03*
Y02313D03*
Y02363D03*
Y02413D03*
Y02463D03*
X02105D03*
Y02413D03*
Y02363D03*
Y02313D03*
Y02263D03*
Y02213D03*
Y02163D03*
G54D94*
X01585Y02834D03*
X01635D03*
X01685D03*
X01735D03*
X01785D03*
X01835D03*
X01885D03*
X01935D03*
X01985D03*
X02035D03*
Y0321D03*
X01985D03*
X01935D03*
X01885D03*
X01835D03*
X01785D03*
X01735D03*
X01685D03*
X01635D03*
X01585D03*
G54D95*
X02515Y02625D03*
X02267D03*
G54D96*
X02447Y02413D03*
Y02375D03*
Y02338D03*
X02355D03*
Y02375D03*
Y02413D03*
G54D97*
X01276Y02562D03*
X01376D03*
X01276Y02809D03*
X01376D03*
G54D98*
X01142Y03504D03*
Y03404D03*
X01388Y03504D03*
Y03404D03*
G54D99*
X03765Y03537D03*
X03842D03*
M02*