%FSTAX23Y23*%
%MOIN*%
%SFA1B1*%

%IPPOS*%
%ADD9500C,0.011810*%
%ADD9501C,0.027560*%
%ADD9502C,0.031500*%
%ADD9503C,0.039370*%
%ADD9504C,0.060000*%
%ADD9505C,0.063000*%
%ADD9506C,0.039370*%
%LNtcs-1900-1*%
%LPD*%
G54D9500*
X03135Y02168D03*
X03248Y02167D03*
X03155Y02519D03*
X03157Y02686D03*
X03636Y02734D03*
X03681Y0273D03*
X03577Y02897D03*
X03603Y02928D03*
X03777Y0294D03*
X03403Y02986D03*
X03316Y03079D03*
X03056Y02905D03*
X03047Y02675D03*
X0295Y02721D03*
X02873Y02707D03*
X02868Y02668D03*
X02722Y02687D03*
X02721Y02806D03*
X02667Y02851D03*
X02717Y02911D03*
X02624Y03001D03*
X02553Y03041D03*
X02567Y03083D03*
X02765Y03095D03*
X02503Y02823D03*
X02163Y02797D03*
Y03017D03*
X01967Y03025D03*
X0173Y0312D03*
X01731Y02895D03*
X01814Y02769D03*
X01823Y02627D03*
X0165Y02607D03*
X01925Y02503D03*
X01853Y02262D03*
X02059Y02082D03*
X02197Y02393D03*
X02645Y02237D03*
X02887Y024D03*
X02993Y02309D03*
X03072Y0213D03*
X03081Y02052D03*
X01097Y02791D03*
X01077Y03068D03*
X01379Y03156D03*
X01474Y03178D03*
X01494Y03383D03*
X01496Y03471D03*
X01533Y0358D03*
X01556Y03667D03*
X01356Y03582D03*
X01093Y03588D03*
X01063Y0396D03*
X01092Y04104D03*
X01323Y04134D03*
X01319Y03894D03*
X01248Y03896D03*
X01549Y0405D03*
X01545Y04097D03*
X01727Y04162D03*
X01774Y04069D03*
X01893Y04053D03*
X01871Y04188D03*
X01922Y04218D03*
X01892Y04288D03*
X02096Y04303D03*
X02089Y0416D03*
X02036Y04156D03*
X02083Y04054D03*
X02084Y0397D03*
X01964Y03894D03*
X01966Y03772D03*
X0204Y03578D03*
X02052Y03505D03*
X02025Y03483D03*
X02Y03519D03*
X01954Y03481D03*
X02106Y03497D03*
X01815Y0343D03*
X01615Y03689D03*
X01654Y0427D03*
X02435Y04085D03*
X02436Y04058D03*
X02459Y03994D03*
X02401Y03926D03*
X02284Y03791D03*
X02206Y03809D03*
X02326Y03644D03*
X02383D03*
X02465Y03604D03*
X02443Y03571D03*
X02602Y03671D03*
X0266Y03665D03*
X02692Y03653D03*
X0272Y03639D03*
X02738Y03582D03*
X02711Y03547D03*
X02809Y03567D03*
X02872Y03624D03*
X03049Y03629D03*
X03055Y03598D03*
X03111Y04053D03*
X02855Y04016D03*
X02653Y0389D03*
X02626Y03731D03*
X02588Y03372D03*
X02613Y03251D03*
X02693Y03238D03*
X02738D03*
X02775D03*
X02312Y03174D03*
X03305Y03162D03*
X03375Y03167D03*
X03422Y0316D03*
X03435Y03249D03*
X03338Y03331D03*
X03362Y03371D03*
X03388Y0343D03*
X03509Y03458D03*
X03591Y03569D03*
X03878Y03536D03*
X03856Y03249D03*
X03274Y03295D03*
X03141Y03893D03*
X03129Y0399D03*
G54D9501*
X02414Y01944D03*
Y02023D03*
X02216Y02905D03*
Y02984D03*
X0113Y02406D03*
Y02201D03*
G54D9502*
X00978Y02311D03*
Y02515D03*
G54D9503*
X00981Y02696D03*
Y02815D03*
Y02933D03*
Y03051D03*
X01146Y02947D03*
Y02609D03*
X01489Y02562D03*
Y02798D03*
X00981Y03169D03*
X03369Y03834D03*
Y03934D03*
Y04034D03*
G54D9504*
X03766Y02511D03*
X03751Y03762D03*
G54D9505*
X03666Y02411D03*
X03866D03*
Y02611D03*
X03666D03*
X03651Y03662D03*
X03851D03*
Y03862D03*
X03651D03*
G54D9506*
X00981Y03287D03*
M02*