M48
;Layer_Color=9474304
;FILE_FORMAT=2:5
INCH,TZ
;TYPE=PLATED
T1F00S00C0.01181
T2F00S00C0.02756
T3F00S00C0.03150
T4F00S00C0.03937
T5F00S00C0.06000
T6F00S00C0.06300
;TYPE=NON_PLATED
T7F00S00C0.03937
%
T01
X313583Y216831
X324803Y216732
X315551Y251969
X315748Y268602
X318996Y307579
X322047
X331693Y307972
X340354Y298622
X344193Y288090
X357776Y289764
X360335Y292815
X377756Y294094
X374311Y281890
Y279528
X368110Y273031
X363681Y273425
X304724Y267520
X295079Y272146
X287303Y270768
X286811Y266831
X272244Y268701
X272146Y278448
X266732Y285138
X271752Y291142
X262402Y300197
X255315Y304134
X256791Y308366
X276575Y309547
X305610Y290551
X250394Y282382
X217126Y278208
X216339Y301772
X196752Y302559
X173031Y312008
X173130Y289567
X181496Y276969
X182382Y262795
X165059Y260728
X192520Y250394
X185335Y226279
X205906Y208268
X219783Y239370
X264567Y223721
X288779Y240059
X281004Y248327
X299311Y230906
X307283Y213090
X308169Y205217
X109746Y279136
X107776Y306890
X119488Y322638
X137992Y315650
X147441Y317815
X149409Y338386
X149606Y345339
X153347Y358071
X155610Y366732
X135630Y358268
X109350Y358858
X106398Y396063
X109252Y410433
X132382Y413484
X131988Y389469
X124803Y389665
X154921Y405020
X154528Y409744
X172736Y416240
X177461Y406988
X189370Y405315
X187106Y418898
X192224Y421850
X189272Y428839
X209646Y430315
X208957Y416043
X203642Y415650
X208349Y405423
X208465Y397047
X196457Y389469
X196653Y377264
X194980Y355512
X195472Y348130
X200000Y351969
X204331Y348228
X207970Y349508
X212795Y349803
X204035Y357874
X232677Y364469
X238386
X246555Y360433
X244390Y357185
X260236Y367126
X266043Y366535
X269291Y365354
X272047Y363976
X273819Y358268
X271161Y354724
X280906Y356791
X287205Y362402
X304921Y362992
X305512Y359842
X303248Y380610
X303248Y383465
X311122Y405315
X285531Y401673
X265354Y389075
X262671Y373124
X258858Y337205
X261319Y325197
X269390Y323819
X273819
X277559
X237303Y334350
X231201Y317421
X228445Y379134
X220669Y380906
X240158Y392618
X245965Y399410
X243602Y405807
X243516Y408583
X224803Y412402
X165496Y427067
X165157Y375590
X161516Y368996
X167913Y344587
X181595Y343012
X338878Y343012
X336221Y337106
X333850Y333161
X327461Y329528
X336319Y325492
X343504Y324902
X342224Y316043
X337598Y316732
X330512Y316240
X331988Y357382
X334646Y357283
X359154Y356988
X350984Y345866
X349410Y371654
Y374213
X314173Y389370
X312992Y399016
X387894Y353642
X385630Y324902
T02
X241437Y194488
Y202362
X221654Y290551
Y298425
X113091Y240650
Y220177
T03
X97835Y231102
Y251575
T04
X98122Y269693
Y281504
Y293315
Y305126
X114665Y294783
Y260925
X148917Y256201
Y279823
X98122Y316937
X336910Y383405
Y393406
Y403406
T05
X376614Y251122
X375197Y376279
T06
X366614Y241122
Y261122
X386614
Y241122
X385197Y366280
Y386280
X365197
Y366280
T07
X98122Y328748
M30
