G04 Layer_Color=16711935*
%FSLAX25Y25*%
%MOIN*%
G70*
G01*
G75*
%ADD103C,0.01000*%
%ADD104C,0.00000*%
D103*
X139094Y429331D02*
X139025Y430317D01*
X138820Y431284D01*
X138482Y432213D01*
X138018Y433086D01*
X137436Y433886D01*
X136750Y434597D01*
X135971Y435206D01*
X135114Y435700D01*
X134198Y436070D01*
X133238Y436310D01*
X132255Y436413D01*
X131267Y436378D01*
X130294Y436207D01*
X129353Y435901D01*
X128465Y435468D01*
X127645Y434915D01*
X126910Y434254D01*
X126275Y433496D01*
X125751Y432658D01*
X125349Y431754D01*
X125076Y430804D01*
X124938Y429825D01*
Y428836D01*
X125076Y427857D01*
X125349Y426907D01*
X125751Y426004D01*
X126275Y425165D01*
X126910Y424408D01*
X127645Y423746D01*
X128465Y423194D01*
X129353Y422760D01*
X130294Y422455D01*
X131267Y422283D01*
X132255Y422248D01*
X133238Y422352D01*
X134198Y422591D01*
X135114Y422961D01*
X135971Y423456D01*
X136750Y424064D01*
X137436Y424776D01*
X138018Y425575D01*
X138482Y426448D01*
X138820Y427377D01*
X139025Y428344D01*
X139094Y429331D01*
X391533Y220274D02*
X390527Y220252D01*
X389522Y220200D01*
X388518Y220120D01*
X387517Y220012D01*
X386520Y219875D01*
X385527Y219710D01*
X384540Y219517D01*
X383558Y219296D01*
X382582Y219047D01*
X381614Y218771D01*
X380655Y218467D01*
X379704Y218136D01*
X378764Y217778D01*
X377834Y217394D01*
X376915Y216983D01*
X376008Y216546D01*
X375114Y216084D01*
X374233Y215597D01*
X373366Y215085D01*
X372515Y214548D01*
X371679Y213987D01*
X370859Y213403D01*
X370057Y212796D01*
X369271Y212166D01*
X368505Y211514D01*
X367756Y210841D01*
X367028Y210147D01*
X366319Y209432D01*
X365631Y208698D01*
X364964Y207944D01*
X364318Y207171D01*
X363695Y206381D01*
X363095Y205573D01*
X362518Y204749D01*
X361964Y203908D01*
X361435Y203052D01*
X360930Y202181D01*
X360450Y201296D01*
X359995Y200399D01*
X359566Y199488D01*
X359163Y198566D01*
X358786Y197632D01*
X358436Y196689D01*
X358114Y195735D01*
X357818Y194773D01*
X357549Y193803D01*
X357309Y192826D01*
X357096Y191842D01*
X356911Y190853D01*
X356754Y189858D01*
X356626Y188860D01*
X356526Y187858D01*
X356455Y186855D01*
X356412Y185849D01*
X356398Y184843D01*
X356299Y440945D02*
X356313Y439951D01*
X356355Y438958D01*
X356425Y437967D01*
X356522Y436978D01*
X356647Y435992D01*
X356800Y435010D01*
X356980Y434032D01*
X357188Y433060D01*
X357422Y432094D01*
X357684Y431136D01*
X357973Y430185D01*
X358288Y429242D01*
X358629Y428309D01*
X358996Y427385D01*
X359390Y426472D01*
X359808Y425571D01*
X360252Y424682D01*
X360720Y423805D01*
X361213Y422942D01*
X361730Y422093D01*
X362271Y421259D01*
X362835Y420441D01*
X363421Y419638D01*
X364030Y418853D01*
X364660Y418084D01*
X365312Y417334D01*
X365985Y416602D01*
X366677Y415890D01*
X367390Y415197D01*
X368122Y414524D01*
X368872Y413873D01*
X369640Y413242D01*
X370426Y412633D01*
X371228Y412047D01*
X372047Y411483D01*
X372881Y410943D01*
X373730Y410426D01*
X374593Y409933D01*
X375469Y409465D01*
X376359Y409021D01*
X377260Y408602D01*
X378173Y408209D01*
X379096Y407841D01*
X380030Y407500D01*
X380972Y407185D01*
X381923Y406897D01*
X382882Y406635D01*
X383848Y406400D01*
X384820Y406193D01*
X385797Y406012D01*
X386779Y405860D01*
X387765Y405735D01*
X388754Y405637D01*
X389746Y405568D01*
X390739Y405526D01*
X391732Y405512D01*
X92032Y408979D02*
X92941Y409414D01*
X93837Y409876D01*
X94720Y410363D01*
X95588Y410874D01*
X96441Y411411D01*
X97279Y411971D01*
X98101Y412555D01*
X98905Y413162D01*
X99692Y413791D01*
X100461Y414443D01*
X101211Y415116D01*
X101941Y415811D01*
X102652Y416526D01*
X103342Y417261D01*
X104010Y418015D01*
X104657Y418788D01*
X105282Y419579D01*
X105884Y420387D01*
X106462Y421212D01*
X107017Y422053D01*
X107548Y422910D01*
X108054Y423782D01*
X108536Y424667D01*
X108992Y425566D01*
X109422Y426478D01*
X109826Y427401D01*
X110203Y428335D01*
X110554Y429280D01*
X110878Y430235D01*
X111174Y431198D01*
X111444Y432169D01*
X111685Y433148D01*
X111898Y434133D01*
X112084Y435123D01*
X112241Y436119D01*
X112369Y437119D01*
X112469Y438122D01*
X112541Y439127D01*
X112584Y440134D01*
X112598Y441142D01*
X111890Y184843D02*
X111873Y185844D01*
X111828Y186844D01*
X111754Y187843D01*
X111652Y188839D01*
X111523Y189832D01*
X111365Y190820D01*
X111179Y191804D01*
X110966Y192783D01*
X110725Y193755D01*
X110457Y194719D01*
X110161Y195676D01*
X109839Y196624D01*
X109490Y197563D01*
X109114Y198491D01*
X108713Y199408D01*
X108286Y200314D01*
X107833Y201207D01*
X107355Y202087D01*
X106853Y202953D01*
X106326Y203805D01*
X105776Y204641D01*
X105202Y205462D01*
X104605Y206266D01*
X103986Y207052D01*
X103344Y207821D01*
X102681Y208572D01*
X101998Y209303D01*
X101294Y210015D01*
X100569Y210707D01*
X99826Y211378D01*
X99064Y212028D01*
X98284Y212656D01*
X97487Y213261D01*
X96673Y213844D01*
X95842Y214404D01*
X94997Y214940D01*
X94136Y215452D01*
X93261Y215939D01*
X92373Y216401D01*
X91472Y216838D01*
X343701Y196653D02*
X343632Y197640D01*
X343426Y198607D01*
X343088Y199536D01*
X342624Y200409D01*
X342043Y201209D01*
X341356Y201920D01*
X340577Y202529D01*
X339721Y203023D01*
X338804Y203393D01*
X337845Y203632D01*
X336861Y203736D01*
X335873Y203701D01*
X334900Y203530D01*
X333960Y203224D01*
X333071Y202791D01*
X332251Y202238D01*
X331517Y201576D01*
X330881Y200819D01*
X330357Y199980D01*
X329955Y199077D01*
X329682Y198127D01*
X329545Y197148D01*
Y196159D01*
X329682Y195180D01*
X329955Y194230D01*
X330357Y193327D01*
X330881Y192488D01*
X331517Y191731D01*
X332251Y191069D01*
X333071Y190516D01*
X333960Y190083D01*
X334900Y189777D01*
X335873Y189606D01*
X336861Y189571D01*
X337845Y189675D01*
X338804Y189914D01*
X339721Y190284D01*
X340577Y190779D01*
X341356Y191387D01*
X342043Y192098D01*
X342624Y192898D01*
X343088Y193771D01*
X343426Y194700D01*
X343632Y195667D01*
X343701Y196653D01*
X138701D02*
X138632Y197640D01*
X138426Y198607D01*
X138088Y199536D01*
X137624Y200409D01*
X137043Y201209D01*
X136356Y201920D01*
X135577Y202529D01*
X134721Y203023D01*
X133804Y203393D01*
X132845Y203632D01*
X131861Y203736D01*
X130873Y203701D01*
X129900Y203530D01*
X128960Y203224D01*
X128071Y202791D01*
X127251Y202238D01*
X126516Y201576D01*
X125881Y200819D01*
X125357Y199980D01*
X124955Y199077D01*
X124682Y198127D01*
X124545Y197148D01*
Y196159D01*
X124682Y195180D01*
X124955Y194230D01*
X125357Y193327D01*
X125881Y192488D01*
X126516Y191731D01*
X127251Y191069D01*
X128071Y190516D01*
X128960Y190083D01*
X129900Y189777D01*
X130873Y189606D01*
X131861Y189571D01*
X132845Y189675D01*
X133804Y189914D01*
X134721Y190284D01*
X135577Y190779D01*
X136356Y191387D01*
X137043Y192098D01*
X137624Y192898D01*
X138088Y193771D01*
X138426Y194700D01*
X138632Y195667D01*
X138701Y196653D01*
X343701Y429134D02*
X343632Y430120D01*
X343426Y431087D01*
X343088Y432016D01*
X342624Y432889D01*
X342043Y433689D01*
X341356Y434400D01*
X340577Y435009D01*
X339721Y435503D01*
X338804Y435874D01*
X337845Y436113D01*
X336861Y436216D01*
X335873Y436182D01*
X334900Y436010D01*
X333960Y435704D01*
X333071Y435271D01*
X332251Y434718D01*
X331517Y434057D01*
X330881Y433299D01*
X330357Y432461D01*
X329955Y431558D01*
X329682Y430607D01*
X329545Y429628D01*
Y428640D01*
X329682Y427661D01*
X329955Y426710D01*
X330357Y425807D01*
X330881Y424968D01*
X331517Y424211D01*
X332251Y423550D01*
X333071Y422997D01*
X333960Y422563D01*
X334900Y422258D01*
X335873Y422086D01*
X336861Y422052D01*
X337845Y422155D01*
X338804Y422394D01*
X339721Y422764D01*
X340577Y423259D01*
X341356Y423868D01*
X342043Y424579D01*
X342624Y425379D01*
X343088Y426252D01*
X343426Y427180D01*
X343632Y428148D01*
X343701Y429134D01*
X391732Y220274D02*
X391732Y405512D01*
X91831Y408858D02*
X91831Y217224D01*
X244291Y289469D02*
X244390Y289567D01*
X112106Y184843D02*
X356398D01*
X112205Y440945D02*
X356299D01*
D104*
X98622Y399114D02*
Y407382D01*
Y399114D02*
X106024D01*
Y395768D02*
Y399114D01*
X98622Y395768D02*
X106024D01*
X98622Y380413D02*
Y395768D01*
Y380413D02*
X106024D01*
Y377067D02*
Y380413D01*
X98622Y377067D02*
X106024D01*
X98622Y368799D02*
Y377067D01*
M02*
