G04 Layer_Color=16711935*
%FSLAX25Y25*%
%MOIN*%
G70*
G01*
G75*
%ADD54C,0.08200*%
%ADD55C,0.08000*%
%ADD119R,0.05918X0.06706*%
%ADD124R,0.06706X0.05918*%
%ADD126R,0.06312X0.04737*%
%ADD127R,0.04737X0.06312*%
%ADD130R,0.05131X0.06312*%
%ADD143R,0.05131X0.05721*%
%ADD144R,0.09147X0.09776*%
%ADD154C,0.08674*%
%ADD155R,0.08674X0.08674*%
%ADD156C,0.05918*%
%ADD157R,0.05918X0.05918*%
%ADD158C,0.07887*%
%ADD159C,0.09855*%
%ADD160R,0.09855X0.09855*%
%ADD161R,0.08674X0.08674*%
%ADD162C,0.01181*%
%ADD163C,0.02768*%
%ADD164R,0.05131X0.04934*%
%ADD165R,0.09658X0.05131*%
%ADD166R,0.05859X0.06587*%
%ADD167R,0.05524X0.03950*%
%ADD168R,0.03950X0.05524*%
G04:AMPARAMS|DCode=169|XSize=61.94mil|YSize=31.23mil|CornerRadius=9.81mil|HoleSize=0mil|Usage=FLASHONLY|Rotation=0.000|XOffset=0mil|YOffset=0mil|HoleType=Round|Shape=RoundedRectangle|*
%AMROUNDEDRECTD169*
21,1,0.06194,0.01161,0,0,0.0*
21,1,0.04232,0.03123,0,0,0.0*
1,1,0.01961,0.02116,-0.00581*
1,1,0.01961,-0.02116,-0.00581*
1,1,0.01961,-0.02116,0.00581*
1,1,0.01961,0.02116,0.00581*
%
%ADD169ROUNDEDRECTD169*%
%ADD170R,0.06706X0.09461*%
%ADD171R,0.02900X0.07900*%
%ADD172R,0.08600X0.02800*%
%ADD173R,0.05300X0.04800*%
%ADD174R,0.02926X0.03950*%
%ADD175R,0.04737X0.05918*%
%ADD176R,0.07099X0.07493*%
%ADD177R,0.03359X0.05328*%
%ADD178R,0.07099X0.12611*%
%ADD179R,0.23635X0.25210*%
G04:AMPARAMS|DCode=180|XSize=74.93mil|YSize=33.59mil|CornerRadius=10.4mil|HoleSize=0mil|Usage=FLASHONLY|Rotation=0.000|XOffset=0mil|YOffset=0mil|HoleType=Round|Shape=RoundedRectangle|*
%AMROUNDEDRECTD180*
21,1,0.07493,0.01279,0,0,0.0*
21,1,0.05413,0.03359,0,0,0.0*
1,1,0.02080,0.02707,-0.00640*
1,1,0.02080,-0.02707,-0.00640*
1,1,0.02080,-0.02707,0.00640*
1,1,0.02080,0.02707,0.00640*
%
%ADD180ROUNDEDRECTD180*%
%ADD181R,0.07493X0.03359*%
%ADD182R,0.06706X0.08674*%
%ADD183R,0.06706X0.08674*%
%ADD184R,0.15761X0.08674*%
%ADD185R,0.06706X0.26391*%
%ADD186R,0.11599X0.11824*%
%ADD187R,0.06706X0.06706*%
%ADD188R,0.12611X0.12611*%
%ADD189O,0.07099X0.03950*%
%ADD190O,0.03950X0.07099*%
%ADD191R,0.02800X0.08600*%
G04:AMPARAMS|DCode=192|XSize=56.42mil|YSize=31.62mil|CornerRadius=6.95mil|HoleSize=0mil|Usage=FLASHONLY|Rotation=0.000|XOffset=0mil|YOffset=0mil|HoleType=Round|Shape=RoundedRectangle|*
%AMROUNDEDRECTD192*
21,1,0.05642,0.01772,0,0,0.0*
21,1,0.04252,0.03162,0,0,0.0*
1,1,0.01391,0.02126,-0.00886*
1,1,0.01391,-0.02126,-0.00886*
1,1,0.01391,-0.02126,0.00886*
1,1,0.01391,0.02126,0.00886*
%
%ADD192ROUNDEDRECTD192*%
%ADD193R,0.09776X0.09147*%
%ADD194R,0.03556X0.07099*%
%ADD195R,0.07099X0.06312*%
%ADD196R,0.05524X0.06312*%
%ADD197R,0.05524X0.09461*%
G04:AMPARAMS|DCode=198|XSize=55.64mil|YSize=30.84mil|CornerRadius=6.85mil|HoleSize=0mil|Usage=FLASHONLY|Rotation=180.000|XOffset=0mil|YOffset=0mil|HoleType=Round|Shape=RoundedRectangle|*
%AMROUNDEDRECTD198*
21,1,0.05564,0.01713,0,0,180.0*
21,1,0.04193,0.03084,0,0,180.0*
1,1,0.01371,-0.02097,0.00856*
1,1,0.01371,0.02097,0.00856*
1,1,0.01371,0.02097,-0.00856*
1,1,0.01371,-0.02097,-0.00856*
%
%ADD198ROUNDEDRECTD198*%
D54*
X386614Y241122D02*
D03*
X366614D02*
D03*
Y261122D02*
D03*
X386614D02*
D03*
X385197Y366280D02*
D03*
X365197D02*
D03*
Y386280D02*
D03*
X385197D02*
D03*
D55*
X376614Y251122D02*
D03*
X375197Y376279D02*
D03*
D119*
X379921Y332677D02*
D03*
X387402D02*
D03*
X379232Y302165D02*
D03*
X386713D02*
D03*
X283366Y291339D02*
D03*
X275886D02*
D03*
X283268Y299016D02*
D03*
X275787D02*
D03*
X109153Y284547D02*
D03*
X116634D02*
D03*
X121457Y415650D02*
D03*
X113976D02*
D03*
X122343Y356988D02*
D03*
X114862D02*
D03*
X178150Y262697D02*
D03*
X170669D02*
D03*
X211713Y264370D02*
D03*
X204232D02*
D03*
X211713Y255413D02*
D03*
X204232D02*
D03*
X178150Y228740D02*
D03*
X170669D02*
D03*
X171063Y242323D02*
D03*
X178543D02*
D03*
X330610Y218504D02*
D03*
X338090D02*
D03*
X330709Y210433D02*
D03*
X338189D02*
D03*
X171063Y250984D02*
D03*
X178543D02*
D03*
D124*
X349508Y265846D02*
D03*
Y258366D02*
D03*
X117126Y268898D02*
D03*
Y276378D02*
D03*
X113779Y325591D02*
D03*
Y333071D02*
D03*
Y318110D02*
D03*
Y310630D02*
D03*
X154232Y242323D02*
D03*
Y234842D02*
D03*
X145571Y242323D02*
D03*
Y234842D02*
D03*
X103543Y381693D02*
D03*
Y374213D02*
D03*
X146850Y352559D02*
D03*
Y360039D02*
D03*
X226969Y231594D02*
D03*
Y224114D02*
D03*
X244882Y220571D02*
D03*
Y228051D02*
D03*
X236516Y228051D02*
D03*
Y220571D02*
D03*
X258563Y201575D02*
D03*
Y209055D02*
D03*
D126*
X291240Y262598D02*
D03*
Y255118D02*
D03*
X307579Y262598D02*
D03*
Y255118D02*
D03*
X282874Y262598D02*
D03*
Y255118D02*
D03*
X299410Y255217D02*
D03*
Y262697D02*
D03*
X219685Y313779D02*
D03*
Y306299D02*
D03*
X233957Y427559D02*
D03*
Y420079D02*
D03*
D127*
X240354Y380118D02*
D03*
X232874D02*
D03*
X240453Y387795D02*
D03*
X232972D02*
D03*
X222638Y435827D02*
D03*
X215158D02*
D03*
X222638Y427461D02*
D03*
X215158D02*
D03*
X222539Y418504D02*
D03*
X215059D02*
D03*
X272539Y387106D02*
D03*
X280020D02*
D03*
D130*
X220374Y386319D02*
D03*
X212894D02*
D03*
X213189Y395374D02*
D03*
X220669D02*
D03*
D143*
X378248Y309941D02*
D03*
X388090D02*
D03*
X95768Y402756D02*
D03*
X105610D02*
D03*
X95669Y389665D02*
D03*
X105512D02*
D03*
D144*
X258661Y223661D02*
D03*
Y240709D02*
D03*
D154*
X148917Y279823D02*
D03*
X114665Y260925D02*
D03*
Y294783D02*
D03*
X336910Y403406D02*
D03*
Y393406D02*
D03*
X113091Y220177D02*
D03*
Y240650D02*
D03*
D155*
X148917Y256201D02*
D03*
D156*
X221654Y290551D02*
D03*
X241437Y194488D02*
D03*
D157*
X221654Y298425D02*
D03*
X241437Y202362D02*
D03*
D158*
X97835Y231102D02*
D03*
Y251575D02*
D03*
D159*
X98122Y316937D02*
D03*
Y305126D02*
D03*
Y293315D02*
D03*
Y281504D02*
D03*
Y328748D02*
D03*
D160*
Y269693D02*
D03*
D161*
X336910Y383405D02*
D03*
D162*
X281004Y248327D02*
D03*
X207970Y349508D02*
D03*
X119488Y322638D02*
D03*
X237303Y334350D02*
D03*
X204331Y348228D02*
D03*
X167913Y344587D02*
D03*
X212795Y349803D02*
D03*
X285531Y401673D02*
D03*
X243516Y408583D02*
D03*
X243602Y405807D02*
D03*
X187106Y418898D02*
D03*
X209646Y430315D02*
D03*
X189272Y428839D02*
D03*
X154921Y405020D02*
D03*
X154528Y409744D02*
D03*
X165496Y427067D02*
D03*
X132382Y413484D02*
D03*
X135630Y358268D02*
D03*
X161516Y368996D02*
D03*
X131988Y389469D02*
D03*
X124803Y389665D02*
D03*
X109252Y410433D02*
D03*
X331693Y307972D02*
D03*
X287303Y270768D02*
D03*
X271752Y291142D02*
D03*
X204035Y357874D02*
D03*
X330512Y316240D02*
D03*
X343504Y324902D02*
D03*
X387894Y353642D02*
D03*
X240158Y392618D02*
D03*
X261319Y325197D02*
D03*
X231201Y317421D02*
D03*
X359154Y356988D02*
D03*
X256791Y308366D02*
D03*
X232677Y364469D02*
D03*
X266732Y285138D02*
D03*
X165059Y260728D02*
D03*
X155610Y366732D02*
D03*
X137992Y315650D02*
D03*
X147441Y317815D02*
D03*
X182382Y262795D02*
D03*
X181496Y276969D02*
D03*
X220669Y380906D02*
D03*
X315748Y268602D02*
D03*
X185335Y226279D02*
D03*
X340354Y298622D02*
D03*
X149409Y338386D02*
D03*
X304724Y267520D02*
D03*
X377756Y294094D02*
D03*
X276575Y309547D02*
D03*
X173130Y289567D02*
D03*
X195472Y348130D02*
D03*
X192520Y250394D02*
D03*
X338878Y343012D02*
D03*
X313583Y216831D02*
D03*
X324803Y216732D02*
D03*
X173031Y312008D02*
D03*
X315551Y251969D02*
D03*
X286811Y266831D02*
D03*
X262402Y300197D02*
D03*
X264567Y223721D02*
D03*
X288779Y240059D02*
D03*
X272244Y268701D02*
D03*
X216339Y301772D02*
D03*
X250394Y282382D02*
D03*
X308169Y205217D02*
D03*
X299311Y230906D02*
D03*
X196752Y302559D02*
D03*
X350984Y345866D02*
D03*
X277559Y323819D02*
D03*
X273819D02*
D03*
X337598Y316732D02*
D03*
X342224Y316043D02*
D03*
X360335Y292815D02*
D03*
X357776Y289764D02*
D03*
X336221Y337106D02*
D03*
X305610Y290551D02*
D03*
X368110Y273031D02*
D03*
X363681Y273425D02*
D03*
X189370Y405315D02*
D03*
X172736Y416240D02*
D03*
X280906Y356791D02*
D03*
X305512Y359842D02*
D03*
X304921Y362992D02*
D03*
X272047Y363976D02*
D03*
X311122Y405315D02*
D03*
X314173Y389370D02*
D03*
X246555Y360433D02*
D03*
X200000Y351969D02*
D03*
X260236Y367126D02*
D03*
X269291Y365354D02*
D03*
X245965Y399410D02*
D03*
X287205Y362402D02*
D03*
X238386Y364469D02*
D03*
X258858Y337205D02*
D03*
X271161Y354724D02*
D03*
X255315Y304134D02*
D03*
X312992Y399016D02*
D03*
X266043Y366535D02*
D03*
X273819Y358268D02*
D03*
X262671Y373124D02*
D03*
X265354Y389075D02*
D03*
X208957Y416043D02*
D03*
X295079Y272146D02*
D03*
X327461Y329528D02*
D03*
X333850Y333161D02*
D03*
X153347Y358071D02*
D03*
X196457Y389469D02*
D03*
X109350Y358858D02*
D03*
X244390Y357185D02*
D03*
X177461Y406988D02*
D03*
X181595Y343012D02*
D03*
X196653Y377264D02*
D03*
X228445Y379134D02*
D03*
X307283Y213090D02*
D03*
X219783Y239370D02*
D03*
X109746Y279136D02*
D03*
X107776Y306890D02*
D03*
X385630Y324902D02*
D03*
X208465Y397047D02*
D03*
X208349Y405423D02*
D03*
X205906Y208268D02*
D03*
X106398Y396063D02*
D03*
X217126Y278208D02*
D03*
X194980Y355512D02*
D03*
X165157Y375590D02*
D03*
X303248Y383465D02*
D03*
X303248Y380610D02*
D03*
X224803Y412402D02*
D03*
X334646Y357283D02*
D03*
X331988Y357382D02*
D03*
X349410Y371654D02*
D03*
Y374213D02*
D03*
X272146Y278448D02*
D03*
X269390Y323819D02*
D03*
X149606Y345339D02*
D03*
X374311Y279528D02*
D03*
Y281890D02*
D03*
X336319Y325492D02*
D03*
X344193Y288090D02*
D03*
X318996Y307579D02*
D03*
X322047D02*
D03*
D163*
X192224Y421850D02*
D03*
X203642Y415650D02*
D03*
D164*
X364075Y223917D02*
D03*
X361910Y403937D02*
D03*
D165*
X357972Y218110D02*
D03*
Y229724D02*
D03*
X355807Y409744D02*
D03*
Y398130D02*
D03*
D166*
X384236Y353740D02*
D03*
X376575D02*
D03*
D167*
X138878Y340453D02*
D03*
Y350492D02*
D03*
X114272Y340453D02*
D03*
Y350492D02*
D03*
D168*
X137697Y280906D02*
D03*
X127657D02*
D03*
X137697Y256299D02*
D03*
X127657D02*
D03*
D169*
X235551Y241339D02*
D03*
Y237598D02*
D03*
Y233858D02*
D03*
X244764D02*
D03*
Y237598D02*
D03*
Y241339D02*
D03*
D170*
X226772Y262500D02*
D03*
X251575D02*
D03*
D171*
X158504Y321064D02*
D03*
X163504D02*
D03*
X168504D02*
D03*
X173504D02*
D03*
X178504D02*
D03*
X183504D02*
D03*
X188504D02*
D03*
X193504D02*
D03*
X198504D02*
D03*
X203504D02*
D03*
Y283464D02*
D03*
X198504D02*
D03*
X193504D02*
D03*
X188504D02*
D03*
X183504D02*
D03*
X178504D02*
D03*
X173504D02*
D03*
X168504D02*
D03*
X163504D02*
D03*
X158504D02*
D03*
D172*
X210586Y216398D02*
D03*
Y221398D02*
D03*
Y226398D02*
D03*
Y231398D02*
D03*
Y236398D02*
D03*
Y241398D02*
D03*
Y246398D02*
D03*
X191186D02*
D03*
Y241398D02*
D03*
Y236398D02*
D03*
Y231398D02*
D03*
Y226398D02*
D03*
Y221398D02*
D03*
Y216398D02*
D03*
D173*
X186059Y255654D02*
D03*
Y262653D02*
D03*
X194059Y259154D02*
D03*
D174*
X287480Y192992D02*
D03*
X306850D02*
D03*
D175*
X321535Y236221D02*
D03*
Y228346D02*
D03*
X272835D02*
D03*
Y236221D02*
D03*
D176*
X321299Y190709D02*
D03*
X273071D02*
D03*
D177*
X301004Y244764D02*
D03*
X291004D02*
D03*
X281004D02*
D03*
X306004D02*
D03*
X296004D02*
D03*
X286004D02*
D03*
D178*
X143543Y326693D02*
D03*
X125551D02*
D03*
X131535Y402382D02*
D03*
X113543D02*
D03*
D179*
X134547Y298425D02*
D03*
X122539Y374114D02*
D03*
D180*
X259055Y379823D02*
D03*
Y387303D02*
D03*
X248819D02*
D03*
Y383563D02*
D03*
D181*
Y379823D02*
D03*
D182*
X249311Y307677D02*
D03*
D183*
X231201D02*
D03*
D184*
X240256Y282874D02*
D03*
D185*
Y298819D02*
D03*
D186*
X253642Y346358D02*
D03*
Y326772D02*
D03*
X236516Y326673D02*
D03*
Y346260D02*
D03*
X219980Y346358D02*
D03*
Y326772D02*
D03*
X130217Y217224D02*
D03*
Y236811D02*
D03*
D187*
X327658Y323228D02*
D03*
D188*
X318602Y297244D02*
D03*
D189*
X299705Y346457D02*
D03*
Y341732D02*
D03*
Y337008D02*
D03*
Y332283D02*
D03*
Y327559D02*
D03*
Y322835D02*
D03*
Y318110D02*
D03*
Y313386D02*
D03*
Y308661D02*
D03*
Y303937D02*
D03*
Y299213D02*
D03*
Y294488D02*
D03*
Y289764D02*
D03*
Y285039D02*
D03*
X370571Y346457D02*
D03*
Y341732D02*
D03*
Y337008D02*
D03*
Y332283D02*
D03*
Y327559D02*
D03*
Y322835D02*
D03*
Y318110D02*
D03*
Y313386D02*
D03*
Y308661D02*
D03*
Y303937D02*
D03*
Y299213D02*
D03*
Y294488D02*
D03*
Y289764D02*
D03*
Y285039D02*
D03*
D190*
X306791Y351969D02*
D03*
X311516D02*
D03*
X316240D02*
D03*
X320965D02*
D03*
X325689D02*
D03*
X330413D02*
D03*
X335138D02*
D03*
X339862D02*
D03*
X344587D02*
D03*
X349311D02*
D03*
X354035D02*
D03*
X358760D02*
D03*
X363484D02*
D03*
X306791Y279528D02*
D03*
X311516D02*
D03*
X316240D02*
D03*
X320965D02*
D03*
X325689D02*
D03*
X330413D02*
D03*
X335138D02*
D03*
X339862D02*
D03*
X344587D02*
D03*
X349311D02*
D03*
X354035D02*
D03*
X358760D02*
D03*
X363484D02*
D03*
D191*
X159803Y336166D02*
D03*
X164803D02*
D03*
X169803D02*
D03*
X174803D02*
D03*
X179803D02*
D03*
X184803D02*
D03*
X189803D02*
D03*
Y355566D02*
D03*
X184803D02*
D03*
X179803D02*
D03*
X174803D02*
D03*
X169803D02*
D03*
X164803D02*
D03*
X159803D02*
D03*
D192*
X277716Y277165D02*
D03*
Y284646D02*
D03*
X286063Y280906D02*
D03*
D193*
X188327Y194882D02*
D03*
X205374D02*
D03*
D194*
X150197Y383465D02*
D03*
X154528D02*
D03*
X158858D02*
D03*
X163189D02*
D03*
X167520D02*
D03*
X171850D02*
D03*
X176181D02*
D03*
X180512D02*
D03*
X184843D02*
D03*
D195*
X202953Y385433D02*
D03*
D196*
X145472D02*
D03*
D197*
X206496Y423228D02*
D03*
X145472D02*
D03*
D198*
X272953Y263681D02*
D03*
Y259941D02*
D03*
Y256201D02*
D03*
X263071D02*
D03*
Y259941D02*
D03*
Y263681D02*
D03*
M02*
