G04 Layer_Color=255*
%FSLAX25Y25*%
%MOIN*%
G70*
G01*
G75*
%ADD18R,0.05118X0.05905*%
%ADD19R,0.05905X0.05118*%
%ADD24R,0.03937X0.05512*%
%ADD25R,0.08346X0.08976*%
%ADD26R,0.04331X0.04921*%
%ADD28R,0.04331X0.05512*%
%ADD35R,0.05512X0.03937*%
%ADD54C,0.07874*%
%ADD55R,0.07874X0.07874*%
%ADD56C,0.09055*%
%ADD57R,0.09055X0.09055*%
%ADD58C,0.05118*%
%ADD59R,0.05118X0.05118*%
%ADD60C,0.08000*%
%ADD61C,0.08200*%
%ADD62C,0.07087*%
%ADD63R,0.07874X0.07874*%
G04:AMPARAMS|DCode=65|XSize=47.64mil|YSize=22.84mil|CornerRadius=2.85mil|HoleSize=0mil|Usage=FLASHONLY|Rotation=180.000|XOffset=0mil|YOffset=0mil|HoleType=Round|Shape=RoundedRectangle|*
%AMROUNDEDRECTD65*
21,1,0.04764,0.01713,0,0,180.0*
21,1,0.04193,0.02284,0,0,180.0*
1,1,0.00571,-0.02097,0.00856*
1,1,0.00571,0.02097,0.00856*
1,1,0.00571,0.02097,-0.00856*
1,1,0.00571,-0.02097,-0.00856*
%
%ADD65ROUNDEDRECTD65*%
%ADD66R,0.04724X0.08661*%
%ADD67R,0.04724X0.05512*%
%ADD68R,0.06299X0.05512*%
%ADD69R,0.02756X0.06299*%
%ADD70R,0.08976X0.08346*%
G04:AMPARAMS|DCode=71|XSize=48.42mil|YSize=23.62mil|CornerRadius=2.95mil|HoleSize=0mil|Usage=FLASHONLY|Rotation=0.000|XOffset=0mil|YOffset=0mil|HoleType=Round|Shape=RoundedRectangle|*
%AMROUNDEDRECTD71*
21,1,0.04842,0.01772,0,0,0.0*
21,1,0.04252,0.02362,0,0,0.0*
1,1,0.00591,0.02126,-0.00886*
1,1,0.00591,-0.02126,-0.00886*
1,1,0.00591,-0.02126,0.00886*
1,1,0.00591,0.02126,0.00886*
%
%ADD71ROUNDEDRECTD71*%
%ADD72R,0.04331X0.04134*%
%ADD73R,0.08858X0.04331*%
%ADD74R,0.02000X0.07800*%
%ADD75O,0.03150X0.06299*%
%ADD76O,0.06299X0.03150*%
%ADD77R,0.11811X0.11811*%
%ADD78R,0.05905X0.05905*%
%ADD79R,0.10799X0.11024*%
%ADD80R,0.05905X0.25590*%
%ADD81R,0.14961X0.07874*%
%ADD82R,0.05905X0.07874*%
%ADD83R,0.05905X0.07874*%
G04:AMPARAMS|DCode=84|XSize=66.93mil|YSize=25.59mil|CornerRadius=6.4mil|HoleSize=0mil|Usage=FLASHONLY|Rotation=0.000|XOffset=0mil|YOffset=0mil|HoleType=Round|Shape=RoundedRectangle|*
%AMROUNDEDRECTD84*
21,1,0.06693,0.01279,0,0,0.0*
21,1,0.05413,0.02559,0,0,0.0*
1,1,0.01279,0.02707,-0.00640*
1,1,0.01279,-0.02707,-0.00640*
1,1,0.01279,-0.02707,0.00640*
1,1,0.01279,0.02707,0.00640*
%
%ADD84ROUNDEDRECTD84*%
%ADD85R,0.06693X0.02559*%
%ADD86R,0.22835X0.24410*%
%ADD87R,0.06299X0.11811*%
%ADD88R,0.02559X0.04528*%
%ADD89R,0.03937X0.05118*%
%ADD90R,0.06299X0.06693*%
%ADD91R,0.02126X0.03150*%
%ADD92R,0.04500X0.04000*%
%ADD93R,0.07800X0.02000*%
%ADD94R,0.02100X0.07100*%
%ADD95R,0.05905X0.08661*%
G04:AMPARAMS|DCode=96|XSize=53.94mil|YSize=23.23mil|CornerRadius=5.81mil|HoleSize=0mil|Usage=FLASHONLY|Rotation=180.000|XOffset=0mil|YOffset=0mil|HoleType=Round|Shape=RoundedRectangle|*
%AMROUNDEDRECTD96*
21,1,0.05394,0.01161,0,0,180.0*
21,1,0.04232,0.02323,0,0,180.0*
1,1,0.01161,-0.02116,0.00581*
1,1,0.01161,0.02116,0.00581*
1,1,0.01161,0.02116,-0.00581*
1,1,0.01161,-0.02116,-0.00581*
%
%ADD96ROUNDEDRECTD96*%
%ADD97R,0.03150X0.04724*%
%ADD98R,0.04724X0.03150*%
%ADD99R,0.05059X0.05787*%
D18*
X178543Y250984D02*
D03*
X171063D02*
D03*
X338189Y210433D02*
D03*
X330709D02*
D03*
X338090Y218504D02*
D03*
X330610D02*
D03*
X178543Y242323D02*
D03*
X171063D02*
D03*
X170669Y228740D02*
D03*
X178150D02*
D03*
X204232Y255413D02*
D03*
X211713D02*
D03*
X204232Y264370D02*
D03*
X211713D02*
D03*
X170669Y262697D02*
D03*
X178150D02*
D03*
X114862Y356988D02*
D03*
X122343D02*
D03*
X113976Y415650D02*
D03*
X121457D02*
D03*
X116634Y284547D02*
D03*
X109153D02*
D03*
X275787Y299016D02*
D03*
X283268D02*
D03*
X275886Y291339D02*
D03*
X283366D02*
D03*
X386713Y302165D02*
D03*
X379232D02*
D03*
X387402Y332677D02*
D03*
X379921D02*
D03*
D19*
X258563Y209055D02*
D03*
Y201575D02*
D03*
X236516Y220571D02*
D03*
Y228051D02*
D03*
X244882Y228051D02*
D03*
Y220571D02*
D03*
X226969Y224114D02*
D03*
Y231594D02*
D03*
X146850Y360039D02*
D03*
Y352559D02*
D03*
X103543Y374213D02*
D03*
Y381693D02*
D03*
X145571Y234842D02*
D03*
Y242323D02*
D03*
X154232Y234842D02*
D03*
Y242323D02*
D03*
X113779Y310630D02*
D03*
Y318110D02*
D03*
Y333071D02*
D03*
Y325591D02*
D03*
X117126Y276378D02*
D03*
Y268898D02*
D03*
X349508Y258366D02*
D03*
Y265846D02*
D03*
D24*
X280020Y387106D02*
D03*
X272539D02*
D03*
X215059Y418504D02*
D03*
X222539D02*
D03*
X215158Y427461D02*
D03*
X222638D02*
D03*
X215158Y435827D02*
D03*
X222638D02*
D03*
X232972Y387795D02*
D03*
X240453D02*
D03*
X232874Y380118D02*
D03*
X240354D02*
D03*
D25*
X258661Y240709D02*
D03*
Y223661D02*
D03*
D26*
X105512Y389665D02*
D03*
X95669D02*
D03*
X105610Y402756D02*
D03*
X95768D02*
D03*
X388090Y309941D02*
D03*
X378248D02*
D03*
D28*
X220669Y395374D02*
D03*
X213189D02*
D03*
X212894Y386319D02*
D03*
X220374D02*
D03*
D35*
X233957Y420079D02*
D03*
Y427559D02*
D03*
X219685Y306299D02*
D03*
Y313779D02*
D03*
X299410Y262697D02*
D03*
Y255217D02*
D03*
X282874Y255118D02*
D03*
Y262598D02*
D03*
X307579Y255118D02*
D03*
Y262598D02*
D03*
X291240Y255118D02*
D03*
Y262598D02*
D03*
D54*
X113091Y240650D02*
D03*
Y220177D02*
D03*
X336910Y393406D02*
D03*
Y403406D02*
D03*
X114665Y294783D02*
D03*
Y260925D02*
D03*
X148917Y279823D02*
D03*
D55*
X336910Y383405D02*
D03*
D56*
X98122Y328748D02*
D03*
Y281504D02*
D03*
Y293315D02*
D03*
Y305126D02*
D03*
Y316937D02*
D03*
D57*
Y269693D02*
D03*
D58*
X241437Y194488D02*
D03*
X221654Y290551D02*
D03*
D59*
X241437Y202362D02*
D03*
X221654Y298425D02*
D03*
D60*
X375197Y376279D02*
D03*
X376614Y251122D02*
D03*
D61*
X385197Y386280D02*
D03*
X365197D02*
D03*
Y366280D02*
D03*
X385197D02*
D03*
X386614Y261122D02*
D03*
X366614D02*
D03*
Y241122D02*
D03*
X386614D02*
D03*
D62*
X97835Y251575D02*
D03*
Y231102D02*
D03*
D63*
X148917Y256201D02*
D03*
D65*
X263071Y263681D02*
D03*
Y259941D02*
D03*
Y256201D02*
D03*
X272953D02*
D03*
Y259941D02*
D03*
Y263681D02*
D03*
D66*
X145472Y423228D02*
D03*
X206496D02*
D03*
D67*
X145472Y385433D02*
D03*
D68*
X202953D02*
D03*
D69*
X184843Y383465D02*
D03*
X180512D02*
D03*
X176181D02*
D03*
X171850D02*
D03*
X167520D02*
D03*
X163189D02*
D03*
X158858D02*
D03*
X154528D02*
D03*
X150197D02*
D03*
D70*
X205374Y194882D02*
D03*
X188327D02*
D03*
D71*
X286063Y280906D02*
D03*
X277716Y284646D02*
D03*
Y277165D02*
D03*
D72*
X361910Y403937D02*
D03*
X364075Y223917D02*
D03*
D73*
X355807Y398130D02*
D03*
Y409744D02*
D03*
X357972Y229724D02*
D03*
Y218110D02*
D03*
D74*
X159803Y355566D02*
D03*
X164803D02*
D03*
X169803D02*
D03*
X174803D02*
D03*
X179803D02*
D03*
X184803D02*
D03*
X189803D02*
D03*
Y336166D02*
D03*
X184803D02*
D03*
X179803D02*
D03*
X174803D02*
D03*
X169803D02*
D03*
X164803D02*
D03*
X159803D02*
D03*
D75*
X363484Y279528D02*
D03*
X358760D02*
D03*
X354035D02*
D03*
X349311D02*
D03*
X344587D02*
D03*
X339862D02*
D03*
X335138D02*
D03*
X330413D02*
D03*
X325689D02*
D03*
X320965D02*
D03*
X316240D02*
D03*
X311516D02*
D03*
X306791D02*
D03*
X363484Y351969D02*
D03*
X358760D02*
D03*
X354035D02*
D03*
X349311D02*
D03*
X344587D02*
D03*
X339862D02*
D03*
X335138D02*
D03*
X330413D02*
D03*
X325689D02*
D03*
X320965D02*
D03*
X316240D02*
D03*
X311516D02*
D03*
X306791D02*
D03*
D76*
X370571Y285039D02*
D03*
Y289764D02*
D03*
Y294488D02*
D03*
Y299213D02*
D03*
Y303937D02*
D03*
Y308661D02*
D03*
Y313386D02*
D03*
Y318110D02*
D03*
Y322835D02*
D03*
Y327559D02*
D03*
Y332283D02*
D03*
Y337008D02*
D03*
Y341732D02*
D03*
Y346457D02*
D03*
X299705Y285039D02*
D03*
Y289764D02*
D03*
Y294488D02*
D03*
Y299213D02*
D03*
Y303937D02*
D03*
Y308661D02*
D03*
Y313386D02*
D03*
Y318110D02*
D03*
Y322835D02*
D03*
Y327559D02*
D03*
Y332283D02*
D03*
Y337008D02*
D03*
Y341732D02*
D03*
Y346457D02*
D03*
D77*
X318602Y297244D02*
D03*
D78*
X327658Y323228D02*
D03*
D79*
X130217Y236811D02*
D03*
Y217224D02*
D03*
X219980Y326772D02*
D03*
Y346358D02*
D03*
X236516Y346260D02*
D03*
Y326673D02*
D03*
X253642Y326772D02*
D03*
Y346358D02*
D03*
D80*
X240256Y298819D02*
D03*
D81*
Y282874D02*
D03*
D82*
X231201Y307677D02*
D03*
D83*
X249311D02*
D03*
D84*
X248819Y383563D02*
D03*
Y387303D02*
D03*
X259055D02*
D03*
Y379823D02*
D03*
D85*
X248819D02*
D03*
D86*
X122539Y374114D02*
D03*
X134547Y298425D02*
D03*
D87*
X113543Y402382D02*
D03*
X131535D02*
D03*
X125551Y326693D02*
D03*
X143543D02*
D03*
D88*
X286004Y244764D02*
D03*
X296004D02*
D03*
X306004D02*
D03*
X281004D02*
D03*
X291004D02*
D03*
X301004D02*
D03*
D89*
X272835Y236221D02*
D03*
Y228346D02*
D03*
X321535D02*
D03*
Y236221D02*
D03*
D90*
X273071Y190709D02*
D03*
X321299D02*
D03*
D91*
X306850Y192992D02*
D03*
X287480D02*
D03*
D92*
X194059Y259154D02*
D03*
X186059Y262653D02*
D03*
Y255654D02*
D03*
D93*
X191186Y216398D02*
D03*
Y221398D02*
D03*
Y226398D02*
D03*
Y231398D02*
D03*
Y236398D02*
D03*
Y241398D02*
D03*
Y246398D02*
D03*
X210586D02*
D03*
Y241398D02*
D03*
Y236398D02*
D03*
Y231398D02*
D03*
Y226398D02*
D03*
Y221398D02*
D03*
Y216398D02*
D03*
D94*
X158504Y283464D02*
D03*
X163504D02*
D03*
X168504D02*
D03*
X173504D02*
D03*
X178504D02*
D03*
X183504D02*
D03*
X188504D02*
D03*
X193504D02*
D03*
X198504D02*
D03*
X203504D02*
D03*
Y321064D02*
D03*
X198504D02*
D03*
X193504D02*
D03*
X188504D02*
D03*
X183504D02*
D03*
X178504D02*
D03*
X173504D02*
D03*
X168504D02*
D03*
X163504D02*
D03*
X158504D02*
D03*
D95*
X251575Y262500D02*
D03*
X226772D02*
D03*
D96*
X244764Y241339D02*
D03*
Y237598D02*
D03*
Y233858D02*
D03*
X235551D02*
D03*
Y237598D02*
D03*
Y241339D02*
D03*
D97*
X127657Y256299D02*
D03*
X137697D02*
D03*
X127657Y280906D02*
D03*
X137697D02*
D03*
D98*
X114272Y350492D02*
D03*
Y340453D02*
D03*
X138878Y350492D02*
D03*
Y340453D02*
D03*
D99*
X376575Y353740D02*
D03*
X384236D02*
D03*
M02*
