G04 Layer_Color=255*
%FSLAX25Y25*%
%MOIN*%
G70*
G01*
G75*
%ADD10R,0.15748X0.07874*%
%ADD11R,0.04921X0.04331*%
%ADD12R,0.05512X0.04331*%
%ADD13R,0.07874X0.03543*%
%ADD14R,0.03543X0.07874*%
%ADD15R,0.05236X0.05236*%
%ADD16R,0.12598X0.04134*%
%ADD17R,0.32677X0.41142*%
%ADD18R,0.05118X0.05905*%
%ADD19R,0.05905X0.05118*%
%ADD20R,0.08661X0.11024*%
G04:AMPARAMS|DCode=21|XSize=38.98mil|YSize=51.18mil|CornerRadius=2.92mil|HoleSize=0mil|Usage=FLASHONLY|Rotation=180.000|XOffset=0mil|YOffset=0mil|HoleType=Round|Shape=RoundedRectangle|*
%AMROUNDEDRECTD21*
21,1,0.03898,0.04534,0,0,180.0*
21,1,0.03313,0.05118,0,0,180.0*
1,1,0.00585,-0.01656,0.02267*
1,1,0.00585,0.01656,0.02267*
1,1,0.00585,0.01656,-0.02267*
1,1,0.00585,-0.01656,-0.02267*
%
%ADD21ROUNDEDRECTD21*%
G04:AMPARAMS|DCode=22|XSize=23.23mil|YSize=51.18mil|CornerRadius=1.74mil|HoleSize=0mil|Usage=FLASHONLY|Rotation=180.000|XOffset=0mil|YOffset=0mil|HoleType=Round|Shape=RoundedRectangle|*
%AMROUNDEDRECTD22*
21,1,0.02323,0.04770,0,0,180.0*
21,1,0.01974,0.05118,0,0,180.0*
1,1,0.00348,-0.00987,0.02385*
1,1,0.00348,0.00987,0.02385*
1,1,0.00348,0.00987,-0.02385*
1,1,0.00348,-0.00987,-0.02385*
%
%ADD22ROUNDEDRECTD22*%
%ADD23R,0.03937X0.09842*%
%ADD24R,0.03937X0.05512*%
%ADD25R,0.08346X0.08976*%
%ADD26R,0.04331X0.04921*%
%ADD27R,0.03543X0.03740*%
%ADD28R,0.04331X0.05512*%
G04:AMPARAMS|DCode=29|XSize=127.56mil|YSize=51.58mil|CornerRadius=3.87mil|HoleSize=0mil|Usage=FLASHONLY|Rotation=270.000|XOffset=0mil|YOffset=0mil|HoleType=Round|Shape=RoundedRectangle|*
%AMROUNDEDRECTD29*
21,1,0.12756,0.04384,0,0,270.0*
21,1,0.11982,0.05158,0,0,270.0*
1,1,0.00774,-0.02192,-0.05991*
1,1,0.00774,-0.02192,0.05991*
1,1,0.00774,0.02192,0.05991*
1,1,0.00774,0.02192,-0.05991*
%
%ADD29ROUNDEDRECTD29*%
G04:AMPARAMS|DCode=30|XSize=36.61mil|YSize=51.58mil|CornerRadius=2.75mil|HoleSize=0mil|Usage=FLASHONLY|Rotation=270.000|XOffset=0mil|YOffset=0mil|HoleType=Round|Shape=RoundedRectangle|*
%AMROUNDEDRECTD30*
21,1,0.03661,0.04608,0,0,270.0*
21,1,0.03112,0.05158,0,0,270.0*
1,1,0.00549,-0.02304,-0.01556*
1,1,0.00549,-0.02304,0.01556*
1,1,0.00549,0.02304,0.01556*
1,1,0.00549,0.02304,-0.01556*
%
%ADD30ROUNDEDRECTD30*%
G04:AMPARAMS|DCode=31|XSize=93.31mil|YSize=95.67mil|CornerRadius=11.66mil|HoleSize=0mil|Usage=FLASHONLY|Rotation=270.000|XOffset=0mil|YOffset=0mil|HoleType=Round|Shape=RoundedRectangle|*
%AMROUNDEDRECTD31*
21,1,0.09331,0.07234,0,0,270.0*
21,1,0.06998,0.09567,0,0,270.0*
1,1,0.02333,-0.03617,-0.03499*
1,1,0.02333,-0.03617,0.03499*
1,1,0.02333,0.03617,0.03499*
1,1,0.02333,0.03617,-0.03499*
%
%ADD31ROUNDEDRECTD31*%
%ADD32O,0.06299X0.01654*%
G04:AMPARAMS|DCode=33|XSize=41.73mil|YSize=25.59mil|CornerRadius=6.4mil|HoleSize=0mil|Usage=FLASHONLY|Rotation=90.000|XOffset=0mil|YOffset=0mil|HoleType=Round|Shape=RoundedRectangle|*
%AMROUNDEDRECTD33*
21,1,0.04173,0.01279,0,0,90.0*
21,1,0.02894,0.02559,0,0,90.0*
1,1,0.01279,0.00640,0.01447*
1,1,0.01279,0.00640,-0.01447*
1,1,0.01279,-0.00640,-0.01447*
1,1,0.01279,-0.00640,0.01447*
%
%ADD33ROUNDEDRECTD33*%
%ADD34R,0.22500X0.12500*%
%ADD35R,0.05512X0.03937*%
%ADD36R,0.08661X0.02362*%
%ADD37O,0.08661X0.02362*%
%ADD38R,0.09646X0.09646*%
%ADD39R,0.04724X0.03150*%
%ADD40R,0.04000X0.04500*%
%ADD41R,0.11024X0.10799*%
G04:AMPARAMS|DCode=42|XSize=149.21mil|YSize=38.98mil|CornerRadius=4.87mil|HoleSize=0mil|Usage=FLASHONLY|Rotation=270.000|XOffset=0mil|YOffset=0mil|HoleType=Round|Shape=RoundedRectangle|*
%AMROUNDEDRECTD42*
21,1,0.14921,0.02923,0,0,270.0*
21,1,0.13947,0.03898,0,0,270.0*
1,1,0.00974,-0.01462,-0.06973*
1,1,0.00974,-0.01462,0.06973*
1,1,0.00974,0.01462,0.06973*
1,1,0.00974,0.01462,-0.06973*
%
%ADD42ROUNDEDRECTD42*%
%ADD43R,0.42677X0.30000*%
%ADD44R,0.05000X0.02200*%
G04:AMPARAMS|DCode=45|XSize=51.58mil|YSize=24.41mil|CornerRadius=3.05mil|HoleSize=0mil|Usage=FLASHONLY|Rotation=0.000|XOffset=0mil|YOffset=0mil|HoleType=Round|Shape=RoundedRectangle|*
%AMROUNDEDRECTD45*
21,1,0.05158,0.01831,0,0,0.0*
21,1,0.04547,0.02441,0,0,0.0*
1,1,0.00610,0.02274,-0.00915*
1,1,0.00610,-0.02274,-0.00915*
1,1,0.00610,-0.02274,0.00915*
1,1,0.00610,0.02274,0.00915*
%
%ADD45ROUNDEDRECTD45*%
%ADD46R,0.05512X0.04724*%
%ADD47R,0.07874X0.08268*%
%ADD48R,0.07480X0.06299*%
%ADD49R,0.05315X0.01575*%
%ADD50R,0.07480X0.04724*%
%ADD51R,0.02362X0.01968*%
%ADD54C,0.07874*%
%ADD55R,0.07874X0.07874*%
%ADD56C,0.09055*%
%ADD57R,0.09055X0.09055*%
%ADD58C,0.05118*%
%ADD59R,0.05118X0.05118*%
%ADD60C,0.08000*%
%ADD61C,0.08200*%
%ADD62C,0.07087*%
%ADD63R,0.07874X0.07874*%
D10*
X205709Y202461D02*
D03*
X229331D02*
D03*
X159646Y303740D02*
D03*
X131299D02*
D03*
D11*
X385827Y306496D02*
D03*
Y316339D02*
D03*
X385827Y293012D02*
D03*
Y283169D02*
D03*
X385827Y340846D02*
D03*
Y331004D02*
D03*
D12*
X247146Y245965D02*
D03*
Y238484D02*
D03*
X177559Y270177D02*
D03*
Y262697D02*
D03*
X367913Y281693D02*
D03*
Y289173D02*
D03*
X180709Y332283D02*
D03*
Y324803D02*
D03*
X116535Y347933D02*
D03*
Y340453D02*
D03*
D13*
X253839Y409252D02*
D03*
Y404252D02*
D03*
Y399252D02*
D03*
Y394252D02*
D03*
Y389252D02*
D03*
Y384252D02*
D03*
Y379252D02*
D03*
Y374252D02*
D03*
Y369252D02*
D03*
Y364252D02*
D03*
Y359252D02*
D03*
Y354252D02*
D03*
Y349252D02*
D03*
Y344252D02*
D03*
X320768D02*
D03*
Y349252D02*
D03*
Y354252D02*
D03*
Y359252D02*
D03*
Y364252D02*
D03*
Y369252D02*
D03*
Y374252D02*
D03*
Y379252D02*
D03*
Y384252D02*
D03*
Y389252D02*
D03*
Y394252D02*
D03*
Y399252D02*
D03*
Y404252D02*
D03*
Y409252D02*
D03*
D14*
X264803Y340315D02*
D03*
X269803D02*
D03*
X274803D02*
D03*
X279803D02*
D03*
X284803D02*
D03*
X289803D02*
D03*
X294803D02*
D03*
X299803D02*
D03*
X304803D02*
D03*
X309803D02*
D03*
D15*
X276142Y386949D02*
D03*
X283366D02*
D03*
X290591D02*
D03*
X276142Y379724D02*
D03*
X283366D02*
D03*
X290591D02*
D03*
X276142Y372500D02*
D03*
X283366D02*
D03*
X290591D02*
D03*
D16*
X175394Y212500D02*
D03*
Y219193D02*
D03*
Y225886D02*
D03*
Y232579D02*
D03*
Y239272D02*
D03*
D17*
X138189Y225886D02*
D03*
D18*
X220571Y415256D02*
D03*
X213090D02*
D03*
X302953Y312598D02*
D03*
X295472D02*
D03*
X302756Y320079D02*
D03*
X295276D02*
D03*
X303642Y202165D02*
D03*
X296161D02*
D03*
X313583D02*
D03*
X321063D02*
D03*
X302854Y214862D02*
D03*
X295374D02*
D03*
D19*
X149508Y434055D02*
D03*
Y426575D02*
D03*
X159252Y434252D02*
D03*
Y426772D02*
D03*
X149902Y363189D02*
D03*
Y370669D02*
D03*
X125000Y371457D02*
D03*
Y363976D02*
D03*
X174606Y395079D02*
D03*
Y402559D02*
D03*
X182972Y394980D02*
D03*
Y402461D02*
D03*
X130512Y398327D02*
D03*
Y405807D02*
D03*
X188287Y378740D02*
D03*
Y386221D02*
D03*
X206201Y385335D02*
D03*
Y377854D02*
D03*
D20*
X198130Y415303D02*
D03*
Y434252D02*
D03*
X179528Y415500D02*
D03*
Y434449D02*
D03*
D21*
X120609Y424013D02*
D03*
D22*
X113837D02*
D03*
Y415942D02*
D03*
X121396D02*
D03*
D23*
X145039Y351378D02*
D03*
Y327362D02*
D03*
X135039Y351378D02*
D03*
Y327362D02*
D03*
X164134Y350984D02*
D03*
Y326969D02*
D03*
X154134Y350984D02*
D03*
Y326969D02*
D03*
D24*
X339961Y337205D02*
D03*
X347441D02*
D03*
X347244Y329232D02*
D03*
X339764D02*
D03*
X324617Y240191D02*
D03*
X332098D02*
D03*
X310433Y243701D02*
D03*
X302953D02*
D03*
X176279Y302756D02*
D03*
X183760D02*
D03*
X203248Y315440D02*
D03*
X195768D02*
D03*
X371654Y325000D02*
D03*
X364173D02*
D03*
X361319Y314567D02*
D03*
X368799D02*
D03*
X355118Y314764D02*
D03*
X347638D02*
D03*
D25*
X237795Y342874D02*
D03*
Y325827D02*
D03*
D26*
X312598Y192027D02*
D03*
X322441D02*
D03*
X305709Y192126D02*
D03*
X295866D02*
D03*
D27*
X281004Y327953D02*
D03*
X293406D02*
D03*
D28*
X254724Y275590D02*
D03*
X247244D02*
D03*
X247342Y267618D02*
D03*
X254823D02*
D03*
X254331Y289665D02*
D03*
X246850D02*
D03*
X246752Y297736D02*
D03*
X254232D02*
D03*
X225984Y312205D02*
D03*
X218504D02*
D03*
Y320276D02*
D03*
X225984D02*
D03*
X217618Y358268D02*
D03*
X225098D02*
D03*
Y366339D02*
D03*
X217618D02*
D03*
X332087Y248819D02*
D03*
X324606D02*
D03*
X303051Y252559D02*
D03*
X310531D02*
D03*
X302559Y297047D02*
D03*
X295079D02*
D03*
X295177Y305118D02*
D03*
X302658D02*
D03*
X154331Y195669D02*
D03*
X146850D02*
D03*
X234744Y402461D02*
D03*
X227264D02*
D03*
X234449Y385827D02*
D03*
X226969D02*
D03*
X234449Y394094D02*
D03*
X226969D02*
D03*
X213189Y393898D02*
D03*
X220669D02*
D03*
X213189Y385630D02*
D03*
X220669D02*
D03*
X213287Y402658D02*
D03*
X220768D02*
D03*
D29*
X288661Y285138D02*
D03*
X199409Y339764D02*
D03*
D30*
X262323Y276122D02*
D03*
Y285138D02*
D03*
Y294153D02*
D03*
X225748Y348780D02*
D03*
Y339764D02*
D03*
Y330748D02*
D03*
D31*
X318799Y299724D02*
D03*
Y324291D02*
D03*
D32*
X317618Y232972D02*
D03*
Y230413D02*
D03*
Y227854D02*
D03*
Y225295D02*
D03*
X339665Y232972D02*
D03*
Y230413D02*
D03*
Y227854D02*
D03*
Y225295D02*
D03*
D33*
X302953Y234350D02*
D03*
X299213D02*
D03*
X306693D02*
D03*
Y225689D02*
D03*
X299213D02*
D03*
X302953D02*
D03*
D34*
X214173Y268150D02*
D03*
Y228150D02*
D03*
D35*
X253248Y318012D02*
D03*
Y325492D02*
D03*
X173622Y346555D02*
D03*
Y354035D02*
D03*
X172343Y324705D02*
D03*
Y332185D02*
D03*
X125098Y331102D02*
D03*
Y323622D02*
D03*
X356398Y335335D02*
D03*
Y342815D02*
D03*
X354220Y298622D02*
D03*
Y306102D02*
D03*
X345558Y298622D02*
D03*
Y306102D02*
D03*
X125098Y340256D02*
D03*
Y347736D02*
D03*
D36*
X263189Y319547D02*
D03*
D37*
Y314547D02*
D03*
Y309547D02*
D03*
Y304547D02*
D03*
X284449Y319547D02*
D03*
Y314547D02*
D03*
Y309547D02*
D03*
Y304547D02*
D03*
D38*
X206004Y285728D02*
D03*
X181595D02*
D03*
D39*
X193012Y298984D02*
D03*
Y306484D02*
D03*
X202854Y302733D02*
D03*
X364862Y335807D02*
D03*
Y343307D02*
D03*
X374705Y339557D02*
D03*
X364153Y296545D02*
D03*
Y304045D02*
D03*
X373995Y300295D02*
D03*
D40*
X193154Y365094D02*
D03*
X200153D02*
D03*
X196653Y373095D02*
D03*
X200055Y402032D02*
D03*
X193055D02*
D03*
X196555Y394032D02*
D03*
D41*
X170079Y196752D02*
D03*
X189665D02*
D03*
D42*
X277224Y246949D02*
D03*
X267224D02*
D03*
X257224D02*
D03*
D43*
X267224Y204114D02*
D03*
D44*
X309664Y209390D02*
D03*
Y216791D02*
D03*
X319864D02*
D03*
Y213090D02*
D03*
Y209390D02*
D03*
D45*
X160925Y412776D02*
D03*
Y407776D02*
D03*
X139272Y377776D02*
D03*
X160925Y382776D02*
D03*
X139272D02*
D03*
Y392776D02*
D03*
X160925Y377776D02*
D03*
X139272Y387776D02*
D03*
X160925D02*
D03*
Y392776D02*
D03*
Y402776D02*
D03*
X139272Y397776D02*
D03*
Y402776D02*
D03*
Y412776D02*
D03*
X160925Y397776D02*
D03*
X139272Y407776D02*
D03*
D46*
X132776Y363976D02*
D03*
X141437D02*
D03*
Y370669D02*
D03*
X132776D02*
D03*
D47*
X113583Y400295D02*
D03*
Y375886D02*
D03*
D48*
X104331Y404232D02*
D03*
Y371949D02*
D03*
D49*
X114862Y382972D02*
D03*
Y385531D02*
D03*
Y388090D02*
D03*
Y390650D02*
D03*
Y393209D02*
D03*
D50*
X104331Y391437D02*
D03*
Y384744D02*
D03*
D51*
X334842Y360827D02*
D03*
X339961Y362795D02*
D03*
Y358858D02*
D03*
D54*
X113091Y240650D02*
D03*
Y220177D02*
D03*
X336910Y393406D02*
D03*
Y403406D02*
D03*
X114665Y294783D02*
D03*
Y260925D02*
D03*
X148917Y279823D02*
D03*
D55*
X336910Y383405D02*
D03*
D56*
X98122Y328748D02*
D03*
Y281504D02*
D03*
Y293315D02*
D03*
Y305126D02*
D03*
Y316937D02*
D03*
D57*
Y269693D02*
D03*
D58*
X241437Y194488D02*
D03*
X221654Y290551D02*
D03*
D59*
X241437Y202362D02*
D03*
X221654Y298425D02*
D03*
D60*
X375197Y376279D02*
D03*
X376614Y251122D02*
D03*
D61*
X385197Y386280D02*
D03*
X365197D02*
D03*
Y366280D02*
D03*
X385197D02*
D03*
X386614Y261122D02*
D03*
X366614D02*
D03*
Y241122D02*
D03*
X386614D02*
D03*
D62*
X97835Y251575D02*
D03*
Y231102D02*
D03*
D63*
X148917Y256201D02*
D03*
M02*
