G04 Layer_Color=32768*
%FSLAX25Y25*%
%MOIN*%
G70*
G01*
G75*
%ADD105C,0.00600*%
%ADD107C,0.00394*%
%ADD109C,0.00197*%
D105*
X360597Y393472D02*
X420899D01*
Y359087D02*
Y393472D01*
X360597Y359087D02*
X420899D01*
X360597D02*
Y393472D01*
X362014Y268315D02*
X422317D01*
Y233929D02*
Y268315D01*
X362014Y233929D02*
X422317D01*
X362014D02*
Y268315D01*
D107*
X182677Y204232D02*
Y247539D01*
X120866Y204232D02*
Y247539D01*
Y204232D02*
X182677D01*
X120866Y247539D02*
X182677D01*
X149803Y225886D02*
X153740D01*
X151772Y223917D02*
Y227854D01*
X312992Y235433D02*
X343898D01*
X312992Y223425D02*
X343898D01*
X312992D02*
Y235433D01*
X343898Y223425D02*
Y235433D01*
D109*
X195473Y196555D02*
Y208366D01*
Y196555D02*
X200197D01*
Y191535D02*
Y196555D01*
Y191535D02*
X206594Y185138D01*
X234842D01*
Y196555D01*
X239567D01*
Y208366D01*
X234842D02*
X239567D01*
X234842D02*
Y219783D01*
X206594D02*
X234842D01*
X200197Y213386D02*
X206594Y219783D01*
X200197Y208366D02*
Y213386D01*
X195473Y208366D02*
X200197D01*
X259705Y266634D02*
X276319D01*
X259705Y253248D02*
Y266634D01*
Y253248D02*
X276319D01*
Y266634D01*
X250886Y439724D02*
X323721D01*
Y412165D02*
Y439724D01*
Y412165D02*
X325689D01*
Y335394D02*
Y412165D01*
X248917Y335394D02*
X325689D01*
X248917D02*
Y412165D01*
X250886D01*
Y439724D01*
X210846Y186762D02*
Y203002D01*
X182854Y186762D02*
X210846D01*
X182854D02*
Y203002D01*
X210846D01*
X278346Y286811D02*
Y287598D01*
Y274213D02*
Y275000D01*
X285433Y283071D02*
Y287598D01*
Y274213D02*
Y278740D01*
X274291Y286811D02*
X278346D01*
X274291Y275000D02*
X278346D01*
X285433Y283071D02*
X289488D01*
X285433Y278740D02*
X289488D01*
X274291Y275000D02*
Y286811D01*
X278346Y287598D02*
X285433D01*
X289488Y278740D02*
Y283071D01*
X278346Y274213D02*
X285433D01*
X190256Y408858D02*
Y440748D01*
X206004D01*
Y408858D02*
Y440748D01*
X190256Y408858D02*
X206004D01*
X171653Y409055D02*
Y440945D01*
X187402D01*
Y409055D02*
Y440945D01*
X171653Y409055D02*
X187402D01*
X124585Y412379D02*
Y427576D01*
X110648D02*
X124585D01*
X110648Y412379D02*
Y427576D01*
Y412379D02*
X124585D01*
X229675Y348346D02*
X245915D01*
X229675Y320354D02*
Y348346D01*
Y320354D02*
X245915D01*
Y348346D01*
X283799Y292500D02*
Y299350D01*
Y292500D02*
X292224D01*
Y277776D02*
Y292500D01*
X283799Y277776D02*
X292224D01*
X283799Y270925D02*
Y277776D01*
X267185Y270925D02*
X283799D01*
X267185D02*
Y273287D01*
X258760D02*
X267185D01*
X258760D02*
Y296988D01*
X267185D01*
Y299350D01*
X283799D01*
X308760Y329961D02*
X328839D01*
X308760Y294055D02*
Y329961D01*
Y294055D02*
X328839D01*
Y329961D01*
X204272Y325551D02*
Y332402D01*
X195846D02*
X204272D01*
X195846D02*
Y347126D01*
X204272D01*
Y353976D01*
X220886D01*
Y351614D02*
Y353976D01*
Y351614D02*
X229311D01*
Y327913D02*
Y351614D01*
X220886Y327913D02*
X229311D01*
X220886Y325551D02*
Y327913D01*
X204272Y325551D02*
X220886D01*
X266781Y218189D02*
Y246181D01*
X250541D02*
X266781D01*
X250541Y218189D02*
Y246181D01*
Y218189D02*
X266781D01*
X373063Y349862D02*
Y357618D01*
X387748D01*
Y349862D02*
Y357618D01*
X373063Y349862D02*
X387748D01*
X118504Y370768D02*
Y405413D01*
X92520Y367815D02*
Y408366D01*
X109055D01*
Y405413D02*
Y408366D01*
Y405413D02*
X118504D01*
X92520Y367815D02*
X109055D01*
Y370768D01*
X118504D01*
M02*
