G04 Layer_Color=8388736*
%FSLAX25Y25*%
%MOIN*%
G70*
G01*
G75*
%ADD53C,0.08200*%
%ADD54C,0.08000*%
%ADD112R,0.05918X0.06706*%
%ADD113R,0.05800X0.03000*%
%ADD114R,0.43477X0.30800*%
G04:AMPARAMS|DCode=115|XSize=157.21mil|YSize=46.98mil|CornerRadius=8.87mil|HoleSize=0mil|Usage=FLASHONLY|Rotation=270.000|XOffset=0mil|YOffset=0mil|HoleType=Round|Shape=RoundedRectangle|*
%AMROUNDEDRECTD115*
21,1,0.15721,0.02923,0,0,270.0*
21,1,0.13947,0.04698,0,0,270.0*
1,1,0.01774,-0.01462,-0.06973*
1,1,0.01774,-0.01462,0.06973*
1,1,0.01774,0.01462,0.06973*
1,1,0.01774,0.01462,-0.06973*
%
%ADD115ROUNDEDRECTD115*%
%ADD116R,0.11824X0.11599*%
%ADD117R,0.06706X0.05918*%
%ADD118R,0.04800X0.05300*%
%ADD119R,0.06312X0.04737*%
%ADD120R,0.04737X0.06312*%
%ADD121R,0.05524X0.03950*%
%ADD122R,0.04737X0.10642*%
%ADD123R,0.05131X0.06312*%
%ADD124R,0.06312X0.05131*%
%ADD125R,0.10446X0.10446*%
%ADD126R,0.16548X0.08674*%
%ADD127O,0.09461X0.03162*%
%ADD128R,0.09461X0.03162*%
%ADD129R,0.23300X0.13300*%
G04:AMPARAMS|DCode=130|XSize=49.73mil|YSize=33.59mil|CornerRadius=10.4mil|HoleSize=0mil|Usage=FLASHONLY|Rotation=90.000|XOffset=0mil|YOffset=0mil|HoleType=Round|Shape=RoundedRectangle|*
%AMROUNDEDRECTD130*
21,1,0.04973,0.01279,0,0,90.0*
21,1,0.02894,0.03359,0,0,90.0*
1,1,0.02080,0.00640,0.01447*
1,1,0.02080,0.00640,-0.01447*
1,1,0.02080,-0.00640,-0.01447*
1,1,0.02080,-0.00640,0.01447*
%
%ADD130ROUNDEDRECTD130*%
%ADD131O,0.07099X0.02454*%
G04:AMPARAMS|DCode=132|XSize=44.61mil|YSize=59.58mil|CornerRadius=6.75mil|HoleSize=0mil|Usage=FLASHONLY|Rotation=90.000|XOffset=0mil|YOffset=0mil|HoleType=Round|Shape=RoundedRectangle|*
%AMROUNDEDRECTD132*
21,1,0.04461,0.04608,0,0,90.0*
21,1,0.03112,0.05958,0,0,90.0*
1,1,0.01349,0.02304,0.01556*
1,1,0.01349,0.02304,-0.01556*
1,1,0.01349,-0.02304,-0.01556*
1,1,0.01349,-0.02304,0.01556*
%
%ADD132ROUNDEDRECTD132*%
G04:AMPARAMS|DCode=133|XSize=135.56mil|YSize=59.58mil|CornerRadius=7.87mil|HoleSize=0mil|Usage=FLASHONLY|Rotation=90.000|XOffset=0mil|YOffset=0mil|HoleType=Round|Shape=RoundedRectangle|*
%AMROUNDEDRECTD133*
21,1,0.13556,0.04384,0,0,90.0*
21,1,0.11982,0.05958,0,0,90.0*
1,1,0.01574,0.02192,0.05991*
1,1,0.01574,0.02192,-0.05991*
1,1,0.01574,-0.02192,-0.05991*
1,1,0.01574,-0.02192,0.05991*
%
%ADD133ROUNDEDRECTD133*%
G04:AMPARAMS|DCode=134|XSize=101.31mil|YSize=103.67mil|CornerRadius=15.66mil|HoleSize=0mil|Usage=FLASHONLY|Rotation=270.000|XOffset=0mil|YOffset=0mil|HoleType=Round|Shape=RoundedRectangle|*
%AMROUNDEDRECTD134*
21,1,0.10131,0.07234,0,0,270.0*
21,1,0.06998,0.10367,0,0,270.0*
1,1,0.03133,-0.03617,-0.03499*
1,1,0.03133,-0.03617,0.03499*
1,1,0.03133,0.03617,0.03499*
1,1,0.03133,0.03617,-0.03499*
%
%ADD134ROUNDEDRECTD134*%
%ADD135R,0.04343X0.04540*%
%ADD136R,0.05131X0.05721*%
%ADD137R,0.09147X0.09776*%
G04:AMPARAMS|DCode=138|XSize=31.23mil|YSize=59.18mil|CornerRadius=5.74mil|HoleSize=0mil|Usage=FLASHONLY|Rotation=180.000|XOffset=0mil|YOffset=0mil|HoleType=Round|Shape=RoundedRectangle|*
%AMROUNDEDRECTD138*
21,1,0.03123,0.04770,0,0,180.0*
21,1,0.01974,0.05918,0,0,180.0*
1,1,0.01148,-0.00987,0.02385*
1,1,0.01148,0.00987,0.02385*
1,1,0.01148,0.00987,-0.02385*
1,1,0.01148,-0.00987,-0.02385*
%
%ADD138ROUNDEDRECTD138*%
G04:AMPARAMS|DCode=139|XSize=46.98mil|YSize=59.18mil|CornerRadius=6.92mil|HoleSize=0mil|Usage=FLASHONLY|Rotation=180.000|XOffset=0mil|YOffset=0mil|HoleType=Round|Shape=RoundedRectangle|*
%AMROUNDEDRECTD139*
21,1,0.04698,0.04534,0,0,180.0*
21,1,0.03313,0.05918,0,0,180.0*
1,1,0.01385,-0.01656,0.02267*
1,1,0.01385,0.01656,0.02267*
1,1,0.01385,0.01656,-0.02267*
1,1,0.01385,-0.01656,-0.02267*
%
%ADD139ROUNDEDRECTD139*%
%ADD140R,0.05524X0.03162*%
%ADD141R,0.09461X0.11824*%
%ADD142R,0.33477X0.41942*%
%ADD143R,0.13398X0.04934*%
%ADD144R,0.06036X0.06036*%
%ADD145R,0.08674X0.04343*%
%ADD146R,0.04343X0.08674*%
%ADD147R,0.08674X0.09068*%
%ADD148R,0.08280X0.07099*%
%ADD149R,0.06115X0.02375*%
%ADD150R,0.08280X0.05524*%
%ADD151R,0.05721X0.05131*%
%ADD152R,0.03162X0.02768*%
%ADD153C,0.08674*%
%ADD154R,0.08674X0.08674*%
%ADD155C,0.05918*%
%ADD156R,0.05918X0.05918*%
%ADD157C,0.07887*%
%ADD158C,0.09855*%
%ADD159R,0.09855X0.09855*%
%ADD160R,0.08674X0.08674*%
%ADD161C,0.01181*%
%ADD162C,0.02768*%
D53*
X386614Y241122D02*
D03*
X366614D02*
D03*
Y261122D02*
D03*
X386614D02*
D03*
X385197Y366280D02*
D03*
X365197D02*
D03*
Y386280D02*
D03*
X385197D02*
D03*
D54*
X376614Y251122D02*
D03*
X375197Y376279D02*
D03*
D112*
X295374Y214862D02*
D03*
X302854D02*
D03*
X117520Y361614D02*
D03*
X125000D02*
D03*
X158366Y385138D02*
D03*
X165847D02*
D03*
X158465Y402756D02*
D03*
X165945D02*
D03*
X165847Y393898D02*
D03*
X158366D02*
D03*
X165945Y376378D02*
D03*
X158465D02*
D03*
X321063Y202165D02*
D03*
X313583D02*
D03*
X296161D02*
D03*
X303642D02*
D03*
X295276Y320079D02*
D03*
X302756D02*
D03*
X295472Y312598D02*
D03*
X302953D02*
D03*
X213090Y415256D02*
D03*
X220571D02*
D03*
D113*
X319864Y209390D02*
D03*
Y213090D02*
D03*
Y216791D02*
D03*
X309664D02*
D03*
Y209390D02*
D03*
D114*
X267224Y204114D02*
D03*
D115*
X257224Y246949D02*
D03*
X267224D02*
D03*
X277224D02*
D03*
D116*
X189665Y196752D02*
D03*
X170079D02*
D03*
D117*
X206201Y377854D02*
D03*
Y385335D02*
D03*
X188287Y386221D02*
D03*
Y378740D02*
D03*
X182972Y402461D02*
D03*
Y394980D02*
D03*
X174606Y402559D02*
D03*
Y395079D02*
D03*
X142618Y411516D02*
D03*
Y418996D02*
D03*
X150787Y411516D02*
D03*
Y418996D02*
D03*
X159252Y426772D02*
D03*
Y434252D02*
D03*
X158957Y411516D02*
D03*
Y418996D02*
D03*
D118*
X196555Y394032D02*
D03*
X193055Y402032D02*
D03*
X200055D02*
D03*
X196653Y373095D02*
D03*
X200153Y365094D02*
D03*
X193154D02*
D03*
D119*
X125098Y347736D02*
D03*
Y340256D02*
D03*
X345558Y306102D02*
D03*
Y298622D02*
D03*
X354220Y306102D02*
D03*
Y298622D02*
D03*
X356398Y342815D02*
D03*
Y335335D02*
D03*
X125098Y323622D02*
D03*
Y331102D02*
D03*
X172343Y332185D02*
D03*
Y324705D02*
D03*
X173622Y354035D02*
D03*
Y346555D02*
D03*
X253248Y325492D02*
D03*
Y318012D02*
D03*
D120*
X347638Y314764D02*
D03*
X355118D02*
D03*
X368799Y314567D02*
D03*
X361319D02*
D03*
X364173Y325000D02*
D03*
X371654D02*
D03*
X195768Y315440D02*
D03*
X203248D02*
D03*
X183760Y302756D02*
D03*
X176279D02*
D03*
X302953Y243701D02*
D03*
X310433D02*
D03*
X332098Y240191D02*
D03*
X324617D02*
D03*
X339764Y329232D02*
D03*
X347244D02*
D03*
X347441Y337205D02*
D03*
X339961D02*
D03*
D121*
X373995Y300295D02*
D03*
X364153Y304045D02*
D03*
Y296545D02*
D03*
X374705Y339557D02*
D03*
X364862Y343307D02*
D03*
Y335807D02*
D03*
X202854Y302733D02*
D03*
X193012Y306484D02*
D03*
Y298984D02*
D03*
D122*
X154134Y326969D02*
D03*
Y350984D02*
D03*
X164134Y326969D02*
D03*
Y350984D02*
D03*
X135039Y327362D02*
D03*
Y351378D02*
D03*
X145039Y327362D02*
D03*
Y351378D02*
D03*
D123*
X220768Y402658D02*
D03*
X213287D02*
D03*
X220669Y385630D02*
D03*
X213189D02*
D03*
X220669Y393898D02*
D03*
X213189D02*
D03*
X226969Y394094D02*
D03*
X234449D02*
D03*
X226969Y385827D02*
D03*
X234449D02*
D03*
X227264Y402461D02*
D03*
X234744D02*
D03*
X146850Y195669D02*
D03*
X154331D02*
D03*
X302658Y305118D02*
D03*
X295177D02*
D03*
X295079Y297047D02*
D03*
X302559D02*
D03*
X310531Y252559D02*
D03*
X303051D02*
D03*
X324606Y248819D02*
D03*
X332087D02*
D03*
X217618Y366339D02*
D03*
X225098D02*
D03*
Y358268D02*
D03*
X217618D02*
D03*
X225984Y320276D02*
D03*
X218504D02*
D03*
Y312205D02*
D03*
X225984D02*
D03*
X254232Y297736D02*
D03*
X246752D02*
D03*
X246850Y289665D02*
D03*
X254331D02*
D03*
X254823Y267618D02*
D03*
X247342D02*
D03*
X247244Y275590D02*
D03*
X254724D02*
D03*
D124*
X116535Y340453D02*
D03*
Y347933D02*
D03*
X180709Y324803D02*
D03*
Y332283D02*
D03*
X367913Y289173D02*
D03*
Y281693D02*
D03*
X177559Y262697D02*
D03*
Y270177D02*
D03*
X247146Y238484D02*
D03*
Y245965D02*
D03*
D125*
X181595Y285728D02*
D03*
X206004D02*
D03*
D126*
X131299Y303740D02*
D03*
X159646D02*
D03*
X229331Y202461D02*
D03*
X205709D02*
D03*
D127*
X284449Y304547D02*
D03*
Y309547D02*
D03*
Y314547D02*
D03*
Y319547D02*
D03*
X263189Y304547D02*
D03*
Y309547D02*
D03*
Y314547D02*
D03*
D128*
Y319547D02*
D03*
D129*
X214173Y228150D02*
D03*
Y268150D02*
D03*
D130*
X302953Y225689D02*
D03*
X299213D02*
D03*
X306693D02*
D03*
Y234350D02*
D03*
X299213D02*
D03*
X302953D02*
D03*
D131*
X339665Y225295D02*
D03*
Y227854D02*
D03*
Y230413D02*
D03*
Y232972D02*
D03*
X317618Y225295D02*
D03*
Y227854D02*
D03*
Y230413D02*
D03*
Y232972D02*
D03*
D132*
X225748Y330748D02*
D03*
Y339764D02*
D03*
Y348780D02*
D03*
X262323Y294153D02*
D03*
Y285138D02*
D03*
Y276122D02*
D03*
D133*
X199409Y339764D02*
D03*
X288661Y285138D02*
D03*
D134*
X318799Y324291D02*
D03*
Y299724D02*
D03*
D135*
X293406Y327953D02*
D03*
X281004D02*
D03*
D136*
X295866Y192126D02*
D03*
X305709D02*
D03*
X322441Y192027D02*
D03*
X312598D02*
D03*
D137*
X237795Y325827D02*
D03*
Y342874D02*
D03*
D138*
X121396Y415942D02*
D03*
X113837D02*
D03*
Y424013D02*
D03*
D139*
X120609D02*
D03*
D140*
X125394Y403819D02*
D03*
Y398819D02*
D03*
Y393819D02*
D03*
Y388819D02*
D03*
Y383819D02*
D03*
Y378819D02*
D03*
Y373819D02*
D03*
Y368819D02*
D03*
X147441D02*
D03*
Y373819D02*
D03*
Y378819D02*
D03*
Y383819D02*
D03*
Y388819D02*
D03*
Y393819D02*
D03*
Y398819D02*
D03*
Y403819D02*
D03*
D141*
X179528Y434449D02*
D03*
Y415500D02*
D03*
X198130Y434252D02*
D03*
Y415303D02*
D03*
D142*
X138189Y225886D02*
D03*
D143*
X175394Y239272D02*
D03*
Y232579D02*
D03*
Y225886D02*
D03*
Y219193D02*
D03*
Y212500D02*
D03*
D144*
X290591Y372500D02*
D03*
X283366D02*
D03*
X276142D02*
D03*
X290591Y379724D02*
D03*
X283366D02*
D03*
X276142D02*
D03*
X290591Y386949D02*
D03*
X283366D02*
D03*
X276142D02*
D03*
D145*
X320768Y409252D02*
D03*
Y404252D02*
D03*
Y399252D02*
D03*
Y394252D02*
D03*
Y389252D02*
D03*
Y384252D02*
D03*
Y379252D02*
D03*
Y374252D02*
D03*
Y369252D02*
D03*
Y364252D02*
D03*
Y359252D02*
D03*
Y354252D02*
D03*
Y349252D02*
D03*
Y344252D02*
D03*
X253839D02*
D03*
Y349252D02*
D03*
Y354252D02*
D03*
Y359252D02*
D03*
Y364252D02*
D03*
Y369252D02*
D03*
Y374252D02*
D03*
Y379252D02*
D03*
Y384252D02*
D03*
Y389252D02*
D03*
Y394252D02*
D03*
Y399252D02*
D03*
Y404252D02*
D03*
Y409252D02*
D03*
D146*
X309803Y340315D02*
D03*
X304803D02*
D03*
X299803D02*
D03*
X294803D02*
D03*
X289803D02*
D03*
X284803D02*
D03*
X279803D02*
D03*
X274803D02*
D03*
X269803D02*
D03*
X264803D02*
D03*
D147*
X113681Y400295D02*
D03*
Y375886D02*
D03*
D148*
X104429Y404232D02*
D03*
Y371949D02*
D03*
D149*
X114961Y382972D02*
D03*
Y385531D02*
D03*
Y388090D02*
D03*
Y390650D02*
D03*
Y393209D02*
D03*
D150*
X104429Y391437D02*
D03*
Y384744D02*
D03*
D151*
X385827Y331004D02*
D03*
Y340846D02*
D03*
X385827Y283169D02*
D03*
Y293012D02*
D03*
X385827Y316339D02*
D03*
Y306496D02*
D03*
D152*
X339961Y358858D02*
D03*
Y362795D02*
D03*
X334842Y360827D02*
D03*
D153*
X148917Y279823D02*
D03*
X114665Y260925D02*
D03*
Y294783D02*
D03*
X336910Y403406D02*
D03*
Y393406D02*
D03*
X113091Y220177D02*
D03*
Y240650D02*
D03*
D154*
X148917Y256201D02*
D03*
D155*
X221654Y290551D02*
D03*
X241437Y194488D02*
D03*
D156*
X221654Y298425D02*
D03*
X241437Y202362D02*
D03*
D157*
X97835Y231102D02*
D03*
Y251575D02*
D03*
D158*
X98122Y316937D02*
D03*
Y305126D02*
D03*
Y293315D02*
D03*
Y281504D02*
D03*
Y328748D02*
D03*
D159*
Y269693D02*
D03*
D160*
X336910Y383405D02*
D03*
D161*
X331693Y307972D02*
D03*
X287303Y270768D02*
D03*
X271752Y291142D02*
D03*
X205217Y350590D02*
D03*
X210630Y349705D02*
D03*
X204035Y357874D02*
D03*
X330512Y316240D02*
D03*
X343504Y324902D02*
D03*
X387894Y353642D02*
D03*
X240158Y392618D02*
D03*
X261319Y325197D02*
D03*
X269390Y323819D02*
D03*
X231201Y317421D02*
D03*
X359154Y356988D02*
D03*
X256791Y308366D02*
D03*
X232677Y364469D02*
D03*
X266732Y285138D02*
D03*
X165059Y260728D02*
D03*
X153740Y371161D02*
D03*
X151772Y368012D02*
D03*
X155610Y366732D02*
D03*
X137992Y315650D02*
D03*
X147441Y317815D02*
D03*
X182382Y262795D02*
D03*
X181496Y276969D02*
D03*
X220669Y380906D02*
D03*
X315748Y268602D02*
D03*
X185335Y226279D02*
D03*
X149606Y347146D02*
D03*
X340354Y298622D02*
D03*
X149409Y338386D02*
D03*
X304724Y267520D02*
D03*
X377756Y294094D02*
D03*
X276575Y309547D02*
D03*
X173130Y289567D02*
D03*
X195472Y348130D02*
D03*
X192520Y250394D02*
D03*
X338878Y343012D02*
D03*
X313583Y216831D02*
D03*
X324803Y216732D02*
D03*
X173031Y312008D02*
D03*
X315551Y251969D02*
D03*
X286811Y266831D02*
D03*
X262402Y300197D02*
D03*
X264567Y223721D02*
D03*
X288779Y240059D02*
D03*
X272244Y268701D02*
D03*
X216339Y301772D02*
D03*
X250394Y282382D02*
D03*
X308169Y205217D02*
D03*
X299311Y230906D02*
D03*
X196752Y302559D02*
D03*
X272146Y280610D02*
D03*
X216339Y279724D02*
D03*
X350984Y345866D02*
D03*
X277559Y323819D02*
D03*
X273819D02*
D03*
X337598Y316732D02*
D03*
X342224Y316043D02*
D03*
X360335Y292815D02*
D03*
X357776Y289764D02*
D03*
X336221Y337106D02*
D03*
X305610Y290551D02*
D03*
X368110Y273031D02*
D03*
X363681Y273425D02*
D03*
X188779Y418898D02*
D03*
X189370Y405315D02*
D03*
X172736Y416240D02*
D03*
X280906Y356791D02*
D03*
X305512Y359842D02*
D03*
X304921Y362992D02*
D03*
X272047Y363976D02*
D03*
X311122Y405315D02*
D03*
X314173Y389370D02*
D03*
X246555Y360433D02*
D03*
X200000Y351969D02*
D03*
X260236Y367126D02*
D03*
X269291Y365354D02*
D03*
X245965Y399410D02*
D03*
X287205Y362402D02*
D03*
X238386Y364469D02*
D03*
X258858Y337205D02*
D03*
X271161Y354724D02*
D03*
X255315Y304134D02*
D03*
X312992Y399016D02*
D03*
X266043Y366535D02*
D03*
X273819Y358268D02*
D03*
X262671Y373124D02*
D03*
X265354Y389075D02*
D03*
X132283Y391634D02*
D03*
X117098Y407185D02*
D03*
X208957Y416043D02*
D03*
X295079Y272146D02*
D03*
X327461Y329528D02*
D03*
X333850Y333161D02*
D03*
X153347Y358071D02*
D03*
X196457Y389469D02*
D03*
X109350Y358858D02*
D03*
X244390Y357185D02*
D03*
X177461Y406988D02*
D03*
X181595Y343012D02*
D03*
X166339Y423327D02*
D03*
X182911Y390650D02*
D03*
X196653Y377264D02*
D03*
X228445Y379134D02*
D03*
X163681Y370669D02*
D03*
X139370Y358169D02*
D03*
X134055Y412106D02*
D03*
X202559Y348327D02*
D03*
X307283Y213090D02*
D03*
X219783Y239370D02*
D03*
X109746Y279136D02*
D03*
X107776Y306890D02*
D03*
X385630Y324902D02*
D03*
X208465Y397047D02*
D03*
X208349Y405423D02*
D03*
X205906Y208268D02*
D03*
D162*
X200787Y423524D02*
D03*
X203642Y415650D02*
D03*
M02*
