G04 Layer_Color=16711935*
%FSLAX25Y25*%
%MOIN*%
G70*
G01*
G75*
%ADD101C,0.00787*%
%ADD102C,0.00600*%
%ADD103C,0.00000*%
%ADD105C,0.01000*%
%ADD106C,0.00500*%
%ADD108C,0.00394*%
%ADD199C,0.00100*%
G36*
X187259Y261954D02*
X184958D01*
Y263754D01*
X187259D01*
Y261954D01*
D02*
G37*
G36*
X201254Y363994D02*
X199454D01*
Y366295D01*
X201254D01*
Y363994D01*
D02*
G37*
G36*
X187259Y254553D02*
X184959D01*
Y256353D01*
X187259D01*
Y254553D01*
D02*
G37*
G36*
X195159Y258254D02*
X192859D01*
Y260053D01*
X195159D01*
Y258254D01*
D02*
G37*
G36*
X193853Y363994D02*
X192053D01*
Y366295D01*
X193853D01*
Y363994D01*
D02*
G37*
G36*
X193755Y400832D02*
X191955D01*
Y403132D01*
X193755D01*
Y400832D01*
D02*
G37*
G36*
X201155D02*
X199355D01*
Y403132D01*
X201155D01*
Y400832D01*
D02*
G37*
G36*
X197554Y371895D02*
X195754D01*
Y374195D01*
X197554D01*
Y371895D01*
D02*
G37*
G36*
X197455Y392932D02*
X195655D01*
Y395231D01*
X197455D01*
Y392932D01*
D02*
G37*
D101*
X120630Y383051D02*
X119843D01*
X120630D01*
X133169Y358661D02*
X132382D01*
X133169D01*
X259055Y216437D02*
X258268D01*
X259055D01*
X249626Y241339D02*
X248839D01*
X249626D01*
X277618Y257185D02*
X276831D01*
X277618D01*
X248327Y409213D02*
X247539D01*
X248327D01*
X231488Y330748D02*
X230701D01*
X231488D01*
X257370Y294153D02*
X256583D01*
X257370D01*
X238189Y350098D02*
X237402D01*
X238189D01*
X180709Y407283D02*
X180165Y408032D01*
X179284Y407746D01*
Y406821D01*
X180165Y406535D01*
X180709Y407283D01*
X199311Y407087D02*
X198767Y407835D01*
X197887Y407549D01*
Y406624D01*
X198767Y406338D01*
X199311Y407087D01*
X272992Y277165D02*
X272205D01*
X272992D01*
X212992Y194882D02*
X212205D01*
X212992D01*
X185236Y377559D02*
X184449D01*
X185236D01*
X278248Y264272D02*
X277461D01*
X278248D01*
X199016Y210335D02*
X198228D01*
X199016D01*
D102*
X311364Y219191D02*
X318164D01*
X311364Y217791D02*
Y219191D01*
Y215891D02*
Y217791D01*
Y210291D02*
Y215891D01*
Y206991D02*
X313564D01*
X315964D01*
X318164D01*
Y208390D01*
Y210291D01*
Y212090D01*
Y214090D01*
Y215891D01*
Y208390D02*
X320664D01*
Y210291D01*
X318164D02*
X320664D01*
X318164Y212090D02*
X320664D01*
Y214090D01*
X318164D02*
X320664D01*
X318164Y217791D02*
Y219191D01*
Y215891D02*
Y217791D01*
Y215891D02*
X320664D01*
Y217791D01*
X318164D02*
X320664D01*
X308864D02*
X311364D01*
X308864Y215891D02*
Y217791D01*
Y215891D02*
X311364D01*
Y206991D02*
Y208390D01*
Y210291D01*
X308864D02*
X311364D01*
X308864Y208390D02*
Y210291D01*
Y208390D02*
X311364D01*
D103*
X315964Y206991D02*
X315612Y207839D01*
X314764Y208190D01*
X313915Y207839D01*
X313564Y206991D01*
X155404Y301064D02*
X156253Y301415D01*
X156604Y302264D01*
X156253Y303112D01*
X155404Y303464D01*
X202086Y214198D02*
X201734Y215046D01*
X200886Y215398D01*
X200037Y215046D01*
X199686Y214198D01*
X157603Y344666D02*
X158452Y345018D01*
X158803Y345866D01*
X158452Y346715D01*
X157603Y347066D01*
X157504Y317264D02*
X159504D01*
X157504D02*
Y323264D01*
X159504D01*
Y317264D02*
Y323264D01*
X162504Y317264D02*
X164504D01*
X162504D02*
Y323264D01*
X164504D01*
Y317264D02*
Y323264D01*
X167504Y317264D02*
X169504D01*
X167504D02*
Y323264D01*
X169504D01*
Y317264D02*
Y323264D01*
X172504Y317264D02*
X174504D01*
X172504D02*
Y323264D01*
X174504D01*
Y317264D02*
Y323264D01*
X177504Y317264D02*
X179504D01*
X177504D02*
Y323264D01*
X179504D01*
Y317264D02*
Y323264D01*
X182504Y317264D02*
X184504D01*
X182504D02*
Y323264D01*
X184504D01*
Y317264D02*
Y323264D01*
X187504Y317264D02*
X189504D01*
X187504D02*
Y323264D01*
X189504D01*
Y317264D02*
Y323264D01*
X192504Y317264D02*
X194504D01*
X192504D02*
Y323264D01*
X194504D01*
Y317264D02*
Y323264D01*
X197504Y317264D02*
X199504D01*
X197504D02*
Y323264D01*
X199504D01*
Y317264D02*
Y323264D01*
X202504Y317264D02*
X204504D01*
X202504D02*
Y323264D01*
X204504D01*
Y317264D02*
Y323264D01*
X202504Y287264D02*
X204504D01*
Y281264D02*
Y287264D01*
X202504Y281264D02*
X204504D01*
X202504D02*
Y287264D01*
X197504D02*
X199504D01*
Y281264D02*
Y287264D01*
X197504Y281264D02*
X199504D01*
X197504D02*
Y287264D01*
X192504D02*
X194504D01*
Y281264D02*
Y287264D01*
X192504Y281264D02*
X194504D01*
X192504D02*
Y287264D01*
X187504D02*
X189504D01*
Y281264D02*
Y287264D01*
X187504Y281264D02*
X189504D01*
X187504D02*
Y287264D01*
X182504D02*
X184504D01*
Y281264D02*
Y287264D01*
X182504Y281264D02*
X184504D01*
X182504D02*
Y287264D01*
X177504D02*
X179504D01*
Y281264D02*
Y287264D01*
X177504Y281264D02*
X179504D01*
X177504D02*
Y287264D01*
X172504D02*
X174504D01*
Y281264D02*
Y287264D01*
X172504Y281264D02*
X174504D01*
X172504D02*
Y287264D01*
X167504D02*
X169504D01*
Y281264D02*
Y287264D01*
X167504Y281264D02*
X169504D01*
X167504D02*
Y287264D01*
X162504D02*
X164504D01*
Y281264D02*
Y287264D01*
X162504Y281264D02*
X164504D01*
X162504D02*
Y287264D01*
X157504D02*
X159504D01*
Y281264D02*
Y287264D01*
X157504Y281264D02*
X159504D01*
X157504D02*
Y287264D01*
X206604D02*
Y317264D01*
X155404Y287264D02*
X206604D01*
X155404D02*
Y301064D01*
Y303464D01*
Y317264D01*
X206604D01*
X192986Y214198D02*
Y248598D01*
Y214198D02*
X199686D01*
X202086D01*
X208786D01*
Y248598D01*
X192986D02*
X208786D01*
Y215498D02*
X213086D01*
Y217298D01*
X208786D02*
X213086D01*
X208786Y215498D02*
Y217298D01*
Y220498D02*
X213086D01*
Y222298D01*
X208786D02*
X213086D01*
X208786Y220498D02*
Y222298D01*
Y225498D02*
X213086D01*
Y227298D01*
X208786D02*
X213086D01*
X208786Y225498D02*
Y227298D01*
Y230498D02*
X213086D01*
Y232298D01*
X208786D02*
X213086D01*
X208786Y230498D02*
Y232298D01*
Y235498D02*
X213086D01*
Y237298D01*
X208786D02*
X213086D01*
X208786Y235498D02*
Y237298D01*
Y240498D02*
X213086D01*
Y242298D01*
X208786D02*
X213086D01*
X208786Y240498D02*
Y242298D01*
Y245498D02*
X213086D01*
Y247298D01*
X208786D02*
X213086D01*
X208786Y245498D02*
Y247298D01*
X188686D02*
X192986D01*
X188686Y245498D02*
Y247298D01*
Y245498D02*
X192986D01*
Y247298D01*
X188686Y242298D02*
X192986D01*
X188686Y240498D02*
Y242298D01*
Y240498D02*
X192986D01*
Y242298D01*
X188686Y237298D02*
X192986D01*
X188686Y235498D02*
Y237298D01*
Y235498D02*
X192986D01*
Y237298D01*
X188686Y232298D02*
X192986D01*
X188686Y230498D02*
Y232298D01*
Y230498D02*
X192986D01*
Y232298D01*
X188686Y227298D02*
X192986D01*
X188686Y225498D02*
Y227298D01*
Y225498D02*
X192986D01*
Y227298D01*
X188686Y222298D02*
X192986D01*
X188686Y220498D02*
Y222298D01*
Y220498D02*
X192986D01*
Y222298D01*
X188686Y217298D02*
X192986D01*
X188686Y215498D02*
Y217298D01*
Y215498D02*
X192986D01*
Y217298D01*
X157603Y353766D02*
X192003D01*
X157603Y347066D02*
Y353766D01*
Y344666D02*
Y347066D01*
Y337966D02*
Y344666D01*
Y337966D02*
X192003D01*
Y353766D01*
X158903Y333666D02*
Y337966D01*
Y333666D02*
X160703D01*
Y337966D01*
X158903D02*
X160703D01*
X163903Y333666D02*
Y337966D01*
Y333666D02*
X165703D01*
Y337966D01*
X163903D02*
X165703D01*
X168903Y333666D02*
Y337966D01*
Y333666D02*
X170703D01*
Y337966D01*
X168903D02*
X170703D01*
X173903Y333666D02*
Y337966D01*
Y333666D02*
X175703D01*
Y337966D01*
X173903D02*
X175703D01*
X178903Y333666D02*
Y337966D01*
Y333666D02*
X180703D01*
Y337966D01*
X178903D02*
X180703D01*
X183903Y333666D02*
Y337966D01*
Y333666D02*
X185703D01*
Y337966D01*
X183903D02*
X185703D01*
X188903Y333666D02*
Y337966D01*
Y333666D02*
X190703D01*
Y337966D01*
X188903D02*
X190703D01*
Y353766D02*
Y358066D01*
X188903D02*
X190703D01*
X188903Y353766D02*
Y358066D01*
Y353766D02*
X190703D01*
X185703D02*
Y358066D01*
X183903D02*
X185703D01*
X183903Y353766D02*
Y358066D01*
Y353766D02*
X185703D01*
X180703D02*
Y358066D01*
X178903D02*
X180703D01*
X178903Y353766D02*
Y358066D01*
Y353766D02*
X180703D01*
X175703D02*
Y358066D01*
X173903D02*
X175703D01*
X173903Y353766D02*
Y358066D01*
Y353766D02*
X175703D01*
X170703D02*
Y358066D01*
X168903D02*
X170703D01*
X168903Y353766D02*
Y358066D01*
Y353766D02*
X170703D01*
X165703D02*
Y358066D01*
X163903D02*
X165703D01*
X163903Y353766D02*
Y358066D01*
Y353766D02*
X165703D01*
X160703D02*
Y358066D01*
X158903D02*
X160703D01*
X158903Y353766D02*
Y358066D01*
Y353766D02*
X160703D01*
D105*
X263681Y423976D02*
Y428642D01*
X266014Y430974D01*
X268346Y428642D01*
Y423976D01*
Y427475D01*
X263681D01*
X270679Y423976D02*
Y430974D01*
X275344Y423976D01*
Y430974D01*
X277677D02*
X282342D01*
X280009D01*
Y423976D01*
X289339Y430974D02*
X284674D01*
Y423976D01*
X289339D01*
X284674Y427475D02*
X287007D01*
X291672Y423976D02*
Y430974D01*
X296337Y423976D01*
Y430974D01*
X298670Y423976D02*
Y430974D01*
X303335Y423976D01*
Y430974D01*
X305667Y423976D02*
Y428642D01*
X308000Y430974D01*
X310333Y428642D01*
Y423976D01*
Y427475D01*
X305667D01*
D106*
X352854Y218799D02*
Y229035D01*
X376468Y356201D02*
X384343D01*
X376468Y351279D02*
X384343D01*
Y356201D01*
X376468Y351279D02*
Y356201D01*
X251526Y223671D02*
X265797D01*
X251526D02*
Y240699D01*
X265797D01*
Y223671D02*
Y240699D01*
X287224Y196661D02*
Y232177D01*
X247224D02*
X287224D01*
X247224Y196661D02*
Y232177D01*
Y196661D02*
X287224D01*
X205256Y326535D02*
X219902D01*
X205256D02*
Y352992D01*
X219902D01*
Y326535D02*
Y352992D01*
X268169Y298366D02*
X282815D01*
Y271909D02*
Y298366D01*
X268169Y271909D02*
X282815D01*
X268169D02*
Y298366D01*
X244931Y325837D02*
Y342864D01*
X230660Y325837D02*
X244931D01*
X230660D02*
Y342864D01*
X244931D01*
X111632Y417221D02*
X123601D01*
X111632D02*
Y422733D01*
X123601D01*
Y417221D02*
Y422733D01*
X186417Y413189D02*
Y436811D01*
X172638Y413189D02*
Y436811D01*
Y413189D02*
X186417D01*
X172638Y436811D02*
X186417D01*
X205020Y412992D02*
Y436614D01*
X191240Y412992D02*
Y436614D01*
Y412992D02*
X205020D01*
X191240Y436614D02*
X205020D01*
X350689Y398819D02*
Y409055D01*
X284449Y275197D02*
Y286614D01*
X279331D02*
X284449D01*
X279331Y275197D02*
Y286614D01*
Y275197D02*
X284449D01*
X188337Y202018D02*
X205364D01*
X188337Y187746D02*
Y202018D01*
Y187746D02*
X205364D01*
Y202018D01*
X147047Y383465D02*
Y440551D01*
X204921D01*
Y383465D02*
Y440551D01*
X147047Y383465D02*
X204921D01*
X251870Y413937D02*
X322736D01*
X251870D02*
Y438740D01*
Y338347D02*
Y413937D01*
Y338347D02*
X322736D01*
Y413937D01*
Y438740D01*
X251870D02*
X322736D01*
X264862Y265650D02*
X271161D01*
X264862Y254232D02*
Y265650D01*
Y254232D02*
X271161D01*
Y265650D01*
X201181Y192028D02*
Y212894D01*
Y192028D02*
X207087Y186122D01*
X233858D01*
Y218799D01*
X207087D02*
X233858D01*
X201181Y212894D02*
X207087Y218799D01*
D108*
X220571Y383957D02*
Y388681D01*
X212697Y383957D02*
Y388681D01*
X212992Y393012D02*
Y397736D01*
X220866Y393012D02*
Y397736D01*
X288878Y254921D02*
X293602D01*
X288878Y262795D02*
X293602D01*
X305217Y254921D02*
X309941D01*
X305217Y262795D02*
X309941D01*
X280512Y254921D02*
X285236D01*
X280512Y262795D02*
X285236D01*
X297047Y262894D02*
X301772D01*
X297047Y255020D02*
X301772D01*
X122736Y340059D02*
X127461D01*
X122736Y347933D02*
X127461D01*
X355315Y312402D02*
Y317126D01*
X347441Y312402D02*
Y317126D01*
X361122Y312205D02*
Y316929D01*
X368996Y312205D02*
Y316929D01*
X343196Y298425D02*
X347920D01*
X343196Y306299D02*
X347920D01*
X351857Y298425D02*
X356582D01*
X351857Y306299D02*
X356582D01*
X354035Y335138D02*
X358760D01*
X354035Y343012D02*
X358760D01*
X371850Y322638D02*
Y327362D01*
X363976Y322638D02*
Y327362D01*
X220965Y400295D02*
Y405020D01*
X213090Y400295D02*
Y405020D01*
X220866Y383268D02*
Y387992D01*
X212992Y383268D02*
Y387992D01*
X220866Y391535D02*
Y396260D01*
X212992Y391535D02*
Y396260D01*
X226772Y391732D02*
Y396457D01*
X234646Y391732D02*
Y396457D01*
X226772Y383465D02*
Y388189D01*
X234646Y383465D02*
Y388189D01*
X227067Y400098D02*
Y404823D01*
X234941Y400098D02*
Y404823D01*
X114173Y340256D02*
X118898D01*
X114173Y348130D02*
X118898D01*
X178347Y324606D02*
X183071D01*
X178347Y332480D02*
X183071D01*
X146653Y193307D02*
Y198031D01*
X154528Y193307D02*
Y198031D01*
X365551Y289370D02*
X370276D01*
X365551Y281496D02*
X370276D01*
X203445Y313078D02*
Y317802D01*
X195571Y313078D02*
Y317802D01*
X176083Y300394D02*
Y305118D01*
X183957Y300394D02*
Y305118D01*
X122736Y331299D02*
X127461D01*
X122736Y323425D02*
X127461D01*
X169980Y324508D02*
X174705D01*
X169980Y332382D02*
X174705D01*
X171260Y346358D02*
X175984D01*
X171260Y354232D02*
X175984D01*
X302854Y302756D02*
Y307480D01*
X294980Y302756D02*
Y307480D01*
X294882Y294685D02*
Y299409D01*
X302756Y294685D02*
Y299409D01*
X250886Y317815D02*
X255610D01*
X250886Y325689D02*
X255610D01*
X310728Y250197D02*
Y254921D01*
X302854Y250197D02*
Y254921D01*
X310630Y241339D02*
Y246063D01*
X302756Y241339D02*
Y246063D01*
X324420Y237828D02*
Y242553D01*
X332295Y237828D02*
Y242553D01*
X335335Y224508D02*
Y233661D01*
X322047Y224508D02*
Y233661D01*
Y224508D02*
X335335D01*
X322047Y233661D02*
X335335D01*
X232677Y377756D02*
Y382480D01*
X240551Y377756D02*
Y382480D01*
X232776Y385433D02*
Y390158D01*
X240650Y385433D02*
Y390158D01*
X217323Y306102D02*
X222047D01*
X217323Y313976D02*
X222047D01*
X324410Y246457D02*
Y251181D01*
X332283Y246457D02*
Y251181D01*
X217421Y363976D02*
Y368701D01*
X225295Y363976D02*
Y368701D01*
Y355906D02*
Y360630D01*
X217421Y355906D02*
Y360630D01*
X226181Y317913D02*
Y322638D01*
X218307Y317913D02*
Y322638D01*
Y309842D02*
Y314567D01*
X226181Y309842D02*
Y314567D01*
X254429Y295374D02*
Y300098D01*
X246555Y295374D02*
Y300098D01*
X246654Y287303D02*
Y292028D01*
X254528Y287303D02*
Y292028D01*
X255020Y265256D02*
Y269980D01*
X247146Y265256D02*
Y269980D01*
X247047Y273228D02*
Y277953D01*
X254921Y273228D02*
Y277953D01*
X347441Y326870D02*
Y331594D01*
X339567Y326870D02*
Y331594D01*
X339764Y334842D02*
Y339567D01*
X347638Y334842D02*
Y339567D01*
X175197Y262500D02*
X179921D01*
X175197Y270374D02*
X179921D01*
X127953Y246358D02*
X164961D01*
X127953Y205413D02*
X164961D01*
X127953D02*
Y246358D01*
X164961Y205413D02*
Y246358D01*
X244783Y238287D02*
X249508D01*
X244783Y246161D02*
X249508D01*
X231594Y419882D02*
X236319D01*
X231594Y427756D02*
X236319D01*
X214961Y433465D02*
Y438189D01*
X222835Y433465D02*
Y438189D01*
X214961Y425098D02*
Y429823D01*
X222835Y425098D02*
Y429823D01*
X214862Y416142D02*
Y420866D01*
X222736Y416142D02*
Y420866D01*
X280217Y384744D02*
Y389469D01*
X272342Y384744D02*
Y389469D01*
D199*
X364213Y263524D02*
X389016D01*
Y238720D02*
Y263524D01*
X364213Y238720D02*
X389016D01*
X364213D02*
Y263524D01*
X389016Y261850D02*
X420118D01*
Y240394D02*
Y261850D01*
X389016Y240394D02*
X420118D01*
X389016D02*
Y261850D01*
X362795Y388681D02*
X387598D01*
Y363878D02*
Y388681D01*
X362795Y363878D02*
X387598D01*
X362795D02*
Y388681D01*
X387598Y387008D02*
X418701D01*
Y365551D02*
Y387008D01*
X387598Y365551D02*
X418701D01*
X387598D02*
Y387008D01*
M02*
