G04 Layer_Color=65535*
%FSLAX25Y25*%
%MOIN*%
G70*
G01*
G75*
%ADD100C,0.00600*%
%ADD101C,0.00000*%
%ADD102C,0.00787*%
%ADD103C,0.00800*%
%ADD104C,0.00984*%
%ADD105C,0.01000*%
%ADD106C,0.00500*%
%ADD107C,0.00197*%
%ADD108C,0.00394*%
%ADD109C,0.00591*%
%ADD110C,0.00606*%
%ADD111C,0.00300*%
G36*
X132224Y321093D02*
X129724D01*
Y323592D01*
X132224D01*
Y321093D01*
D02*
G37*
G36*
X190512Y308983D02*
X188012D01*
Y311484D01*
X190512D01*
Y308983D01*
D02*
G37*
G36*
X361653Y306545D02*
X359153D01*
Y309045D01*
X361653D01*
Y306545D01*
D02*
G37*
G36*
X351476Y378839D02*
X343209Y383169D01*
X351476Y387500D01*
Y378839D01*
D02*
G37*
G36*
X169449Y354754D02*
X166949D01*
Y357254D01*
X169449D01*
Y354754D01*
D02*
G37*
G36*
X362362Y345807D02*
X359862D01*
Y348307D01*
X362362D01*
Y345807D01*
D02*
G37*
D100*
X376914Y233720D02*
X376314D01*
X376914D01*
X375497Y358878D02*
X374897D01*
X375497D01*
X371180Y264024D02*
X382048D01*
X389516Y245688D02*
Y256556D01*
X371180Y238221D02*
X382048D01*
X363713Y245688D02*
Y256556D01*
X391883Y262350D02*
X420618D01*
Y239894D02*
Y262350D01*
X391883Y239894D02*
X420618D01*
X388516Y246187D02*
Y256057D01*
X312364Y206991D02*
X313564D01*
X315964D01*
X317164D01*
X369763Y389181D02*
X380631D01*
X388098Y370846D02*
Y381714D01*
X369763Y363378D02*
X380631D01*
X362295Y370846D02*
Y381714D01*
X390466Y387508D02*
X419201D01*
Y365051D02*
Y387508D01*
X390466Y365051D02*
X419201D01*
X387098Y371344D02*
Y381215D01*
X335589Y357195D02*
X338131D01*
X335589D02*
Y358238D01*
Y364458D02*
X338131D01*
X335589Y363317D02*
Y364458D01*
X382776Y347184D02*
Y344685D01*
X384025D01*
X384442Y345102D01*
Y346768D01*
X384025Y347184D01*
X382776D01*
X385275Y344685D02*
X386108D01*
X385691D01*
Y347184D01*
X385275Y346768D01*
X387357D02*
X387774Y347184D01*
X388607D01*
X389024Y346768D01*
Y346351D01*
X388607Y345935D01*
X388191D01*
X388607D01*
X389024Y345518D01*
Y345102D01*
X388607Y344685D01*
X387774D01*
X387357Y345102D01*
X327854Y197933D02*
X325355D01*
Y199183D01*
X325772Y199599D01*
X326605D01*
X327021Y199183D01*
Y197933D01*
Y198766D02*
X327854Y199599D01*
Y200432D02*
Y201265D01*
Y200849D01*
X325355D01*
X325772Y200432D01*
Y202515D02*
X325355Y202931D01*
Y203765D01*
X325772Y204181D01*
X327438D01*
X327854Y203765D01*
Y202931D01*
X327438Y202515D01*
X325772D01*
Y205014D02*
X325355Y205431D01*
Y206264D01*
X325772Y206680D01*
X327438D01*
X327854Y206264D01*
Y205431D01*
X327438Y205014D01*
X325772D01*
X292618Y220079D02*
X290119D01*
Y221328D01*
X290535Y221745D01*
X291369D01*
X291785Y221328D01*
Y220079D01*
Y220912D02*
X292618Y221745D01*
X292202Y222578D02*
X292618Y222994D01*
Y223828D01*
X292202Y224244D01*
X290535D01*
X290119Y223828D01*
Y222994D01*
X290535Y222578D01*
X290952D01*
X291369Y222994D01*
Y224244D01*
X292618Y225077D02*
Y225910D01*
Y225494D01*
X290119D01*
X290535Y225077D01*
X295571Y206791D02*
Y209291D01*
X296820D01*
X297237Y208874D01*
Y208041D01*
X296820Y207624D01*
X295571D01*
X296404D02*
X297237Y206791D01*
X298070Y207208D02*
X298487Y206791D01*
X299320D01*
X299736Y207208D01*
Y208874D01*
X299320Y209291D01*
X298487D01*
X298070Y208874D01*
Y208457D01*
X298487Y208041D01*
X299736D01*
X300569Y208874D02*
X300986Y209291D01*
X301819D01*
X302235Y208874D01*
Y207208D01*
X301819Y206791D01*
X300986D01*
X300569Y207208D01*
Y208874D01*
X163287Y189901D02*
Y187402D01*
X164537D01*
X164953Y187818D01*
Y189484D01*
X164537Y189901D01*
X163287D01*
X167453D02*
X165787D01*
Y188651D01*
X166620Y189068D01*
X167036D01*
X167453Y188651D01*
Y187818D01*
X167036Y187402D01*
X166203D01*
X165787Y187818D01*
X169488Y383858D02*
Y386357D01*
X170738D01*
X171154Y385941D01*
Y385108D01*
X170738Y384691D01*
X169488D01*
X170321D02*
X171154Y383858D01*
X173237D02*
Y386357D01*
X171987Y385108D01*
X173653D01*
X174487Y386357D02*
X176153D01*
Y385941D01*
X174487Y384275D01*
Y383858D01*
X176986Y385941D02*
X177402Y386357D01*
X178235D01*
X178652Y385941D01*
Y384275D01*
X178235Y383858D01*
X177402D01*
X176986Y384275D01*
Y385941D01*
X166339Y407972D02*
Y410472D01*
X167588D01*
X168005Y410055D01*
Y409222D01*
X167588Y408806D01*
X166339D01*
X167172D02*
X168005Y407972D01*
X168838D02*
X169671D01*
X169254D01*
Y410472D01*
X168838Y410055D01*
X172587Y407972D02*
X170920D01*
X172587Y409639D01*
Y410055D01*
X172170Y410472D01*
X171337D01*
X170920Y410055D01*
X173420Y407972D02*
X174253D01*
X173836D01*
Y410472D01*
X173420Y410055D01*
X158858Y367520D02*
Y370019D01*
X160108D01*
X160524Y369602D01*
Y368769D01*
X160108Y368353D01*
X158858D01*
X159691D02*
X160524Y367520D01*
X161357D02*
X162190D01*
X161774D01*
Y370019D01*
X161357Y369602D01*
X165106Y367520D02*
X163440D01*
X165106Y369186D01*
Y369602D01*
X164690Y370019D01*
X163857D01*
X163440Y369602D01*
X165939D02*
X166356Y370019D01*
X167189D01*
X167605Y369602D01*
Y367936D01*
X167189Y367520D01*
X166356D01*
X165939Y367936D01*
Y369602D01*
X123031Y351378D02*
Y353877D01*
X124281D01*
X124698Y353461D01*
Y352628D01*
X124281Y352211D01*
X123031D01*
X123865D02*
X124698Y351378D01*
X127197Y353877D02*
X125531D01*
Y352628D01*
X126364Y353044D01*
X126780D01*
X127197Y352628D01*
Y351795D01*
X126780Y351378D01*
X125947D01*
X125531Y351795D01*
X337106Y311516D02*
Y314015D01*
X338356D01*
X338772Y313598D01*
Y312765D01*
X338356Y312349D01*
X337106D01*
X337939D02*
X338772Y311516D01*
X340855D02*
Y314015D01*
X339605Y312765D01*
X341272D01*
X342105Y313598D02*
X342521Y314015D01*
X343354D01*
X343771Y313598D01*
Y313182D01*
X343354Y312765D01*
X343771Y312349D01*
Y311932D01*
X343354Y311516D01*
X342521D01*
X342105Y311932D01*
Y312349D01*
X342521Y312765D01*
X342105Y313182D01*
Y313598D01*
X342521Y312765D02*
X343354D01*
X374902Y311319D02*
X372402D01*
Y312568D01*
X372819Y312985D01*
X373652D01*
X374068Y312568D01*
Y311319D01*
Y312152D02*
X374902Y312985D01*
Y315068D02*
X372402D01*
X373652Y313818D01*
Y315484D01*
X372402Y316317D02*
Y317983D01*
X372819D01*
X374485Y316317D01*
X374902D01*
X334154Y305413D02*
Y307913D01*
X335403D01*
X335820Y307496D01*
Y306663D01*
X335403Y306246D01*
X334154D01*
X334987D02*
X335820Y305413D01*
X337902D02*
Y307913D01*
X336653Y306663D01*
X338319D01*
X339152Y307496D02*
X339568Y307913D01*
X340402D01*
X340818Y307496D01*
Y307080D01*
X340402Y306663D01*
X339985D01*
X340402D01*
X340818Y306246D01*
Y305830D01*
X340402Y305413D01*
X339568D01*
X339152Y305830D01*
X351279Y292913D02*
Y295413D01*
X352529D01*
X352946Y294996D01*
Y294163D01*
X352529Y293746D01*
X351279D01*
X352113D02*
X352946Y292913D01*
X355028D02*
Y295413D01*
X353779Y294163D01*
X355445D01*
X357944Y292913D02*
X356278D01*
X357944Y294580D01*
Y294996D01*
X357527Y295413D01*
X356694D01*
X356278Y294996D01*
X352854Y346161D02*
Y348661D01*
X354104D01*
X354521Y348244D01*
Y347411D01*
X354104Y346994D01*
X352854D01*
X353687D02*
X354521Y346161D01*
X356603D02*
Y348661D01*
X355353Y347411D01*
X357020D01*
X357853Y346161D02*
X358686D01*
X358269D01*
Y348661D01*
X357853Y348244D01*
X353740Y323917D02*
Y326416D01*
X354990D01*
X355406Y326000D01*
Y325167D01*
X354990Y324750D01*
X353740D01*
X354573D02*
X355406Y323917D01*
X357489D02*
Y326416D01*
X356239Y325167D01*
X357906D01*
X358738Y326000D02*
X359155Y326416D01*
X359988D01*
X360405Y326000D01*
Y324334D01*
X359988Y323917D01*
X359155D01*
X358738Y324334D01*
Y326000D01*
X375272Y292217D02*
X373606D01*
X373190Y291801D01*
Y290968D01*
X373606Y290551D01*
X375272D01*
X375689Y290968D01*
Y291801D01*
X374856Y291384D02*
X375689Y292217D01*
Y291801D02*
X375272Y292217D01*
X375689Y293050D02*
Y293883D01*
Y293467D01*
X373190D01*
X373606Y293050D01*
Y295133D02*
X373190Y295550D01*
Y296383D01*
X373606Y296799D01*
X375272D01*
X375689Y296383D01*
Y295550D01*
X375272Y295133D01*
X373606D01*
X363772Y330043D02*
Y331709D01*
X363356Y332125D01*
X362523D01*
X362106Y331709D01*
Y330043D01*
X362523Y329626D01*
X363356D01*
X362939Y330459D02*
X363772Y329626D01*
X363356D02*
X363772Y330043D01*
X364605D02*
X365022Y329626D01*
X365855D01*
X366272Y330043D01*
Y331709D01*
X365855Y332125D01*
X365022D01*
X364605Y331709D01*
Y331292D01*
X365022Y330876D01*
X366272D01*
X384055Y322381D02*
Y319882D01*
X385305D01*
X385721Y320298D01*
Y321965D01*
X385305Y322381D01*
X384055D01*
X387804Y319882D02*
Y322381D01*
X386554Y321131D01*
X388221D01*
X204127Y306519D02*
Y308185D01*
X203710Y308601D01*
X202877D01*
X202461Y308185D01*
Y306519D01*
X202877Y306102D01*
X203710D01*
X203294Y306935D02*
X204127Y306102D01*
X203710D02*
X204127Y306519D01*
X204960Y308185D02*
X205376Y308601D01*
X206209D01*
X206626Y308185D01*
Y307769D01*
X206209Y307352D01*
X205793D01*
X206209D01*
X206626Y306935D01*
Y306519D01*
X206209Y306102D01*
X205376D01*
X204960Y306519D01*
X142421Y360373D02*
Y358291D01*
X142838Y357874D01*
X143671D01*
X144087Y358291D01*
Y360373D01*
X144921Y358291D02*
X145337Y357874D01*
X146170D01*
X146587Y358291D01*
Y359957D01*
X146170Y360373D01*
X145337D01*
X144921Y359957D01*
Y359540D01*
X145337Y359124D01*
X146587D01*
X158071Y360472D02*
Y358389D01*
X158487Y357972D01*
X159320D01*
X159737Y358389D01*
Y360472D01*
X161820Y357972D02*
Y360472D01*
X160570Y359222D01*
X162236D01*
X212591Y409465D02*
X212175Y409881D01*
X211342D01*
X210925Y409465D01*
Y407798D01*
X211342Y407382D01*
X212175D01*
X212591Y407798D01*
X213424Y409465D02*
X213841Y409881D01*
X214674D01*
X215090Y409465D01*
Y409048D01*
X214674Y408632D01*
X214258D01*
X214674D01*
X215090Y408215D01*
Y407798D01*
X214674Y407382D01*
X213841D01*
X213424Y407798D01*
X215924D02*
X216340Y407382D01*
X217173D01*
X217590Y407798D01*
Y409465D01*
X217173Y409881D01*
X216340D01*
X215924Y409465D01*
Y409048D01*
X216340Y408632D01*
X217590D01*
X214068Y380429D02*
X213651Y380846D01*
X212818D01*
X212402Y380429D01*
Y378763D01*
X212818Y378346D01*
X213651D01*
X214068Y378763D01*
X214901Y380429D02*
X215317Y380846D01*
X216150D01*
X216567Y380429D01*
Y380013D01*
X216150Y379596D01*
X215734D01*
X216150D01*
X216567Y379180D01*
Y378763D01*
X216150Y378346D01*
X215317D01*
X214901Y378763D01*
X219066Y380846D02*
X218233Y380429D01*
X217400Y379596D01*
Y378763D01*
X217816Y378346D01*
X218650D01*
X219066Y378763D01*
Y379180D01*
X218650Y379596D01*
X217400D01*
X204324Y394209D02*
X203907Y394625D01*
X203074D01*
X202658Y394209D01*
Y392543D01*
X203074Y392126D01*
X203907D01*
X204324Y392543D01*
X205157Y394209D02*
X205573Y394625D01*
X206406D01*
X206823Y394209D01*
Y393792D01*
X206406Y393376D01*
X205990D01*
X206406D01*
X206823Y392959D01*
Y392543D01*
X206406Y392126D01*
X205573D01*
X205157Y392543D01*
X207656Y394209D02*
X208072Y394625D01*
X208906D01*
X209322Y394209D01*
Y392543D01*
X208906Y392126D01*
X208072D01*
X207656Y392543D01*
Y394209D01*
X239953Y395882D02*
X239537Y396298D01*
X238704D01*
X238287Y395882D01*
Y394216D01*
X238704Y393799D01*
X239537D01*
X239953Y394216D01*
X242036Y393799D02*
Y396298D01*
X240787Y395049D01*
X242453D01*
X243286Y395882D02*
X243702Y396298D01*
X244535D01*
X244952Y395882D01*
Y394216D01*
X244535Y393799D01*
X243702D01*
X243286Y394216D01*
Y395882D01*
X240249Y386630D02*
X239832Y387046D01*
X238999D01*
X238583Y386630D01*
Y384964D01*
X238999Y384547D01*
X239832D01*
X240249Y384964D01*
X241082Y386630D02*
X241498Y387046D01*
X242332D01*
X242748Y386630D01*
Y386213D01*
X242332Y385797D01*
X241915D01*
X242332D01*
X242748Y385380D01*
Y384964D01*
X242332Y384547D01*
X241498D01*
X241082Y384964D01*
X243581Y387046D02*
X245247D01*
Y386630D01*
X243581Y384964D01*
Y384547D01*
X229521Y409661D02*
X229104Y410078D01*
X228271D01*
X227854Y409661D01*
Y407995D01*
X228271Y407579D01*
X229104D01*
X229521Y407995D01*
X230353Y409661D02*
X230770Y410078D01*
X231603D01*
X232020Y409661D01*
Y409245D01*
X231603Y408828D01*
X231187D01*
X231603D01*
X232020Y408412D01*
Y407995D01*
X231603Y407579D01*
X230770D01*
X230353Y407995D01*
X234519Y407579D02*
X232853D01*
X234519Y409245D01*
Y409661D01*
X234102Y410078D01*
X233269D01*
X232853Y409661D01*
X116332Y336630D02*
X115915Y337046D01*
X115082D01*
X114665Y336630D01*
Y334964D01*
X115082Y334547D01*
X115915D01*
X116332Y334964D01*
X118831Y334547D02*
X117165D01*
X118831Y336213D01*
Y336630D01*
X118414Y337046D01*
X117581D01*
X117165Y336630D01*
X180749Y320290D02*
X180332Y320706D01*
X179499D01*
X179083Y320290D01*
Y318624D01*
X179499Y318207D01*
X180332D01*
X180749Y318624D01*
X181582Y318207D02*
X182415D01*
X181998D01*
Y320706D01*
X181582Y320290D01*
X206292Y297555D02*
X205876Y297972D01*
X205043D01*
X204626Y297555D01*
Y295889D01*
X205043Y295472D01*
X205876D01*
X206292Y295889D01*
X207125Y297555D02*
X207542Y297972D01*
X208375D01*
X208791Y297555D01*
Y297139D01*
X208375Y296722D01*
X207958D01*
X208375D01*
X208791Y296305D01*
Y295889D01*
X208375Y295472D01*
X207542D01*
X207125Y295889D01*
X139953Y198539D02*
X139537Y198956D01*
X138704D01*
X138287Y198539D01*
Y196873D01*
X138704Y196457D01*
X139537D01*
X139953Y196873D01*
X142453Y198956D02*
X141620Y198539D01*
X140787Y197706D01*
Y196873D01*
X141203Y196457D01*
X142036D01*
X142453Y196873D01*
Y197290D01*
X142036Y197706D01*
X140787D01*
X165446Y296571D02*
X165029Y296987D01*
X164196D01*
X163779Y296571D01*
Y294905D01*
X164196Y294488D01*
X165029D01*
X165446Y294905D01*
X167528Y294488D02*
Y296987D01*
X166279Y295738D01*
X167945D01*
X366233Y277969D02*
X365816Y278385D01*
X364984D01*
X364567Y277969D01*
Y276302D01*
X364984Y275886D01*
X365816D01*
X366233Y276302D01*
X367066Y275886D02*
X367899D01*
X367483D01*
Y278385D01*
X367066Y277969D01*
X369149Y276302D02*
X369565Y275886D01*
X370398D01*
X370815Y276302D01*
Y277969D01*
X370398Y278385D01*
X369565D01*
X369149Y277969D01*
Y277552D01*
X369565Y277135D01*
X370815D01*
X197047Y319980D02*
Y322480D01*
X198297D01*
X198713Y322063D01*
Y321230D01*
X198297Y320813D01*
X197047D01*
X197880D02*
X198713Y319980D01*
X199546Y322063D02*
X199963Y322480D01*
X200796D01*
X201213Y322063D01*
Y321646D01*
X200796Y321230D01*
X200379D01*
X200796D01*
X201213Y320813D01*
Y320397D01*
X200796Y319980D01*
X199963D01*
X199546Y320397D01*
X202046Y319980D02*
X202879D01*
X202462D01*
Y322480D01*
X202046Y322063D01*
X176772Y307283D02*
Y309783D01*
X178021D01*
X178438Y309366D01*
Y308533D01*
X178021Y308117D01*
X176772D01*
X177605D02*
X178438Y307283D01*
X179271Y309366D02*
X179687Y309783D01*
X180520D01*
X180937Y309366D01*
Y308950D01*
X180520Y308533D01*
X180104D01*
X180520D01*
X180937Y308117D01*
Y307700D01*
X180520Y307283D01*
X179687D01*
X179271Y307700D01*
X181770Y309366D02*
X182187Y309783D01*
X183020D01*
X183436Y309366D01*
Y308950D01*
X183020Y308533D01*
X182603D01*
X183020D01*
X183436Y308117D01*
Y307700D01*
X183020Y307283D01*
X182187D01*
X181770Y307700D01*
X120374Y325098D02*
X117875D01*
Y326348D01*
X118291Y326765D01*
X119124D01*
X119541Y326348D01*
Y325098D01*
Y325932D02*
X120374Y326765D01*
X117875Y329264D02*
X118291Y328431D01*
X119124Y327598D01*
X119957D01*
X120374Y328014D01*
Y328847D01*
X119957Y329264D01*
X119541D01*
X119124Y328847D01*
Y327598D01*
X170571Y318898D02*
Y321397D01*
X171820D01*
X172237Y320980D01*
Y320147D01*
X171820Y319731D01*
X170571D01*
X171404D02*
X172237Y318898D01*
X173070D02*
X173903D01*
X173487D01*
Y321397D01*
X173070Y320980D01*
X171949Y340354D02*
Y342853D01*
X173198D01*
X173615Y342437D01*
Y341604D01*
X173198Y341187D01*
X171949D01*
X172782D02*
X173615Y340354D01*
X176114D02*
X174448D01*
X176114Y342021D01*
Y342437D01*
X175698Y342853D01*
X174864D01*
X174448Y342437D01*
X383760Y279763D02*
Y277264D01*
X385009D01*
X385426Y277680D01*
Y279346D01*
X385009Y279763D01*
X383760D01*
X386259Y279346D02*
X386676Y279763D01*
X387509D01*
X387925Y279346D01*
Y278930D01*
X387509Y278513D01*
X387925Y278097D01*
Y277680D01*
X387509Y277264D01*
X386676D01*
X386259Y277680D01*
Y278097D01*
X386676Y278513D01*
X386259Y278930D01*
Y279346D01*
X386676Y278513D02*
X387509D01*
X268110Y327991D02*
Y325909D01*
X268527Y325492D01*
X269360D01*
X269776Y325909D01*
Y327991D01*
X270609Y325492D02*
X271443D01*
X271026D01*
Y327991D01*
X270609Y327575D01*
X272692D02*
X273109Y327991D01*
X273942D01*
X274358Y327575D01*
Y325909D01*
X273942Y325492D01*
X273109D01*
X272692Y325909D01*
Y327575D01*
X307071Y302257D02*
X306654Y301840D01*
Y301007D01*
X307071Y300590D01*
X308737D01*
X309154Y301007D01*
Y301840D01*
X308737Y302257D01*
X309154Y304339D02*
X306654D01*
X307904Y303090D01*
Y304756D01*
X309154Y306838D02*
X306654D01*
X307904Y305589D01*
Y307255D01*
X297335Y292142D02*
X296919Y292558D01*
X296086D01*
X295669Y292142D01*
Y290476D01*
X296086Y290059D01*
X296919D01*
X297335Y290476D01*
X299418Y290059D02*
Y292558D01*
X298168Y291309D01*
X299835D01*
X300668Y292142D02*
X301084Y292558D01*
X301917D01*
X302334Y292142D01*
Y291725D01*
X301917Y291309D01*
X301501D01*
X301917D01*
X302334Y290892D01*
Y290476D01*
X301917Y290059D01*
X301084D01*
X300668Y290476D01*
X250098Y312205D02*
Y314704D01*
X251348D01*
X251765Y314287D01*
Y313454D01*
X251348Y313038D01*
X250098D01*
X250932D02*
X251765Y312205D01*
X252598Y314287D02*
X253014Y314704D01*
X253847D01*
X254264Y314287D01*
Y313871D01*
X253847Y313454D01*
X253431D01*
X253847D01*
X254264Y313038D01*
Y312621D01*
X253847Y312205D01*
X253014D01*
X252598Y312621D01*
X256346Y312205D02*
Y314704D01*
X255097Y313454D01*
X256763D01*
X180807Y248365D02*
Y245866D01*
X182473D01*
X183306Y247949D02*
X183723Y248365D01*
X184556D01*
X184972Y247949D01*
Y247532D01*
X184556Y247116D01*
X184139D01*
X184556D01*
X184972Y246699D01*
Y246283D01*
X184556Y245866D01*
X183723D01*
X183306Y246283D01*
X120309Y203385D02*
Y201303D01*
X120726Y200886D01*
X121559D01*
X121975Y201303D01*
Y203385D01*
X124475D02*
X123642Y202969D01*
X122808Y202136D01*
Y201303D01*
X123225Y200886D01*
X124058D01*
X124475Y201303D01*
Y201719D01*
X124058Y202136D01*
X122808D01*
X337493Y252083D02*
X337076Y252499D01*
X336243D01*
X335827Y252083D01*
Y250416D01*
X336243Y250000D01*
X337076D01*
X337493Y250416D01*
X338326Y252499D02*
X339992D01*
Y252083D01*
X338326Y250416D01*
Y250000D01*
X302552Y259268D02*
X302135Y259684D01*
X301302D01*
X300886Y259268D01*
Y257602D01*
X301302Y257185D01*
X302135D01*
X302552Y257602D01*
X303385Y259268D02*
X303801Y259684D01*
X304635D01*
X305051Y259268D01*
Y258851D01*
X304635Y258435D01*
X305051Y258018D01*
Y257602D01*
X304635Y257185D01*
X303801D01*
X303385Y257602D01*
Y258018D01*
X303801Y258435D01*
X303385Y258851D01*
Y259268D01*
X303801Y258435D02*
X304635D01*
X335531Y238779D02*
Y241279D01*
X336781D01*
X337198Y240862D01*
Y240029D01*
X336781Y239613D01*
X335531D01*
X336365D02*
X337198Y238779D01*
X338031D02*
X338864D01*
X338447D01*
Y241279D01*
X338031Y240862D01*
X340113D02*
X340530Y241279D01*
X341363D01*
X341779Y240862D01*
Y239196D01*
X341363Y238779D01*
X340530D01*
X340113Y239196D01*
Y240862D01*
X292678Y227559D02*
X294761D01*
X295177Y227976D01*
Y228809D01*
X294761Y229225D01*
X292678D01*
X293094Y230058D02*
X292678Y230475D01*
Y231308D01*
X293094Y231724D01*
X293511D01*
X293928Y231308D01*
Y230891D01*
Y231308D01*
X294344Y231724D01*
X294761D01*
X295177Y231308D01*
Y230475D01*
X294761Y230058D01*
X293094Y232557D02*
X292678Y232974D01*
Y233807D01*
X293094Y234224D01*
X294761D01*
X295177Y233807D01*
Y232974D01*
X294761Y232557D01*
X293094D01*
Y235057D02*
X292678Y235473D01*
Y236306D01*
X293094Y236723D01*
X294761D01*
X295177Y236306D01*
Y235473D01*
X294761Y235057D01*
X293094D01*
X327756Y221987D02*
Y219905D01*
X328172Y219488D01*
X329006D01*
X329422Y219905D01*
Y221987D01*
X330255Y219488D02*
X331088D01*
X330672D01*
Y221987D01*
X330255Y221571D01*
X332338Y219488D02*
X333171D01*
X332754D01*
Y221987D01*
X332338Y221571D01*
X337598Y412440D02*
X339265Y409941D01*
Y412440D02*
X337598Y409941D01*
X341764Y412440D02*
X340098D01*
Y411191D01*
X340931Y411607D01*
X341347D01*
X341764Y411191D01*
Y410358D01*
X341347Y409941D01*
X340514D01*
X340098Y410358D01*
X168701Y248562D02*
Y246063D01*
X170367D01*
X171200D02*
X172033D01*
X171616D01*
Y248562D01*
X171200Y248146D01*
X101863Y222283D02*
X100197D01*
Y221033D01*
X101030D01*
X100197D01*
Y219783D01*
X102696D02*
X103529D01*
X103113D01*
Y222283D01*
X102696Y221866D01*
X243792Y282201D02*
X243376Y282617D01*
X242543D01*
X242126Y282201D01*
Y280535D01*
X242543Y280118D01*
X243376D01*
X243792Y280535D01*
X246291Y280118D02*
X244625D01*
X246291Y281784D01*
Y282201D01*
X245875Y282617D01*
X245042D01*
X244625Y282201D01*
X247124D02*
X247541Y282617D01*
X248374D01*
X248791Y282201D01*
Y281784D01*
X248374Y281368D01*
X248791Y280951D01*
Y280535D01*
X248374Y280118D01*
X247541D01*
X247124Y280535D01*
Y280951D01*
X247541Y281368D01*
X247124Y281784D01*
Y282201D01*
X247541Y281368D02*
X248374D01*
X238280Y290469D02*
X237864Y290885D01*
X237031D01*
X236614Y290469D01*
Y288802D01*
X237031Y288386D01*
X237864D01*
X238280Y288802D01*
X240779Y288386D02*
X239113D01*
X240779Y290052D01*
Y290469D01*
X240363Y290885D01*
X239530D01*
X239113Y290469D01*
X241613Y288802D02*
X242029Y288386D01*
X242862D01*
X243279Y288802D01*
Y290469D01*
X242862Y290885D01*
X242029D01*
X241613Y290469D01*
Y290052D01*
X242029Y289635D01*
X243279D01*
X210229Y318913D02*
X209813Y319330D01*
X208980D01*
X208563Y318913D01*
Y317247D01*
X208980Y316831D01*
X209813D01*
X210229Y317247D01*
X212728Y316831D02*
X211062D01*
X212728Y318497D01*
Y318913D01*
X212312Y319330D01*
X211479D01*
X211062Y318913D01*
X213561D02*
X213978Y319330D01*
X214811D01*
X215228Y318913D01*
Y318497D01*
X214811Y318080D01*
X214394D01*
X214811D01*
X215228Y317664D01*
Y317247D01*
X214811Y316831D01*
X213978D01*
X213561Y317247D01*
X230997Y359169D02*
X230580Y359586D01*
X229747D01*
X229331Y359169D01*
Y357503D01*
X229747Y357087D01*
X230580D01*
X230997Y357503D01*
X233496Y357087D02*
X231830D01*
X233496Y358753D01*
Y359169D01*
X233080Y359586D01*
X232246D01*
X231830Y359169D01*
X235995Y357087D02*
X234329D01*
X235995Y358753D01*
Y359169D01*
X235579Y359586D01*
X234746D01*
X234329Y359169D01*
X238280Y297949D02*
X237864Y298365D01*
X237031D01*
X236614Y297949D01*
Y296283D01*
X237031Y295866D01*
X237864D01*
X238280Y296283D01*
X240779Y295866D02*
X239113D01*
X240779Y297532D01*
Y297949D01*
X240363Y298365D01*
X239530D01*
X239113Y297949D01*
X241613Y298365D02*
X243279D01*
Y297949D01*
X241613Y296283D01*
Y295866D01*
X244875Y262417D02*
X244458Y262834D01*
X243625D01*
X243209Y262417D01*
Y260751D01*
X243625Y260335D01*
X244458D01*
X244875Y260751D01*
X247374Y260335D02*
X245708D01*
X247374Y262001D01*
Y262417D01*
X246957Y262834D01*
X246124D01*
X245708Y262417D01*
X249873Y262834D02*
X249040Y262417D01*
X248207Y261584D01*
Y260751D01*
X248624Y260335D01*
X249457D01*
X249873Y260751D01*
Y261168D01*
X249457Y261584D01*
X248207D01*
X231883Y313950D02*
X231466Y314367D01*
X230633D01*
X230217Y313950D01*
Y312284D01*
X230633Y311868D01*
X231466D01*
X231883Y312284D01*
X234382Y311868D02*
X232716D01*
X234382Y313534D01*
Y313950D01*
X233965Y314367D01*
X233132D01*
X232716Y313950D01*
X235215Y311868D02*
X236048D01*
X235631D01*
Y314367D01*
X235215Y313950D01*
X230997Y368618D02*
X230580Y369035D01*
X229747D01*
X229331Y368618D01*
Y366952D01*
X229747Y366535D01*
X230580D01*
X230997Y366952D01*
X233496Y366535D02*
X231830D01*
X233496Y368202D01*
Y368618D01*
X233080Y369035D01*
X232246D01*
X231830Y368618D01*
X234329D02*
X234746Y369035D01*
X235579D01*
X235995Y368618D01*
Y366952D01*
X235579Y366535D01*
X234746D01*
X234329Y366952D01*
Y368618D01*
X340650Y321654D02*
Y324153D01*
X341899D01*
X342316Y323736D01*
Y322903D01*
X341899Y322487D01*
X340650D01*
X341483D02*
X342316Y321654D01*
X344398D02*
Y324153D01*
X343149Y322903D01*
X344815D01*
X346898Y321654D02*
Y324153D01*
X345648Y322903D01*
X347314D01*
X328642Y335531D02*
Y338031D01*
X329891D01*
X330308Y337614D01*
Y336781D01*
X329891Y336365D01*
X328642D01*
X329475D02*
X330308Y335531D01*
X331141Y337614D02*
X331557Y338031D01*
X332390D01*
X332807Y337614D01*
Y337198D01*
X332390Y336781D01*
X331974D01*
X332390D01*
X332807Y336365D01*
Y335948D01*
X332390Y335531D01*
X331557D01*
X331141Y335948D01*
X333640Y338031D02*
X335306D01*
Y337614D01*
X333640Y335948D01*
Y335531D01*
X222342Y280747D02*
X224009Y278248D01*
Y280747D02*
X222342Y278248D01*
X226508D02*
X224842D01*
X226508Y279914D01*
Y280331D01*
X226091Y280747D01*
X225258D01*
X224842Y280331D01*
X99311Y337932D02*
X100977Y335433D01*
Y337932D02*
X99311Y335433D01*
X101810Y337516D02*
X102227Y337932D01*
X103060D01*
X103476Y337516D01*
Y337099D01*
X103060Y336683D01*
X102643D01*
X103060D01*
X103476Y336266D01*
Y335850D01*
X103060Y335433D01*
X102227D01*
X101810Y335850D01*
X157768Y440272D02*
X157352Y440688D01*
X156519D01*
X156102Y440272D01*
Y438605D01*
X156519Y438189D01*
X157352D01*
X157768Y438605D01*
X160268Y440688D02*
X159435Y440272D01*
X158601Y439439D01*
Y438605D01*
X159018Y438189D01*
X159851D01*
X160268Y438605D01*
Y439022D01*
X159851Y439439D01*
X158601D01*
X161101Y440272D02*
X161517Y440688D01*
X162350D01*
X162767Y440272D01*
Y439855D01*
X162350Y439439D01*
X161934D01*
X162350D01*
X162767Y439022D01*
Y438605D01*
X162350Y438189D01*
X161517D01*
X161101Y438605D01*
X215741Y422063D02*
X215324Y422479D01*
X214491D01*
X214075Y422063D01*
Y420397D01*
X214491Y419980D01*
X215324D01*
X215741Y420397D01*
X218240Y422479D02*
X217407Y422063D01*
X216574Y421230D01*
Y420397D01*
X216990Y419980D01*
X217824D01*
X218240Y420397D01*
Y420813D01*
X217824Y421230D01*
X216574D01*
X220323Y419980D02*
Y422479D01*
X219073Y421230D01*
X220739D01*
X194374Y208851D02*
X193957Y208435D01*
Y207602D01*
X194374Y207185D01*
X196040D01*
X196457Y207602D01*
Y208435D01*
X196040Y208851D01*
X196457Y209684D02*
Y210517D01*
Y210101D01*
X193957D01*
X194374Y209684D01*
Y211767D02*
X193957Y212183D01*
Y213017D01*
X194374Y213433D01*
X196040D01*
X196457Y213017D01*
Y212183D01*
X196040Y211767D01*
X194374D01*
Y214266D02*
X193957Y214683D01*
Y215516D01*
X194374Y215932D01*
X196040D01*
X196457Y215516D01*
Y214683D01*
X196040Y214266D01*
X194374D01*
X130406Y362811D02*
X129990Y363228D01*
X129157D01*
X128740Y362811D01*
Y361145D01*
X129157Y360728D01*
X129990D01*
X130406Y361145D01*
X131239Y360728D02*
X132072D01*
X131656D01*
Y363228D01*
X131239Y362811D01*
X133322D02*
X133739Y363228D01*
X134572D01*
X134988Y362811D01*
Y361145D01*
X134572Y360728D01*
X133739D01*
X133322Y361145D01*
Y362811D01*
X137487Y363228D02*
X136654Y362811D01*
X135821Y361978D01*
Y361145D01*
X136238Y360728D01*
X137071D01*
X137487Y361145D01*
Y361561D01*
X137071Y361978D01*
X135821D01*
X164142Y413312D02*
X163742Y412912D01*
Y412113D01*
X164142Y411713D01*
X165742D01*
X166142Y412113D01*
Y412912D01*
X165742Y413312D01*
X166142Y414112D02*
Y414912D01*
Y414512D01*
X163742D01*
X164142Y414112D01*
Y416111D02*
X163742Y416511D01*
Y417311D01*
X164142Y417711D01*
X165742D01*
X166142Y417311D01*
Y416511D01*
X165742Y416111D01*
X164142D01*
X163742Y418510D02*
Y420110D01*
X164142D01*
X165742Y418510D01*
X166142D01*
X141815Y424796D02*
X141399Y424379D01*
Y423547D01*
X141815Y423130D01*
X143481D01*
X143898Y423547D01*
Y424379D01*
X143481Y424796D01*
X143898Y425629D02*
Y426462D01*
Y426046D01*
X141399D01*
X141815Y425629D01*
Y427712D02*
X141399Y428128D01*
Y428961D01*
X141815Y429378D01*
X143481D01*
X143898Y428961D01*
Y428128D01*
X143481Y427712D01*
X141815D01*
Y430211D02*
X141399Y430627D01*
Y431461D01*
X141815Y431877D01*
X142232D01*
X142648Y431461D01*
X143065Y431877D01*
X143481D01*
X143898Y431461D01*
Y430627D01*
X143481Y430211D01*
X143065D01*
X142648Y430627D01*
X142232Y430211D01*
X141815D01*
X142648Y430627D02*
Y431461D01*
X150083Y424993D02*
X149666Y424576D01*
Y423743D01*
X150083Y423327D01*
X151749D01*
X152165Y423743D01*
Y424576D01*
X151749Y424993D01*
X152165Y425826D02*
Y426659D01*
Y426242D01*
X149666D01*
X150083Y425826D01*
Y427909D02*
X149666Y428325D01*
Y429158D01*
X150083Y429575D01*
X151749D01*
X152165Y429158D01*
Y428325D01*
X151749Y427909D01*
X150083D01*
X151749Y430408D02*
X152165Y430824D01*
Y431657D01*
X151749Y432074D01*
X150083D01*
X149666Y431657D01*
Y430824D01*
X150083Y430408D01*
X150499D01*
X150916Y430824D01*
Y432074D01*
X316036Y291748D02*
X315620Y292164D01*
X314787D01*
X314370Y291748D01*
Y290082D01*
X314787Y289665D01*
X315620D01*
X316036Y290082D01*
X318535Y289665D02*
X316869D01*
X318535Y291332D01*
Y291748D01*
X318119Y292164D01*
X317286D01*
X316869Y291748D01*
X319369D02*
X319785Y292164D01*
X320618D01*
X321035Y291748D01*
Y290082D01*
X320618Y289665D01*
X319785D01*
X319369Y290082D01*
Y291748D01*
X321868D02*
X322284Y292164D01*
X323117D01*
X323534Y291748D01*
Y290082D01*
X323117Y289665D01*
X322284D01*
X321868Y290082D01*
Y291748D01*
X296949Y329566D02*
Y327067D01*
X298198D01*
X298615Y327484D01*
Y329150D01*
X298198Y329566D01*
X296949D01*
X299448D02*
X301114D01*
Y329150D01*
X299448Y327484D01*
Y327067D01*
X301947D02*
X302780D01*
X302364D01*
Y329566D01*
X301947Y329150D01*
X112932Y432221D02*
Y429721D01*
X114181D01*
X114598Y430138D01*
Y431804D01*
X114181Y432221D01*
X112932D01*
X115431Y429721D02*
X116264D01*
X115847D01*
Y432221D01*
X115431Y431804D01*
X117514D02*
X117930Y432221D01*
X118763D01*
X119180Y431804D01*
Y430138D01*
X118763Y429721D01*
X117930D01*
X117514Y430138D01*
Y431804D01*
X120013D02*
X120429Y432221D01*
X121262D01*
X121679Y431804D01*
Y430138D01*
X121262Y429721D01*
X120429D01*
X120013Y430138D01*
Y431804D01*
X102749Y412145D02*
X101916D01*
X102332D01*
Y410062D01*
X101916Y409646D01*
X101499D01*
X101083Y410062D01*
X103582Y409646D02*
X104415D01*
X103998D01*
Y412145D01*
X103582Y411728D01*
X105665D02*
X106081Y412145D01*
X106914D01*
X107331Y411728D01*
Y410062D01*
X106914Y409646D01*
X106081D01*
X105665Y410062D01*
Y411728D01*
X195072Y386440D02*
Y388106D01*
X194655Y388523D01*
X193822D01*
X193405Y388106D01*
Y386440D01*
X193822Y386024D01*
X194655D01*
X194239Y386857D02*
X195072Y386024D01*
X194655D02*
X195072Y386440D01*
X197154Y386024D02*
Y388523D01*
X195905Y387273D01*
X197571D01*
X198404Y388106D02*
X198820Y388523D01*
X199653D01*
X200070Y388106D01*
Y386440D01*
X199653Y386024D01*
X198820D01*
X198404Y386440D01*
Y388106D01*
X195958Y359275D02*
Y360941D01*
X195541Y361357D01*
X194708D01*
X194291Y360941D01*
Y359275D01*
X194708Y358858D01*
X195541D01*
X195124Y359691D02*
X195958Y358858D01*
X195541D02*
X195958Y359275D01*
X198040Y358858D02*
Y361357D01*
X196791Y360108D01*
X198457D01*
X199290Y358858D02*
X200123D01*
X199706D01*
Y361357D01*
X199290Y360941D01*
X203248Y371260D02*
Y373759D01*
X204498D01*
X204914Y373342D01*
Y372509D01*
X204498Y372093D01*
X203248D01*
X204081D02*
X204914Y371260D01*
X207413Y373759D02*
X206580Y373342D01*
X205747Y372509D01*
Y371676D01*
X206164Y371260D01*
X206997D01*
X207413Y371676D01*
Y372093D01*
X206997Y372509D01*
X205747D01*
X208246Y373342D02*
X208663Y373759D01*
X209496D01*
X209912Y373342D01*
Y371676D01*
X209496Y371260D01*
X208663D01*
X208246Y371676D01*
Y373342D01*
X183563Y379134D02*
X181064D01*
Y380383D01*
X181480Y380800D01*
X182313D01*
X182730Y380383D01*
Y379134D01*
Y379967D02*
X183563Y380800D01*
X181064Y383299D02*
X181480Y382466D01*
X182313Y381633D01*
X183147D01*
X183563Y382050D01*
Y382883D01*
X183147Y383299D01*
X182730D01*
X182313Y382883D01*
Y381633D01*
X183563Y384132D02*
Y384965D01*
Y384549D01*
X181064D01*
X181480Y384132D01*
X171063Y389075D02*
Y391574D01*
X172313D01*
X172729Y391158D01*
Y390324D01*
X172313Y389908D01*
X171063D01*
X171896D02*
X172729Y389075D01*
X175228Y391574D02*
X174395Y391158D01*
X173562Y390324D01*
Y389491D01*
X173979Y389075D01*
X174812D01*
X175228Y389491D01*
Y389908D01*
X174812Y390324D01*
X173562D01*
X176061Y391158D02*
X176478Y391574D01*
X177311D01*
X177727Y391158D01*
Y390741D01*
X177311Y390324D01*
X176894D01*
X177311D01*
X177727Y389908D01*
Y389491D01*
X177311Y389075D01*
X176478D01*
X176061Y389491D01*
X182972Y406201D02*
Y408700D01*
X184222D01*
X184639Y408283D01*
Y407450D01*
X184222Y407034D01*
X182972D01*
X183806D02*
X184639Y406201D01*
X187138Y408700D02*
X186305Y408283D01*
X185472Y407450D01*
Y406617D01*
X185888Y406201D01*
X186721D01*
X187138Y406617D01*
Y407034D01*
X186721Y407450D01*
X185472D01*
X189220Y406201D02*
Y408700D01*
X187971Y407450D01*
X189637D01*
X312795Y221692D02*
Y219609D01*
X313212Y219193D01*
X314045D01*
X314461Y219609D01*
Y221692D01*
X316961Y219193D02*
X315295D01*
X316961Y220859D01*
Y221276D01*
X316544Y221692D01*
X315711D01*
X315295Y221276D01*
X317794D02*
X318210Y221692D01*
X319043D01*
X319460Y221276D01*
Y219609D01*
X319043Y219193D01*
X318210D01*
X317794Y219609D01*
Y221276D01*
X244094Y438720D02*
Y436637D01*
X244511Y436221D01*
X245344D01*
X245761Y436637D01*
Y438720D01*
X248260D02*
X246594D01*
Y437470D01*
X247427Y437887D01*
X247843D01*
X248260Y437470D01*
Y436637D01*
X247843Y436221D01*
X247010D01*
X246594Y436637D01*
X249093Y438303D02*
X249509Y438720D01*
X250342D01*
X250759Y438303D01*
Y436637D01*
X250342Y436221D01*
X249509D01*
X249093Y436637D01*
Y438303D01*
X125591Y411062D02*
Y408980D01*
X126007Y408563D01*
X126840D01*
X127257Y408980D01*
Y411062D01*
X129756D02*
X128923Y410646D01*
X128090Y409813D01*
Y408980D01*
X128506Y408563D01*
X129339D01*
X129756Y408980D01*
Y409396D01*
X129339Y409813D01*
X128090D01*
X130589Y410646D02*
X131006Y411062D01*
X131839D01*
X132255Y410646D01*
Y408980D01*
X131839Y408563D01*
X131006D01*
X130589Y408980D01*
Y410646D01*
X295019Y287402D02*
X292936D01*
X292520Y286985D01*
Y286152D01*
X292936Y285735D01*
X295019D01*
X292936Y284902D02*
X292520Y284486D01*
Y283653D01*
X292936Y283236D01*
X294602D01*
X295019Y283653D01*
Y284486D01*
X294602Y284902D01*
X294186D01*
X293769Y284486D01*
Y283236D01*
X294602Y282403D02*
X295019Y281987D01*
Y281154D01*
X294602Y280737D01*
X292936D01*
X292520Y281154D01*
Y281987D01*
X292936Y282403D01*
X294602D01*
X189272Y345708D02*
Y343625D01*
X189688Y343209D01*
X190521D01*
X190938Y343625D01*
Y345708D01*
X191771Y343625D02*
X192187Y343209D01*
X193020D01*
X193437Y343625D01*
Y345291D01*
X193020Y345708D01*
X192187D01*
X191771Y345291D01*
Y344875D01*
X192187Y344458D01*
X193437D01*
X194270Y343209D02*
X195103D01*
X194687D01*
Y345708D01*
X194270Y345291D01*
X235335Y190787D02*
Y188704D01*
X235751Y188287D01*
X236584D01*
X237001Y188704D01*
Y190787D01*
X237834Y188287D02*
X238667D01*
X238250D01*
Y190787D01*
X237834Y190370D01*
X241166Y188287D02*
Y190787D01*
X239916Y189537D01*
X241583D01*
X242416Y190370D02*
X242832Y190787D01*
X243665D01*
X244082Y190370D01*
Y188704D01*
X243665Y188287D01*
X242832D01*
X242416Y188704D01*
Y190370D01*
X295571Y187539D02*
Y185039D01*
X296820D01*
X297237Y185456D01*
Y187122D01*
X296820Y187539D01*
X295571D01*
X298070Y185456D02*
X298487Y185039D01*
X299320D01*
X299736Y185456D01*
Y187122D01*
X299320Y187539D01*
X298487D01*
X298070Y187122D01*
Y186706D01*
X298487Y186289D01*
X299736D01*
X300569Y187122D02*
X300986Y187539D01*
X301819D01*
X302235Y187122D01*
Y185456D01*
X301819Y185039D01*
X300986D01*
X300569Y185456D01*
Y187122D01*
X325946Y189075D02*
X328445D01*
Y190324D01*
X328028Y190741D01*
X326362D01*
X325946Y190324D01*
Y189075D01*
X328028Y191574D02*
X328445Y191990D01*
Y192824D01*
X328028Y193240D01*
X326362D01*
X325946Y192824D01*
Y191990D01*
X326362Y191574D01*
X326779D01*
X327195Y191990D01*
Y193240D01*
X328445Y194073D02*
Y194906D01*
Y194490D01*
X325946D01*
X326362Y194073D01*
X245828Y330315D02*
X248327D01*
Y331565D01*
X247910Y331981D01*
X246244D01*
X245828Y331565D01*
Y330315D01*
X246244Y332814D02*
X245828Y333231D01*
Y334064D01*
X246244Y334480D01*
X246661D01*
X247077Y334064D01*
Y333647D01*
Y334064D01*
X247494Y334480D01*
X247910D01*
X248327Y334064D01*
Y333231D01*
X247910Y332814D01*
X246244Y335313D02*
X245828Y335730D01*
Y336563D01*
X246244Y336980D01*
X247910D01*
X248327Y336563D01*
Y335730D01*
X247910Y335313D01*
X246244D01*
X206004Y437143D02*
Y434744D01*
X207204D01*
X207603Y435144D01*
Y435544D01*
X207204Y435944D01*
X206004D01*
X207204D01*
X207603Y436344D01*
Y436743D01*
X207204Y437143D01*
X206004D01*
X208403Y434744D02*
X209203D01*
X208803D01*
Y437143D01*
X208403Y436743D01*
X167815Y436750D02*
Y434350D01*
X169015D01*
X169414Y434750D01*
Y435150D01*
X169015Y435550D01*
X167815D01*
X169015D01*
X169414Y435950D01*
Y436350D01*
X169015Y436750D01*
X167815D01*
X171814Y434350D02*
X170214D01*
X171814Y435950D01*
Y436350D01*
X171414Y436750D01*
X170614D01*
X170214Y436350D01*
X306874Y311017D02*
X306457Y310600D01*
Y309767D01*
X306874Y309350D01*
X308540D01*
X308957Y309767D01*
Y310600D01*
X308540Y311017D01*
X306457Y311850D02*
Y313516D01*
X306874D01*
X308540Y311850D01*
X308957D01*
X306874Y314349D02*
X306457Y314765D01*
Y315598D01*
X306874Y316015D01*
X308540D01*
X308957Y315598D01*
Y314765D01*
X308540Y314349D01*
X306874D01*
X306677Y320465D02*
X306261Y320049D01*
Y319216D01*
X306677Y318799D01*
X308343D01*
X308760Y319216D01*
Y320049D01*
X308343Y320465D01*
X306261Y321298D02*
Y322965D01*
X306677D01*
X308343Y321298D01*
X308760D01*
Y323798D02*
Y324631D01*
Y324214D01*
X306261D01*
X306677Y323798D01*
X375879Y268936D02*
X375046D01*
X375462D01*
Y266853D01*
X375046Y266437D01*
X374629D01*
X374213Y266853D01*
X376712Y268520D02*
X377128Y268936D01*
X377961D01*
X378378Y268520D01*
Y268103D01*
X377961Y267687D01*
X378378Y267270D01*
Y266853D01*
X377961Y266437D01*
X377128D01*
X376712Y266853D01*
Y267270D01*
X377128Y267687D01*
X376712Y268103D01*
Y268520D01*
X377128Y267687D02*
X377961D01*
X375583Y393050D02*
X374750D01*
X375167D01*
Y390968D01*
X374750Y390551D01*
X374334D01*
X373917Y390968D01*
X376416D02*
X376833Y390551D01*
X377666D01*
X378083Y390968D01*
Y392634D01*
X377666Y393050D01*
X376833D01*
X376416Y392634D01*
Y392217D01*
X376833Y391801D01*
X378083D01*
X176605Y258313D02*
X176188Y258730D01*
X175355D01*
X174939Y258313D01*
Y256647D01*
X175355Y256231D01*
X176188D01*
X176605Y256647D01*
X177438Y258313D02*
X177854Y258730D01*
X178687D01*
X179104Y258313D01*
Y257897D01*
X178687Y257480D01*
X179104Y257064D01*
Y256647D01*
X178687Y256231D01*
X177854D01*
X177438Y256647D01*
Y257064D01*
X177854Y257480D01*
X177438Y257897D01*
Y258313D01*
X177854Y257480D02*
X178687D01*
X179937Y256231D02*
X180770D01*
X180353D01*
Y258730D01*
X179937Y258313D01*
X252415Y239714D02*
X251998Y239297D01*
Y238464D01*
X252415Y238048D01*
X254081D01*
X254498Y238464D01*
Y239297D01*
X254081Y239714D01*
X254498Y240547D02*
Y241380D01*
Y240963D01*
X251998D01*
X252415Y240547D01*
Y242630D02*
X251998Y243046D01*
Y243879D01*
X252415Y244296D01*
X252832D01*
X253248Y243879D01*
X253665Y244296D01*
X254081D01*
X254498Y243879D01*
Y243046D01*
X254081Y242630D01*
X253665D01*
X253248Y243046D01*
X252832Y242630D01*
X252415D01*
X253248Y243046D02*
Y243879D01*
X254498Y246795D02*
Y245129D01*
X252832Y246795D01*
X252415D01*
X251998Y246378D01*
Y245545D01*
X252415Y245129D01*
X104857Y304756D02*
X104332Y304232D01*
Y303182D01*
X104857Y302658D01*
X105381D01*
X105906Y303182D01*
Y304232D01*
X106431Y304756D01*
X106956D01*
X107480Y304232D01*
Y303182D01*
X106956Y302658D01*
X107480Y305806D02*
Y306856D01*
Y306331D01*
X104332D01*
X104857Y305806D01*
D101*
X315964Y206991D02*
X315612Y207839D01*
X314764Y208190D01*
X313915Y207839D01*
X313564Y206991D01*
D102*
X277618Y257185D02*
X276831D01*
X277618D01*
X121266Y428245D02*
X120479D01*
X121266D01*
X248327Y409213D02*
X247539D01*
X248327D01*
X231488Y330748D02*
X230701D01*
X231488D01*
X315256Y332677D02*
X314469D01*
X315256D01*
X257370Y294153D02*
X256583D01*
X257370D01*
X238189Y350098D02*
X237402D01*
X238189D01*
X180709Y407283D02*
X180165Y408032D01*
X179284Y407746D01*
Y406821D01*
X180165Y406535D01*
X180709Y407283D01*
X199311Y407087D02*
X198767Y407835D01*
X197887Y407549D01*
Y406624D01*
X198767Y406338D01*
X199311Y407087D01*
X120728Y383051D02*
X119941D01*
X120728D01*
X199016Y210335D02*
X198228D01*
X199016D01*
X182382Y189272D02*
Y204232D01*
X189665Y189272D02*
Y190453D01*
Y203051D02*
Y204232D01*
X169980Y203051D02*
Y204232D01*
Y189272D02*
Y190453D01*
Y189272D02*
X189665D01*
X169980Y204232D02*
X189665D01*
X180020Y291634D02*
Y294390D01*
Y277067D02*
Y279823D01*
X183563Y291634D02*
Y294390D01*
Y277067D02*
Y279823D01*
X176279Y292224D02*
Y294193D01*
X175394Y293209D02*
X177362D01*
X207579Y291634D02*
Y294390D01*
Y277067D02*
Y279823D01*
X180020Y294390D02*
X207579D01*
X180020Y277067D02*
X207579D01*
X269291Y302776D02*
X278248D01*
X269291D02*
Y321378D01*
X278248Y302776D02*
Y321378D01*
X269291D02*
X278248D01*
X324114Y224803D02*
Y233268D01*
X333071D01*
Y224803D02*
Y233268D01*
X324114Y224803D02*
X333071D01*
X233465Y282283D02*
Y307087D01*
X214567Y282283D02*
X233465D01*
X214567Y307087D02*
X233465D01*
X214567Y282283D02*
Y307087D01*
X156102Y246358D02*
X164961D01*
Y205413D02*
Y246358D01*
X156102Y205413D02*
X164961D01*
X92709Y264280D02*
X103535D01*
Y334358D01*
X92709Y264280D02*
Y334358D01*
X103535D01*
X331496Y377894D02*
X342323D01*
Y408898D01*
X331496Y377894D02*
Y408898D01*
X342323D01*
X187978Y205878D02*
Y209252D01*
X189665Y207565D02*
X186292D01*
X221780Y407537D02*
Y410236D01*
X223130Y408887D02*
X220431D01*
X222961Y378108D02*
Y380807D01*
X224311Y379457D02*
X221612D01*
X109407Y335601D02*
X112106D01*
X110757Y334252D02*
Y336951D01*
X184703Y319657D02*
X187402D01*
X186052Y318307D02*
Y321006D01*
X290916Y304175D02*
Y301476D01*
X289567Y302826D02*
X292266D01*
X311544Y257045D02*
Y259744D01*
X312894Y258395D02*
X310195D01*
X323987Y257423D02*
Y254724D01*
X322638Y256074D02*
X325337D01*
X230737Y362557D02*
Y365256D01*
X232087Y363906D02*
X229387D01*
X236052Y307832D02*
Y310531D01*
X237402Y309182D02*
X234702D01*
X259674Y299958D02*
Y302658D01*
X261024Y301308D02*
X258325D01*
X260265Y269151D02*
Y271850D01*
X261614Y270501D02*
X258915D01*
D103*
X133817Y406819D02*
X134008Y405862D01*
X134549Y405051D01*
X135361Y404509D01*
X136317Y404319D01*
X137274Y404509D01*
X138085Y405051D01*
X138627Y405862D01*
X138817Y406819D01*
X129852Y407018D02*
X128992Y406490D01*
X128756Y405510D01*
X142580Y365619D02*
X143641Y366058D01*
X144080Y367119D01*
X144079Y405531D02*
X143747Y406350D01*
X143051Y406894D01*
X142175Y407018D01*
X128756Y366716D02*
X129283Y365856D01*
X130264Y365620D01*
X144080Y367119D02*
Y405519D01*
X128755Y366725D02*
Y405519D01*
X130255Y365619D02*
X142580D01*
X138817Y407019D02*
X142136D01*
X129861D02*
X133817D01*
D104*
X260827Y323248D02*
X260089Y323674D01*
Y322822D01*
X260827Y323248D01*
X294882Y221358D02*
X294094D01*
X294882D01*
X331791Y226575D02*
X331053Y227001D01*
Y226149D01*
X331791Y226575D01*
X175886Y208268D02*
X175148Y208694D01*
Y207841D01*
X175886Y208268D01*
D105*
X272079Y320895D02*
X272534Y320126D01*
X273309Y319681D01*
X274203Y319673D01*
X274985Y320107D01*
X275453Y320868D01*
X372027Y293415D02*
Y297451D01*
X366318Y293415D02*
X372027D01*
Y303159D02*
Y306900D01*
X366318D02*
X372027D01*
X372736Y332677D02*
Y336713D01*
X367028Y332677D02*
X372736D01*
Y342421D02*
Y346161D01*
X367028D02*
X372736D01*
X200886Y295853D02*
Y299889D01*
X195177Y295853D02*
X200886D01*
Y305598D02*
Y309338D01*
X195177D02*
X200886D01*
X167283Y331244D02*
Y347244D01*
X151134Y331197D02*
Y347197D01*
X161614Y309252D02*
Y314764D01*
X156398Y320079D02*
X161614Y314764D01*
X128937Y320079D02*
X156398D01*
X128937Y309252D02*
Y320079D01*
Y287402D02*
Y298228D01*
Y287402D02*
X156398D01*
X161614Y292717D02*
Y298228D01*
X156398Y287402D02*
X161614Y292717D01*
X186673Y220650D02*
Y275650D01*
X241673Y220650D02*
Y275650D01*
X186673Y220650D02*
X241673D01*
X186673Y275650D02*
X241673D01*
X125295Y250295D02*
Y285728D01*
X172539Y250295D02*
Y285728D01*
X125295Y250295D02*
X172539D01*
X125295Y285728D02*
X172539D01*
X214665Y295472D02*
X216535D01*
Y292913D02*
Y295472D01*
X214764Y292913D02*
X216535D01*
X103740Y223622D02*
Y259055D01*
X91929Y223622D02*
Y259055D01*
Y223622D02*
X103740D01*
X91929Y259055D02*
X103740D01*
X148039Y331150D02*
Y347150D01*
X131890Y331102D02*
Y347102D01*
X107776Y254232D02*
X121555D01*
X107776Y301476D02*
X121555D01*
Y254232D02*
Y301476D01*
X107776Y254232D02*
Y301476D01*
X105217Y212697D02*
X120965D01*
X105217Y248130D02*
X120965D01*
Y212697D02*
Y248130D01*
X105217Y212697D02*
Y248130D01*
X336383Y368251D02*
Y370351D01*
X335858Y370875D01*
X334808D01*
X334283Y370351D01*
Y368251D01*
X334808Y367727D01*
X335858D01*
X335333Y368776D02*
X336383Y367727D01*
X335858D02*
X336383Y368251D01*
X337432Y370351D02*
X337957Y370875D01*
X339006D01*
X339531Y370351D01*
Y369826D01*
X339006Y369301D01*
X339531Y368776D01*
Y368251D01*
X339006Y367727D01*
X337957D01*
X337432Y368251D01*
Y368776D01*
X337957Y369301D01*
X337432Y369826D01*
Y370351D01*
X337957Y369301D02*
X339006D01*
X340581Y367727D02*
X341630D01*
X341105D01*
Y370875D01*
X340581Y370351D01*
X165835Y310705D02*
Y315846D01*
X168405Y313276D02*
X163264D01*
X349214Y187697D02*
X352363D01*
X353937Y189271D01*
X352363Y190845D01*
X349214D01*
X350788Y192420D02*
Y193207D01*
X351576D01*
Y192420D01*
X350788D01*
X353150D02*
Y193207D01*
X353937D01*
Y192420D01*
X353150D01*
X350001Y201078D02*
X349214Y201866D01*
Y203440D01*
X350001Y204227D01*
X350788D01*
X351576Y203440D01*
Y202653D01*
Y203440D01*
X352363Y204227D01*
X353150D01*
X353937Y203440D01*
Y201866D01*
X353150Y201078D01*
X353937Y205801D02*
X353150D01*
Y206588D01*
X353937D01*
Y205801D01*
X349214Y212886D02*
Y209737D01*
X351576D01*
X350788Y211311D01*
Y212098D01*
X351576Y212886D01*
X353150D01*
X353937Y212098D01*
Y210524D01*
X353150Y209737D01*
D106*
X295114Y218862D02*
X303114D01*
X295114Y210862D02*
X303114D01*
X247224Y220374D02*
Y232177D01*
X287224D01*
Y220374D02*
Y232177D01*
X202201Y377594D02*
Y385595D01*
X210201Y377594D02*
Y385595D01*
X192287Y378480D02*
Y386480D01*
X184287Y378480D02*
Y386480D01*
X190805Y395532D02*
Y399031D01*
Y395532D02*
X193805D01*
X199305D02*
X202305D01*
Y399031D01*
X202403Y368094D02*
Y371595D01*
X199404D02*
X202403D01*
X190903D02*
X193904D01*
X190903Y368094D02*
Y371595D01*
X117260Y365364D02*
X125260D01*
X117260Y357864D02*
X125260D01*
X158106Y389138D02*
X166106D01*
X158106Y381138D02*
X166106D01*
X158205Y406756D02*
X166205D01*
X158205Y398756D02*
X166205D01*
X158106Y389898D02*
X166106D01*
X158106Y397898D02*
X166106D01*
X158205Y372378D02*
X166205D01*
X158205Y380378D02*
X166205D01*
X186972Y394721D02*
Y402720D01*
X178972Y394721D02*
Y402720D01*
X205256Y326535D02*
X219902D01*
X205256Y352992D02*
X219902D01*
Y326535D02*
Y327559D01*
Y352008D02*
Y352992D01*
X205256Y347126D02*
Y352992D01*
Y326535D02*
Y332835D01*
X327854Y297638D02*
Y326378D01*
X309744Y297638D02*
Y326378D01*
X268169Y298366D02*
X282815D01*
X268169Y271909D02*
X282815D01*
X268169Y297342D02*
Y298366D01*
Y271909D02*
Y272894D01*
X282815Y271909D02*
Y277776D01*
Y292067D02*
Y298366D01*
X178606Y394819D02*
Y402819D01*
X170606Y394819D02*
Y402819D01*
X294705Y330953D02*
X295205Y331453D01*
X294205D02*
X295205D01*
X294205D02*
X294705Y330953D01*
X289205Y324953D02*
Y330953D01*
X281594Y324606D02*
X292815D01*
X281594Y331299D02*
X292815D01*
X313323Y198165D02*
X321323D01*
X313323Y206165D02*
X321323D01*
X295902D02*
X303902D01*
X295902Y198165D02*
X303902D01*
X301772Y188189D02*
Y196063D01*
X296850Y188189D02*
X304724D01*
X296850Y196063D02*
X304724D01*
Y198031D01*
Y186221D02*
Y188189D01*
X321457Y186122D02*
Y188091D01*
Y195965D02*
Y197933D01*
X313583Y195965D02*
X321457D01*
X313583Y188091D02*
X321457D01*
X318504D02*
Y195965D01*
X244931Y325837D02*
Y342864D01*
X230660Y325837D02*
Y342864D01*
Y325837D02*
X232362D01*
X243228D02*
X244931D01*
X230660Y342864D02*
X232362D01*
X243228D02*
X244931D01*
X295016Y323829D02*
X303016D01*
X295016Y316329D02*
X303016D01*
X295213Y316348D02*
X303213D01*
X295213Y308848D02*
X303213D01*
X111632Y422733D02*
X112026D01*
X111632Y417221D02*
X112026D01*
X123207Y422733D02*
X123601D01*
X123207Y417221D02*
X123601D01*
X111632D02*
Y422733D01*
X123601Y417221D02*
Y422733D01*
X138868Y411256D02*
Y419256D01*
X146368Y411256D02*
Y419256D01*
X147037Y411256D02*
Y419256D01*
X154537Y411256D02*
Y419256D01*
X155502Y426512D02*
Y434512D01*
X163002Y426512D02*
Y434512D01*
X186417Y413189D02*
Y436811D01*
X172638Y413189D02*
Y436811D01*
X205020Y412992D02*
Y436614D01*
X191240Y412992D02*
Y436614D01*
X155207Y411256D02*
Y419256D01*
X162707Y411256D02*
Y419256D01*
X212831Y419006D02*
X220831D01*
X212831Y411506D02*
X220831D01*
X322736Y413150D02*
Y438740D01*
X251870D02*
X322736D01*
X251870Y413150D02*
Y438740D01*
X322736Y338347D02*
Y340905D01*
X313090Y338347D02*
X322736D01*
X251870D02*
X261516D01*
X251870D02*
Y340905D01*
X379921Y331988D02*
X381890D01*
X389764D02*
X391732D01*
X389764D02*
Y339862D01*
X381890Y331988D02*
Y339862D01*
Y334941D02*
X389764D01*
X379921Y284154D02*
X381890D01*
X389764D02*
X391732D01*
X389764D02*
Y292028D01*
X381890Y284154D02*
Y292028D01*
Y287106D02*
X389764D01*
X389764Y315354D02*
X391732D01*
X379921D02*
X381890D01*
Y307480D02*
Y315354D01*
X389764Y307480D02*
Y315354D01*
X381890Y312402D02*
X389764D01*
X201181Y192028D02*
X207087Y186122D01*
X233858D01*
X207087Y218799D02*
X233858D01*
X201181Y212894D02*
X207087Y218799D01*
X201181Y208642D02*
Y212894D01*
Y192028D02*
Y196280D01*
X233858Y208642D02*
Y218799D01*
Y186122D02*
Y196280D01*
X154823Y389764D02*
X152324D01*
Y391013D01*
X152740Y391430D01*
X153573D01*
X153990Y391013D01*
Y389764D01*
Y390597D02*
X154823Y391430D01*
Y392263D02*
Y393096D01*
Y392680D01*
X152324D01*
X152740Y392263D01*
X154823Y396012D02*
Y394346D01*
X153157Y396012D01*
X152740D01*
X152324Y395595D01*
Y394762D01*
X152740Y394346D01*
X154823Y398511D02*
Y396845D01*
X153157Y398511D01*
X152740D01*
X152324Y398094D01*
Y397261D01*
X152740Y396845D01*
D107*
X254291Y255394D02*
X280157D01*
X254291Y233161D02*
Y255394D01*
X244902Y233161D02*
X254291D01*
X244902Y188130D02*
Y233161D01*
Y188130D02*
X289547D01*
Y233161D01*
X280157D02*
X289547D01*
X280157D02*
Y255394D01*
D108*
X127298Y343196D02*
Y344796D01*
X122898D02*
X127298D01*
X122898Y343196D02*
Y344796D01*
Y343196D02*
X127298D01*
X121358Y350295D02*
X128839D01*
X121358Y337894D02*
Y350295D01*
X128839Y337894D02*
Y350295D01*
X121358Y337697D02*
X128839D01*
X350578Y316964D02*
X352178D01*
X350578Y312564D02*
Y316964D01*
Y312564D02*
X352178D01*
Y316964D01*
X345079Y311024D02*
Y318504D01*
Y311024D02*
X357480D01*
X345079Y318504D02*
X357480D01*
X357677Y311024D02*
Y318504D01*
X364259Y312367D02*
X365859D01*
Y316767D01*
X364259D02*
X365859D01*
X364259Y312367D02*
Y316767D01*
X371358Y310827D02*
Y318307D01*
X358957D02*
X371358D01*
X358957Y310827D02*
X371358D01*
X358760D02*
Y318307D01*
X347758Y301562D02*
Y303162D01*
X343358D02*
X347758D01*
X343358Y301562D02*
Y303162D01*
Y301562D02*
X347758D01*
X341818Y308661D02*
X349298D01*
X341818Y296260D02*
Y308661D01*
X349298Y296260D02*
Y308661D01*
X341818Y296063D02*
X349298D01*
X356420Y301562D02*
Y303162D01*
X352020D02*
X356420D01*
X352020Y301562D02*
Y303162D01*
Y301562D02*
X356420D01*
X350480Y308661D02*
X357960D01*
X350480Y296260D02*
Y308661D01*
X357960Y296260D02*
Y308661D01*
X350480Y296063D02*
X357960D01*
X358598Y338275D02*
Y339875D01*
X354198D02*
X358598D01*
X354198Y338275D02*
Y339875D01*
Y338275D02*
X358598D01*
X352658Y345374D02*
X360138D01*
X352658Y332973D02*
Y345374D01*
X360138Y332973D02*
Y345374D01*
X352658Y332776D02*
X360138D01*
X367113Y327200D02*
X368713D01*
X367113Y322800D02*
Y327200D01*
Y322800D02*
X368713D01*
Y327200D01*
X361614Y321260D02*
Y328740D01*
Y321260D02*
X374016D01*
X361614Y328740D02*
X374016D01*
X374213Y321260D02*
Y328740D01*
X223524Y398917D02*
Y406398D01*
X210531D02*
X223524D01*
X210531Y398917D02*
X223524D01*
X210531D02*
Y406398D01*
X217728Y400157D02*
Y405158D01*
X216328Y400157D02*
Y405158D01*
X223425Y381890D02*
Y389370D01*
X210433D02*
X223425D01*
X210433Y381890D02*
X223425D01*
X210433D02*
Y389370D01*
X217629Y383130D02*
Y388130D01*
X216229Y383130D02*
Y388130D01*
X223425Y390158D02*
Y397638D01*
X210433D02*
X223425D01*
X210433Y390158D02*
X223425D01*
X210433D02*
Y397638D01*
X217629Y391398D02*
Y396398D01*
X216229Y391398D02*
Y396398D01*
X224213Y390354D02*
Y397835D01*
Y390354D02*
X237205D01*
X224213Y397835D02*
X237205D01*
Y390354D02*
Y397835D01*
X230009Y391595D02*
Y396595D01*
X231409Y391595D02*
Y396595D01*
X224213Y382087D02*
Y389567D01*
Y382087D02*
X237205D01*
X224213Y389567D02*
X237205D01*
Y382087D02*
Y389567D01*
X230009Y383327D02*
Y388327D01*
X231409Y383327D02*
Y388327D01*
X224508Y398721D02*
Y406201D01*
Y398721D02*
X237500D01*
X224508Y406201D02*
X237500D01*
Y398721D02*
Y406201D01*
X230304Y399961D02*
Y404961D01*
X231704Y399961D02*
Y404961D01*
X112795Y337697D02*
X120276D01*
Y350689D01*
X112795Y337697D02*
Y350689D01*
X120276D01*
X114035Y343493D02*
X119035D01*
X114035Y344893D02*
X119035D01*
X176969Y322047D02*
X184449D01*
Y335039D01*
X176969Y322047D02*
Y335039D01*
X184449D01*
X178209Y327843D02*
X183209D01*
X178209Y329243D02*
X183209D01*
X144095Y191929D02*
Y199409D01*
Y191929D02*
X157087D01*
X144095Y199409D02*
X157087D01*
Y191929D02*
Y199409D01*
X149891Y193169D02*
Y198169D01*
X151291Y193169D02*
Y198169D01*
X365413Y286133D02*
X370413D01*
X365413Y284733D02*
X370413D01*
X364173Y291929D02*
X371654D01*
X364173Y278937D02*
Y291929D01*
X371654Y278937D02*
Y291929D01*
X364173Y278937D02*
X371654D01*
X198708Y317640D02*
X200308D01*
X198708Y313240D02*
Y317640D01*
Y313240D02*
X200308D01*
Y317640D01*
X193209Y311700D02*
Y319180D01*
Y311700D02*
X205610D01*
X193209Y319180D02*
X205610D01*
X205807Y311700D02*
Y319180D01*
X179220Y300556D02*
X180820D01*
Y304956D01*
X179220D02*
X180820D01*
X179220Y300556D02*
Y304956D01*
X186319Y299016D02*
Y306496D01*
X173917D02*
X186319D01*
X173917Y299016D02*
X186319D01*
X173721D02*
Y306496D01*
X122898Y326562D02*
Y328162D01*
Y326562D02*
X127298D01*
Y328162D01*
X122898D02*
X127298D01*
X121358Y321063D02*
X128839D01*
Y333465D01*
X121358Y321063D02*
Y333465D01*
Y333661D02*
X128839D01*
X174542Y327645D02*
Y329245D01*
X170142D02*
X174542D01*
X170142Y327645D02*
Y329245D01*
Y327645D02*
X174542D01*
X168602Y334744D02*
X176083D01*
X168602Y322342D02*
Y334744D01*
X176083Y322342D02*
Y334744D01*
X168602Y322146D02*
X176083D01*
X175822Y349495D02*
Y351095D01*
X171422D02*
X175822D01*
X171422Y349495D02*
Y351095D01*
Y349495D02*
X175822D01*
X169882Y356594D02*
X177362D01*
X169882Y344193D02*
Y356594D01*
X177362Y344193D02*
Y356594D01*
X169882Y343996D02*
X177362D01*
X305413Y301378D02*
Y308858D01*
X292421D02*
X305413D01*
X292421Y301378D02*
X305413D01*
X292421D02*
Y308858D01*
X299617Y302618D02*
Y307618D01*
X298217Y302618D02*
Y307618D01*
X292323Y293307D02*
Y300787D01*
Y293307D02*
X305315D01*
X292323Y300787D02*
X305315D01*
Y293307D02*
Y300787D01*
X298119Y294547D02*
Y299547D01*
X299519Y294547D02*
Y299547D01*
X255448Y320952D02*
Y322552D01*
X251048D02*
X255448D01*
X251048Y320952D02*
Y322552D01*
Y320952D02*
X255448D01*
X249508Y328051D02*
X256988D01*
X249508Y315650D02*
Y328051D01*
X256988Y315650D02*
Y328051D01*
X249508Y315453D02*
X256988D01*
X313287Y248819D02*
Y256299D01*
X300295D02*
X313287D01*
X300295Y248819D02*
X313287D01*
X300295D02*
Y256299D01*
X307491Y250059D02*
Y255059D01*
X306091Y250059D02*
Y255059D01*
X300394Y239961D02*
Y247441D01*
X300591Y239961D02*
X312992D01*
X300591Y247441D02*
X312992D01*
Y239961D02*
Y247441D01*
X305893Y241501D02*
Y245901D01*
X307493D01*
Y241501D02*
Y245901D01*
X305893Y241501D02*
X307493D01*
X334657Y236450D02*
Y243931D01*
X322058D02*
X334460D01*
X322058Y236450D02*
X334460D01*
X322058D02*
Y243931D01*
X329157Y237990D02*
Y242390D01*
X327557Y237990D02*
X329157D01*
X327557D02*
Y242390D01*
X329157D01*
X321850Y245079D02*
Y252559D01*
Y245079D02*
X334842D01*
X321850Y252559D02*
X334842D01*
Y245079D02*
Y252559D01*
X327646Y246319D02*
Y251319D01*
X329047Y246319D02*
Y251319D01*
X220658Y363839D02*
Y368839D01*
X222058Y363839D02*
Y368839D01*
X214862Y362598D02*
Y370079D01*
Y362598D02*
X227854D01*
X214862Y370079D02*
X227854D01*
Y362598D02*
Y370079D01*
X222058Y355768D02*
Y360768D01*
X220658Y355768D02*
Y360768D01*
X227854Y354528D02*
Y362008D01*
X214862D02*
X227854D01*
X214862Y354528D02*
X227854D01*
X214862D02*
Y362008D01*
X222944Y317776D02*
Y322776D01*
X221544Y317776D02*
Y322776D01*
X228740Y316535D02*
Y324016D01*
X215748D02*
X228740D01*
X215748Y316535D02*
X228740D01*
X215748D02*
Y324016D01*
X221544Y309705D02*
Y314705D01*
X222944Y309705D02*
Y314705D01*
X215748Y308465D02*
Y315945D01*
Y308465D02*
X228740D01*
X215748Y315945D02*
X228740D01*
Y308465D02*
Y315945D01*
X256988Y293996D02*
Y301476D01*
X243996D02*
X256988D01*
X243996Y293996D02*
X256988D01*
X243996D02*
Y301476D01*
X251192Y295236D02*
Y300236D01*
X249792Y295236D02*
Y300236D01*
X244094Y285925D02*
Y293406D01*
Y285925D02*
X257087D01*
X244094Y293406D02*
X257087D01*
Y285925D02*
Y293406D01*
X249890Y287165D02*
Y292165D01*
X251290Y287165D02*
Y292165D01*
X257579Y263878D02*
Y271358D01*
X244587D02*
X257579D01*
X244587Y263878D02*
X257579D01*
X244587D02*
Y271358D01*
X251783Y265118D02*
Y270118D01*
X250383Y265118D02*
Y270118D01*
X244488Y271850D02*
Y279331D01*
Y271850D02*
X257480D01*
X244488Y279331D02*
X257480D01*
Y271850D02*
Y279331D01*
X250284Y273091D02*
Y278091D01*
X251684Y273091D02*
Y278091D01*
X337205Y325492D02*
Y332972D01*
X337402Y325492D02*
X349803D01*
X337402Y332972D02*
X349803D01*
Y325492D02*
Y332972D01*
X342704Y327032D02*
Y331432D01*
X344304D01*
Y327032D02*
Y331432D01*
X342704Y327032D02*
X344304D01*
X350000Y333465D02*
Y340945D01*
X337402D02*
X349803D01*
X337402Y333465D02*
X349803D01*
X337402D02*
Y340945D01*
X344501Y335005D02*
Y339405D01*
X342901Y335005D02*
X344501D01*
X342901D02*
Y339405D01*
X344501D01*
X173819Y259941D02*
X181299D01*
Y272933D01*
X173819Y259941D02*
Y272933D01*
X181299D01*
X175059Y265737D02*
X180059D01*
X175059Y267137D02*
X180059D01*
X243406Y235728D02*
X250886D01*
Y248721D01*
X243406Y235728D02*
Y248721D01*
X250886D01*
X244646Y241524D02*
X249646D01*
X244646Y242924D02*
X249646D01*
D109*
X296063Y222539D02*
X309842D01*
X296063D02*
Y237500D01*
X309842D01*
Y222539D02*
Y237500D01*
D110*
X294488Y243996D02*
Y247145D01*
X296062D01*
X296587Y246620D01*
Y245570D01*
X296062Y245046D01*
X294488D01*
X295538D02*
X296587Y243996D01*
X297637Y244521D02*
X298162Y243996D01*
X299211D01*
X299736Y244521D01*
Y246620D01*
X299211Y247145D01*
X298162D01*
X297637Y246620D01*
Y246095D01*
X298162Y245570D01*
X299736D01*
X106922Y210793D02*
X106397Y211318D01*
X105348D01*
X104823Y210793D01*
Y208694D01*
X105348Y208169D01*
X106397D01*
X106922Y208694D01*
X110071Y211318D02*
X107971D01*
Y209744D01*
X109021Y210268D01*
X109546D01*
X110071Y209744D01*
Y208694D01*
X109546Y208169D01*
X108496D01*
X107971Y208694D01*
X104857Y267060D02*
X104332Y266535D01*
Y265485D01*
X104857Y264961D01*
X106956D01*
X107480Y265485D01*
Y266535D01*
X106956Y267060D01*
X105906D01*
Y266010D01*
X107480Y268109D02*
X104332D01*
X107480Y270208D01*
X104332D01*
Y271258D02*
X107480D01*
Y272832D01*
X106956Y273357D01*
X104857D01*
X104332Y272832D01*
Y271258D01*
X104857Y292650D02*
X104332Y292126D01*
Y291076D01*
X104857Y290551D01*
X105381D01*
X105906Y291076D01*
Y292126D01*
X106431Y292650D01*
X106956D01*
X107480Y292126D01*
Y291076D01*
X106956Y290551D01*
X107480Y295799D02*
Y293700D01*
X105381Y295799D01*
X104857D01*
X104332Y295274D01*
Y294225D01*
X104857Y293700D01*
X104824Y317060D02*
Y314961D01*
X107972D01*
Y317060D01*
X106398Y314961D02*
Y316010D01*
X107972Y318109D02*
Y319159D01*
Y318634D01*
X104824D01*
X105349Y318109D01*
X104233Y327985D02*
Y325886D01*
X107382D01*
Y327985D01*
X105808Y325886D02*
Y326935D01*
X107382Y331134D02*
Y329034D01*
X105283Y331134D01*
X104758D01*
X104233Y330609D01*
Y329559D01*
X104758Y329034D01*
X107480Y277854D02*
Y278904D01*
Y278379D01*
X104332D01*
X104857Y277854D01*
X107480Y282577D02*
Y280478D01*
X105381Y282577D01*
X104857D01*
X104332Y282052D01*
Y281003D01*
X104857Y280478D01*
X104332Y283627D02*
X106431D01*
X107480Y284676D01*
X106431Y285726D01*
X104332D01*
D111*
X110531Y302362D02*
Y304861D01*
X111781D01*
X112198Y304445D01*
Y303612D01*
X111781Y303195D01*
X110531D01*
X111365D02*
X112198Y302362D01*
X113031Y304861D02*
Y303195D01*
X113864Y302362D01*
X114697Y303195D01*
Y304861D01*
X115530Y302362D02*
X116363D01*
X115946D01*
Y304861D01*
X115530Y304445D01*
M02*
